<?xml version="1.0" encoding="utf-8"?>
<!-- Generator: Adobe Illustrator 24.0.0, SVG Export Plug-In . SVG Version: 6.00 Build 0)  -->
<svg version="1.1" id="OBJECTS" xmlns="http://www.w3.org/2000/svg" xmlns:xlink="http://www.w3.org/1999/xlink" x="0px" y="0px"
	 viewBox="0 0 500 343.8" style="enable-background:new 0 0 500 343.8;" xml:space="preserve">
<style type="text/css">
	.st0{clip-path:url(#SVGID_2_);}
	.st1{fill:#E3A096;}
	.st2{fill:#DF6F62;}
	.st3{fill:#BD493E;}
	.st4{fill:url(#SVGID_3_);}
	.st5{fill:url(#SVGID_4_);}
	.st6{fill:url(#SVGID_5_);}
	.st7{fill:url(#SVGID_6_);}
	.st8{fill:url(#SVGID_7_);}
	.st9{fill:url(#SVGID_8_);}
	.st10{fill:url(#SVGID_9_);}
	.st11{fill:url(#SVGID_10_);}
	.st12{fill:#2F4D73;}
	.st13{fill:#3A5A88;}
	.st14{fill:url(#SVGID_11_);}
	.st15{fill:url(#SVGID_12_);}
	.st16{fill:url(#SVGID_13_);}
	.st17{fill:url(#SVGID_14_);}
	.st18{fill:url(#SVGID_15_);}
	.st19{fill:url(#SVGID_16_);}
	.st20{fill:url(#SVGID_17_);}
	.st21{fill:#D7D8F4;}
	.st22{fill:#F7F7F9;}
	.st23{opacity:0.67;clip-path:url(#SVGID_2_);fill:url(#SVGID_18_);}
</style>
<g>
	<g>
		<defs>
			<path id="SVGID_1_" d="M498,0v249c-69.4,59.4-156.1,94.7-250.2,94.7c-93,0-178.8-34.5-247.8-92.6V0H498z"/>
		</defs>
		<clipPath id="SVGID_2_">
			<use xlink:href="#SVGID_1_"  style="overflow:visible;"/>
		</clipPath>
		<g class="st0">
			<path class="st1" d="M338,173.9c-1.7-4.8-4-9.7-3.1-14.7c0.9-5,6.9-9.3,11.1-6.4c2.6,1.8,3.3,5.4,5.7,7.4c3.7,3.2,9.9,1,12.3-3.2
				c2.3-4.2,1.7-9.5,0.2-14.1c-1.5-4.6-3.9-8.9-4.8-13.7c-1-4.7-0.2-10.3,3.5-13.4c3.7-3.1,10.7-2,11.9,2.7c0.5,1.9,0.1,4,1.2,5.6
				c1.8,2.6,6.2,1.4,7.8-1.2c1.6-2.7,1.5-6,1.6-9.1c0.6-14.2,9-27.8,21.4-34.6c3.8-2.1,8.6-3.6,12.5-1.6c5.7,2.9,5.7,11,4,17.1
				c-2.5,9-7.3,17.3-13.8,24c-2.7,2.9-5.8,5.5-8,8.7c-2.3,3.3-3.6,7.4-2.5,11.2c1.1,3.8,5.4,6.7,9.1,5.4c4.1-1.5,6.3-7.1,10.6-7.1
				c4.6,0.1,6.1,6.6,4.6,10.9c-2.4,6.7-8.6,11.8-15.7,12.8c-3.5,0.5-7.2,0-10.5,1.2c-3.3,1.2-6.1,5.1-4.5,8.2c1.6,3.1,6,3.1,9.3,4.3
				c6.9,2.6,8.6,13.3,2.9,18c-7.2,5.9-18.7,0.4-27.2,4.3c-5.6,2.6-8.6,8.8-10,14.8c-1.4,6-1.5,12.3-3.6,18.1
				c-2,5.8-6.6,11.4-12.8,11.9c-14.7,1.4-12-15.6-10.2-24.7C343.6,202.5,343.1,187.8,338,173.9z"/>
			<path class="st2" d="M384.7,247.7c21.2-20.3,47.4-36.3,76.3-41.4c7.9-1.4,17.5-1.4,22.3,5c3.8,5.1,2.9,12.5-0.4,18
				c-3.3,5.4-8.6,9.3-13.8,13c-11.1,8-22.2,16-33.4,24c-16,11.5-32,23-48,34.5c-14.5,10.4-30.4,26.3-46.9,33.2
				c-10,4.2-23.3-1.8-18.3-13.4c4.1-9.7,16.3-17.1,22.8-25.1C358.5,279.3,369.5,262.2,384.7,247.7z"/>
			<path class="st2" d="M141.2,183.9c-16.6-38.1-30.3-79.6-23.4-120.5c1.4-8.5,3.9-17.1,8.9-24c5.1-7,13.2-12.2,21.8-12
				c8.8,0.2,16.8,5.9,21.9,13.1c5.1,7.2,7.7,15.9,10,24.4c13,47.1,20.6,95.8,21.1,144.7c0.2,24.5-0.8,49.6-5.1,73.8
				c-4.5,25.6-19.4-13-22.1-21C165.3,235.4,152.5,209.9,141.2,183.9z"/>
			<path class="st2" d="M165.5,212.3c-15-25.2-36-47.6-62.5-60.3c-7.2-3.5-16.5-6-22.8-1.1c-5,3.9-6.2,11.3-4.4,17.4
				c1.8,6.1,5.8,11.3,9.8,16.2c8.6,10.7,17.2,21.3,25.7,32c12.4,15.4,24.7,30.7,37.1,46.1c11.2,13.9,22.3,33.4,36.3,44.5
				c8.5,6.7,22.9,4.5,21.2-8.1c-1.4-10.4-11.1-20.8-15.3-30.3C182.3,249.7,176.3,230.3,165.5,212.3z"/>
			<path class="st2" d="M251.8,237c2.1-29.3,10.8-58.7,28.7-82c4.9-6.4,12-12.8,19.9-11.2c6.2,1.2,10.6,7.3,11.8,13.6
				c1.2,6.3-0.2,12.7-1.5,18.9c-2.9,13.4-5.7,26.8-8.6,40.2c-4.1,19.3-8.3,38.6-12.4,57.8c-3.7,17.5-4.9,39.9-12.5,56.1
				c-4.6,9.8-18.4,14.3-22.6,2.3c-3.5-9.9,0.6-23.6,0.1-33.9C253.7,278,250.3,257.9,251.8,237z"/>
			<path class="st2" d="M311.5,236.7c11.4-27.1,29.2-52.1,53.7-68.3c6.7-4.4,15.5-8.2,22.4-4.2c5.5,3.2,7.7,10.4,6.8,16.7
				c-0.9,6.3-4.2,11.9-7.5,17.4c-7,11.7-14.1,23.5-21.1,35.2c-10.1,16.9-20.3,33.8-30.4,50.7c-9.2,15.3-17.5,36.2-29.9,49
				c-7.5,7.8-22.1,7.6-22.1-5.1c-0.1-10.5,8.2-22.1,11-32.1C300.1,276.1,303.4,256,311.5,236.7z"/>
			<path class="st3" d="M141.5,247.4c-21.5-6.3-42.3-15-61.8-25.9c-1.6-0.9-3.3-1.9-4.3-3.4c-1-1.5-1.2-3.8,0.1-5.1
				c0.9-0.9,2.4-1.2,3.3-2.1c1.4-1.3,1.2-3.7,0.1-5.2c-1.1-1.6-2.8-2.5-4.5-3.4c-12-6-25.8-11.6-31.3-23.8c-1.4-3.1-2.2-6.5-3.7-9.6
				c-5.6-11.2-32.2-20.3-23.2-29c7.6-7.4,19.8,8.2,27.5,15.6c5,4.7,10.2,10.7,17,10.5c2.8-0.1,5.5-1.2,8.2-0.9
				c4.9,0.6,8,5.5,10.1,10c2.1,4.5,4.4,9.6,9,11.4c3.3,1.3,7,0.5,10.5,0.9c8.2,0.9,14.2,8,19.2,14.6c8.5,11,16.9,22.1,25.4,33.1
				c4.2,5.4,8.6,12.2,6.2,18.6c-5.8-3.7-11.6-7.4-17.4-11.1"/>
			<g>
				<path class="st2" d="M415.7,226.9c26.1-32.3,50.5-68.6,54.7-109.9c0.9-8.6,0.8-17.5-2.2-25.5c-3-8.1-9.4-15.3-17.8-17.4
					c-8.5-2.2-17.8,1.2-24.6,6.8c-6.8,5.6-11.6,13.2-16.1,20.8c-25.1,41.9-45.4,86.8-58.9,133.8c-6.8,23.6-12.4,48-14.8,72.5
					c-2.5,25.8,22.2-7.4,26.9-14.4C378.8,270,397.9,248.9,415.7,226.9z"/>
				<path class="st1" d="M452.4,135.2c0-0.1,0-0.1,0-0.2c0-0.2-0.3-0.5-0.6-0.4c-0.5,0-0.6,0.1-1,0.4c-1.2,0.9-1.8,3.1-2.9,4.3
					c-2.8,3-6.2,5.6-9.5,8c-3,2.2-6,4.4-9.3,6c-1.8,0.9-3.8,1.7-5.8,2.1c-1.4,0.3-2.8,0.2-4.2,0.3c5.3-10.6,10-21.6,14.1-32.7
					c4.8-12.8,8.7-26,16.4-37.5c0.3-0.5-0.4-0.9-0.7-0.4c-6.9,9.4-10.8,20.4-14.8,31.3c-1.1,2.9-2.2,5.9-3.3,8.8
					c-2.8-2.9-3.7-7.9-4.4-11.9c-0.7-4.1-0.8-8.1-0.5-12.2c0.5,0,0.9-0.5,0.5-1c-0.2-0.2-0.4-0.5-0.6-0.7c-0.4-0.5-1.1,0-1.2,0.5
					c-0.5,5-0.3,10,0.7,14.9c0.7,3.3,1.5,8.9,4.5,10.9c0.2,0.1,0.4,0.1,0.6,0c0.1-0.1,0.2-0.1,0.4-0.2c-3.1,8.1-6.5,16.1-10.2,24
					c-5.5,11.6-11.8,22.6-18.9,33.1c-0.8-2.3-2-4.4-2.8-6.7c-0.8-2.2-1.5-4.5-2-6.9c-0.6-2.6-1-5.3-1.2-8c-0.1-0.8-0.3-8.7,0.8-8.4
					c0.4,0.1,0.7-0.3,0.5-0.7c-0.1-0.2-0.2-0.3-0.3-0.5c-0.1-0.3-0.5-0.4-0.7-0.3c-2,0.4-1.7,2.6-1.7,4.3c-0.1,3.2,0.1,6.4,0.5,9.5
					c0.8,5.9,2.5,13.6,6.4,18.3c-6.1,8.9-12.8,17.3-20.1,25.3c-9.1,9.9-19.5,19.2-26.9,30.4c-0.2,0.4,0.3,0.8,0.6,0.5
					c8.5-8.9,16.6-18.2,25-27.2c3.9-4.2,7.6-8.4,11.2-12.7c-0.1,0.3,0,0.6,0.4,0.7c6,1.1,13.7,1,19.7-0.6c0.6-0.2,0.5-1.2-0.2-1.2
					c-3.2,0-6.4,0.5-9.7,0.6c-3.2,0.1-6.5-0.2-9.7,0c-0.1,0-0.1,0-0.2,0c3.7-4.5,7.3-9.2,10.6-14c6.2-9,11.7-18.4,16.6-28.2
					c2.4,1,5.5,0.2,7.8-0.6c3.7-1.2,7-3.3,10.2-5.5c3.2-2.2,6.3-4.6,9.3-7.1c1.4-1.2,2.8-2.4,4-3.9c0.2-0.2,1.7-2.4,2.1-3.6
					c0.1,0,0.2,0,0.3-0.1c0.1,0,0.1-0.1,0.2-0.1C452.4,135.6,452.4,135.4,452.4,135.2z"/>
			</g>
			<g>
				<path class="st3" d="M342.3,340.1c22.3-2.3,44.3-7,65.5-14.2c1.7-0.6,3.6-1.2,4.8-2.6c1.3-1.3,1.9-3.5,0.8-5
					c-0.7-1.1-2.1-1.6-2.9-2.6c-1.1-1.6-0.5-3.8,0.9-5.2c1.4-1.3,3.2-1.9,5.1-2.5c12.9-3.7,27.4-6.7,35.1-17.6c2-2.8,3.3-6,5.4-8.7
					c7.5-10,35.4-14,28.1-24.2c-6.2-8.7-20.9,4.5-29.8,10.3c-5.8,3.7-11.9,8.7-18.7,7.2c-2.7-0.6-5.2-2.2-7.9-2.4
					c-5-0.3-8.9,4-11.8,8c-2.9,4-6,8.6-10.9,9.5c-3.5,0.6-7-0.8-10.5-1.1c-8.3-0.6-15.4,5.3-21.6,10.9c-10.3,9.3-20.7,18.6-31,27.9
					c-5.1,4.6-10.7,10.4-9.5,17.2c6.4-2.6,12.8-5.1,19.2-7.7"/>
				<path class="st1" d="M479.2,259.5c-18,5.8-33,17.6-48.3,28.3c-7.9,5.5-16,10.8-24.7,15c-8.9,4.3-18.2,7.6-27.3,11.3
					c1.8-2.2,3-5.4,4.7-7.6c1.2-1.6,2.5-3.1,3.8-4.5c1.2-1.3,3.6-4.2,5.4-4.4c0.4,0,0.6-0.5,0.2-0.8c-0.2-0.1-0.4-0.2-0.5-0.3
					c-0.2-0.1-0.5-0.1-0.6,0c-3.4,1.9-6.3,5.6-8.6,8.6c-2,2.6-5.1,6.2-5.4,9.6c-9.4,3.9-18.9,8.2-26.6,15c-0.5,0.4,0.2,1.2,0.7,0.9
					c8-5.6,16.4-10.1,25.4-13.9c2.1-0.9,4.2-1.7,6.2-2.5c5.6,2.3,12.7,6.1,18.6,3.1c0.4-0.2,0.1-0.6-0.3-0.6
					c-3.5,0.5-6.8,0.2-10.2-0.8c-2.4-0.7-4.7-1.6-7.1-2.2c6.2-2.5,12.5-4.8,18.6-7.6c17.3-7.8,31.9-19.7,47.6-30.2
					c9-6.1,18.5-11.6,28.8-15.2C480.1,260.2,479.8,259.3,479.2,259.5z"/>
			</g>
			<g>
				<path class="st3" d="M178.1,179.9c-4.2-5.2-9.1-9.9-15.2-12.7c-6.1-2.7-13.4-3.2-19.2,0c-9.8,5.5-11.8,18.9-9.8,29.9
					c6.5,35.2,37.5,59.6,44.8,94.7c1.8,8.7,1.2,17.7,11.9,18.7c6.7,0.6,11.5-3.1,13.8-9c5.4-13.3-1.4-39.1-2.4-53
					C200.2,224.2,193.7,199.3,178.1,179.9z"/>
				<path class="st1" d="M185.9,263.2c-2.9-9.8-6.2-19.5-9.8-29.1c-0.5-1.4-1.1-2.9-1.7-4.3c4.5-4.1,7.3-11.8,7.3-17.6
					c0-0.6-0.9-0.7-1-0.1c-0.6,3.3-1.1,6.4-2.4,9.6c-1.1,2.6-2.7,4.8-4.2,7.1c-2.9-7.5-6-14.9-9.1-22.2c-0.4-1-0.9-2-1.3-3
					c0.1,0,0.2-0.1,0.3-0.1c5.9-4.6,6.8-15.8,6.5-22.6c0-1.1-1.5-1-1.6,0c-0.9,7.1-0.5,15.6-5.9,21.1c-1.4-3.2-2.7-6.3-4.1-9.5
					c-2-4.5-3.7-9.4-6.8-13.2c-0.3-0.4-0.8,0.1-0.6,0.5c1.2,2.5,2.3,5.1,3.5,7.6c-0.7-0.4-1.5-0.5-2.2-0.8c-1.5-0.7-2.9-1.6-4.2-2.8
					c-1-1-1.8-2.6-2.9-3.4c-0.6-0.4-1-0.5-1.6-0.1c-0.2,0.2-0.4,0.5-0.3,0.8c0.1,0.4,0.2,0.6,0.7,0.7c0.3,0.1,0.6-0.2,0.5-0.5
					c0.7,2.3,3.1,4.1,5.1,5.4c1.3,0.8,3.8,2.4,5.3,1.8c7,15.6,13.6,31.4,19.6,47.4c3.5,9.2,6.7,18.5,9.4,28
					c2.9,9.8,4.6,19.9,7.5,29.7c0.1,0.3,0.6,0.3,0.6-0.1C191.9,283.1,188.7,272.9,185.9,263.2z"/>
			</g>
			<path class="st1" d="M162.6,156c-5.5-3.2-10.5-6.5-15-11.1c-4-4.1-7.5-8.7-11.1-13.1c-0.4-0.4-1,0.2-0.6,0.6
				c1.6,2,3.1,4.5,4.8,6.6c2.1,2.6,4.3,5.2,6.7,7.5c4.2,4.1,9.3,8.3,15,9.9C162.7,156.6,162.9,156.2,162.6,156z"/>
			<g>
				<path class="st3" d="M313.4,288c19.4-32.1,35.2-66.4,47-102c1-2.9,1.9-6,1.5-9.1c-0.5-3-2.8-6-5.9-6.2c-2.2-0.1-4.2,1.2-6.4,1.2
					c-3.2-0.1-5.6-3.2-6-6.4c-0.4-3.2,0.7-6.3,1.8-9.3c7.9-21,18.7-43.5,11.8-64.8c-1.8-5.5-4.6-10.5-6.2-16
					c-5.8-20.2,16.9-61.5-4.1-62C328.9,13,331.6,46,330.4,63.8c-0.8,11.5-0.5,24.7-9.1,32.2c-3.5,3-8.1,4.7-11.2,8.2
					c-5.4,6.3-3.7,15.9-1.1,23.8c2.5,7.9,5.5,16.8,1.8,24.2c-2.7,5.3-8.1,8.5-12,13c-9.1,10.5-8.4,26-7.2,39.8
					c2,23.2,4.1,46.4,6.1,69.6c1,11.4,3.2,24.8,13.4,30c3-11.1,6-22.3,9-33.4"/>
				<g>
					<path class="st1" d="M345,197.8c-2.9,7.4-9.1,12.6-14.9,17.8c-5.4,4.8-11,9.1-17.3,12.5c0.5-4.3,1-8.6,1.7-12.9
						c2.5-16.2,6.6-31.9,11.5-47.5c4.8-15.1,6.9-30.3,7.7-46.1c0.1-2.4,0.2-4.9,0.4-7.3c0.2,0,0.3,0,0.5-0.2
						c3.5-2.7,6.4-5.9,8.9-9.5c2.1-3,5.1-7.1,5.3-10.9c0-0.4-0.6-0.7-0.8-0.3c-2.3,2.9-3.5,6.8-5.6,10c-2.3,3.4-5.1,6.3-8.2,9.1
						c0.5-13.1,0.8-26.1,1.9-39.2c0.8-9,1.9-17.9,3.9-26.8c1.8-8.3,5.5-16.5,5.3-25.1c0-0.3-0.4-0.4-0.5-0.1c-1.3,7.8-4,15.3-5.9,23
						c-1.8,7.4-3,14.9-3.9,22.4c-1.9,16-2,32.2-2.7,48.2c-0.7,16.3-2,32.4-6.7,48.1c-4.7,15.5-9.3,30.8-12,46.8
						c-1.1,6.3-1.9,12.7-2.6,19c-0.1,0.1-0.2,0.1-0.3,0.2c-0.5,0.2-0.2,0.9,0.2,0.9c-0.2,2.2-0.4,4.3-0.6,6.5
						c-0.8,9.3-1.6,18.8-0.9,28.1c0.1,0.7,1.1,0.7,1.1,0c0.6-8.1,0.6-16.3,1.2-24.4c0.3-3.6,0.6-7.2,1-10.8
						c7.1-2.9,13.2-8.2,18.9-13.3c5.9-5.2,11.9-10.5,14.8-18C346.6,197.3,345.3,197,345,197.8z"/>
					<path class="st1" d="M330.4,133.9c-8.2-5.1-11.8-13.6-15.3-22.2c-0.3-0.8-1.6-0.5-1.3,0.4c3.3,8.6,7.5,18.3,16.1,22.8
						C330.4,135.1,331,134.2,330.4,133.9z"/>
					<path class="st1" d="M314.2,203.7c-3.6-3.9-6.1-8.4-7.5-13.5c-1.2-4.6-1.5-9.3-2.3-13.9c-0.1-0.7-1.2-0.5-1.2,0.2
						c0.3,9.9,2.8,20.9,10.3,27.9C314,204.8,314.6,204.2,314.2,203.7z"/>
				</g>
			</g>
			<path class="st1" d="M422.9,280.8c-2.3,3.8-3.2,8.5-2.3,12.9c0.1,0.4,0.7,0.3,0.7-0.1c-0.5-4.5,0.2-8.4,2.4-12.4
				C423.9,280.8,423.2,280.4,422.9,280.8z"/>
			<g>
				<path class="st1" d="M160.4,218.8c-1.3-7.1-9.9-13.3-15.9-9.2c-3.7,2.5-4.7,7.7-8.1,10.6c-5.2,4.5-14.2,1.4-17.5-4.6
					c-3.4-6.1-2.4-13.6-0.2-20.2c2.2-6.6,5.6-12.8,6.9-19.6c1.4-6.8,0.3-14.7-5-19.2c-5.3-4.5-15.3-2.9-17,3.8
					c-0.7,2.7-0.1,5.7-1.6,8c-2.5,3.7-8.8,2.1-11.2-1.7c-2.3-3.8-2.1-8.6-2.3-13c-0.8-20.3-12.9-39.8-30.6-49.6
					c-5.5-3-12.3-5.2-17.9-2.3c-8.1,4.2-8.2,15.8-5.7,24.5c3.6,12.8,10.5,24.8,19.7,34.4c3.9,4.1,8.3,7.8,11.5,12.5
					c3.2,4.7,5.2,10.6,3.6,16c-1.6,5.4-7.7,9.6-13.1,7.8c-5.9-2.1-9-10.2-15.2-10.1c-6.6,0.1-8.8,9.4-6.6,15.6
					c3.4,9.6,12.4,17,22.4,18.4c5,0.7,10.3,0.1,15,1.8c4.8,1.7,8.8,7.2,6.4,11.7c-2.3,4.5-8.6,4.4-13.3,6.2
					c-9.8,3.8-12.3,19.1-4.2,25.7c10.4,8.5,26.8,0.5,39,6.2c8,3.7,12.3,12.6,14.3,21.2c2,8.6,2.2,17.6,5.1,25.9
					c2.9,8.3,9.5,16.3,18.3,17.1c21.1,2,17.1-22.4,14.6-35.3c-4-20.7-3.3-41.7,4-61.6C158.5,233,161.8,225.9,160.4,218.8z"/>
				<path class="st2" d="M125.2,273.2c0.9-0.7,1.6-1.6,2.1-2c4.2-3.8,7.7-8.4,10.5-13.3c6.2-10.8,8.9-23,10.5-35.2
					c0.1-0.5-0.8-0.6-0.8-0.1c-1.7,9.7-4,19.5-8.2,28.5c-1.8,3.9-3.9,7.6-6.4,11c-1.4,1.9-2.8,3.6-4.4,5.3c-0.7,0.7-1.4,1.4-2.2,2.1
					c-0.5,0.5-1,0.9-1.5,1.3c-0.2,0.1-0.4,0.2-0.5,0.4c-5.8-13.3-12.4-26.3-18.4-39.5c-3.8-8.4-7.3-17-10.6-25.6
					c5.5-5.2,10.2-11.9,14-18.4c3.7-6.4,6.3-13.1,6.2-20.5c0-0.5-0.7-0.5-0.8,0c-0.6,14.8-11,26.5-20,37.3
					c-6.7-17.4-13-34.9-21-51.7c-6.8-14.1-14.9-27.6-25.6-39.2c-0.7-0.8-1.9,0.4-1.2,1.2c18.9,21.3,29.8,47.6,39.8,73.9
					c3.8,10,7.6,20.1,11.7,30c-9.5-2.6-19.2-4.5-28.7-7.2c-4.8-1.4-9.5-3-14-5c-2.3-1-4.5-2.2-6.7-3.4c-1.9-1.1-3.6-2.6-5.7-3.2
					c-0.4-0.1-0.8,0.3-0.5,0.7c2.3,3.3,7.5,5.4,11,7.1c4.5,2.1,9.1,3.8,13.9,5.2c10.3,3.2,21,5.7,31.5,7.9c0.1,0,0.1,0,0.2,0
					c0.8,1.9,1.6,3.8,2.4,5.7c4.4,10,9.2,19.8,13.8,29.6c-3.2,1.4-6.1,3-9.6,3.7c-4.2,0.8-8.5,0.8-12.7,0.5c-4.6-0.3-9.2-0.9-13.6-2
					c-4.6-1.1-8.9-2.9-13.4-4c-0.6-0.1-0.9,0.6-0.4,0.9c3.9,2.5,8.8,3.8,13.3,4.9c4.8,1.2,9.7,1.9,14.7,2.2
					c6.7,0.3,17.1,0.4,22.5-4.6c1.5,3.2,3,6.4,4.5,9.7c0.7,1.5,1.3,2.9,1.9,4.4c0,0-0.1,0-0.1,0c-0.3,0.1-0.5,0.3-0.5,0.5
					c-0.2,0.8,0,1.5,0.8,1.7c0.3,0.1,0.5,0.1,0.8,0c5.8,13.9,10.5,28,13.8,42.8c0.2,0.7,1.4,0.6,1.3-0.2c-1.8-14.7-7.2-29-13-42.5
					C125.5,273.9,125.3,273.6,125.2,273.2z"/>
			</g>
			<g>
				<path class="st1" d="M251.6,142.4c-3.5-4.6-10.2-6.4-15.5-4.3c-3.3,1.4-6.2,4.1-9.8,4.4c-6.3,0.5-10.6-7.4-8.9-13.5
					c1.7-6.1,7-10.4,12.2-14c5.2-3.6,10.8-7.3,13.5-13c2.7-5.7,0.9-14.1-5.2-15.8c-5.5-1.6-10.8,2.8-15.1,6.6
					c-4.4,3.7-10.8,7.2-15.5,3.8c-5.1-3.6-3.2-11.5-1.2-17.4c5.1-14.8,7.7-30.5,7.7-46.2c0-6.5-0.5-13.3-3.9-18.8
					c-3.4-5.5-10.5-9.3-16.5-7c-4.6,1.7-7.5,6.4-8.4,11.2c-1,4.8-0.3,9.7,0.4,14.5c1.4,9.9,2.8,19.9,4.2,29.8c0.7,5,0.3,11.8-4.6,13
					c-6.4,1.6-9.4-8.2-15.4-10.7c-6.6-2.8-13.8,5.1-13.1,12.3c0.4,3.7,2.1,7,4.4,10c-0.2,0.8-0.4,1.7-0.7,2.6c-0.6,2-1.4,4-2.4,5.9
					c-1.7,3.3-4.1,5.9-6.6,8.5c-2.2-9.2-3.8-18.6-4.6-28c-0.9-10.6-0.6-21.1-0.2-31.8c0-0.5-0.8-0.6-0.9-0.1
					c-1.5,10-1.6,20.2-0.9,30.4c-0.3-1.6-1.5-2.3-2.6-3.4c-1.6-1.7-3.2-3.5-4.6-5.3c-3-3.8-5.5-7.9-7.8-12.1
					c-0.5-0.8-1.7-0.1-1.3,0.8c2.1,4.2,4.8,8.2,7.7,11.9c1.6,2,3.3,3.9,5,5.6c1.2,1.2,2,2.3,3.6,2.5c0,0,0,0,0,0
					c0.8,10.9,2.8,21.8,5.3,32.3c0.2,0.8,0.4,1.7,0.6,2.5c-1.5-0.5-3.1-0.6-4.8-0.1c-3.7,1.1-6,5-6.2,8.8c-0.2,3.8,1.5,7.5,3.7,10.6
					c4.2,5.9,10.1,10.1,16.2,14.1l3,11c1.4,5.1,2.2,10.9,4.5,15.6c0.3,0.5,1.1,0.3,1.1-0.3c-0.3-4.9-2.3-9.9-3.6-14.6
					c-0.9-3.4-1.8-6.9-2.8-10.3c3.7,2.4,7.3,4.8,10.7,7.5c20.7,16.7,28.3,47.6,17.7,72l7.8-12.6c-3.8,8.2-7.7,17.1-5.9,25.9
					c1.9,8.8,12.5,16.1,20.1,11.2c5.2-3.3,6.4-10.2,7.1-16.3c1.5-12.6,3-25.1,4.5-37.7c1.1-9.2,2.7-19.3,9.9-25.1
					c5.4-4.4,13.3-5.6,17.6-11C255,153.9,255.1,147,251.6,142.4z M173,127.4c-5.7,0-9.7-5.3-13.1-9.9c-1.9-2.6-4.4-5.2-7.1-6.8
					c-0.2-0.7-0.4-1.4-0.5-2.1c-0.2-0.9-0.4-1.8-0.6-2.6c3-2.4,5.4-5.5,7.3-8.9c1.3-2.3,2.8-5.2,3.4-8.1c1.9,2.1,4,4,6.1,5.8
					c5.5,4.7,11.5,9.5,13.7,16.3C184.3,118.1,180.2,127.4,173,127.4z"/>
				<path class="st2" d="M243,147.8c-1.1,3.7-4.7,5.8-7.6,7.9c-3,2.2-6.1,4.3-9.3,6.2c-5.9,3.5-12,6-18.5,8.1
					c-0.8-4.3-1.8-8.5-2.9-12.7c0-0.2,0-0.3-0.1-0.5c-0.9-3.4-1.9-6.8-2.9-10.3c-2.4-8.2-4.7-16.3-6.1-24.6
					c7.1-0.4,14.9-4.5,20.7-8.2c6.5-4.1,12.4-9.3,16.8-15.6c0.3-0.4-0.4-0.9-0.7-0.5c-4.9,5.7-10.4,10.9-16.9,14.8
					c-3.3,2-6.8,3.8-10.5,5.2c-3.2,1.2-6.6,1.9-9.7,3c-0.8-5.3-1.3-10.6-1.2-16.1c0-1.8,0.1-3.6,0.2-5.5c0.1-0.3,0.2-0.6,0.1-0.8
					c0.8-11.9,3-23.6,4.6-35.3c2.1-14.8,3.2-29.7-0.5-44.4c-0.2-0.6-1.1-0.3-0.9,0.3c5.9,26.1-3,52.2-4.9,78.2
					c-4.8-2.8-9.4-5.9-13.6-9.5c-4.4-3.8-8.1-8.2-12-12.5c-0.4-0.5-1.2,0.1-0.9,0.7c6.2,9.8,16.2,17.8,26.3,23.4c0,0.1,0,0.2,0,0.4
					c-0.8,13.6,1.4,26.5,5,39.6c1.6,5.6,3.2,11.1,4.7,16.6c-20.9-6.8-34.5-24.6-53-35.5c-0.9-0.5-1.6,0.8-0.8,1.4
					c9.5,6.7,18.1,14.2,27.2,21.4c8.2,6.4,17.1,12.3,27.2,15c1.1,4.1,2.1,8.3,2.9,12.5c-0.8,0.4-0.6,1.6,0.3,1.6
					c0.5,2.8,0.9,5.7,1.2,8.6c1.6,16.4-0.2,32.3-4,48.3c-0.2,1,1.3,1.4,1.6,0.4c4.1-13.3,5.4-27.8,4.8-41.7
					c-0.2-5.4-0.9-10.7-1.8-16c7.4-2.1,14.5-5.6,21-9.8c3.4-2.2,6.7-4.7,9.9-7.2c2.4-1.9,4.3-3.8,5-6.8
					C243.8,147.6,243.1,147.4,243,147.8z"/>
			</g>
			<g>
				<path class="st1" d="M477.8,217.4c-9.5,1.9-18.3,6.1-26.7,10.9c-1.5,0.8-3,1.7-4.4,2.6c0.7-2.3,1.7-4.6,3.1-6.6
					c1.7-2.5,4-4.1,5.9-6.3c0.4-0.4-0.1-1-0.6-0.8c-5.2,2.2-8.7,9.3-9.9,14.5c-6,3.5-11.9,7.1-17.8,10.7c-0.1,0-0.1-0.1-0.2-0.1
					c-0.4-0.2-0.9,0.2-0.6,0.6c-0.3,0.2-0.7,0.4-1,0.6c-3.9,2.4-7.8,4.8-11.6,7.3c1.9-2.9,3.7-5.9,5.2-9.1
					c4.9-10.1,6.5-23.5-1.4-31.4c-4.7-4.7-12-6.2-18.5-5.2c-6.6,1-12.6,4.3-18,8.2c-20.2,14.5-33.2,36.7-41.4,59.8
					c-4.7,13.2-18.1,36.2-16.5,50.5c0.7,6.2,4.3,11.1,10.9,12.3c10.6,1.9,12.4-6.9,16.5-14.8c14.1-27.6,43.2-42.7,61-67.1
					c5.2-3.4,10.5-6.7,15.7-9.9c4.6,4.9,13,7.8,19.4,7.8c0.7,0,1-1.2,0.2-1.3c-3.6-0.6-7.1-1.2-10.5-2.6c-2.9-1.2-5.3-3-7.8-4.6
					c6.1-3.7,12.2-7.4,18.2-11.1c9.8-5.9,19.9-11.5,31-14.1C478.4,217.9,478.2,217.3,477.8,217.4z"/>
				<path class="st2" d="M383.4,246.8c0-0.1,0-0.2,0-0.3c1.4-1.7,2.8-3.5,4.2-5.2c6.6-7.9,13.7-16.7,22.4-22.3
					c0.4-0.2,0.1-0.7-0.3-0.6c-4.8,2-8.4,6.1-12,9.7c-3.6,3.7-7,7.5-10.3,11.4c-1.2,1.5-2.4,3-3.6,4.4c0.2-3.3-0.1-6.8,0.2-10.1
					c0.5-5,1.5-9.9,2.5-14.8c0.1-0.6-0.7-0.9-0.9-0.3c-1.5,4.5-2.4,9.2-3,13.9c-0.5,4.1-1.2,9-0.4,13.2c-4.1,5.2-8,10.5-11.7,16
					c-0.1,0-0.2,0-0.3,0c-0.7,0-0.9,0.8-0.5,1.2c-0.3,0.4-0.5,0.8-0.8,1.1c-4.3,6.3-8.4,12.8-12.4,19.3c-0.1-0.9-0.1-1.8-0.2-2.6
					c-0.3-2.2-0.4-4.4-0.5-6.6c-0.2-4.2,0-8.4,0.1-12.6c0-0.6-1-0.7-1-0.1c-0.7,4.6-0.7,9.3-0.5,13.9c0.1,2.4,0.3,4.8,0.6,7.2
					c0.1,0.9,0.2,1.8,0.4,2.7c-6.7,11.1-13.1,22.4-19,33.9c-0.4,0.8,0.8,1.5,1.2,0.7c6.4-10.8,12.4-21.8,18.7-32.6
					c0.2,0.1,0.4,0.2,0.6,0.1c0.1,0,0.3-0.1,0.4-0.1c0.3-0.1,0.5-0.5,0.3-0.7c-0.2-0.2-0.3-0.5-0.5-0.8c3.8-6.5,7.7-12.9,11.9-19.1
					c0.8-1.2,1.6-2.3,2.3-3.4c5.6,0.1,11.1-0.7,16.3-2.7c5.4-2.1,10.1-5.5,15.2-8c0.4-0.2,0.1-0.9-0.4-0.7
					c-5.1,2.3-9.9,5.4-15.2,7.3c-4.8,1.8-9.9,2.6-15,2.6c3.4-5,7-9.9,10.7-14.7C383.1,247.2,383.3,247.1,383.4,246.8z"/>
			</g>
		</g>
		<g class="st0">
			<linearGradient id="SVGID_3_" gradientUnits="userSpaceOnUse" x1="135.4342" y1="248.1275" x2="135.4342" y2="83.5744">
				<stop  offset="0" style="stop-color:#C8421B"/>
				<stop  offset="1" style="stop-color:#FFFFFF;stop-opacity:0"/>
			</linearGradient>
			<path class="st4" d="M252.9,142.4c-3.5-4.6-10.2-6.4-15.5-4.3c-3.3,1.4-6.2,4.1-9.8,4.4c-6.3,0.5-10.6-7.4-8.9-13.5
				c1.7-6.1,7-10.4,12.2-14c5.2-3.6,10.8-7.3,13.5-13c2.7-5.7,0.9-14.1-5.2-15.8c-5.5-1.6-10.8,2.8-15.1,6.6
				c-4.4,3.7-10.8,7.2-15.5,3.8c-5.1-3.6-3.2-11.5-1.2-17.4c5.1-14.8,7.7-30.5,7.7-46.2c0-6.5-0.5-13.3-3.9-18.8
				c-3.4-5.5-10.5-9.3-16.5-7c-4.6,1.7-7.5,6.4-8.4,11.2c-1,4.8-0.3,9.7,0.4,14.5c1.4,9.9,2.8,19.9,4.2,29.8c0.7,5,0.3,11.8-4.6,13
				c-0.5,0.1-1,0.2-1.5,0.2c-1-3.8-1.9-7.5-3-11.2c-2.3-8.5-4.9-17.1-10-24.4c-5.1-7.2-13-13-21.9-13.1c-8.6-0.2-16.7,5.1-21.8,12
				c-5.1,7-7.5,15.5-8.9,24c-6.4,37.4,4.6,75.3,19.2,110.6c-0.2,0.4-0.5,0.8-0.7,1.2c-3.4-3.2-6.9-6.2-10.5-9
				c-0.7-3.7-2.3-7.1-5.1-9.5c-3.2-2.7-8-3.2-11.8-1.7c-1.9-1-3.8-2.1-5.8-3c-4.6-2.2-10-4-15-3.8c-2.6-18.2-14-35.1-30.1-44.1
				c-5.5-3-12.3-5.2-17.9-2.3c-8.1,4.2-8.2,15.8-5.7,24.5c3.6,12.8,10.5,24.8,19.7,34.4c1.7,1.8,3.6,3.6,5.3,5.3
				c-6.3-0.5-11.2-6-15.9-10.5c-7.7-7.3-19.8-23-27.5-15.6c-9,8.7,17.6,17.7,23.2,29c1.5,3.1,2.3,6.4,3.7,9.6
				c3.8,8.3,11.5,13.6,19.8,18c-2.1,1-4.5,1.3-6.7,0.5c-5.9-2.1-9-10.2-15.2-10.1c-6.6,0.1-8.8,9.4-6.6,15.6
				c3.4,9.6,12.4,17,22.4,18.4c5,0.7,10.3,0.1,15,1.8c4.8,1.7,8.8,7.2,6.4,11.7c-2.3,4.5-8.6,4.4-13.3,6.2
				c-9.8,3.8-12.3,19.1-4.2,25.7c10.4,8.5,26.8,0.5,39,6.2c8,3.7,12.3,12.6,14.3,21.2c2,8.6,2.2,17.6,5.1,25.9
				c2.9,8.3,9.5,16.3,18.3,17.1c21.1,2,17.1-22.4,14.6-35.3c-2.3-12.1-3-24.4-1.8-36.5c9.6,12.4,19.3,28.4,30.9,39.1
				c1.4,3.5,3.9,6.1,9.4,6.6c0.9,0.1,1.8,0.1,2.6,0c7.1,1,14-2.7,12.9-11.6c-0.1-0.6-0.2-1.2-0.3-1.9c2.7-13.8-2.6-35.3-3.7-48
				c3.4,1.4,7.1,1.5,10.2-0.5c5.2-3.3,6.4-10.2,7.1-16.3c1.5-12.6,3-25.1,4.5-37.7c1.1-9.2,2.7-19.3,9.9-25.1
				c5.4-4.4,13.3-5.6,17.6-11C256.2,153.9,256.3,147,252.9,142.4z"/>
			<linearGradient id="SVGID_4_" gradientUnits="userSpaceOnUse" x1="370.165" y1="248.1271" x2="370.165" y2="83.5742">
				<stop  offset="0" style="stop-color:#C8421B"/>
				<stop  offset="1" style="stop-color:#FFFFFF;stop-opacity:0"/>
			</linearGradient>
			<path class="st5" d="M486.4,257.5c-6.2-8.7-20.9,4.5-29.8,10.3c-5.8,3.7-11.9,8.7-18.7,7.2c-2.7-0.6-5.2-2.2-7.9-2.4
				c-0.7,0-1.4,0-2.1,0.1c3-2.2,6-4.3,9-6.5c11.1-8,22.2-16,33.4-24c5.2-3.7,10.5-7.6,13.8-13c3.3-5.4,4.2-12.9,0.4-18
				c-4.8-6.4-14.4-6.4-22.3-5c-13.4,2.4-26.2,7.1-38.2,13.5c-0.1-0.5-0.2-0.9-0.3-1.4c23.5-30.1,44.1-63.7,48-101.4
				c0.9-8.6,0.8-17.5-2.2-25.5c-3-8.1-9.4-15.3-17.8-17.4c-8.5-2.2-17.8,1.2-24.6,6.8c-0.9,0.7-1.7,1.4-2.5,2.2
				c-0.7-2.4-2.1-4.4-4.3-5.5c-3.9-2-8.7-0.5-12.5,1.6c-12.4,6.9-20.8,20.5-21.4,34.6c-0.1,3.1,0,6.5-1.6,9.1
				c-1.6,2.7-6,3.8-7.8,1.2c-1.1-1.6-0.7-3.7-1.2-5.6c-1.2-4.7-8.2-5.8-11.9-2.7c-3.7,3.1-4.4,8.7-3.5,13.4c1,4.7,3.3,9.1,4.8,13.7
				c1.5,4.6,2.2,9.9-0.2,14.1c-2.3,4.2-8.6,6.4-12.3,3.2c-2.2-1.9-3-5.2-5.2-7.1c7.8-20.1,17.1-41.4,10.6-61.6
				c-1.8-5.5-4.6-10.5-6.2-16c-5.8-20.2,16.9-61.5-4.1-62C330.1,13,332.9,46,331.6,63.8c-0.8,11.5-0.5,24.7-9.1,32.2
				c-3.5,3-8.1,4.7-11.2,8.2c-5.4,6.3-3.7,15.9-1.1,23.8c2.5,7.9,5.5,16.8,1.8,24.2c0,0.1-0.1,0.1-0.1,0.2c-2-4.3-5.6-7.8-10.2-8.7
				c-7.9-1.5-15,4.9-19.9,11.2c-18,23.3-26.7,52.7-28.7,82c-1.5,20.9,1.9,41,2.9,61.7c0.5,10.4-3.5,24-0.1,33.9
				c4.2,12,18,7.4,22.6-2.3c7.6-16.2,8.7-38.6,12.5-56.1c1.9-8.7,3.7-17.3,5.6-26c0.8,8.8,1.5,17.7,2.3,26.5
				c0.2,2.1,0.4,4.2,0.7,6.4c-1.2,5-2.5,10-4,14.9c-2.9,10-11.1,21.6-11,32.1c0.1,12.7,14.6,12.9,22.1,5.1
				c12-12.4,20.1-32.2,28.9-47.4c-4.8,10.7-10.3,23.1-11.1,32.9c-0.3,0.6-0.6,1.1-0.8,1.7c-3.5,8.3,2.2,13.7,9.3,14.6
				c0.8,0.3,1.6,0.5,2.5,0.7c0.5,0.1,0.9,0.1,1.3,0.2c-1.7,2.8-2.8,5.8-2.2,9.1c4.5-1.8,8.9-3.6,13.4-5.4c20.7-2.4,41.2-7,61-13.7
				c1.7-0.6,3.6-1.2,4.8-2.6c1.3-1.3,1.9-3.5,0.8-5c-0.7-1.1-2.1-1.6-2.9-2.6c-1.1-1.6-0.5-3.8,0.9-5.2c1.4-1.3,3.2-1.9,5.1-2.5
				c12.9-3.7,27.4-6.7,35.1-17.6c2-2.8,3.3-6,5.4-8.7C465.9,271.7,493.7,267.7,486.4,257.5z M407.3,290.1c-1.2,0.2-2.4,0.2-3.6,0
				c5.3-3.8,10.7-7.7,16-11.5c-0.5,0.6-1,1.3-1.5,1.9C415.4,284.7,412.2,289.2,407.3,290.1z"/>
		</g>
		<g class="st0">
			<linearGradient id="SVGID_5_" gradientUnits="userSpaceOnUse" x1="247.518" y1="187.5765" x2="247.518" y2="250.8776">
				<stop  offset="0" style="stop-color:#CFA58B"/>
				<stop  offset="1" style="stop-color:#F2CFB2"/>
			</linearGradient>
			<path class="st6" d="M297.2,249.2c-19.8-7.9-22-11.5-23.6-26.7c-1.5-15.2,5.2-31,5.2-31s-30-2.6-31.3-2.6
				c-1.2,0-31.3,2.6-31.3,2.6s6.7,15.9,5.2,31c-1.5,15.2-3.7,18.8-23.6,26.7c-19.8,7.9-30.5,11.2-30.5,11.2s45.5,37,80.1,37.3
				c34.6-0.3,80.1-37.3,80.1-37.3S317,257.1,297.2,249.2z"/>
			<linearGradient id="SVGID_6_" gradientUnits="userSpaceOnUse" x1="247.518" y1="104.1315" x2="247.518" y2="194.7338">
				<stop  offset="0" style="stop-color:#CFA58B"/>
				<stop  offset="1" style="stop-color:#F2CFB2"/>
			</linearGradient>
			<path class="st7" d="M297,140.9C297,140.8,297,140.8,297,140.9c0.1-1,0.1-2,0.1-3c0-27.4-2-57.3-48.1-58.3
				c-33.8-0.7-51.1,30.9-51.1,58.3c0,1,0,2,0.1,3c0,0,0,0,0,0c-2.2,28.8,22.8,76.8,48.9,76.8h0.6C273.6,217.6,299.2,169.7,297,140.9
				z"/>
			<linearGradient id="SVGID_7_" gradientUnits="userSpaceOnUse" x1="245.8803" y1="63.1677" x2="245.8803" y2="93.0349">
				<stop  offset="0" style="stop-color:#9ED1E1"/>
				<stop  offset="1" style="stop-color:#65A3B2"/>
			</linearGradient>
			<path class="st8" d="M250.5,95.7c-16.1-1-33-12.9-43.4,26.2c-8.7,32.6,0.7,60.4,0.7,60.4s-6.9-0.1-9.8-9.5
				c-2.8-9.4-19.7-56.4-5.9-71.6c14.9-16.4,10.9-28.5,27.3-36.1c12.1-5.6,28.8,2.9,39.4-3.4c14.2-8.5,30.7,2.2,35.1,12.7
				c3.1,7.5-3.2,22.2,3.4,30.1c6.8,8.2,11,34.1,5.3,48.5c-5.8,14.3-13,25-13,25s3.2-29.4,2.4-48.8C290.1,84.9,270.8,96.9,250.5,95.7
				z"/>
			<linearGradient id="SVGID_8_" gradientUnits="userSpaceOnUse" x1="247.518" y1="255.2428" x2="247.518" y2="346.1483">
				<stop  offset="0" style="stop-color:#9ED1E1"/>
				<stop  offset="1" style="stop-color:#65A3B2"/>
			</linearGradient>
			<path class="st9" d="M336.7,261.6c-11.5-5.2-53.7-19.2-53.7-19.2s-6.1,12.5-35.5,12.5c-29.4,0-35.5-12.5-35.5-12.5
				s-42.1,14-53.7,19.2c-11.5,5.2-22.2,34.6-22.5,50.4c-0.3,15.8,65.8,37.9,111.7,37.9c45.8,0,112-22.2,111.7-37.9
				C358.9,296.2,348.3,266.8,336.7,261.6z"/>
			<linearGradient id="SVGID_9_" gradientUnits="userSpaceOnUse" x1="270.806" y1="63.1679" x2="270.806" y2="93.035">
				<stop  offset="0" style="stop-color:#9ED1E1"/>
				<stop  offset="1" style="stop-color:#65A3B2"/>
			</linearGradient>
			<path class="st10" d="M275.1,121.8c-5.3,1.4-10.6,2.8-15.9,4.2c-0.7,0.2-1.4,0.4-2.2,0.2c-1.9-0.4-2.5-3-1.5-4.7
				c0.9-1.7,2.8-2.6,4.5-3.3c4.5-1.8,9.4-3.2,14.3-2.7c4.9,0.5,9.8,3.1,11.9,7.5c0.4,0.8,0.7,2,0,2.7c-0.5,0.5-1.4,0.6-2,0.3
				c-0.7-0.3-1.2-0.8-1.8-1.2c-3-2.3-7-3.2-10.7-2.3"/>
			<linearGradient id="SVGID_10_" gradientUnits="userSpaceOnUse" x1="227.8385" y1="63.1679" x2="227.8385" y2="93.035">
				<stop  offset="0" style="stop-color:#9ED1E1"/>
				<stop  offset="1" style="stop-color:#65A3B2"/>
			</linearGradient>
			<path class="st11" d="M223.6,121.8c5.3,1.4,10.6,2.8,15.9,4.2c0.7,0.2,1.4,0.4,2.2,0.2c1.9-0.4,2.5-3,1.5-4.7
				c-0.9-1.7-2.8-2.6-4.5-3.3c-4.5-1.8-9.4-3.2-14.3-2.7c-4.9,0.5-9.8,3.1-11.9,7.5c-0.4,0.8-0.7,2,0,2.7c0.5,0.5,1.4,0.6,2,0.3
				c0.7-0.3,1.2-0.8,1.8-1.2c3-2.3,7-3.2,10.7-2.3"/>
			<path class="st12" d="M269.5,121.9c-3.7,1.9-10.4,9.5-20.5,9.5c-10.1,0-16.8-7.3-20.6-9.9c-3.4-2.4-8.2,31.7-2.2,30.2
				c6-1.4,15.7-5.6,22.8-5.6c7.1,0,16.2,4.2,22.1,5.6C277.1,153.2,273.2,120.1,269.5,121.9z"/>
			<path class="st13" d="M236.6,136.5c0,9.1-7.4,16.4-16.4,16.4c-9.1,0-16.4-7.4-16.4-16.4c0-9.1,7.4-16.4,16.4-16.4
				C229.2,120,236.6,127.4,236.6,136.5z"/>
			<linearGradient id="SVGID_11_" gradientUnits="userSpaceOnUse" x1="242.0085" y1="171.8327" x2="256.0617" y2="171.8327">
				<stop  offset="0" style="stop-color:#D59A74"/>
				<stop  offset="1" style="stop-color:#E6AE8A"/>
			</linearGradient>
			<path class="st14" d="M242.4,169.7c1.3-0.5,5,1.3,6.3,1.4c1.3,0.1,4.1-1.3,5.5-1.4c1.4-0.1,3.5,0.6,0,2.4c-1.4,0.7-4.4,2.5-6,1.9
				C246.5,173.4,240.4,170.5,242.4,169.7z"/>
			
				<linearGradient id="SVGID_12_" gradientUnits="userSpaceOnUse" x1="418.062" y1="58.4719" x2="442.7435" y2="58.4719" gradientTransform="matrix(0.9815 0.1916 -0.1916 0.9815 -161.4192 45.3154)">
				<stop  offset="0" style="stop-color:#D59A74"/>
				<stop  offset="1" style="stop-color:#E6AE8A"/>
			</linearGradient>
			<path class="st15" d="M262.6,184.2c-4.9,0.5-9.8,0.8-14.6,1.1c-3.4,0.2-7.5-0.3-10.8,0.6c4.3,1.4,9.4,2.3,14,2.3
				c2.1,0,4.2-0.3,6.2-0.9C258.8,186.7,261.3,184.3,262.6,184.2z"/>
			<path class="st13" d="M230.3,123.6c-0.7-0.4-38.1-44-38.1-44l-20.7,89.2l54.6-17L230.3,123.6z"/>
			<linearGradient id="SVGID_13_" gradientUnits="userSpaceOnUse" x1="166.5157" y1="128.2548" x2="166.5157" y2="226.2651">
				<stop  offset="0" style="stop-color:#CFA58B"/>
				<stop  offset="1" style="stop-color:#F2CFB2"/>
			</linearGradient>
			<path class="st16" d="M109.4,105.9c-10.6,11.2,11.8,40.6,19.2,53.1c13.6,23.1,15.6,24,20.6,44c5,20-16.9,119.7-14.6,123.3
				c2.3,3.6,33.7,16.1,47.3,15c13.6-1,4.8-35,2.5-81.6c-3.3-65.8,5.4-73,13.5-83.5c8.1-10.5,21.5-19.5,27-35.8
				c5.3-15.8-4.2-24.9-8.3-10.8c-4.1,14.1-22.5,32.9-36.2,36.6c-15,4-43.9,5.6-59-14.7C104.8,129.4,109.4,105.9,109.4,105.9z"/>
			<linearGradient id="SVGID_14_" gradientUnits="userSpaceOnUse" x1="155.881" y1="62.2573" x2="155.881" y2="155.8477">
				<stop  offset="0" style="stop-color:#9ED1E1"/>
				<stop  offset="1" style="stop-color:#65A3B2"/>
			</linearGradient>
			<circle class="st17" cx="155.9" cy="118.1" r="53"/>
			
				<ellipse transform="matrix(0.1693 -0.9856 0.9856 0.1693 13.1083 251.7307)" class="st13" cx="155.9" cy="118.1" rx="34.8" ry="34.8"/>
			<path class="st13" d="M260.8,136.5c0,9.1,7.4,16.4,16.4,16.4c9.1,0,16.4-7.4,16.4-16.4c0-9.1-7.4-16.4-16.4-16.4
				C268.1,120,260.8,127.4,260.8,136.5z"/>
			<path class="st13" d="M265.9,124.5c0.7-0.4,39.1-44.9,39.1-44.9l20.7,89.2l-54.6-17L265.9,124.5z"/>
			<linearGradient id="SVGID_15_" gradientUnits="userSpaceOnUse" x1="330.834" y1="128.2548" x2="330.834" y2="226.2651">
				<stop  offset="0" style="stop-color:#CFA58B"/>
				<stop  offset="1" style="stop-color:#F2CFB2"/>
			</linearGradient>
			<path class="st18" d="M388,105.9c10.6,11.2-11.8,40.6-19.2,53.1c-13.6,23.1-15.6,24-20.6,44c-5,20,16.9,119.7,14.6,123.3
				c-2.3,3.6-33.7,16.1-47.3,15c-13.6-1-4.8-35-2.5-81.6c3.3-65.8-5.4-73-13.5-83.5c-8.1-10.5-21.5-19.5-27-35.8
				c-5.3-15.8,4.2-24.9,8.3-10.8c4.1,14.1,22.5,32.9,36.2,36.6c15,4,43.9,5.6,59-14.7C392.6,129.4,388,105.9,388,105.9z"/>
			<linearGradient id="SVGID_16_" gradientUnits="userSpaceOnUse" x1="341.4687" y1="62.2573" x2="341.4687" y2="155.8477">
				<stop  offset="0" style="stop-color:#9ED1E1"/>
				<stop  offset="1" style="stop-color:#65A3B2"/>
			</linearGradient>
			<circle class="st19" cx="341.5" cy="118.1" r="53"/>
			
				<ellipse transform="matrix(0.9869 -0.1616 0.1616 0.9869 -14.5934 56.7233)" class="st13" cx="341.5" cy="118.1" rx="34.8" ry="34.8"/>
			
				<linearGradient id="SVGID_17_" gradientUnits="userSpaceOnUse" x1="427.8836" y1="68.1991" x2="437.6568" y2="68.1991" gradientTransform="matrix(0.9815 0.1916 -0.1916 0.9815 -161.4192 45.3154)">
				<stop  offset="0" style="stop-color:#D59A74"/>
				<stop  offset="1" style="stop-color:#E6AE8A"/>
			</linearGradient>
			<path class="st20" d="M255.4,194.4c-0.4,0.1-1.5,1.5-2,1.8c-1,0.5-2.2,0.7-3.3,0.6c-1.6-0.1-5.1-0.8-4.6-3
				C248.9,194.2,251.9,195.1,255.4,194.4z"/>
			<path class="st21" d="M373.6,118.1c0,1.7-0.1,3.5-0.4,5.1c-0.6,3.7-1.8,7.1-3.5,10.3c-5.5,10-16.1,16.8-28.2,16.8
				c-17.7,0-32.1-14.4-32.1-32.1c0-13.4,8.3-25,20-29.7c3.3-1.3,6.9-2.2,10.6-2.3c0.5,0,1,0,1.5,0C359.2,86,373.6,100.3,373.6,118.1
				z"/>
			<path class="st22" d="M373.2,123.2c-0.6,3.7-1.8,7.1-3.5,10.3l-40.4-45.1c3.3-1.3,6.9-2.2,10.6-2.3L373.2,123.2z"/>
			<path class="st21" d="M188,118.1c0,1.7-0.1,3.5-0.4,5.1c-0.6,3.7-1.8,7.1-3.5,10.3c-5.5,10-16.1,16.8-28.2,16.8
				c-17.7,0-32.1-14.4-32.1-32.1c0-13.4,8.3-25,20-29.7c3.3-1.3,6.9-2.2,10.6-2.3c0.5,0,1,0,1.5,0C173.6,86,188,100.3,188,118.1z"/>
			<path class="st22" d="M187.6,123.2c-0.6,3.7-1.8,7.1-3.5,10.3l-40.4-45.1c3.3-1.3,6.9-2.2,10.6-2.3L187.6,123.2z"/>
		</g>
		<g class="st0">
			<g>
				<path class="st2" d="M340.3,283.9c21.2-20.3,47.4-36.3,76.3-41.4c7.9-1.4,17.5-1.4,22.3,5c3.8,5.1,2.9,12.5-0.4,18
					c-3.3,5.4-8.6,9.3-13.8,13c-11.1,8-22.2,16-33.4,24c-16,11.5-32,23-48,34.5c-14.5,10.4-30.4,26.3-46.9,33.2
					c-10,4.2-23.3-1.8-18.3-13.4c4.1-9.7,16.3-17.1,22.8-25.1C314.2,315.5,325.2,298.4,340.3,283.9z"/>
				<path class="st1" d="M432.7,252.2c-11.1-1-21.4,4.5-30,11.1c-2.2,1.7-4.3,3.4-6.4,5.2c0-2.3,0.2-4.6,0.8-6.9
					c0.2-0.7,2.9-8.7,3.9-8.1c0.2,0.1,0.5-0.1,0.4-0.3c0-0.1-0.1-0.2-0.1-0.3c-0.1-0.2-0.2-0.3-0.4-0.3c-2.2,0-3.3,4.1-3.9,5.8
					c-1.3,3.5-1.8,7.2-1.6,11c-6.9,6-13.4,12.5-19.7,19.1c-9.7,10-19,20.3-28.9,30.2c0-2.4-0.6-4.9-0.7-7.3c-0.1-2.5-0.2-5,0-7.6
					c0.3-5.6,1.6-10.9,2.6-16.4c0.1-0.7-0.8-1-1.1-0.3c-2.1,5-2.8,10.7-3.2,16.1c-0.3,5.1-0.7,11.5,1.2,16.4c0,0.1,0.1,0.1,0.1,0.2
					c-7.5,7.5-15.2,14.6-23.6,21.2c-0.8,0.6-1.6,1.2-2.4,1.8c4.3-6.4,8.6-14.6,7.3-22.3c-0.1-0.5-0.8-0.3-0.9,0.1
					c-0.4,4.7-1.2,9-3.2,13.3c-1.7,3.6-4,6.9-6,10.4c-0.1,0.2-0.1,0.4-0.1,0.6c-3.9,2.8-8,5.5-12.2,8c-5.8,3.4-12,6-18.1,9
					c-0.6,0.3-0.2,1.3,0.5,1.1c10.8-3.1,21-9.7,30.1-16.2c9.4-6.7,18-14.3,26.3-22.4c15-14.6,28.7-30.6,43.7-45.2
					c4.9,2.5,11.5,2.9,16.9,2.6c4-0.2,10.1-0.4,12.4-4.3c0.3-0.5-0.4-0.9-0.8-0.6c-3.8,3.1-9.1,3.4-13.9,3.4
					c-4.8,0-9.2-1.2-13.8-1.9c2.8-2.8,5.7-5.5,8.7-8.1c10.2-9,21.9-17.5,36.1-17.3C433.1,253,433.1,252.3,432.7,252.2z"/>
				<path class="st1" d="M373.7,266c-2,5-3.6,9.9-4.5,15.2c-0.7,4.1-2,9.7-0.7,13.7c0.1,0.4,0.6,0.4,0.7,0c0.6-1.9,0.4-4,0.5-6
					c0.2-2.9,0.5-5.7,0.9-8.6c0.8-4.8,1.9-9.6,3.4-14.3C374.1,265.8,373.8,265.8,373.7,266z"/>
			</g>
			<g>
				<path class="st3" d="M168.4,289.9c-17.6-17.2-41.2-28.7-70-28.1c-7.9,0.2-17.8,2.3-24.1,10.2c-5,6.3-5.7,14.1-3.5,19.2
					c2.3,5.1,6.9,8.1,11.5,11c9.8,6.2,19.6,12.4,29.3,18.6c14.1,8.9,28.2,17.8,42.2,26.7c12.8,8.1,25.8,21.7,41.3,25.5
					c9.4,2.3,24.4-6.9,21.8-18.4c-2.1-9.5-13.1-14.8-18.2-22C188.6,318.3,181,302.3,168.4,289.9z"/>
				<path class="st1" d="M183.5,351c-5.2-5.7-10.7-11.1-16.4-16.4c2.1-5.1,3.2-10.7,2.6-16.2c0-0.3-0.5-0.4-0.5,0
					c-0.3,5.4-1.1,10.4-2.8,15.5c-5.6-5.2-11.5-10.3-17.4-15.2c3.2-11.6,4.9-26.3-3.8-36c-0.6-0.6-1.4,0.3-0.9,0.9
					c8,10.3,6,22.6,4,34.6c-4-3.3-8.1-6.5-12.2-9.6c-4.2-3.2-8.5-6.3-12.8-9.2c0.5-3.6,0.5-7.4,0.2-11c-0.2-2.8-0.8-5.7-2.6-7.9
					c0,0,0,0,0,0c0,0,0,0,0,0c0,0-0.1-0.1-0.1-0.1c0,0,0,0,0,0c-0.4-0.4-1.1,0.1-0.8,0.6c3,5.7,2.2,11.5,2.3,17.7
					c-4-2.7-8.1-5.3-12.3-7.7c-1.2-0.7-2.4-1.4-3.6-2.1c0.5-3.6,0.1-7.3-1-10.8c-1-3.1-2.5-6.9-5.1-8.9c-0.3-0.2-0.9,0.2-0.7,0.5
					c1.3,3,3.4,5.5,4.4,8.8c1,3.2,1.2,6.4,1.2,9.7c-3.1-1.7-6.3-3.4-9.5-4.9c-4.8-2.3-9.9-4.8-15.3-5.6c-0.8-0.1-1.1,0.9-0.3,1.2
					c12,3.7,23.3,9.4,34.1,16.1c-2.1,2.8-4.3,5.2-7.4,6.9c-2.7,1.5-5.9,1.5-8.5,2.9c-0.3,0.2-0.2,0.7,0.1,0.8c3,1,7.1-1.1,9.6-2.6
					c2.9-1.8,5.7-4.3,7.2-7.4c2.5,1.5,4.9,3.1,7.3,4.7c0.1,0.3,0.3,0.4,0.6,0.4c4.3,2.9,8.5,6,12.6,9.1c1.9,1.5,3.8,3,5.7,4.5
					c-2.5,3.1-4.8,5.5-8.6,7.1c-3,1.2-6.3,1.8-9.5,2.4c-0.2-0.1-0.4,0-0.5,0.1c-0.1,0.1-0.1,0.1-0.2,0.2c-0.1,0.1-0.2,0.3-0.1,0.5
					c0,0.1,0,0.1,0,0.2c0.1,0.2,0.3,0.5,0.5,0.5c1.6,0.3,3.5-0.4,5-0.8c2.3-0.5,4.6-1.2,6.8-2.3c3-1.4,6.4-3.9,7.5-7.2
					c8.2,6.6,16,13.7,23.8,20.9c0,0.2,0.2,0.3,0.3,0.3c5.6,5.2,11.1,10.3,16.8,15.4C183.4,351.8,183.8,351.3,183.5,351z"/>
			</g>
			<path class="st2" d="M258.2,320.8c4-13.1,12.6-25.1,26.9-32.4c3.9-2,9.3-3.6,14.5-1.4c4.1,1.7,6.6,5.4,6.8,8.5
				c0.2,3.1-1.2,5.8-2.7,8.4c-3.1,5.6-6.3,11.3-9.4,16.9c-4.5,8.1-9.1,16.2-13.6,24.3c-4.1,7.3-6.9,17.5-13.5,23.5
				c-4,3.6-13.8,3.1-15.6-3.2c-1.5-5.2,2.5-10.8,3.1-15.6C255.8,340.1,255.3,330.2,258.2,320.8z"/>
			<g>
				<path class="st2" d="M221.4,300c-5.7-18.5-17.7-35.3-37.8-45.6c-5.5-2.8-13.1-5.1-20.4-2c-5.8,2.5-9.2,7.6-9.6,11.9
					c-0.3,4.4,1.7,8.2,3.8,11.9c4.4,7.9,8.9,15.9,13.3,23.8c6.4,11.4,12.7,22.8,19.1,34.2c5.8,10.3,9.7,24.6,19,33.1
					c5.6,5.1,19.4,4.4,21.9-4.5c2.1-7.4-3.5-15.2-4.3-22C224.8,327.1,225.5,313.2,221.4,300z"/>
				<path class="st1" d="M213.3,349.2c-3.7-7.9-7.9-15.6-12-23.4c-4-7.6-7.4-15.3-10.8-23.3c-3.3-7.8-7.5-15.6-12.4-22.9
					c4.9-2.3,8.6-11.5,7.2-16.5c-0.1-0.4-0.7-0.4-0.8,0c-0.9,3.1-0.8,6.1-2.2,9.1c-1.2,2.6-3.3,4.4-4.6,6.8
					c-3.7-5.5-7.8-10.7-12.2-15.3c-0.2-0.3-0.7,0.1-0.5,0.4c4.7,6.3,9.6,12.3,13.8,18.9c4.4,6.9,8.2,14.1,11.3,21.7
					c1.3,3.2,2.7,6.3,4.1,9.5c-1.6-0.1-3.2-0.5-4.6-1.4c-1.3-0.8-2.2-2.2-3.6-2.9c-0.3-0.2-0.6,0.1-0.6,0.4c0.3,1.7,2.3,2.9,3.7,3.7
					c1.7,0.9,3.6,1.4,5.6,1.4c0,0,0.1,0,0.1,0c5.3,11.7,11.4,23.1,17.9,34.1C213,350,213.5,349.6,213.3,349.2z"/>
				<path class="st1" d="M184.8,293.7c-5.1-1.8-8.8-4.6-12.7-8.3c-0.3-0.4-1.1,0.1-0.8,0.6c2.9,4.4,8.2,7.5,13.2,8.7
					C185.1,294.9,185.4,293.9,184.8,293.7z"/>
			</g>
			<g>
				<path class="st1" d="M253,321.2c1.7-3.2,3.7-6.5,3.5-10.1c-0.2-3.6-4-7.2-7.3-5.6c-2,1-2.8,3.5-4.7,4.7
					c-2.9,1.9-7.1-0.2-8.4-3.4c-1.3-3.2-0.3-6.9,1.2-10c1.5-3.1,3.6-6,4.7-9.3c1.1-3.3,1.1-7.3-1.2-9.8c-2.3-2.6-7.4-2.4-8.7,0.8
					c-0.5,1.3-0.4,2.8-1.3,3.8c-1.5,1.7-4.5,0.5-5.4-1.6c-0.9-2-0.5-4.4-0.3-6.6c0.9-10.1-3.8-20.5-12-26.6
					c-2.5-1.9-5.8-3.4-8.7-2.3c-4.3,1.6-5.1,7.3-4.4,11.8c1,6.6,3.6,13,7.5,18.3c1.7,2.3,3.6,4.4,4.9,6.9c1.3,2.5,1.9,5.6,0.7,8.2
					c-1.1,2.6-4.5,4.3-7,3c-2.8-1.4-3.8-5.6-6.9-6c-3.3-0.4-5,4.1-4.3,7.3c1.1,5,5,9.2,9.9,10.6c2.4,0.7,5.1,0.7,7.3,1.9
					c2.2,1.2,3.9,4.2,2.4,6.2c-1.4,2.1-4.5,1.6-7,2.2c-5.1,1.2-7.3,8.7-3.7,12.5c4.6,4.9,13.3,2,18.9,5.6c3.7,2.4,5.3,7,5.7,11.4
					c0.4,4.4-0.1,8.9,0.9,13.2c0.9,4.3,3.7,8.7,8,9.7c10.3,2.4,9.9-10,9.6-16.5C246.4,340.9,248.1,330.6,253,321.2z"/>
				<path class="st2" d="M229.2,326.3c-1.3-4-2.4-8-3.6-12c-0.4-1.6-0.9-3.2-1.3-4.8c5.5-7,8.8-15.1,10.2-23.9
					c0-0.3-0.4-0.4-0.4-0.1c-1.6,8.2-5.2,15.8-10.2,22.4c-1.6-6.1-3-12.3-4.3-18.5c-2.6-12.8-3-29.3-13.2-38.8
					c-0.5-0.4-1.1,0.2-0.7,0.7c5,5.4,7.5,12.2,9,19.3c1.5,7.3,2.6,14.8,4.1,22.1c1.1,5.3,2.4,10.6,3.7,15.8
					c-1.1-0.7-2.4-1.2-3.6-1.8c-2-1-3.9-2.2-5.8-3.3c-3.7-2.3-7.1-5.4-11-7.5c-0.4-0.2-0.8,0.3-0.5,0.6c2.7,3.4,7,6,10.6,8.3
					c2.8,1.8,6.4,4.5,9.9,5.4c-0.2,0.6,0.4,1.2,0.9,0.8c0.5,1.8,1,3.6,1.5,5.4c1,3.7,2.1,7.3,3.3,10.9c-1.6-1.1-4.2-1.4-5.8-1.9
					c-3.1-0.9-6.4-2.4-9.6-1.2c-0.3,0.1-0.3,0.6,0.1,0.6c5.2,0.1,11,2.5,15.7,4.6c0.1,0.1,0.2,0.1,0.3,0c1,3.3,2,6.7,3.5,9.7
					c0.3,0.6,1.3,0.2,1.1-0.5C232.4,334.6,230.5,330.5,229.2,326.3z"/>
			</g>
			<g>
				<path class="st2" d="M256.8,308.9c10.5-15.7,24.7-29.3,42.1-36.6c4.8-2,10.7-3.3,14.7,0.1c3.1,2.7,3.6,7.5,2.2,11.3
					c-1.3,3.9-4.1,7-6.8,10.1c-5.9,6.5-11.7,13.1-17.6,19.6c-8.4,9.4-16.9,18.9-25.3,28.3c-7.6,8.5-15.4,20.7-24.8,27.3
					c-5.7,4-14.8,2.1-13.3-5.9c1.2-6.6,7.8-13,10.8-18.9C244.8,332.4,249.3,320.1,256.8,308.9z"/>
				<path class="st1" d="M304.2,282.2c-5.1,3.8-9.8,8.3-14.1,13c0.4-1.9,0.5-3.9,0.9-5.8c0.5-2.4,1.4-4.6,2-7
					c0.1-0.3-0.4-0.5-0.5-0.2c-2.3,3.8-4.2,9.7-3.6,14.2c0,0,0,0.1,0,0.1c-7.3,8.2-13.7,17.3-19.9,26.1c-0.6,0.9-1.2,1.7-1.8,2.6
					c0-0.2,0-0.4,0-0.6c0,0,0.1,0,0.1-0.1c1.4-3,0.9-7.1,1.3-10.4c0.5-4.2,1.4-8.3,1.8-12.5c0-0.4-0.6-0.4-0.7-0.1
					c-1.4,3.8-2,7.9-2.5,11.9c-0.4,3.3-1.6,7.8-0.5,10.9c-0.1,0.5-0.1,1,0,1.5c-4.2,6-8.4,11.9-12.8,17.8c0.4-1.8,0.1-3.7,0-5.6
					c-0.1-2.2-0.2-4.3-0.2-6.5c0-0.4-0.6-0.4-0.6,0c-0.2,3.7-1.1,8.5,0.1,12.1c0.1,0.2,0.3,0.3,0.5,0.2c-0.3,0.4-0.6,0.8-0.9,1.2
					c-3,4-6.1,7.9-9.8,11.4c-3.8,3.6-8.1,6.3-12.5,9c-0.3,0.2-0.1,0.7,0.2,0.6c8.6-3.2,15.1-10.2,20.7-17.2c3.5-4.4,6.8-9,10-13.5
					c0.1,0.1,0.1,0.2,0.3,0.3c2.3,0.9,5.7-1.2,7.5-2.6c0.3-0.2,0-0.7-0.3-0.5c-1.2,0.8-2.5,1.3-3.9,1.6c-1,0.2-2.2,0.2-3.2,0.6
					c1.9-2.7,3.8-5.4,5.7-8c4-5.7,8-11.4,12.2-17c4.2,0.5,8.9-1.8,12.3-4c0.3-0.2,0-0.5-0.2-0.4c-2.1,1-4.3,1.8-6.5,2.3
					c-1.5,0.4-3.1,0.5-4.7,0.9c1.4-1.8,2.7-3.6,4.1-5.3c6-7.5,12.6-14.1,19.6-20.7C304.6,282.4,304.4,282,304.2,282.2z"/>
			</g>
			<g>
				<path class="st1" d="M309.8,328.1c12.3-15.2,23.8-32.4,25.8-51.8c0.4-4,0.4-8.2-1-12c-1.4-3.8-4.4-7.2-8.4-8.2
					c-4-1-8.4,0.6-11.6,3.2c-3.2,2.7-5.5,6.2-7.6,9.8c-11.8,19.8-21.4,40.9-27.8,63.1c-3.2,11.1-5.9,22.7-7,34.2
					c-1.2,12.2,10.5-3.5,12.7-6.8C292.4,348.5,301.4,338.5,309.8,328.1z"/>
				<path class="st2" d="M320.4,299.8c-2.8,3-5.4,6.2-8.6,9c-2.8,2.5-6.2,4.4-9,6.8c1.6-2.6,3.1-5.2,4.7-7.8
					c4.4-7.3,9.2-14.6,12.7-22.4c3-6.6,5.5-14.3,3.8-21.5c-0.1-0.3-0.5-0.2-0.5,0.1c-0.1,8.6-2.1,16.1-6,23.8
					c-3.9,7.5-8.6,14.7-13,21.9c-4.5,7.4-9.1,14.9-13.6,22.3c-0.7,1.2-1.4,2.4-2.2,3.5c-0.5-1.9-1.1-3.7-1.3-5.7
					c-0.2-2.1,0.1-4.1,0.1-6.2c0-0.5-0.7-0.6-0.8-0.1c-1.4,4-0.8,9.5,1.1,13.3c-3.7,5.9-7.6,11.8-10.7,18c-0.4,0.9,0.7,1.5,1.3,0.8
					c5.4-7.5,9.8-16,14.5-23.9c3-4.9,5.9-9.9,8.9-14.8c0.1,0.1,0.2,0.2,0.4,0.1c3.6-1.3,7-4.6,9.8-7.1c3.2-2.9,6.3-6.1,8.6-9.8
					C321.2,299.9,320.7,299.5,320.4,299.8z"/>
			</g>
		</g>
		<linearGradient id="SVGID_18_" gradientUnits="userSpaceOnUse" x1="255.514" y1="377.9979" x2="255.514" y2="251.7321">
			<stop  offset="0" style="stop-color:#FFFFFF;stop-opacity:0"/>
			<stop  offset="1" style="stop-color:#FEA5AB"/>
		</linearGradient>
		<path class="st23" d="M438.9,247.5c-4.8-6.4-14.4-6.4-22.3-5c-28.9,5.2-55.1,21.1-76.3,41.4c-3.1,3-6,6-8.8,9.2
			c2-5.4,3.5-11,4.1-16.8c0.4-4,0.4-8.2-1-12c-1.4-3.8-4.4-7.2-8.4-8.2c-4-1-8.4,0.6-11.6,3.2c-3.2,2.7-5.5,6.2-7.6,9.8
			c-0.3,0.5-0.5,0.9-0.8,1.4c-2.5,0.2-5,1-7.3,1.9c-17.4,7.2-31.6,20.9-42.1,36.6c-0.2,0.2-0.3,0.5-0.5,0.7c-0.9-3.1-4.2-5.7-7-4.2
			c-2,1-2.8,3.5-4.7,4.7c-2.9,1.9-7.1-0.2-8.4-3.4c-1.3-3.2-0.3-6.9,1.2-10c1.5-3.1,3.6-6,4.7-9.3c1.1-3.3,1.1-7.3-1.2-9.8
			c-2.3-2.6-7.4-2.4-8.7,0.8c-0.5,1.3-0.4,2.8-1.3,3.8c-1.5,1.7-4.5,0.5-5.4-1.6c-0.9-2-0.5-4.4-0.3-6.6c0.9-10.1-3.8-20.5-12-26.6
			c-2.5-1.9-5.8-3.4-8.7-2.3c-4.3,1.6-5.1,7.3-4.4,11.8c0.7,4.5,2.1,8.9,4.2,12.9c-5.6-6-12.4-11.3-20.6-15.5
			c-5.5-2.8-13.1-5.1-20.4-2c-5.8,2.5-9.2,7.6-9.6,11.9c-0.3,4.4,1.7,8.2,3.8,11.9c1.4,2.5,2.8,5,4.2,7.5
			c-16.7-13.8-38-22.5-63.2-21.9c-7.9,0.2-17.8,2.3-24.1,10.2c-5,6.3-5.7,14.1-3.5,19.2c2.3,5.1,6.9,8.1,11.5,11
			c9.8,6.2,19.6,12.4,29.3,18.6c14.1,8.9,28.2,17.8,42.2,26.7c12.8,8.1,25.8,21.7,41.3,25.5c4.8,1.2,11-0.6,15.7-4.2
			c5,2.7,13,2.4,17.3-1.7c1.7,4.5,8.5,5.1,13.1,1.9c3.8-2.6,7.3-6.2,10.6-10c-0.6,2.2-0.9,4.3-0.3,6.5c1.8,6.3,11.6,6.8,15.6,3.2
			c2.3-2.1,4.1-4.6,5.6-7.4c-0.2,1.7-0.4,3.4-0.6,5.1c-0.7,7.2,3.1,4.6,6.8,0.6c3.5,4.3,11.1,5.8,17.4,3.1
			c16.5-6.9,32.4-22.7,46.9-33.2c16-11.5,32-23,48-34.5c11.1-8,22.2-16,33.4-24c5.2-3.7,10.5-7.6,13.8-13
			C441.9,260,442.8,252.6,438.9,247.5z M226,336.7c1.6,2.4,2.4,5.5,2.7,8.5c0.1,1.4,0.2,2.9,0.2,4.3c-1.1-3-2.1-5.8-2.5-8.6
			C226.2,339.5,226.1,338.1,226,336.7z"/>
	</g>
</g>
<g>
</g>
<g>
</g>
<g>
</g>
<g>
</g>
<g>
</g>
<g>
</g>
</svg>
