<?xml version="1.0" encoding="utf-8"?>
<!-- Generator: Adobe Illustrator 24.0.0, SVG Export Plug-In . SVG Version: 6.00 Build 0)  -->
<svg version="1.1" id="capa_1" xmlns="http://www.w3.org/2000/svg" xmlns:xlink="http://www.w3.org/1999/xlink" x="0px" y="0px"
	 viewBox="0 0 745.7 401.7" style="enable-background:new 0 0 745.7 401.7;" xml:space="preserve">
<style type="text/css">
	.st0{fill:#3B97D3;}
	.st1{fill:none;stroke:#285680;stroke-width:1.5352;stroke-linecap:round;stroke-linejoin:round;stroke-miterlimit:10;}
	.st2{fill:#EE5E43;}
	.st3{fill:none;stroke:#C4422B;stroke-width:1.784;stroke-linecap:round;stroke-linejoin:round;stroke-miterlimit:10;}
	.st4{fill:#F29C1F;stroke:#C4422B;stroke-width:1.784;stroke-linecap:round;stroke-linejoin:round;stroke-miterlimit:10;}
	.st5{fill:#EE5F43;}
	.st6{fill:none;stroke:#C4422B;stroke-width:2.0192;stroke-linecap:round;stroke-linejoin:round;stroke-miterlimit:10;}
	.st7{fill:#71C285;}
	.st8{fill:#F29C1F;}
	.st9{fill:none;stroke:#805333;stroke-width:1.6688;stroke-linecap:round;stroke-linejoin:round;stroke-miterlimit:10;}
	.st10{fill:none;stroke:#285680;stroke-width:1.7859;stroke-linecap:round;stroke-linejoin:round;stroke-miterlimit:10;}
	.st11{fill:none;stroke:#285680;stroke-width:0.9249;stroke-linecap:round;stroke-linejoin:round;stroke-miterlimit:10;}
	.st12{fill:none;stroke:#4C8056;stroke-width:1.8589;stroke-linecap:round;stroke-linejoin:round;stroke-miterlimit:10;}
	.st13{fill:none;stroke:#4C8056;stroke-width:1.7159;stroke-linecap:round;stroke-linejoin:round;stroke-miterlimit:10;}
	.st14{fill:#35495E;}
	.st15{fill:#804537;}
	.st16{fill:#4C8056;}
	.st17{fill:#4FBA6F;}
	.st18{fill:#2C3E50;}
	.st19{fill:none;stroke:#2C3E50;stroke-width:6;stroke-linecap:round;stroke-linejoin:round;stroke-miterlimit:10;}
	.st20{clip-path:url(#XMLID_2_);fill:#231F20;}
	.st21{clip-path:url(#XMLID_3_);fill:#231F20;}
	.st22{fill:#A36648;}
	.st23{clip-path:url(#XMLID_4_);fill:none;stroke:#A36648;stroke-miterlimit:10;}
	.st24{clip-path:url(#XMLID_4_);fill:#A36648;stroke:#A36648;stroke-miterlimit:10;}
	.st25{fill:#D08B73;}
	.st26{clip-path:url(#XMLID_5_);fill:#BC6C56;}
	.st27{clip-path:url(#XMLID_6_);fill:#2C3E50;}
	.st28{fill:#BC6C56;}
	.st29{fill:none;stroke:#2C3E50;stroke-width:0.81;stroke-miterlimit:10;}
</style>
<g>
	<g>
		<path class="st0" d="M169.6,397.6c0.1-1.4-0.1-2.9-0.3-4.3l-0.2-1.1l-0.3-1.1l-0.2-0.9l-0.2-0.7c-0.5-2.1-1.1-4.2-1.8-6.1
			c-1.2-3.6-2.4-7.4-3.7-11.3c-2.5-7.6-5.4-15.8-8.7-24.5c-3.3-8.7-6.9-17.9-11.1-27.5c-2.1-4.8-4.3-9.7-6.7-14.7
			c-1.2-2.5-2.4-5-3.7-7.5c-1.3-2.5-2.7-5.3-4.1-7.9c-4.7-8.8-10.3-18-15.9-26.7c-5.6-8.7-11.3-17.1-16.4-24.5c-0.7-1-1.3-1.9-2-2.8
			c-0.7-0.9-1.4-1.8-2-2.7c-1.3-1.7-2.7-3.3-3.9-4.7c-2.6-2.9-4.9-5.3-7-7.4c-4.2-4.1-7.3-6.9-9.4-6.2c-1.1,0.3-1.9,1.6-2.3,3.6
			c-0.5,2-0.5,4.8-0.2,8c0.3,3.2,1,6.8,1.8,10.5c0.4,1.8,0.8,3.6,1.2,5.6c0.2,0.9,0.4,1.8,0.5,2.7L73,246l0.2,0.8
			c0.1,0.6,0.3,1.1,0.4,1.7c2.2,9.2,5.3,19.3,9,29.3c3.7,10,7.7,19.9,11.7,28.9c0.6,1.3,1.1,2.6,1.7,3.8c0.6,1.3,1.2,2.6,1.8,3.9
			c1.2,2.6,2.4,5.2,3.6,7.7c2.5,5,5,9.9,7.6,14.5c5.2,9.3,10.7,17.9,16.2,25.6c5.5,7.8,11.1,14.7,16.5,20.9c2.7,3.1,5.4,6,7.9,8.6
			c1.2,1.3,2.4,2.7,3.6,4c0.6,0.7,1.1,1.3,1.6,2c0.5,0.7,0.8,1.4,1,2.2L169.6,397.6z"/>
		<path class="st1" d="M162.3,397.9c-0.2-1.3-0.6-2.5-1.1-3.7c-0.3-0.6-0.5-1.1-0.7-1.5l-0.7-1.4c-0.9-1.9-1.9-3.7-2.9-5.4l-5.8-10
			c-3.8-6.7-7.5-13.5-11.1-20.3c-7.2-13.6-14.2-27.5-20.9-41.4c-3.4-7-6.7-14-10.1-20.9l-10.4-20.8c-3.5-6.9-6.9-13.9-10.3-21
			l-2.5-5.3l-2.4-5.3c-1.6-3.3-3.3-6.7-5.1-10.2"/>
		<path class="st1" d="M96,267.4c-4.1-1.5-8.3-3-12.4-4.6"/>
		<line class="st1" x1="100.9" y1="277.3" x2="108.3" y2="265.3"/>
		<line class="st1" x1="111.6" y1="298.6" x2="98.9" y2="297.2"/>
		<line class="st1" x1="119.1" y1="314.1" x2="126.1" y2="299.5"/>
		<line class="st1" x1="127.6" y1="331.4" x2="111.3" y2="328.1"/>
		<line class="st1" x1="141.9" y1="359" x2="145.7" y2="347.5"/>
	</g>
	<g>
		<path class="st2" d="M156.7,396c0.3-1.2,0.3-2.5,0-3.6c-0.3-1.1-0.8-2.1-1.3-3.1c-1.1-1.9-2.2-3.7-3.3-5.5
			c-2.3-3.6-4.7-6.9-6.9-9.9c-1.1-1.5-2.1-3-3-4.4c-1-1.4-1.6-2.7-2.3-3.9c-1.3-2.5-2.2-4.8-2.7-6.8c-2.9-11.3-0.6-21.5-8.2-29.7
			c-1.1-1.2-5.5-6.1-10.5-5.3c-2.6,0.4-3.8,2.2-10.6,9.4c-8.2,8.7-10.3,10.2-12.4,9.8c-2.6-0.5-3.9-3.7-5-6.2
			c-2.6-5.8-0.4-8.5-3.1-14c-0.8-1.6-2.2-4.6-4.7-5c-2.5-0.4-3.7,2.4-5.6,2.2c-1.8-0.3-2.1-3.1-2.6-6.8c-0.5-3.7-1.2-8.2-3.2-12
			c-2.1-4.1-7.3-8.4-11.4-6.9c-2.7,0.9-4.1,4-5.5,7c-4.3,9.3-1.1,15.7-5.3,18.9c-0.3,0.2-2.3,1.7-4.2,1.1c-3.3-1-2.3-6.7-6.4-12.9
			c-1.1-1.6-3.6-5.5-6.4-5.1c-2.9,0.4-3.1,5.1-6.3,5.8c-2.7,0.6-4-2.7-9.2-5.6c-1.1-0.6-9-5.2-13.3-2.5c-3,1.9-4.1,7.2-3,11.5
			c1.4,5.5,6.2,8.8,11.9,12.4c5.7,3.6,12.2,7.3,17.4,13.9c1.6,2.1,3.1,4.4,2.9,7c-0.3,4.5-5.2,5.5-6.4,9.2c-0.4,1.3-0.3,2.9,0.1,4.6
			c0.5,1.7,1.5,3.5,2.7,5.3c2.5,3.5,6.2,6.5,10.1,7.7c5.1,1.6,8.7-0.2,13-2.3c4.3-2.1,9.2-4.5,16.5-4.3c0.7,0,3.1,0.1,5.4,0.6
			c2.3,0.5,4.6,1.4,5.2,3.1c1,3.2-5.5,5.4-7.5,12.3c-1.5,5.4,0.1,12.8,4.8,16.4c1.7,1.3,3.6,2,7.7,1.7c4.1-0.3,10.3-1.5,20.3-4.3
			c10-2.8,15.4-4.7,19.2-5.9c3.8-1.2,6-1.6,9.1-1.6c2.7,0,6.1,0.2,9.6,1.8c1.7,0.8,3.5,1.9,5.2,3.4c0.3,0.3,1,1,1.4,1.4
			c0.2,0.2,0.4,0.4,0.5,0.6c0.2,0.2,0.4,0.5,0.5,0.7c0.7,1,1.2,2.3,1.1,3.8c0.9-1.3,1.9-1.7,2.7-2
			C154.9,397.6,155.7,397.3,156.7,396z"/>
		<path class="st3" d="M153.7,396.7c0,0-0.1-0.3-0.3-0.8c-0.2-0.5-0.6-1.2-1.3-2c-0.3-0.4-0.7-0.8-1.1-1.2c-0.5-0.5-1-1-1.6-1.5
			c-1-1-2.3-2.1-3.8-3.2c-2.9-2.2-6.8-4.5-11.3-6.8c-4.6-2.4-9.6-5-14.7-7.7c-10.2-5.4-20.7-11.2-29.5-16.2c-8.8-5-16.1-9-19.9-10.6
			c-3.9-1.6-9.6-4-15.9-7c-6.3-3-13.2-6.9-19.4-10.7c-6.2-3.8-11.8-7.6-15.9-10.3c-4.1-2.8-6.6-4.6-6.6-4.6"/>
		<path class="st4" d="M70.3,346.8c-9.6,4.1-19.3,8-29.8,11.1"/>
		<path class="st4" d="M64.7,344.4c-1.3-11.6-2.1-23.2-1.5-34.3"/>
		<path class="st4" d="M120.7,374.1c-10.5,4.4-21.2,8.7-32.1,12.6"/>
		<path class="st3" d="M116.1,371.7c0.2-11.1,0.6-22.1,1.1-33"/>
		<path class="st4" d="M80.6,352c-0.1-7.3-0.2-14.6-0.2-21.9"/>
	</g>
	<g>
		<path class="st2" d="M175.6,395.5c5.2,0.3,17.7,0.2,30.9-7.1c14.1-7.8,20.8-19.1,23.2-23.7c-2.4,1.7-6.2,4.2-11.1,6.9
			c-10.1,5.5-15.6,6.5-23.3,10.3C190.3,384.3,183.3,388.4,175.6,395.5z"/>
		<path class="st2" d="M175.6,395.1c7.8-3,17.8-8.3,26.4-17.6c2.7-2.9,6.4-7,9.3-13.7c3.2-7.3,3.6-13.9,3.6-17.9
			c-2.2,4.1-5.8,10.2-11.7,16.5c-5.5,5.9-8.9,7.7-14,13C185.3,379.4,180.2,385.6,175.6,395.1z"/>
		<path class="st2" d="M175.6,394.5c4.1-3.2,13.3-11.6,18.4-25.8c5.4-15.1,2.8-28.1,1.6-33.1c-5,9.9-10.2,21.8-14.4,35.7
			C178.8,379.6,177,387.3,175.6,394.5z"/>
		<path class="st2" d="M174.9,396.1c8.8-14.2,9.3-24.1,8-30.7c-0.8-4-2.6-8.4-2.6-15.7c0-6.6,1.5-12,2.8-15.6
			c-3.1,2.5-7.6,6.9-10.2,13.6c-1.5,3.7-2.4,8.3-1,24.7C172.4,378.4,173.3,386.5,174.9,396.1z"/>
		<path class="st2" d="M174.8,395.7c0.7-14-1.5-24.8-3.4-31.5c-2.4-8.6-4.9-12.5-6.9-15.1c-4.7-6-10.4-9.2-13.9-10.7
			c2.1,2.9,5.2,7.6,7.7,13.9c3.5,9,3,14.2,5.3,22.3C165.1,379.8,168.1,387.3,174.8,395.7z"/>
		<path class="st2" d="M176,395.6c-1-5.1-4.1-17.2-14.4-28.3c-10.9-11.8-23.6-15.5-28.6-16.8c6.4,9.1,14.6,19.1,25,29.3
			C164.2,385.9,170.3,391.1,176,395.6z"/>
		<path class="st2" d="M178,395.6c-3.2-4.5-11.4-14.7-26.1-21c-14.5-6.1-27.4-5-32.9-4.2c18.1,5.8,28.3,12.1,34.5,17.1
			c2.8,2.3,10.3,8.9,20.1,8.6C175.4,396.1,177,395.9,178,395.6z"/>
	</g>
	<g>
		<path class="st5" d="M660.6,386.9c11,0.7,19.9-1.1,25.1-2.4c4.7-1.2,8.3-2.6,10.4-3.5c7.7-3.3,25.3-11.7,24.5-19.8
			c-0.7-7.7-17.9-10.7-20.1-11c5.4-0.2,14.6-1.2,24.6-6.3c1.9-0.9,7.3-3.7,12.2-7.4c2.4-1.9,4.7-4,6.4-6.2c0.8-1.1,1.5-2.3,1.9-3.5
			c0.4-1.2,0.6-2.4,0.6-3.8c-0.2-6.9-9.4-11.9-21.3-12.6c1.4-1.5,3.3-3.9,5-6.4c1.8-2.6,3.6-5.6,5.2-8.8c0.4-0.8,1.3-2.6,2.4-4.9
			c1.1-2.3,2.2-4.9,3.4-7.7c2.4-5.6,5.1-12.5,2.2-16.8c-1.8-2.6-5-3.7-8.3-4.1c-3.3-0.4-6.6,0.1-8.5,0.4c-2.8,0.5-5.6,1.5-8.1,2.9
			c-2.5,1.3-4.6,2.9-6.4,4.5c-3.6,3.2-5.8,6.2-7.1,7.9c-4.2,5.8-5,7.5-5.9,10.8c-1.4-7.3-4.3-12.5-7.6-15.7c-3.3-3.3-7.2-4.4-10.4-4
			c-1.1,0.1-2.1,0.5-3,1.1c-0.9,0.5-1.9,1.4-2.8,2.4c-1.8,2-3.4,4.7-4.7,7.4c-2.6,5.4-4.2,11-4.6,12.4c-4,14.1-1.2,25.6,0.7,31.3
			c-2.3-4.3-10.2-18.7-17.5-16.4c-4.2,1.3-7.1,7.9-8.8,15.6c-1.7,7.6-2.3,16.4-2.2,21.9c0,3,0.3,9.1,2,16.4
			c2.5,10.6,6.6,17.4,7.5,18.9c1.7,2.9,3.4,5.2,4.7,6.8C654.2,386.2,657.1,386.7,660.6,386.9z"/>
		<path class="st6" d="M645.2,398.9c0,0,1.1-1.9,2.8-5.3c0.9-1.7,1.9-3.7,3.2-6c1.2-2.3,2.8-4.8,4.4-7.6
			c6.6-11.2,16.1-25.9,26.4-40.4c10.3-14.5,21.3-29,30-40.3c4.4-5.7,8-10.7,11-14.4c2.9-3.7,5.1-6.2,5.9-7.2"/>
		<path class="st6" d="M694.1,323c-3-14.1-5.8-28.3-8.4-42.5"/>
		<path class="st6" d="M690.8,328c14-1.3,28-2.2,42-3.1"/>
		<path class="st6" d="M663.1,366.8c-3.9-13-7.3-26.4-10.3-39.9"/>
		<path class="st6" d="M661,371.3c14.8-2.5,29.5-4.3,44.1-5.6"/>
	</g>
	<g>
		<path class="st0" d="M642.3,399.7c0.5-1.4,1.5-2.5,2.3-3.5c1.1-1.4,2.1-3,3-4.5c0.9-1.5,1.7-3.1,2.6-4.5c1.7-2.8,3.5-5.4,5.3-7.6
			c3.5-4.4,7-7.6,9.9-9.4c4.6-2.8,9.2-4.4,13.3-6.4c4.1-2.1,7.7-4.5,10.3-9.4c0.8-1.5,3.8-7.4,1.6-11.9c-1.2-2.3-3.1-2.9-11.3-6.6
			c-10-4.4-12-5.6-12.4-7.6c-0.5-2.5,1.8-4.9,3.4-6.8c3.9-4.4,6.9-3.5,10.5-8.2c1-1.4,3-4,2.3-6.4c-0.7-2.5-3.5-2.3-4-4.1
			c-0.5-1.8,1.6-3.5,4.3-5.9c2.7-2.5,6-5.7,7.9-10.4c2.1-5.4,2.3-12.5-1.1-14.9c-2.2-1.5-5.2-0.8-8.1-0.1c-9,2.2-12,8.4-16.7,6.9
			c-0.3-0.1-2.5-0.8-3.1-2.6c-1.1-3,3.6-5.5,5.7-12.1c0.3-0.9,0.7-2.3,0.9-3.7c0.2-1.5,0.1-2.7-0.9-3.8c-1-1.2-2.3-0.9-3.7-0.7
			c-1.4,0.2-2.8,0.4-4-0.6c-2-1.7-0.6-4.8-2.1-10.2c-0.2-0.6-0.8-2.9-2-5.1c-1.2-2.2-2.9-4.4-5.1-5c-1.6-0.4-3.4,0.1-5.1,1.1
			c-1.7,1.1-3.2,2.7-4.2,4.6c-2.6,4.8-1.3,9.7-0.4,14.5c0.1,0.6,0.2,1.1,0.3,1.8c0.1,0.8,0.2,1.6,0.3,2.4c0.2,1.6,0.3,3.3,0.4,4.9
			c0.1,3.3-0.1,6.8-1,10.3c-0.6,2.2-1.5,4.5-3.5,5.6c-3.4,2-6.9-0.8-10.2,0.3c-2.4,0.7-4.5,3.2-5.9,6c-1.4,2.9-1.9,6.3-1.2,9.1
			c1,3.8,4,5.6,7.5,7.9c3.5,2.3,7.4,5.1,10,11c0.5,1.1,3.3,7.8,0.8,9.8c-2.3,1.9-6.5-2.5-12.9-1.8c-5,0.6-10.6,4-12.1,8.3
			c-0.5,1.6-0.5,3.2,1.1,6.2c1.5,3,4.5,7.5,9.7,15c10.4,15.4,12.5,16.9,14.1,22.3c0.7,2.3,1.3,5.2,1.3,8.8c0,0.9,0,1.8-0.1,2.8
			c-0.1,0.9-0.2,2.1-0.3,2.9c-0.3,1.7-0.8,3.5-2,5.3c-0.2,0.3-0.5,0.6-0.7,1c-0.3,0.5-0.6,1.1-0.9,1.7c1.3-0.1,2.2,0.8,3.2,1.6
			C640,399,641.1,399.8,642.3,399.7z"/>
		<path class="st1" d="M639.4,396.5c0,0,0.1-0.2,0.2-0.5c0.1-0.3,0.3-0.6,0.6-1.2c0.5-1.1,1.3-2.9,1.8-5.3c0.5-2.8,1.2-6.1,2-9.9
			c1.5-7.7,3.3-17,5-26.4c1.8-9.4,3.3-18.9,4.2-26.9c1-8,1.3-14.6,1.1-18c-0.2-3.8-0.6-9.4-1.2-15.7c-0.6-6.3-1.4-13.2-2-19.8
			c-0.3-3.3-0.6-6.4-0.9-9.3c-0.2-2.9-0.5-5.5-0.6-7.7c-0.2-2-0.5-3.7-0.6-4.9c-0.2-1.2-0.3-1.8-0.3-1.8"/>
		<path class="st1" d="M654.3,308.3c-7.1-6.3-14.4-12.1-21.9-17.7"/>
		<path class="st1" d="M653.9,302.8c8.9-5.8,17.6-12.2,26.3-18.7"/>
		<path class="st1" d="M647.7,359.9c-6.7-8-13.4-15.8-20.2-23.3"/>
		<path class="st1" d="M648.5,355.3c9.6-2.8,19.3-5.7,28.9-8.8"/>
		<path class="st1" d="M653.9,318.8c6-2.8,12-5.7,18-8.7"/>
	</g>
	<path class="st7" d="M633.2,398.1c0-1.7-0.8-31.1-6.3-42.7c-0.9-1.9-2.1-4.6-4.9-6.8c-3.6-3-6-2-11-4.9c-4.2-2.4-9-6.7-8.1-8.8
		c0.5-1.4,3.5-2,5.8-1.4c4.2,1,4.3,5.2,8.9,6.5c2,0.6,4.8,0.6,5.6-0.7c0.8-1.3-0.7-3.5-1.2-4.3c-2.1-3.1-4.9-4.4-10.2-6.7
		c-7.4-3.2-10-4.1-13.6-6.6c-5.3-3.6-5.4-5.4-5.3-6c0.2-2.1,2.7-4,5-3.9c1.4,0.1,2,0.8,6.6,5.4c1.8,1.8,3.4,3.4,5.9,5.1
		c2.7,2,4.1,2.4,5.1,1.9c0.6-0.3,1.2-1,1.3-1.6c0.9-3.8-8.7-9.5-11.9-11.4c-3.4-2.1-5.7-3-9.3-6c-4.4-3.6-4.6-5.2-4.4-6.1
		c0.3-1.3,1.9-2.3,3.2-2.5c0.9-0.2,2.5-0.1,6.6,3.4c2.6,2.2,4.4,4.2,5.4,5.4c3.9,4.5,4.9,6.8,6.8,6.7c0.9-0.1,2.1-0.7,2.4-1.6
		c1.7-4.5-13.1-16.3-20.9-21.8c-3.3-2.3-6.8-4.5-6.6-7.3c0.2-2.2,2.6-4.4,4.9-4.6c3-0.2,5.2,3,6.7,5.2c2.2,3.2,1.5,4.2,4.1,8.7
		c2.8,4.8,4.7,5.4,5.5,5.6c1.1,0.3,3.2,0.3,4-0.8c0.4-0.5,1-2-3.2-9.3c-3.7-6.6-5.4-7.7-5.5-10.9c0-2.9,1.4-6.4,3.3-6.7
		c1.8-0.3,3.8,2.3,4.7,4.2c1.4,3,0.3,4.6,1.4,10.7c0.6,3.4,1.3,4.4,2.1,4.6c1.3,0.4,2.8-1,3.1-1.3c4-3.8,1-9,4.5-15.7
		c0.8-1.6,2.5-4.9,6.1-6c2.9-0.9,7.2-0.4,9.2,2.6c2.1,3,1,7-0.5,9.4c-2.3,3.6-5.1,2.6-11.3,7c-2.4,1.8-7.8,5.6-7.1,9.4
		c0,0.2,0.4,2,1.7,2.6c2.6,1.1,5.3-4.1,12.3-6.8c1.8-0.7,6.6-2.5,8.5-0.5c1.4,1.5,0.9,4.9-0.7,6.8c-1.1,1.3-2.3,1.4-7.7,2.7
		c-6.5,1.6-7.9,2.3-9.1,3.3c-1.7,1.5-3.6,4.2-2.7,5.9c0.8,1.5,3.5,1.5,5.9,1.4c6.6-0.1,8.3-2.7,14-2.4c1.7,0.1,5.9,0.2,7,2.6
		c0.7,1.5,0,3.6-1.2,4.8c-2.2,2.2-6.2,1.5-9.7,0.8c-3.3-0.6-3.5-1.2-6.9-1.7c-3.3-0.4-5.6-0.7-7.2,0.8c-1.3,1.2-1.9,3.6-1,4.9
		c0.9,1.3,2.7,1,10.4,0.9c1.5,0,4,0,8.9,0.1c6.6,0.1,8.3,0.2,9.1,1.5c1,1.4,0.8,3.8-0.4,4.9c-0.5,0.4-1.2,0.8-5,0.4
		c-3.5-0.4-3.8-0.9-6.5-1.2c-4.1-0.5-6.6,0.2-7.8,0.6c-1.3,0.5-2.8,1-3,2.2c-0.3,1.4,1.3,3.1,2.7,4c2.3,1.4,4.1,0.4,10.9-0.4
		c7.1-0.8,8.8-0.3,10,0.6c0.2,0.1,2.2,1.8,2,3.9c-0.3,1.9-2.3,2.9-3.3,3.3c-3.5,1.7-7.3,0.9-8.6,0.6c-2.6-0.6-3.6-1.6-5.9-1.3
		c-0.7,0.1-2.3,0.3-3.4,1.4c-1.3,1.3-1.7,3.4-1.2,6.9c0.8,5.7,3.1,9,4.7,12.3c1.7,3.6,2.2,7.9,3.1,16.5c0.6,5.6,1,13.3,0.2,22.3
		C637.9,397.9,635.5,398,633.2,398.1z"/>
	<g>
		<path class="st8" d="M150.6,388.5c-7.8,0.5-14.1-0.7-17.9-1.7c-3.3-0.9-5.9-1.9-7.4-2.5c-5.5-2.3-18-8.4-17.4-14.1
			c0.5-5.5,12.7-7.6,14.3-7.8c-3.9-0.1-10.4-0.8-17.5-4.5c-1.3-0.7-5.2-2.6-8.7-5.3c-1.7-1.3-3.4-2.8-4.5-4.4
			c-0.6-0.8-1.1-1.6-1.4-2.5c-0.3-0.8-0.4-1.7-0.4-2.7c0.1-4.9,6.7-8.5,15.2-9c-1-1.1-2.3-2.8-3.6-4.6c-1.3-1.9-2.5-4-3.7-6.2
			c-0.3-0.6-0.9-1.9-1.7-3.5c-0.8-1.6-1.6-3.5-2.4-5.5c-1.7-4-3.6-8.9-1.6-11.9c1.3-1.9,3.6-2.7,5.9-2.9c2.3-0.3,4.7,0,6,0.3
			c2,0.3,4,1.1,5.7,2c1.7,1,3.3,2.1,4.5,3.2c2.6,2.2,4.2,4.4,5,5.6c3,4.1,3.5,5.4,4.2,7.7c1-5.2,3.1-8.9,5.4-11.2
			c2.3-2.3,5.1-3.2,7.4-2.9c0.8,0.1,1.5,0.4,2.1,0.8c0.6,0.4,1.3,1,2,1.7c1.3,1.4,2.4,3.3,3.3,5.2c1.9,3.8,3,7.8,3.3,8.8
			c2.8,10,0.9,18.2-0.5,22.3c1.7-3,7.3-13.3,12.4-11.7c3,0.9,5,5.6,6.3,11.1c1.2,5.4,1.6,11.7,1.6,15.5c0,2.1-0.2,6.5-1.4,11.7
			c-1.8,7.6-4.7,12.4-5.3,13.4c-1.2,2.1-2.4,3.7-3.4,4.8C155.2,388,153.1,388.4,150.6,388.5z"/>
		<path class="st9" d="M161.6,397c0,0-0.8-1.4-2-3.7c-0.6-1.2-1.4-2.6-2.3-4.3c-0.9-1.6-2-3.4-3.2-5.4c-4.7-8-11.4-18.4-18.8-28.8
			c-7.3-10.3-15.1-20.6-21.3-28.7c-3.1-4-5.7-7.6-7.8-10.3c-2.1-2.6-3.6-4.4-4.2-5.1"/>
		<path class="st9" d="M126.8,343c2.1-10,4.1-20.1,6-30.3"/>
		<path class="st9" d="M129.1,346.6c-10-0.9-19.9-1.6-29.9-2.2"/>
		<path class="st9" d="M148.8,374.2c2.8-9.2,5.2-18.8,7.4-28.4"/>
		<path class="st9" d="M150.3,377.4c-10.5-1.8-21-3.1-31.4-4"/>
	</g>
	<g>
		<path class="st0" d="M166.6,395.3c-2.3-4.3-5.5-7.6-8.2-10.1c-1.2-1.1-2.4-2.3-3.7-3.4c-1-1-2.1-2.1-3.2-3.1
			c-4.8-4.6-9.9-9.3-14.5-14.1c-4.8-4.9-9.9-10.8-16.2-17.2c-6.3-6.3-13.1-12.5-20.6-18.6c-25.1-20.6-61.9-43.4-66.8-37.8
			c-4.9,5.6,22.2,38.4,45.9,61.3c6.8,6.6,13.6,12.6,20.2,18c6.6,5.5,13.4,10.8,20.6,15.1c7.2,4.3,14,7.2,20.2,9.6
			c6.6,2.8,12.2,3.4,16.7,6.8L166.6,395.3z"/>
		<path class="st1" d="M161.1,398c-2.7-3.4-5.9-5.4-8.8-7.2l-4.1-2.4l-0.9-0.6l-1-0.6l-2-1.3c-5.3-3.4-10.6-6.9-15.5-10.7
			c-4.9-3.8-9.6-8-14.3-12.3c-4.7-4.3-9.4-8.6-14.1-12.9c-18.9-17-38.2-33.6-57.4-50.3"/>
		<line class="st1" x1="68.4" y1="321.7" x2="57.6" y2="322.2"/>
		<line class="st1" x1="75.2" y1="327.6" x2="77.2" y2="316.2"/>
		<line class="st1" x1="90" y1="340.6" x2="79.8" y2="343.4"/>
		<line class="st1" x1="100.5" y1="350" x2="101.2" y2="336.7"/>
		<path class="st1" d="M112.2,360.7c-4.5,0.8-9,1.6-13.4,2.4"/>
		<path class="st1" d="M131.4,377.1c-0.4-3.3-0.6-6.5-0.8-9.7"/>
	</g>
	<g>
		<g>
			<g>
				<g>
					<path class="st0" d="M396.3,388.8c-0.3-2.8-0.1-5.7,0.7-8.8c0.8-3.3,1.9-6,3-8.4c1.1-2.4,2.2-4.5,3.1-6.2
						c0.8-1.7,6.2-12.5,6.7-13.4l0.4-0.7c0,0,1.1-1.9,1.4-2.4c2.5-4.3,5.2-8.4,8-12.4c2.8-4,5.7-7.8,8.5-11.6c1.3-1.8,3-3.9,4.5-5.9
						c1.6-2,3.2-4.1,4.9-6.1c6.8-8.2,14.2-16.5,22.5-24.7c3.5-3.4,7.1-6.8,11-10.3c3.8-3.5,7.9-7,12-10.3c4.2-3.4,8.4-6.6,12.7-9.5
						c4.3-3,8.5-5.3,12.5-7.6c15.9-8.9,28.8-13.7,32.1-10c3.2,3.6-3.1,15.4-13.7,29.5c-1.3,1.8-23,30.3-26.2,34.4
						c-3.2,4-6.6,8.1-9.7,11.9c-7.2,8.7-14.7,16.5-22.1,23.7c-3.7,3.6-7.3,6.9-11.2,10.4c-3.8,3.4-7.5,6.4-11,9.2
						c-3.4,2.8-6.8,5.4-10,8c-0.8,0.6-1.6,1.4-2.4,2.1c-0.8,0.7-5.7,4.8-7.2,6c-1.6,1.3-3.1,2.5-4.7,3.7c-1.5,1.1-3,2.2-4.3,3.2
						c-1.3,1.1-2.6,2.2-3.6,3.4c-1.1,1.3-1.9,2.7-2.4,4.2L396.3,388.8z"/>
					<path class="st10" d="M404.2,388.7c0.3-2.6,1.1-5,2.3-7.3c1.1-2.3,2.5-4.1,3.7-5.9c1.3-1.7,2.6-3.1,3.7-4.6l10.7-13.4
						c2.5-3,5.1-5.9,7.7-8.8c0,0,57.2-61.7,62.5-67.1c5.3-5.4,10.7-10.7,16.3-15.7l17.4-14.8"/>
					<path class="st10" d="M498.7,277.6c4.6,0.1,9.1,0.3,13.6,0.6"/>
					<path class="st10" d="M491.1,285.3c-1.5-4.7-3-9.4-4.3-14.2"/>
					<line class="st10" x1="474.9" y1="302.4" x2="488.2" y2="305.3"/>
					<line class="st10" x1="463.4" y1="314.9" x2="460.1" y2="298.3"/>
					<line class="st10" x1="450.5" y1="328.9" x2="468" y2="331.1"/>
					<path class="st10" d="M429.7,351.5c-0.5-4.2-0.9-8.4-1.3-12.6"/>
				</g>
				<g>
					<path class="st0" d="M391.2,396.3c-0.3-0.4-0.6-0.6-1.2-1.6c-0.3-0.5-0.6-1.1-1-1.8c-0.2-0.4-0.4-0.8-0.6-1.3
						c-0.2-0.4-0.4-0.8-0.5-1.3c-1.3-3.1-2.6-6.3-4-9.7c-0.6-1.6-1.3-3.2-1.9-4.9c-0.5-1.4-1.1-2.9-1.8-4.4c-1.2-3-2.6-6-4.1-9.3
						c-3-6.4-6.5-13.4-10.2-21c-0.9-1.9-9.6-20.2-11.6-24.5c-6.7-14.5-14.6-32.1-19.8-47c-1.4-3.9-2.2-7.4-3-10.5
						c-0.8-3.1-1.4-5.9-2-8.4c-0.6-2.5-0.8-4.6-0.4-6.1c0.3-1.5,1.1-2.5,2-3c0.9-0.5,2-0.6,3.3-0.4c1.3,0.2,2.8,0.6,5,2.1
						c2.5,1.6,5.1,4,7.5,6.5c2.5,2.5,4.9,5.1,7.2,7.5c10.6,11,22.8,26.8,31.8,42.5c2.6,4.5,4.9,9,7,13.5c2,4.4,3.8,8.8,5.4,13.2
						c3.2,8.8,5.6,17.7,6.9,26.2c0.7,4.3,1,8.4,1.1,12.4c0.1,2,0,4,0,5.9c-0.1,1.9-0.2,3.5-0.3,5.2c-0.2,3.4-0.4,6.7-0.7,9.9
						c-0.3,3-0.1,6.3-1,9.1L391.2,396.3z"/>
					<path class="st1" d="M397.9,395.3c0-1-0.2-2.2-0.5-3.8l-0.5-2.5c-0.2-0.9-0.3-1.7-0.4-2.5c0,0-3-17.8-3.3-19.3
						c-0.6-3.1-1.4-6.2-2.3-9.3c-3.5-12.4-8.8-24.4-14.2-36.4c-5.5-11.9-11.8-23.5-18.4-35c-3.3-5.7-13.4-22.7-14.9-25.4
						c-1.6-2.8-3.1-5.7-4.9-8.7"/>
					<line class="st1" x1="355.7" y1="282.3" x2="358.9" y2="270.9"/>
					<path class="st1" d="M360.4,290.4c-4.2,0.1-8.5,0.2-12.7,0.3"/>
					<path class="st1" d="M370.1,308.3c2.1-3.3,4-6.7,6-10.1"/>
					<path class="st1" d="M376.5,321.5c-4.7-0.9-9.5-1.7-14.2-2.4"/>
					<path class="st1" d="M383.1,336.4c2.7-4.3,5.3-8.6,7.8-13"/>
					<path class="st1" d="M391.6,361c-3.2-1.5-6.4-2.9-9.7-4.2"/>
				</g>
				<g>
					<path class="st0" d="M399.9,399.6c-0.4,0-0.7,0-1.1-0.1c-0.4-0.1-0.7-0.1-1.2-0.2c-0.5-0.1-1-0.3-1.4-0.4l-1.2-0.4
						c-1.4-0.6-2.6-1.2-3.7-1.9c-1.1-0.6-2.1-1.2-3-1.9c-0.9-0.6-1.8-1.2-2.5-1.6c-0.2-0.1-0.3-0.2-0.4-0.2c-0.1,0-0.1,0-0.1,0l0,0
						c0,0,0,0,0-0.1l0.8-1.1c0.2-0.3-1.6,2.2-0.8,1.1c0,0-27.3-15.1-29.7-16.4c-2.3-1.3-4.6-2.7-7-4.1c-7.9-4.6-17.9-9.5-26.2-13.5
						c-8.3-4-14.6-7.4-14.2-9.9c0.4-2.4,7.4-4,17.2-3.6c4.9,0.2,10.5,0.9,16.2,2.2c5.7,1.3,11.4,3.2,16.6,5.6c3,1.4,5.7,2.8,8.2,4.3
						c2.6,1.5,5,3.1,7.3,4.7c4.6,3.3,8.6,6.8,12.2,10.3c1.8,1.8,3.4,3.5,4.9,5.3c0.8,0.9,1.5,1.7,2.2,2.6c0.6,0.8,1.6,2,2.2,2.8
						c1.1,1.9,2,3.5,3.1,5c1,1.5,2,3,3.5,3.7L399.9,399.6z"/>
					<path class="st11" d="M400.2,395.5c-0.3-0.1-0.6-0.2-1-0.3c-0.4-0.1-0.7-0.3-1.1-0.5c-0.6-0.3-1.2-0.7-1.7-1
						c-1-0.7-1.9-1.4-2.7-2.2c-1.6-1.4-3-3-4.2-4.2c-0.2-0.2-0.6-0.6-1-0.9l-3.4-2.8c-1.5-1.2-3.1-2.4-4.6-3.6
						c-6.3-4.7-12.8-9.1-19.7-13.1c-6.8-4-14-7.5-21.5-10.3c-7.5-2.8-15.3-4.9-23.2-6.5"/>
					<path class="st11" d="M336.7,355.7c-1-2.2-2.1-4.3-3.2-6.4"/>
					<path class="st11" d="M342,357.7c-2,1.7-3.9,3.3-5.8,5"/>
					<path class="st11" d="M353.2,362.8c-0.2-2.3-0.4-4.7-0.7-7.1"/>
					<path class="st11" d="M361,367c-2.7,1.2-5.3,2.4-7.8,3.7"/>
					<path class="st11" d="M369.3,372.2c-0.1-3-0.3-6.1-0.5-9.1"/>
					<path class="st11" d="M382.2,381.3c-2.1,0.4-4.2,0.9-6.3,1.4"/>
				</g>
				<g>
					<path class="st7" d="M396.9,391.5c0.4-1.5,1-3,1.7-4.5c0.7-1.4,1.8-3.1,2.5-4.3c0.8-1.2,1.5-2.3,1.3-2.6
						c0.8-1.2,1.7-2.5,2.5-3.6c3.6-4.7,7.8-8.8,11.4-12c3.8-3.4,8.6-7,14.5-10.2c1.5-0.8,3.1-1.6,4.7-2.3c1.5-0.6,3.1-1.3,4.7-1.9
						c3.3-1.2,6.9-2.2,10.8-2.9c3.3-0.6,6.8-1,10.4-1c1.8,0,3.7,0,5.5,0.2c0.5,0,0.9,0.1,1.4,0.1l1.2,0.2c0.8,0.1,1.5,0.3,2.3,0.5
						c6.1,1.3,11.7,3.2,16.5,5.3c4.9,2.1,9.1,4.5,12.2,6.8c3.2,2.4,5.3,4.8,5.6,7.3c0.3,2.5-1.2,5-4,7.4c-2.8,2.3-7,4.4-11.6,6.2
						c-4.6,1.8-9.7,3.2-14.4,4.4l-1.8,0.4l-17.4,5.1c-0.6,0.2-1.2,0.3-1.8,0.5c-1.1,0.3-2.3,0.5-3.4,0.8c-4.7,1.1-9.7,2.4-14.9,3.4
						c-5.2,1-9.7,1.3-14,1.9c-0.5,0.1-2.4,0.4-2.4,0.4c-0.3,0-0.5,0.1-0.9,0.2c-1.3,0.4-2.3,0.5-3.4,0.6c-2,0.3-4.2,0.7-5.7,1.7
						L396.9,391.5z"/>
					<path class="st12" d="M404.1,395.4c0.7-1.1,1.6-2.2,2.6-3.1c1-1,2.1-1.8,3-2.4c0.4-0.3,0.9-0.6,1.2-0.8
						c0.2-0.1,0.8-0.6,1.2-0.9c0.9-0.7,1.9-1.4,2.8-2c3.8-2.5,7.6-4.4,11.3-6.2c7.4-3.7,15.1-7.3,22.9-9.8
						c7.9-2.5,15.9-4.1,23.7-3.9c8.1,0.2,16.2,0.8,24.6,1.1"/>
					<path class="st12" d="M475.9,366.3c2,3.5,3.9,6.9,5.8,10.4"/>
					<path class="st12" d="M470.2,366.2c0.6-4.5,1.5-8.9,2.4-13.4"/>
					<path class="st12" d="M458,367.7c2.5,3.5,4.9,7.2,7.1,10.9"/>
					<path class="st12" d="M449.3,370.1c-0.3-4.9-0.3-9.8-0.1-14.7"/>
					<path class="st12" d="M439.6,373.7c4.1,3.6,8.1,7.3,11.9,11.2"/>
					<path class="st12" d="M424.5,380.9c-0.4-3.4-0.9-6.8-1.3-10.3"/>
				</g>
				<g>
					<path class="st7" d="M390.9,400.4c-3.8-14.1-5.4-31.1-4-50.1c0.7-9.5,2.2-19.6,5-30.2c2.6-10.1,6.1-20.4,10.4-30.9
						c3.6-8.8,8.1-18,12.8-26.9c1.2-2.2,2.4-4.4,3.6-6.5c1.2-2.2,2.5-4.3,3.7-6.4c2.6-4.4,5.4-8.3,8.1-11.9
						c5.4-7,10.6-12.5,14.8-16.3c4.2-3.8,7.6-5.9,9.8-5c2.2,0.9,3,4.8,2.7,10.6c-0.3,5.8-1.9,13.4-3.8,21.3c-0.9,3.9-1.9,8-2.7,12
						c-1,4.6-2.1,9.4-3.3,14.1c-2.4,9.5-5.2,19.2-8,28.1c-1.6,5.1-3.3,10.1-5,14.9c-0.9,2.4-20.4,54.8-23,61.9
						c-2.5,7.1-4.8,13.7-6.5,20L390.9,400.4z"/>
					<path class="st13" d="M398.4,399c-0.1-7.8,0.5-15.4,1.4-22.9c0.9-7.5,2.2-14.8,3.7-22.1c1.5-7.3,3.2-14.5,5.3-21.6
						c2-7.1,4.4-14.1,6.7-21.1c4.8-13.9,9.9-27.6,15.3-41.2l6.1-15.3c0.7-1.6,1.4-3.3,2.1-4.9c3-6.5,6.3-12.9,9.7-19.5"/>
					<line class="st13" x1="432.8" y1="265.1" x2="445" y2="260.2"/>
					<line class="st13" x1="429" y1="274.8" x2="419.8" y2="263.9"/>
					<line class="st13" x1="420.9" y1="295.9" x2="433.8" y2="293.5"/>
					<path class="st13" d="M415.5,311.4c-3.1-4.4-6.2-8.9-9.2-13.4"/>
					<path class="st13" d="M409.8,328.7c5.3-1.8,10.7-3.5,16-5.1"/>
					<path class="st13" d="M402.7,357.7c-2.5-3.2-4.9-6.5-7.3-9.9"/>
				</g>
			</g>
			<g>
				<path class="st14" d="M410.7,399.3H400V24c0-2.1,1.7-3.8,3.8-3.8h3.1c2.1,0,3.8,1.7,3.8,3.8V399.3z"/>
				<path class="st15" d="M442.1,237.7H348c-3.6,0-6.6-3-6.6-6.6v-29.8c0-3.6,3-6.6,6.6-6.6h94.1c1.6,0,3.2,0.6,4.4,1.7
					c5.4,4.9,10.8,9.8,16.2,14.7c2.9,2.6,2.9,7.1,0.1,9.7c-5.4,5-10.8,10.1-16.2,15.1C445.4,237,443.8,237.7,442.1,237.7z"/>
				<path class="st8" d="M444,239.4h-94.1c-3.6,0-6.6-3-6.6-6.6v-29.8c0-3.6,3-6.6,6.6-6.6H444c1.6,0,3.2,0.6,4.4,1.7
					c5.4,4.9,10.8,9.8,16.2,14.7c2.9,2.6,2.9,7.1,0.1,9.7c-5.4,5-10.8,10.1-16.2,15.1C447.3,238.7,445.7,239.4,444,239.4z"/>
				<path class="st16" d="M455.3,134.8L372,178.4c-3.2,1.7-7.2,0.4-8.9-2.8l-13.8-26.4c-1.7-3.2-0.4-7.2,2.8-8.9l83.4-43.7
					c1.5-0.8,3.1-1,4.7-0.5c7.1,1.8,14.1,3.7,21.2,5.5c3.7,1,5.8,4.9,4.6,8.6c-2.5,7-4.9,13.9-7.4,20.9
					C457.9,132.7,456.8,134,455.3,134.8z"/>
				<path class="st17" d="M458.6,134.8l-83.3,43.7c-3.2,1.7-7.2,0.4-8.9-2.8l-13.8-26.4c-1.7-3.2-0.4-7.2,2.8-8.9l83.4-43.7
					c1.5-0.8,3.1-1,4.7-0.5c7.1,1.8,14.1,3.7,21.2,5.5c3.7,1,5.8,4.9,4.6,8.6c-2.5,7-4.9,13.9-7.4,20.9
					C461.2,132.7,460.1,134,458.6,134.8z"/>
				<path class="st18" d="M364,55.6l76.2-22.4c3-0.9,6.1,0.8,6.9,3.8l7.1,24.1c0.9,3-0.8,6.1-3.8,6.9l-76.2,22.4
					c-1.3,0.4-2.8,0.3-4-0.3c-5.5-2.7-11.1-5.4-16.6-8.1c-2.9-1.4-4-5.1-2.4-7.9c3.2-5.4,6.4-10.7,9.6-16.1
					C361.5,56.9,362.6,56,364,55.6z"/>
				<path class="st0" d="M366.6,56.9l76.2-22.4c3-0.9,6.1,0.8,6.9,3.8l7.1,24.1c0.9,3-0.8,6.1-3.8,6.9l-76.2,22.4
					c-1.3,0.4-2.8,0.3-4-0.3c-5.5-2.7-11.1-5.4-16.6-8.1c-2.9-1.4-4-5.1-2.4-7.9c3.2-5.4,6.4-10.7,9.6-16.1
					C364.1,58.2,365.3,57.3,366.6,56.9z"/>
				<circle class="st18" cx="405.1" cy="63.2" r="3.2"/>
				<path class="st18" d="M408.5,140.7c0-1.7-1.4-3.1-3.1-3.1c-1.7,0-3.1,1.4-3.1,3.1c0,1.7,1.4,3.1,3.1,3.1
					C407.1,143.8,408.5,142.4,408.5,140.7z"/>
				<path class="st18" d="M408.2,217.9c0-1.7-1.4-3.2-3.2-3.2c-1.7,0-3.2,1.4-3.2,3.2c0,1.7,1.4,3.2,3.2,3.2
					C406.8,221,408.2,219.6,408.2,217.9z"/>
			</g>
		</g>
		<g>
			<g>
				<path class="st8" d="M564.9,390.7c6.5,0.4,11.8-0.6,14.9-1.4c2.8-0.7,4.9-1.5,6.2-2.1c4.6-1.9,15-7,14.5-11.7
					c-0.4-4.6-10.6-6.3-11.9-6.5c3.2-0.1,8.7-0.7,14.6-3.7c1.1-0.6,4.3-2.2,7.2-4.4c1.4-1.1,2.8-2.3,3.8-3.7
					c0.5-0.7,0.9-1.4,1.1-2.1c0.2-0.7,0.4-1.4,0.4-2.2c-0.1-4.1-5.6-7-12.6-7.5c0.8-0.9,1.9-2.3,3-3.8c1.1-1.5,2.1-3.3,3.1-5.2
					c0.2-0.5,0.8-1.6,1.4-2.9c0.6-1.3,1.3-2.9,2-4.6c1.4-3.3,3-7.4,1.3-9.9c-1.1-1.5-3-2.2-4.9-2.4c-1.9-0.2-3.9,0-5,0.2
					c-1.7,0.3-3.3,0.9-4.8,1.7c-1.5,0.8-2.7,1.7-3.8,2.7c-2.1,1.9-3.5,3.7-4.2,4.7c-2.5,3.4-2.9,4.5-3.5,6.4
					c-0.9-4.3-2.5-7.4-4.5-9.3c-2-1.9-4.2-2.6-6.2-2.4c-0.6,0.1-1.2,0.3-1.8,0.6c-0.5,0.3-1.1,0.8-1.6,1.4c-1.1,1.2-2,2.8-2.8,4.4
					c-1.6,3.2-2.5,6.5-2.7,7.3c-2.4,8.3-0.7,15.2,0.4,18.5c-1.4-2.5-6.1-11.1-10.4-9.7c-2.5,0.8-4.2,4.7-5.2,9.2
					c-1,4.5-1.4,9.7-1.3,12.9c0,1.8,0.2,5.4,1.2,9.7c1.5,6.3,3.9,10.3,4.4,11.2c1,1.7,2,3.1,2.8,4
					C561.1,390.3,562.8,390.6,564.9,390.7z"/>
				<path class="st9" d="M555.8,397.8c0,0,0.6-1.1,1.7-3.1c0.5-1,1.1-2.2,1.9-3.6c0.7-1.4,1.6-2.9,2.6-4.5
					c3.9-6.6,9.5-15.3,15.6-23.9c6.1-8.6,12.6-17.1,17.7-23.9c2.6-3.4,4.7-6.3,6.5-8.5c1.7-2.2,3-3.6,3.5-4.2"/>
				<path class="st9" d="M584.7,352.8c-1.8-8.3-3.4-16.7-5-25.2"/>
				<path class="st9" d="M582.8,355.8c8.3-0.8,16.6-1.3,24.9-1.8"/>
				<path class="st9" d="M566.4,378.8c-2.3-7.7-4.3-15.6-6.1-23.6"/>
				<path class="st9" d="M565.1,381.4c8.8-1.5,17.5-2.6,26.1-3.3"/>
			</g>
			<line class="st19" x1="105.4" y1="399.3" x2="667.1" y2="399.3"/>
		</g>
		<g>
			<path class="st18" d="M275.2,33c-0.2,1.8-1.7,3.2-3.6,3.2h-2.7c-1.2,0-2.2-1-2.2-2.2c0,0,0,0,0,0c0-2.7,0.4-4.9,1.3-6.6
				c0.9-1.7,2.7-3.7,5.3-5.9c2.7-2.2,4.3-3.6,4.8-4.3c0.8-1.1,1.2-2.2,1.2-3.5c0-1.8-0.7-3.3-2.1-4.6c-1.4-1.3-3.3-1.9-5.7-1.9
				c-2.3,0-4.3,0.7-5.8,2c-0.9,0.8-1.6,1.8-2.2,3c-0.8,1.8-2.7,2.8-4.7,2.6l0,0c-1.4-0.2-2.5-1-3.2-2.2c-0.6-1.2-0.6-2.7,0-3.9
				c0.8-1.6,2-3.1,3.5-4.4c3.1-2.7,7.1-4.1,12.1-4.1c5.3,0,9.4,1.4,12.5,4.1c3.1,2.7,4.7,5.9,4.7,9.6c0,2-0.6,3.9-1.7,5.7
				c-1.1,1.8-3.6,4.3-7.3,7.4c-1.9,1.6-3.1,2.9-3.6,3.9C275.4,31.4,275.3,32.1,275.2,33z M270.9,48.4c-2.3,0-4.2-1.9-4.2-4.2v-0.8
				c0-2.3,1.9-4.2,4.2-4.2h0.8c2.3,0,4.2,1.9,4.2,4.2v0.8c0,2.3-1.9,4.2-4.2,4.2H270.9z"/>
			<g>
				<g>
					<defs>
						<path id="XMLID_167_" d="M251,376.7l-4.3,4.1c0,0,0.8,6.2-0.6,7.8s-3.9,3.7-2.9,6.6c1,2.9,2.8,4.2,2.8,4.2h16.4
							c0,0,2.9-4.3,2.9-5.6s-1.5-16-4.1-17C258.7,375.7,251,376.7,251,376.7z"/>
					</defs>
					<use xlink:href="#XMLID_167_"  style="overflow:visible;fill:#2C3E50;"/>
					<clipPath id="XMLID_2_">
						<use xlink:href="#XMLID_167_"  style="overflow:visible;"/>
					</clipPath>
					<rect x="235" y="397.7" class="st20" width="38.3" height="3.2"/>
				</g>
				<g>
					<defs>
						<path id="XMLID_166_" d="M300.4,383.6c0,0-0.6,6,0,9c0.6,3.1,1.1,6.7,1.1,6.7h38.8c0,0,3.9-1.8,3.9-3.9c0-2.2-1.5-5.5-8.5-5.3
							c-7.6-3.8-17.3-12.3-17.3-12.3l-10.9,4.1L300.4,383.6z"/>
					</defs>
					<use xlink:href="#XMLID_166_"  style="overflow:visible;fill:#2C3E50;"/>
					<clipPath id="XMLID_3_">
						<use xlink:href="#XMLID_166_"  style="overflow:visible;"/>
					</clipPath>
					<rect x="295.9" y="397" class="st21" width="48.4" height="4.1"/>
				</g>
				<path class="st22" d="M271.7,259.9l18.9,43.1c0,0-0.9,4.5,0,6.8c0.9,2.3,2.4,5.3,2.4,5.3s-1.5,22.1,0,29.5
					c1.5,7.4,5.3,20.5,4.8,23.4c-0.5,2.8,2.5,5.1,2.5,6.7s0,8.9,0,8.9h8.7l9.4-5.9l-4.1-58.8c0,0,1-10.4,0.3-13
					c-0.8-2.5-3.6-12.5-3.6-12.5s4.4-47.8-7.7-62.3c-12.1-14.5-24.6-8.7-24.6-8.7L271.7,259.9z"/>
				<g>
					<defs>
						<path id="XMLID_165_" d="M284.8,243.4c0,0-11.9,52.2-21.1,61.6c4.1,8.7-2.5,15.8-2.5,15.8l2.2,58.3c0,0-1.2-1.3-6.6-1.1
							c-5.3,0.3-10.2,2.8-10.2,2.8s-9.9-40.5-3.3-63.9c0.8-21.6,1.3-53.9,0.5-59c-0.8-5.1-3-15.2-3-25.4c0.1-10.2,46-6.7,46-6.7
							L284.8,243.4z"/>
					</defs>
					<use xlink:href="#XMLID_165_"  style="overflow:visible;fill:#CB8252;"/>
					<clipPath id="XMLID_4_">
						<use xlink:href="#XMLID_165_"  style="overflow:visible;"/>
					</clipPath>
					<path class="st23" d="M245.9,230.4l3.1,25.4l-1.4,46.6c0,0-3,16.2-3.1,21.1c-0.2,25.7,0.7,38.5,4.5,57.7"/>
					<path class="st23" d="M248.8,261.4c0,0,11.4-3.4,11.7-9.6c0.3-6.2,0-21.9,0-21.9"/>
					<path class="st24" d="M289,236.5c0,0.2-12,0.8-12.9,0.9c-6.5,0.8-13.1,0.9-19.7,0.5c-6.4-0.4-12.7-1-19.1-1.5v-4.8H289
						C289,231.6,289,236.5,289,236.5z"/>
				</g>
				<path class="st14" d="M255,118.9l-11.1,14c0,0,3.2,68.9,0,75c-3.2,6.1-4.9,9.5-3.9,11.5c1,2,2.5,7.5,1.7,9
					c-0.8,1.5-0.7,4.1-0.7,4.1s20.5,4.5,32.6,0.8c14.8-4.6,31.6,0,31.6,0s-3.7-16.2-4.3-21.8c-0.7-5.6-2-27-2-27l4.6-29.7l-9.3-22.7
					l-6.7-8l-4.1-1.9l-19.1-0.7L255,118.9z"/>
				<path class="st18" d="M245,198.6l-0.5,6.3c0,0,17.3-2.2,24.1-5.6c6.8-3.4,14.9-8.1,14.9-8.1l16,3.8l-0.4-6.3l-15.6-4l-29.1,12.7
					L245,198.6z"/>
				<path class="st25" d="M257.3,100.9c0,0,1.3,6.3,1.1,10.6c-0.3,4.3-5.9,10.6-5.9,10.6s13,18.5,19.4,18.4
					c6.4-0.1,13.2-16.1,13-17.2c-0.2-1.1-5.2-2.2-5.2-2.2v-13.8l-16.3-13.9L257.3,100.9z"/>
				<path class="st18" d="M282.1,80.7c0,0,3.1-0.6,3.1-2.6c-0.1-2.1-0.1-9-13.3-9c-13.2,0-20,10.1-22.8,15.2
					c-2.9,5.2-1.3,8.9,1.3,13.7c2,3.7,8.1,12.4,8.1,12.4l2.5-13.7l2.1-0.2l3.2,4.1l7.1-0.9l-2.5-18.6L282.1,80.7z"/>
				<path class="st25" d="M266.4,99.5c0-2.9-1.8-5.3-4-5.3c-2.2,0-4,2.4-4,5.3c0,2.9,1.8,5.3,4,5.3
					C264.6,104.8,266.4,102.5,266.4,99.5z"/>
				<g>
					<defs>
						<polygon id="XMLID_164_" points="271.5,195 290.6,185 274.6,177.5 263.8,186.2 						"/>
					</defs>
					<use xlink:href="#XMLID_164_"  style="overflow:visible;fill:#D08B73;"/>
					<clipPath id="XMLID_5_">
						<use xlink:href="#XMLID_164_"  style="overflow:visible;"/>
					</clipPath>
					<polygon class="st26" points="271.5,184.4 283.4,190.2 288.3,184.4 267.9,175 					"/>
				</g>
				<path class="st18" d="M298.9,142.7c0,0-5.9,11.4-5.1,16.4c0.8,5,2.5,11.1,2.5,11.1h-12.2c0,0-16.3-4.3-20.4-3.7
					c-4.1,0.6-14.8,3.7-14.8,3.7l1.3,4.3l18.3-2.4l11.9,3.7h15.6l7.2-1.2l-0.7-21.8L298.9,142.7z"/>
				<g>
					<path class="st25" d="M286.2,173.8c0,0-13.4-3.2-19-3.3c-5.6-0.1-16.9,1-16.9,1v9.3c0,0,18.2-1,21.2,1.1
						c3.1,2.2,13.9,6.8,13.9,6.8l7.6-3.4L286.2,173.8z"/>
					<path class="st14" d="M284.8,123.3c0,0,19.9,5.7,24.2,13.2c4.3,7.5,2.8,18.8,3.7,23.8c0.9,5,6.7,26,2.5,29.4
						c-4.2,3.4-30.5,0-30.5,0v-16.5c0,0,8.7-1.4,14.7-1.1c-2.9-8.3-5.1-15.4-2-24.7C300.5,138,284.8,123.3,284.8,123.3z"/>
				</g>
				<path class="st18" d="M247.5,146.5c0,0,6.5,4,8,12.8c1.5,8.7,1.5,8.7,1.5,8.7l-12.6,5.2v-24.8L247.5,146.5z"/>
				<g>
					<defs>
						<path id="XMLID_163_" d="M250.3,147.8c4.2,7.9,3.5,20.9,2.1,31.3c6.7-2.1,19.1,2.8,19.1,2.8V195c0,0-14.6,9-28.4,4.8
							c-10.6-5.6-14.5-55.8-14-59.3c0.5-3.4,23.3-18.4,23.3-18.4S246.1,139.9,250.3,147.8z"/>
					</defs>
					<use xlink:href="#XMLID_163_"  style="overflow:visible;fill:#35495E;"/>
					<clipPath id="XMLID_6_">
						<use xlink:href="#XMLID_163_"  style="overflow:visible;"/>
					</clipPath>
					<path class="st27" d="M254.2,176.1l-1.7,3c0,0,2.2-0.2,7.3,1.3c5.1,1.6,14.8,5,14.8,5l-1.4-5.7l-16.5-3.9L254.2,176.1z"/>
				</g>
				<path class="st28" d="M265.7,107.3c0,0,2.9,5.3,4.5,6.2c1.5,0.9,9.4,2.3,9.4,2.3v5.1c0,0-6.2-0.3-10.4-4.5
					C265.4,112.7,265.7,107.3,265.7,107.3z"/>
				<path class="st18" d="M266.3,100.4c0,0-2.2,10.5,2.2,13.4c4.4,2.9,8.9,3.2,11.3,2.9c2.4-0.3,7.9-2.7,7.9-6.3
					c0-3.6,0-11.6,0-11.6L270.6,98L266.3,100.4z"/>
				<path class="st25" d="M283.6,80.1c1.8,1.4,3.2,3.5,3.6,5.7c0.4,2.2,0.1,6.7,0.1,6.7s3.8,5.1,4,6.3c0.2,1.2-4.6,0.6-4.6,0.6
					s-3.6,6.4-7.2,5.8c-3.2-0.5-6.4-2.7-8.5-5.1c-1.8-2.1-2.3-4.5-2.4-7.1c-0.1-2.3-0.5-4.6-0.6-6.9c-0.1-1.8-0.4-4.4,0.4-6.1
					c1.8-3.5,8.1-1.3,11.7-1.1C282.2,79.1,282.6,79.3,283.6,80.1z"/>
				<path class="st29" d="M249,124.4c0,0,14.5,22.1,23.4,20.7c12.5-2,15.9-20.7,15.9-20.7"/>
				<path class="st28" d="M263.6,96.8c0,0-2.3-0.6-2.7,1.2c-0.4,1.7,0.5,3.3,1.5,2.5c0.9-0.8,0-1,0-1.8
					C262.4,97.9,264.8,98,263.6,96.8z"/>
			</g>
		</g>
	</g>
</g>
</svg>
