<?xml version="1.0" encoding="utf-8"?>
<!-- Generator: Adobe Illustrator 24.0.0, SVG Export Plug-In . SVG Version: 6.00 Build 0)  -->
<svg version="1.1" xmlns="http://www.w3.org/2000/svg" xmlns:xlink="http://www.w3.org/1999/xlink" x="0px" y="0px"
	 viewBox="0 0 750 500" style="enable-background:new 0 0 750 500;" xml:space="preserve">
<style type="text/css">
	.st0{opacity:0.34;}
	.st1{opacity:0.6;}
	.st2{fill:#53D0F7;}
	.st3{opacity:0.41;}
	.st4{opacity:0.35;}
	.st5{opacity:0.47;}
	.st6{opacity:0.7;}
	.st7{fill:#233863;stroke:#233863;stroke-width:3;stroke-miterlimit:10;}
	.st8{fill:#3D85FD;}
	.st9{fill:#233863;}
	.st10{opacity:0.24;fill:#233863;}
	.st11{fill:#FFFFFF;}
	.st12{fill:#FFB44F;}
	.st13{fill:#3AAED5;}
	.st14{opacity:0.12;fill:#FFFFFF;}
	.st15{fill:none;stroke:#233863;stroke-width:3;stroke-linecap:round;stroke-linejoin:round;stroke-miterlimit:10;}
</style>
<g id="BACKGROUND">
	<g class="st0">
		<g>
			<g class="st1">
				<path class="st2" d="M620.8,291.6c4.8,21.1,4,40.5-2.4,61.2c-8,25.9-26,50-51.8,64.8c-9,5.2-18.7,9.1-28.8,11.9
					c-1.6,2.6-3.4,5.2-5.3,7.6h86.2c21.9-26.1,34.5-59.6,36.5-93.6c0.5-9.2,0.3-18.5-0.7-27.6c-4-35.5-19.8-69.3-43.4-96.2
					c-0.3,1.9-0.6,3.8-0.9,5.7C607.6,248,615.9,269.9,620.8,291.6z"/>
			</g>
			<g class="st3">
				<path class="st2" d="M353.9,431.9c-5.1-7-9-15.9-14.4-23c-11.5,2.3-22.8,5.7-34.3,8.7c-23.5,6-47.7,10.5-71.9,10.8
					c-26.9,0.4-54.4-4.8-77.8-18.7c-17.9-10.6-33.6-26.7-42.1-45.9c2.4,26.5,12,52.4,28.2,73.4h216.4
					C356.5,435.5,355.2,433.7,353.9,431.9z"/>
			</g>
			<g class="st3">
				<path class="st2" d="M388,67.7c6.5-0.2,13.6-0.6,21.3-1.2c35.8-2.7,71.3,5.5,105.7,16.7c3.3,1.1,6.6,2.3,9.9,3.5
					c-14.8-16.3-33.7-29-54.5-36.2c-41.2-14.3-91.1-8.6-127.3,13.9C357.9,64.4,372.9,65.5,388,67.7z"/>
			</g>
			<g class="st4">
				<path class="st2" d="M154.6,410c23.4,13.5,50.8,18.7,77.7,18.5c24.2-0.2,48.5-4.4,72-10.1c11.5-2.8,22.9-6,34.4-8.2
					c-4.7-6.1-10.5-10.9-19.1-11.9c-33.4-4-68.5,9.8-101.7,12.1c-22.3,1.6-46-1.5-64.1-14.8c-11.7-8.7-20.2-21.1-26.1-34.5
					c-12.1-27.8-12.4-59.7-2.2-88.2c6.9-19.2,23.7-33.9,29.5-53.5c4.9-16.4-0.8-33.5,0.8-50c0.3-3.4,1-6.7,2-10
					c5.7-17.6,33.3-43,50.2-51.5c40.5-20.4,82.8-30.3,126-31.3c-24.5-4.1-47.7-11.5-88.8-20.2c-48.8-10.4-103.7,25.5-132.5,67.1
					c-2.9,4.3-5.5,8.7-7.7,13.3c-10,20.7-12.8,44.6-8.2,67c5.4,26.3,22.2,46.6,16.2,74.6c-3.7,17.1-4.6,32.9-6.5,49.8
					c-1.5,13.2,1,25.8,6.1,37.3C121.1,384,136.7,399.7,154.6,410z"/>
			</g>
			<g class="st5">
				<path class="st2" d="M409.2,66.5c-7.7,0.6-14.7,1-21.3,1.2c22.2,3.1,44.6,8.5,66.9,15.8c0,0,83.5,27.5,83.5,27.5
					c39.3,12.9,65.3,50.5,62.8,91.8c0,0.3,0,0.5-0.1,0.8c-1.6,23.9-9.5,47.4-22.7,67c-11.9,17.8-28.4,37.7-32.5,59.6
					c-3.3,17.4,3.8,35,4.7,52.7c0.8,16.8-4.2,32.8-12.9,46.6c10.1-2.8,19.8-6.7,28.8-11.9c25.7-14.8,43.8-38.9,51.8-64.8
					c6.4-20.7,7.2-40.1,2.4-61.2c-4.9-21.7-13.2-43.6-10.6-66.2c0.2-1.9,0.5-3.8,0.9-5.7c2.5-13.8,8-27.2,6.8-41.1
					c-0.9-10.5-5.5-20.4-11.2-29.2c-18.8-29.5-49-50.2-81.9-62.7c-3.3-1.2-6.6-2.4-9.9-3.5C480.6,71.9,445.1,63.8,409.2,66.5z"/>
			</g>
			<g class="st6">
				<path class="st2" d="M157.5,150.9c-1.1,3.4-1.7,6.9-2,10.4c-1.5,17.1,4.2,34.7-0.6,51.6c-5.8,20.3-22.5,35.4-29.3,55.3
					c-10.1,29.4-9.6,62.3,2.6,91c5.9,13.8,14.5,26.6,26.2,35.5c18.1,13.7,41.8,16.7,64.1,14.9c33.2-2.6,68.2-17,101.6-13
					c8.6,1,14.5,5.9,19.2,12.2c5.4,7.1,9.3,16,14.4,23c1.3,1.8,2.7,3.6,4.1,5.3h174.6c1.9-2.5,3.7-5,5.3-7.6
					c8.7-13.8,13.7-29.8,12.9-46.6c-0.9-17.7-8-35.3-4.7-52.7c4.1-21.8,20.6-41.8,32.5-59.6c13.2-19.7,21.1-43.1,22.7-67
					c0-0.3,0-0.5,0.1-0.8c2.4-41.3-23.6-78.9-62.8-91.8c0,0-83.5-27.5-83.5-27.5c-22.4-7.4-44.7-12.7-66.9-15.8
					c-15-2.1-30-3.3-44.9-3.3c-3.3,0-6.5,0-9.8,0.1c-43.1,1.3-85.4,11.7-125.8,32.9C190.6,106.3,163.2,132.7,157.5,150.9z"/>
			</g>
			<g class="st4">
				<circle class="st2" cx="311.8" cy="42.7" r="13.6"/>
			</g>
			<g class="st4">
				<circle class="st2" cx="678.9" cy="204.3" r="30.7"/>
			</g>
			<g class="st4">
				
					<ellipse transform="matrix(0.7692 -0.639 0.639 0.7692 -153.3179 101.6553)" class="st2" cx="64.1" cy="263.1" rx="30.7" ry="30.7"/>
			</g>
			<g class="st4">
				<circle class="st2" cx="551.4" cy="71.4" r="9.3"/>
			</g>
		</g>
	</g>
	<path class="st7" d="M663.5,433.3H86.5c-0.6,0-1.2-0.5-1.2-1.2v-0.4c0-0.6,0.5-1.2,1.2-1.2h577.1c0.6,0,1.2,0.5,1.2,1.2v0.4
		C664.7,432.8,664.2,433.3,663.5,433.3z"/>
</g>
<g id="OBJECTS">
	<g>
		<g>
			<g>
				<path class="st8" d="M285.5,411.6l-107.1,0.2c-8.2,0-15-6.7-15-14.9l-0.1-69.7c0-8.2,6.7-15,14.9-15l107.1-0.2
					c8.2,0,15,6.7,15,14.9l0.1,69.7C300.4,404.9,293.7,411.6,285.5,411.6z"/>
				<path class="st9" d="M178.3,413.3c-9.1,0-16.4-7.4-16.4-16.4l-0.1-69.7c0-9.1,7.3-16.5,16.4-16.5l107.1-0.2c0,0,0,0,0,0
					c9.1,0,16.4,7.4,16.4,16.4l0.1,69.7c0,4.4-1.7,8.5-4.8,11.6s-7.2,4.8-11.6,4.9l0,0L178.3,413.3
					C178.4,413.3,178.4,413.3,178.3,413.3z M285.5,411.6L285.5,411.6L285.5,411.6z M285.3,313.5
					C285.3,313.5,285.3,313.5,285.3,313.5l-107.1,0.2c-7.4,0-13.4,6.1-13.4,13.5l0.1,69.7c0,7.4,6,13.4,13.4,13.4c0,0,0,0,0,0
					l107.1-0.2c3.6,0,6.9-1.4,9.5-4c2.5-2.6,3.9-5.9,3.9-9.5l-0.1-69.7C298.7,319.5,292.7,313.5,285.3,313.5z"/>
			</g>
			<path class="st10" d="M285.5,411.6l-107.1,0.2c-8.2,0-15-6.7-15-14.9l-0.1-69.7c0-8.2,6.7-15,14.9-15l107.1-0.2
				c8.2,0,15,6.7,15,14.9l0.1,69.7C300.4,404.9,293.7,411.6,285.5,411.6z"/>
		</g>
		<g>
			<g>
				<g>
					<path class="st11" d="M279.4,396.1l-47.2-45.2c-0.5-0.5-0.5-1.3,0-1.8l61.2-63.8c0.5-0.5,1.3-0.5,1.8,0l47.2,45.2
						c0.5,0.5,0.5,1.3,0,1.8L281.2,396C280.8,396.5,279.9,396.6,279.4,396.1z"/>
					<path class="st9" d="M280.3,397.9c-0.7,0-1.4-0.3-1.9-0.8c0,0,0,0,0,0l-47.2-45.2c-0.5-0.5-0.8-1.2-0.9-1.9
						c0-0.7,0.3-1.4,0.8-2l61.2-63.8c1.1-1.1,2.8-1.1,3.9-0.1l47.2,45.2c1.1,1.1,1.1,2.8,0.1,3.9l-61.2,63.8
						C281.8,397.6,281.1,397.9,280.3,397.9C280.4,397.9,280.3,397.9,280.3,397.9z M280.5,395L280.5,395
						C280.5,395,280.5,395,280.5,395L280.5,395z M233.5,349.9l46.8,44.9l60.9-63.5l-46.8-44.9L233.5,349.9z"/>
				</g>
				<path class="st12" d="M328.5,331.8c-0.2,0-0.5-0.1-0.7-0.3l-17.8-17c-0.4-0.4-0.4-1,0-1.4c0.4-0.4,1-0.4,1.4,0l17.8,17
					c0.4,0.4,0.4,1,0,1.4C329,331.7,328.8,331.8,328.5,331.8z"/>
				<path class="st9" d="M319.6,343.5c-0.2,0-0.5-0.1-0.7-0.3l-35.5-34c-0.4-0.4-0.4-1,0-1.4c0.4-0.4,1-0.4,1.4,0l35.5,34
					c0.4,0.4,0.4,1,0,1.4C320.1,343.4,319.8,343.5,319.6,343.5z"/>
				<path class="st9" d="M308,355.6c-0.2,0-0.5-0.1-0.7-0.3l-35.5-34c-0.4-0.4-0.4-1,0-1.4c0.4-0.4,1-0.4,1.4,0l35.5,34
					c0.4,0.4,0.4,1,0,1.4C308.5,355.5,308.3,355.6,308,355.6z"/>
				<path class="st9" d="M297.1,367c-0.2,0-0.5-0.1-0.7-0.3l-35.5-34c-0.4-0.4-0.4-1,0-1.4c0.4-0.4,1-0.4,1.4,0l35.5,34
					c0.4,0.4,0.4,1,0,1.4C297.6,366.9,297.4,367,297.1,367z"/>
				<path class="st9" d="M285.5,379.1c-0.2,0-0.5-0.1-0.7-0.3l-35.5-34c-0.4-0.4-0.4-1,0-1.4c0.4-0.4,1-0.4,1.4,0l35.5,34
					c0.4,0.4,0.4,1,0,1.4C286.1,379,285.8,379.1,285.5,379.1z"/>
			</g>
			<g>
				<g>
					<path class="st11" d="M252.3,338.4l-60.5,24.7c-0.7,0.3-1.4,0-1.7-0.7l-33.4-81.9c-0.3-0.7,0-1.4,0.7-1.7l60.5-24.7
						c0.7-0.3,1.4,0,1.7,0.7l33.4,81.9C253.3,337.4,252.9,338.2,252.3,338.4z"/>
					<path class="st9" d="M191.3,364.7c-0.4,0-0.7-0.1-1.1-0.2c-0.7-0.3-1.2-0.8-1.5-1.5l-33.4-81.9c-0.3-0.7-0.3-1.4,0-2.1
						c0.3-0.7,0.8-1.2,1.5-1.5l60.5-24.7c1.4-0.6,3,0.1,3.6,1.5l33.4,81.9c0.6,1.4-0.1,3-1.5,3.6c0,0,0,0,0,0l-60.5,24.7
						C192,364.7,191.7,364.7,191.3,364.7z M158.2,280.2l33.3,81.5l60.1-24.5l-33.3-81.5L158.2,280.2z M252.3,338.4L252.3,338.4
						L252.3,338.4z M251.7,337L251.7,337L251.7,337L251.7,337z"/>
				</g>
				<path class="st9" d="M209.3,285.3c-0.4,0-0.8-0.2-0.9-0.6c-0.2-0.5,0-1.1,0.5-1.3l10.4-4.2c0.5-0.2,1.1,0,1.3,0.5
					c0.2,0.5,0,1.1-0.5,1.3l-10.4,4.2C209.6,285.2,209.4,285.3,209.3,285.3z"/>
				<path class="st9" d="M180.5,315.1c-0.4,0-0.8-0.2-0.9-0.6c-0.2-0.5,0-1.1,0.5-1.3l45.5-18.6c0.5-0.2,1.1,0,1.3,0.5
					c0.2,0.5,0,1.1-0.5,1.3L180.9,315C180.7,315.1,180.6,315.1,180.5,315.1z"/>
				<path class="st12" d="M212.2,314.4c-0.4,0-0.8-0.2-0.9-0.6c-0.2-0.5,0-1.1,0.5-1.3l18.1-7.4c0.5-0.2,1.1,0,1.3,0.5
					c0.2,0.5,0,1.1-0.5,1.3l-18.1,7.4C212.5,314.4,212.4,314.4,212.2,314.4z"/>
				<path class="st12" d="M184.8,325.6c-0.4,0-0.8-0.2-0.9-0.6c-0.2-0.5,0-1.1,0.5-1.3l11.1-4.5c0.5-0.2,1.1,0,1.3,0.5
					c0.2,0.5,0,1.1-0.5,1.3l-11.1,4.5C185,325.6,184.9,325.6,184.8,325.6z"/>
				<path class="st9" d="M188.4,337.9c-0.4,0-0.8-0.2-0.9-0.6c-0.2-0.5,0-1.1,0.5-1.3l28-11.5c0.5-0.2,1.1,0,1.3,0.5
					c0.2,0.5,0,1.1-0.5,1.3l-28,11.5C188.6,337.9,188.5,337.9,188.4,337.9z"/>
				<g>
					<path class="st12" d="M204.2,292.8L180,303.3c-1,0.4-2.2,0-2.6-1l-11.2-25.9c-0.4-1,0-2.2,1-2.6l24.2-10.5c1-0.4,2.2,0,2.6,1
						l11.2,25.9C205.7,291.2,205.2,292.4,204.2,292.8z"/>
					<path class="st9" d="M179.2,304.5c-0.4,0-0.7-0.1-1.1-0.2c-0.7-0.3-1.3-0.9-1.7-1.6l-11.2-25.9c-0.3-0.7-0.3-1.6,0-2.3
						c0.3-0.7,0.9-1.3,1.6-1.7l24.2-10.5c1.5-0.7,3.3,0,4,1.6l11.2,25.9c0.3,0.7,0.3,1.6,0,2.3c-0.3,0.7-0.9,1.3-1.6,1.7
						c0,0,0,0,0,0l-24.2,10.5C180,304.4,179.6,304.5,179.2,304.5z M192.2,264.1c-0.1,0-0.3,0-0.4,0.1l-24.2,10.5
						c-0.2,0.1-0.4,0.3-0.5,0.6c-0.1,0.2-0.1,0.5,0,0.8l11.2,25.9c0.1,0.2,0.3,0.4,0.6,0.5c0.2,0.1,0.5,0.1,0.8,0l24.2-10.5
						c0.2-0.1,0.4-0.3,0.5-0.6c0.1-0.2,0.1-0.5,0-0.8l-11.2-25.9C192.9,264.3,192.5,264.1,192.2,264.1z M204.2,292.8L204.2,292.8
						L204.2,292.8z"/>
				</g>
				<path class="st9" d="M178.4,279.1c-0.3,0-0.6-0.1-0.9-0.2c-0.6-0.2-1-0.7-1.3-1.3l-1.3-3c-0.1-0.3,0-0.5,0.3-0.7
					c0.3-0.1,0.5,0,0.7,0.3l1.3,3c0.1,0.3,0.4,0.6,0.8,0.7c0.3,0.1,0.7,0.1,1,0l0.2-0.1c0.5-0.2,0.8-0.9,0.5-1.4l-3.3-7.7
					c-0.2-0.6-0.9-0.8-1.4-0.6l-0.4,0.2c-0.6,0.3-0.9,0.9-0.6,1.5l0.1,0.2c0.1,0.3,0,0.5-0.3,0.7c-0.3,0.1-0.5,0-0.7-0.3l-0.1-0.2
					c-0.5-1.1,0-2.4,1.1-2.8l0.4-0.2c1.1-0.5,2.3,0,2.7,1.1l3.3,7.7c0.4,1,0,2.3-1.1,2.7l-0.2,0.1C179,279,178.7,279.1,178.4,279.1z
					"/>
				<path class="st11" d="M192.6,267.7c0.8,0.8,0.8,2.2,0,3c-0.8,0.8-2.2,0.8-3,0c-0.8-0.8-0.8-2.2,0-3
					C190.4,266.9,191.8,266.9,192.6,267.7z"/>
			</g>
			<g>
				<g>
					<path class="st11" d="M309.4,272.8l-60.1,25.5c-0.6,0.3-1.4,0-1.7-0.7l-34.6-81.4c-0.3-0.6,0-1.4,0.7-1.7l60.1-25.5
						c0.6-0.3,1.4,0,1.7,0.7l34.6,81.4C310.4,271.8,310.1,272.5,309.4,272.8z"/>
					<path class="st9" d="M248.8,299.9c-0.4,0-0.7-0.1-1-0.2c-0.7-0.3-1.2-0.8-1.5-1.5l-34.6-81.4c-0.6-1.4,0.1-3,1.5-3.6l60.1-25.5
						c0.7-0.3,1.4-0.3,2.1,0c0.7,0.3,1.2,0.8,1.5,1.5l34.6,81.4c0.3,0.7,0.3,1.4,0,2.1c-0.3,0.7-0.8,1.2-1.5,1.5l-60.1,25.5
						C249.5,299.8,249.2,299.9,248.8,299.9z M214.5,215.8l34.4,81l59.7-25.4l-34.4-81L214.5,215.8z"/>
				</g>
				<path class="st9" d="M265.7,220.2c-0.4,0-0.8-0.2-0.9-0.6c-0.2-0.5,0-1.1,0.5-1.3l10.3-4.4c0.5-0.2,1.1,0,1.3,0.5
					c0.2,0.5,0,1.1-0.5,1.3l-10.3,4.4C266,220.2,265.9,220.2,265.7,220.2z"/>
				<path class="st9" d="M237.3,250.4c-0.4,0-0.8-0.2-0.9-0.6c-0.2-0.5,0-1.1,0.5-1.3l45.3-19.2c0.5-0.2,1.1,0,1.3,0.5
					c0.2,0.5,0,1.1-0.5,1.3l-45.3,19.2C237.6,250.4,237.5,250.4,237.3,250.4z"/>
				<path class="st12" d="M269,249.3c-0.4,0-0.8-0.2-0.9-0.6c-0.2-0.5,0-1.1,0.5-1.3l18-7.6c0.5-0.2,1.1,0,1.3,0.5
					c0.2,0.5,0,1.1-0.5,1.3l-18,7.6C269.3,249.3,269.2,249.3,269,249.3z"/>
				<path class="st12" d="M241.8,260.9c-0.4,0-0.8-0.2-0.9-0.6c-0.2-0.5,0-1.1,0.5-1.3l11-4.7c0.5-0.2,1.1,0,1.3,0.5
					c0.2,0.5,0,1.1-0.5,1.3l-11,4.7C242,260.9,241.9,260.9,241.8,260.9z"/>
				<path class="st9" d="M245.5,273.1c-0.4,0-0.8-0.2-0.9-0.6c-0.2-0.5,0-1.1,0.5-1.3l27.9-11.8c0.5-0.2,1.1,0,1.3,0.5
					c0.2,0.5,0,1.1-0.5,1.3L245.9,273C245.8,273.1,245.6,273.1,245.5,273.1z"/>
			</g>
			<g>
				<g>
					<path class="st13" d="M278.7,359.6l-64.6-9.8c-0.7-0.1-1.2-0.8-1.1-1.5l13.3-87.4c0.1-0.7,0.8-1.2,1.5-1.1l64.6,9.8
						c0.7,0.1,1.2,0.8,1.1,1.5l-13.3,87.4C280.1,359.2,279.4,359.7,278.7,359.6z"/>
					<path class="st9" d="M278.9,361.1c-0.1,0-0.3,0-0.4,0l0,0l-64.6-9.8c-0.7-0.1-1.4-0.5-1.8-1.1c-0.4-0.6-0.6-1.3-0.5-2.1
						l13.3-87.4c0.1-0.7,0.5-1.4,1.1-1.8c0.6-0.4,1.3-0.6,2.1-0.5l64.6,9.8c0.7,0.1,1.4,0.5,1.8,1.1c0.4,0.6,0.6,1.3,0.5,2.1
						l-13.3,87.4c-0.1,0.7-0.5,1.4-1.1,1.8C280.1,360.9,279.5,361.1,278.9,361.1z M214.6,348.4l64.1,9.7l13.2-87l-64.1-9.7
						L214.6,348.4z"/>
				</g>
				<path class="st11" d="M248.5,275.4c0,0-0.1,0-0.2,0l-12.4-1.9c-0.5-0.1-0.9-0.6-0.8-1.1c0.1-0.5,0.6-0.9,1.1-0.8l12.4,1.9
					c0.5,0.1,0.9,0.6,0.8,1.1C249.4,275.1,249,275.4,248.5,275.4z"/>
				<path class="st9" d="M280.7,293.7c0,0-0.1,0-0.2,0l-14.2-2.2c-0.5-0.1-0.9-0.6-0.8-1.1c0.1-0.5,0.6-0.9,1.1-0.8l14.2,2.2
					c0.5,0.1,0.9,0.6,0.8,1.1C281.6,293.4,281.2,293.7,280.7,293.7z"/>
				<path class="st11" d="M256.4,290.1c0,0-0.1,0-0.2,0l-24.3-3.7c-0.5-0.1-0.9-0.6-0.8-1.1c0.1-0.5,0.6-0.9,1.1-0.8l24.3,3.7
					c0.5,0.1,0.9,0.6,0.8,1.1C257.3,289.7,256.9,290.1,256.4,290.1z"/>
				<path class="st9" d="M257.3,307.1c0,0-0.1,0-0.2,0l-27.7-4.2c-0.5-0.1-0.9-0.6-0.8-1.1c0.1-0.5,0.6-0.9,1.1-0.8l27.7,4.2
					c0.5,0.1,0.9,0.6,0.8,1.1C258.2,306.7,257.7,307.1,257.3,307.1z"/>
				<path class="st11" d="M275.8,325.8c0,0-0.1,0-0.2,0l-48.6-7.4c-0.5-0.1-0.9-0.6-0.8-1.1c0.1-0.5,0.6-0.9,1.1-0.8l48.6,7.4
					c0.5,0.1,0.9,0.6,0.8,1.1C276.7,325.5,276.3,325.8,275.8,325.8z"/>
				<path class="st11" d="M252,339.1c0,0-0.1,0-0.2,0l-27.3-4.1c-0.5-0.1-0.9-0.6-0.8-1.1c0.1-0.5,0.6-0.9,1.1-0.8l27.3,4.1
					c0.5,0.1,0.9,0.6,0.8,1.1C252.9,338.8,252.5,339.1,252,339.1z"/>
			</g>
		</g>
		<g>
			<g>
				<path class="st11" d="M289.4,424.1l-115,0.2c-6,0-11-4.9-11-11l-0.2-77.6c0-6,4.9-11,11-11l115-0.2c6,0,11,4.9,11,11l0.2,77.6
					C300.4,419.1,295.5,424.1,289.4,424.1z"/>
				<path class="st9" d="M174.4,425.3c-3.2,0-6.2-1.2-8.4-3.5c-2.3-2.3-3.5-5.3-3.5-8.5l-0.2-77.6c0-3.2,1.2-6.2,3.5-8.5
					c2.3-2.3,5.3-3.5,8.5-3.5l115-0.2c0,0,0,0,0,0c6.6,0,12,5.4,12,12l0.2,77.6c0,6.6-5.4,12-12,12l0-1l0,1L174.4,425.3
					C174.4,425.3,174.4,425.3,174.4,425.3z M289.2,325.5C289.2,325.5,289.2,325.5,289.2,325.5l-115,0.2c-2.7,0-5.2,1.1-7,2.9
					c-1.9,1.9-2.9,4.4-2.9,7.1l0.2,77.6c0,2.7,1.1,5.2,2.9,7c1.9,1.9,4.4,2.9,7,2.9c0,0,0,0,0,0l115-0.2l0,0c5.5,0,10-4.5,10-10
					l-0.2-77.6C299.2,329.9,294.7,325.5,289.2,325.5z"/>
			</g>
			<g>
				<path class="st8" d="M290.4,305.8l-29,0.1c-5.4,0-9.8,4.4-9.8,9.8l0,13.9l-73.5,0.2c-8.2,0-14.9,6.8-14.9,15l0.1,69.7
					c0,8.2,6.8,14.9,15,14.9l107.1-0.2c8.2,0,14.9-6.8,14.9-15l-0.1-68.3l0-1.4l-0.1-28.8C300.1,310.1,295.7,305.8,290.4,305.8z"/>
				<path class="st9" d="M178.3,430.8c-9.1,0-16.4-7.4-16.4-16.4l-0.1-69.7c0-9.1,7.3-16.5,16.4-16.5l72-0.2l0-12.4
					c0-3,1.2-5.8,3.3-8c2.1-2.1,5-3.3,8-3.3l29-0.1c0,0,0,0,0,0c6.2,0,11.3,5,11.3,11.3l0.2,98.6c0,9.1-7.3,16.5-16.4,16.5
					L178.3,430.8C178.4,430.8,178.3,430.8,178.3,430.8z M290.4,307.3l-29,0.1c-2.2,0-4.3,0.9-5.8,2.4c-1.6,1.6-2.4,3.7-2.4,5.9
					l0,13.9c0,0.4-0.2,0.8-0.4,1.1c-0.3,0.3-0.7,0.4-1.1,0.4l-73.5,0.2c-7.4,0-13.4,6.1-13.4,13.5l0.1,69.7c0,7.4,6,13.4,13.4,13.4
					c0,0,0,0,0,0l107.1-0.2c7.4,0,13.4-6.1,13.4-13.5l-0.2-98.6C298.6,311,294.9,307.3,290.4,307.3
					C290.4,307.3,290.4,307.3,290.4,307.3L290.4,307.3z M290.4,305.8L290.4,305.8L290.4,305.8z"/>
			</g>
			<path class="st14" d="M289.3,316.9l-26,0.1c-4.8,0-8.7,4-8.7,8.8l0,12.4l-65.7,0.1c-7.4,0-13.4,6-13.3,13.4l0.1,62.4
				c0,7.4,6,13.4,13.4,13.3l95.8-0.2c7.4,0,13.4-6,13.3-13.4l-0.1-61.1l0-1.3l-0.1-25.8C298.1,320.8,294.2,316.9,289.3,316.9z"/>
			<path class="st11" d="M290.9,414.7c0,2.7-2.2,4.9-4.9,4.9c-2.7,0-4.9-2.2-4.9-4.9c0-2.7,2.2-4.9,4.9-4.9
				C288.7,409.8,290.9,412,290.9,414.7z"/>
			<path class="st11" d="M294.3,332.1c-0.6,0-1-0.4-1-1v-13.3c0-2.2-2-4-4.4-4h-9.7c-0.6,0-1-0.4-1-1c0-0.6,0.4-1,1-1h9.7
				c3.5,0,6.4,2.7,6.4,6v13.3C295.3,331.7,294.8,332.1,294.3,332.1z"/>
			<g>
				<g>
					<path class="st11" d="M222.7,371.6c-0.6,0-1.3-0.3-1.8-0.7c-1-1-1-2.6,0-3.5l11.8-11.6l11.6,11.6c1,1,1,2.6,0,3.5
						c-1,1-2.6,1-3.5,0l-8.1-8.1l-8.2,8.1C224,371.3,223.4,371.6,222.7,371.6z"/>
					<path class="st11" d="M232.6,387.1c-1.4,0-2.5-1.1-2.5-2.5v-25.3c0-1.4,1.1-2.5,2.5-2.5c1.4,0,2.5,1.1,2.5,2.5v25.3
						C235.1,385.9,234,387.1,232.6,387.1z"/>
				</g>
				<path class="st11" d="M251,399.1h-37.1c-3,0-5.4-2.4-5.4-5.4v-13.5c0-1.4,1.1-2.5,2.5-2.5c1.4,0,2.5,1.1,2.5,2.5v13.5
					c0,0.2,0.2,0.4,0.4,0.4H251c0.4,0,0.7-0.3,0.7-0.7v-13.2c0-1.4,1.1-2.5,2.5-2.5c1.4,0,2.5,1.1,2.5,2.5v13.2
					C256.7,396.5,254.2,399.1,251,399.1z"/>
			</g>
		</g>
	</g>
	<g>
		<g>
			<g>
				<path class="st8" d="M562.4,411.6l-107.1,0.2c-8.2,0-15-6.7-15-14.9l-0.1-69.7c0-8.2,6.7-15,14.9-15l107.1-0.2
					c8.2,0,15,6.7,15,14.9l0.1,69.7C577.4,404.9,570.6,411.6,562.4,411.6z"/>
				<path class="st9" d="M455.3,413.3c-4.4,0-8.5-1.7-11.6-4.8c-3.1-3.1-4.8-7.2-4.9-11.6l-0.1-69.7c0-9.1,7.3-16.5,16.4-16.5
					l107.1-0.2c0,0,0,0,0,0c9.1,0,16.4,7.4,16.4,16.4l0.1,69.7c0,9.1-7.3,16.5-16.4,16.5l0,0L455.3,413.3
					C455.3,413.3,455.3,413.3,455.3,413.3z M562.4,411.6L562.4,411.6L562.4,411.6z M562.2,313.5
					C562.2,313.5,562.2,313.5,562.2,313.5l-107.1,0.2c-7.4,0-13.4,6.1-13.4,13.5l0.1,69.7c0,3.6,1.4,6.9,4,9.5
					c2.5,2.5,5.9,3.9,9.5,3.9c0,0,0,0,0,0l107.1-0.2c3.6,0,6.9-1.4,9.5-4c2.5-2.6,3.9-5.9,3.9-9.5l-0.1-69.7
					C575.7,319.5,569.6,313.5,562.2,313.5z"/>
			</g>
			<g>
				<path class="st12" d="M562.4,411.6l-107.1,0.2c-8.2,0-15-6.7-15-14.9l-0.1-69.7c0-8.2,6.7-15,14.9-15l107.1-0.2
					c8.2,0,15,6.7,15,14.9l0.1,69.7C577.4,404.9,570.6,411.6,562.4,411.6z"/>
				<path class="st9" d="M455.3,413.3c-4.4,0-8.5-1.7-11.6-4.8c-3.1-3.1-4.8-7.2-4.9-11.6l-0.1-69.7c0-9.1,7.3-16.5,16.4-16.5
					l107.1-0.2c0,0,0,0,0,0c9.1,0,16.4,7.4,16.4,16.4l0.1,69.7c0,9.1-7.3,16.5-16.4,16.5l0,0L455.3,413.3
					C455.3,413.3,455.3,413.3,455.3,413.3z M562.4,411.6L562.4,411.6L562.4,411.6z M562.2,313.5
					C562.2,313.5,562.2,313.5,562.2,313.5l-107.1,0.2c-7.4,0-13.4,6.1-13.4,13.5l0.1,69.7c0,3.6,1.4,6.9,4,9.5
					c2.5,2.5,5.9,3.9,9.5,3.9c0,0,0,0,0,0l107.1-0.2c3.6,0,6.9-1.4,9.5-4c2.5-2.6,3.9-5.9,3.9-9.5l-0.1-69.7
					C575.7,319.5,569.6,313.5,562.2,313.5z"/>
			</g>
			<path class="st10" d="M562.4,411.6l-107.1,0.2c-8.2,0-15-6.7-15-14.9l-0.1-69.7c0-8.2,6.7-15,14.9-15l107.1-0.2
				c8.2,0,15,6.7,15,14.9l0.1,69.7C577.4,404.9,570.6,411.6,562.4,411.6z"/>
		</g>
		<g>
			<g>
				<path class="st11" d="M566.4,417.8l-115,0.2c-6,0-11-4.9-11-11l-0.2-77.6c0-6,4.9-11,11-11l115-0.2c6,0,11,4.9,11,11l0.2,77.6
					C577.4,412.9,572.4,417.8,566.4,417.8z"/>
				<path class="st9" d="M451.4,419.1c-6.6,0-12-5.4-12-12l-0.2-77.6c0-6.6,5.4-12,12-12l115-0.2c0,0,0,0,0,0c6.6,0,12,5.4,12,12
					l0.2,77.6c0,6.6-5.4,12-12,12L451.4,419.1C451.4,419.1,451.4,419.1,451.4,419.1z M566.4,416.8l0,1L566.4,416.8
					c5.5,0,10-4.5,10-10l-0.2-77.6c0-5.5-4.5-10-10-10c0,0,0,0,0,0l-115,0.2c-5.5,0-10,4.5-10,10l0.2,77.6c0,5.5,4.5,10,10,10
					c0,0,0,0,0,0L566.4,416.8z"/>
			</g>
			<g>
				<path class="st11" d="M566.4,424.1l-115,0.2c-6,0-11-4.9-11-11l-0.2-77.6c0-6,4.9-11,11-11l115-0.2c6,0,11,4.9,11,11l0.2,77.6
					C577.4,419.1,572.4,424.1,566.4,424.1z"/>
				<path class="st9" d="M451.4,425.3c-6.6,0-12-5.4-12-12l-0.2-77.6c0-3.2,1.2-6.2,3.5-8.5c2.3-2.3,5.3-3.5,8.5-3.5l115-0.2
					c0,0,0,0,0,0c6.6,0,12,5.4,12,12l0.2,77.6c0,6.6-5.4,12-12,12l0-1l0,1L451.4,425.3C451.4,425.3,451.4,425.3,451.4,425.3z
					 M566.2,325.5C566.2,325.5,566.2,325.5,566.2,325.5l-115,0.2c-2.7,0-5.2,1.1-7,2.9c-1.9,1.9-2.9,4.4-2.9,7.1l0.2,77.6
					c0,5.5,4.5,10,10,10c0,0,0,0,0,0l115-0.2l0,0c5.5,0,10-4.5,10-10l-0.2-77.6C576.2,329.9,571.7,325.5,566.2,325.5z"/>
			</g>
		</g>
		<g>
			<g>
				<path class="st12" d="M567.3,305.8l-29,0.1c-5.4,0-9.8,4.4-9.8,9.8l0,13.9l-73.5,0.2c-8.2,0-14.9,6.8-14.9,15l0.1,69.7
					c0,8.2,6.8,14.9,15,14.9l107.1-0.2c8.2,0,14.9-6.8,14.9-15l-0.1-68.3l0-1.4l-0.1-28.8C577.1,310.1,572.7,305.8,567.3,305.8z"/>
				<path class="st9" d="M455.3,430.8c-9.1,0-16.4-7.4-16.4-16.4l-0.1-69.7c0-9.1,7.3-16.5,16.4-16.5l72-0.2l0-12.4
					c0-3,1.2-5.8,3.3-8c2.1-2.1,5-3.3,8-3.3l29-0.1c0,0,0,0,0,0c3,0,5.8,1.2,7.9,3.3c2.1,2.1,3.3,5,3.3,8l0.2,98.6
					c0,4.4-1.7,8.5-4.8,11.6c-3.1,3.1-7.2,4.8-11.6,4.9L455.3,430.8C455.3,430.8,455.3,430.8,455.3,430.8z M567.3,307.3l-29,0.1
					c-2.2,0-4.3,0.9-5.8,2.4c-1.6,1.6-2.4,3.7-2.4,5.9l0,13.9c0,0.8-0.7,1.5-1.5,1.5l-73.5,0.2c-7.4,0-13.4,6.1-13.4,13.5l0.1,69.7
					c0,7.4,6,13.4,13.4,13.4c0,0,0,0,0,0l107.1-0.2c3.6,0,6.9-1.4,9.5-4c2.5-2.6,3.9-5.9,3.9-9.5l-0.2-98.6c0-2.2-0.9-4.3-2.4-5.8
					C571.6,308.1,569.5,307.3,567.3,307.3C567.3,307.3,567.3,307.3,567.3,307.3L567.3,307.3z M567.3,305.8L567.3,305.8L567.3,305.8z
					"/>
			</g>
			<path class="st14" d="M566,316.9l-26,0.1c-4.8,0-8.7,4-8.7,8.8l0,12.4l-65.7,0.1c-7.4,0-13.4,6-13.3,13.4l0.1,62.4
				c0,7.4,6,13.4,13.4,13.3l95.8-0.2c7.4,0,13.4-6,13.3-13.4l-0.1-61.1l0-1.3l-0.1-25.8C574.8,320.8,570.8,316.9,566,316.9z"/>
			<path class="st11" d="M567.5,414.7c0,2.7-2.2,4.9-4.9,4.9c-2.7,0-4.9-2.2-4.9-4.9c0-2.7,2.2-4.9,4.9-4.9
				C565.4,409.8,567.5,412,567.5,414.7z"/>
			<path class="st11" d="M571,332.1c-0.6,0-1-0.4-1-1v-13.3c0-2.2-2-4-4.4-4h-9.7c-0.6,0-1-0.4-1-1c0-0.6,0.4-1,1-1h9.7
				c3.5,0,6.4,2.7,6.4,6v13.3C572,331.7,571.5,332.1,571,332.1z"/>
			<g>
				<g>
					<path class="st11" d="M512.6,388.1l-11.6-11.6c-1-1-1-2.6,0-3.5c1-1,2.6-1,3.5,0l8.1,8.1l8.2-8.1c1-1,2.6-1,3.5,0
						c1,1,1,2.6,0,3.5L512.6,388.1z"/>
					<path class="st11" d="M512.7,387.1c-1.4,0-2.5-1.1-2.5-2.5v-25.3c0-1.4,1.1-2.5,2.5-2.5c1.4,0,2.5,1.1,2.5,2.5v25.3
						C515.2,385.9,514.1,387.1,512.7,387.1z"/>
				</g>
				<path class="st11" d="M531.1,399.1H494c-3,0-5.4-2.4-5.4-5.4v-13.5c0-1.4,1.1-2.5,2.5-2.5c1.4,0,2.5,1.1,2.5,2.5v13.5
					c0,0.2,0.2,0.4,0.4,0.4h37.1c0.4,0,0.7-0.3,0.7-0.7v-13.2c0-1.4,1.1-2.5,2.5-2.5c1.4,0,2.5,1.1,2.5,2.5v13.2
					C536.8,396.5,534.3,399.1,531.1,399.1z"/>
			</g>
		</g>
	</g>
	<g>
		<g>
			<g>
				<path class="st11" d="M500.6,296.2l-49.4-35.6c-0.6-0.4-0.7-1.2-0.3-1.8l48.2-66.9c0.4-0.6,1.2-0.7,1.8-0.3l49.4,35.6
					c0.6,0.4,0.7,1.2,0.3,1.8l-48.2,66.9C502,296.5,501.2,296.6,500.6,296.2z"/>
				<path class="st9" d="M501.3,298c-0.6,0-1.1-0.2-1.6-0.5l0,0l-49.4-35.6c-1.2-0.9-1.5-2.6-0.6-3.9l48.2-66.9
					c0.4-0.6,1.1-1,1.8-1.1c0.7-0.1,1.5,0.1,2.1,0.5l49.4,35.6c1.2,0.9,1.5,2.6,0.6,3.9l-48.2,66.9c-0.4,0.6-1.1,1-1.8,1.1
					C501.6,297.9,501.5,298,501.3,298z M501.5,295L501.5,295C501.5,295,501.5,295,501.5,295L501.5,295z M452.3,259.5l49,35.3
					l48-66.6l-49-35.3L452.3,259.5z"/>
			</g>
			<g>
				<path class="st13" d="M500.6,296.2l-49.4-35.6c-0.6-0.4-0.7-1.2-0.3-1.8l48.2-66.9c0.4-0.6,1.2-0.7,1.8-0.3l49.4,35.6
					c0.6,0.4,0.7,1.2,0.3,1.8l-48.2,66.9C502,296.5,501.2,296.6,500.6,296.2z"/>
				<path class="st9" d="M501.3,298c-0.6,0-1.1-0.2-1.6-0.5l0,0l-49.4-35.6c-1.2-0.9-1.5-2.6-0.6-3.9l48.2-66.9
					c0.4-0.6,1.1-1,1.8-1.1c0.7-0.1,1.5,0.1,2.1,0.5l49.4,35.6c1.2,0.9,1.5,2.6,0.6,3.9l-48.2,66.9c-0.4,0.6-1.1,1-1.8,1.1
					C501.6,297.9,501.5,298,501.3,298z M501.5,295L501.5,295C501.5,295,501.5,295,501.5,295L501.5,295z M452.3,259.5l49,35.3
					l48-66.6l-49-35.3L452.3,259.5z"/>
			</g>
			<path class="st9" d="M530.8,242.5c-0.2,0-0.4-0.1-0.6-0.2l-8.5-6.1c-0.4-0.3-0.5-0.9-0.2-1.4c0.3-0.4,0.9-0.6,1.4-0.2l8.5,6.1
				c0.4,0.3,0.5,0.9,0.2,1.4C531.5,242.3,531.2,242.5,530.8,242.5z"/>
			<path class="st9" d="M521.7,255.2c-0.2,0-0.4-0.1-0.6-0.2l-37.3-26.9c-0.4-0.3-0.5-0.9-0.2-1.4c0.3-0.4,0.9-0.6,1.4-0.2
				l37.3,26.9c0.4,0.3,0.5,0.9,0.2,1.4C522.3,255,522,255.2,521.7,255.2z"/>
			<path class="st12" d="M515.5,263.8c-0.2,0-0.4-0.1-0.6-0.2l-14.8-10.7c-0.4-0.3-0.5-0.9-0.2-1.4c0.3-0.4,0.9-0.5,1.4-0.2
				l14.8,10.7c0.4,0.3,0.5,0.9,0.2,1.4C516.1,263.7,515.8,263.8,515.5,263.8z"/>
			<path class="st12" d="M487.3,243.5c-0.2,0-0.4-0.1-0.6-0.2l-9.1-6.5c-0.4-0.3-0.5-0.9-0.2-1.4c0.3-0.4,0.9-0.6,1.4-0.2l9.1,6.5
				c0.4,0.3,0.5,0.9,0.2,1.4C487.9,243.3,487.6,243.5,487.3,243.5z"/>
			<path class="st9" d="M493.2,262.4c-0.2,0-0.4-0.1-0.6-0.2l-23-16.6c-0.4-0.3-0.5-0.9-0.2-1.4c0.3-0.4,0.9-0.6,1.4-0.2l23,16.6
				c0.4,0.3,0.5,0.9,0.2,1.4C493.8,262.3,493.5,262.4,493.2,262.4z"/>
		</g>
		<g>
			<g>
				<path class="st11" d="M505.5,288.2l-61-23.5c-0.7-0.3-1-1-0.7-1.7l31.8-82.5c0.3-0.7,1-1,1.7-0.7l61,23.5c0.7,0.3,1,1,0.7,1.7
					l-31.8,82.5C506.9,288.1,506.1,288.4,505.5,288.2z"/>
				<path class="st9" d="M505.9,289.7c-0.3,0-0.7-0.1-1-0.2l0,0l-61-23.5c-1.4-0.6-2.1-2.2-1.6-3.6l31.8-82.5
					c0.6-1.4,2.2-2.1,3.6-1.6l61,23.5c1.4,0.5,2.1,2.2,1.6,3.6L508.5,288C508.1,289.1,507.1,289.7,505.9,289.7z M445.3,263.4
					l60.6,23.3l31.6-82.1l-60.6-23.3L445.3,263.4z"/>
			</g>
			<g>
				<path class="st11" d="M505.5,288.2l-61-23.5c-0.7-0.3-1-1-0.7-1.7l31.8-82.5c0.3-0.7,1-1,1.7-0.7l61,23.5c0.7,0.3,1,1,0.7,1.7
					l-31.8,82.5C506.9,288.1,506.1,288.4,505.5,288.2z"/>
				<path class="st9" d="M505.9,289.7c-0.3,0-0.7-0.1-1-0.2l0,0l-61-23.5c-1.4-0.6-2.1-2.2-1.6-3.6l31.8-82.5
					c0.6-1.4,2.2-2.1,3.6-1.6l61,23.5c1.4,0.5,2.1,2.2,1.6,3.6L508.5,288C508.1,289.1,507.1,289.7,505.9,289.7z M445.3,263.4
					l60.6,23.3l31.6-82.1l-60.6-23.3L445.3,263.4z"/>
			</g>
			<path class="st9" d="M488,210.4c-0.1,0-0.2,0-0.4-0.1l-10.5-4c-0.5-0.2-0.8-0.8-0.6-1.3c0.2-0.5,0.8-0.8,1.3-0.6l10.5,4
				c0.5,0.2,0.8,0.8,0.6,1.3C488.7,210.1,488.4,210.4,488,210.4z"/>
			<path class="st9" d="M515.8,239.9c-0.1,0-0.2,0-0.4-0.1l-45.9-17.7c-0.5-0.2-0.8-0.8-0.6-1.3c0.2-0.5,0.8-0.8,1.3-0.6l45.9,17.7
				c0.5,0.2,0.8,0.8,0.6,1.3C516.6,239.6,516.2,239.9,515.8,239.9z"/>
			<path class="st12" d="M511.7,250.5c-0.1,0-0.2,0-0.4-0.1l-18.2-7c-0.5-0.2-0.8-0.8-0.6-1.3c0.2-0.5,0.8-0.8,1.3-0.6l18.2,7
				c0.5,0.2,0.8,0.8,0.6,1.3C512.5,250.3,512.1,250.5,511.7,250.5z"/>
			<path class="st12" d="M477,237.1c-0.1,0-0.2,0-0.4-0.1l-11.2-4.3c-0.5-0.2-0.8-0.8-0.6-1.3c0.2-0.5,0.8-0.8,1.3-0.6l11.2,4.3
				c0.5,0.2,0.8,0.8,0.6,1.3C477.7,236.9,477.4,237.1,477,237.1z"/>
			<path class="st9" d="M488.3,255.1c-0.1,0-0.2,0-0.4-0.1l-28.3-10.9c-0.5-0.2-0.8-0.8-0.6-1.3c0.2-0.5,0.8-0.8,1.3-0.6l28.3,10.9
				c0.5,0.2,0.8,0.8,0.6,1.3C489,254.9,488.7,255.1,488.3,255.1z"/>
		</g>
		<g>
			<g>
				<g>
					<g>
						<path class="st12" d="M392.9,252l-72.2-24.7c-0.8-0.3-1.3-1.2-1-2l33.7-98.6c0.3-0.8,1.2-1.3,2-1l72.2,24.7
							c0.8,0.3,1.3,1.2,1,2L394.9,251C394.6,251.8,393.7,252.2,392.9,252z"/>
						<path class="st9" d="M393.4,253.5c-0.3,0-0.7-0.1-1-0.2l-72.2-24.7c-0.8-0.3-1.4-0.8-1.8-1.6c-0.4-0.7-0.4-1.6-0.2-2.4
							l33.7-98.6c0.3-0.8,0.8-1.4,1.6-1.8c0.7-0.4,1.6-0.4,2.4-0.1l72.2,24.7c0.8,0.3,1.4,0.8,1.8,1.6c0.4,0.7,0.4,1.6,0.1,2.4
							l-33.7,98.6C395.9,252.7,394.7,253.5,393.4,253.5z M354.8,127.1C354.8,127.1,354.8,127.1,354.8,127.1l-33.8,98.7
							c0,0,0,0.1,0,0.1l72.2,24.7c0,0,0,0,0,0c0,0,0.1,0,0.1,0l33.7-98.6c0,0,0-0.1-0.1-0.1L354.8,127.1
							C354.9,127.1,354.9,127.1,354.8,127.1z"/>
					</g>
				</g>
			</g>
			<g>
				<g>
					<g>
						<path class="st11" d="M407.9,245.4l-76.1-6.1c-0.9-0.1-1.5-0.8-1.4-1.7l8.3-103.9c0.1-0.9,0.8-1.5,1.7-1.4l76.1,6.1
							c0.9,0.1,1.5,0.8,1.4,1.7l-8.3,103.9C409.5,244.8,408.7,245.5,407.9,245.4z"/>
						<path class="st9" d="M408,246.9c-0.1,0-0.2,0-0.3,0l-76.1-6.1c-0.8-0.1-1.6-0.4-2.1-1.1c-0.5-0.6-0.8-1.4-0.7-2.2l8.3-103.9
							c0.1-1.7,1.6-3,3.3-2.8l76.1,6.1c1.7,0.1,3,1.6,2.8,3.3L411,244.1c-0.1,0.8-0.4,1.6-1.1,2.1
							C409.4,246.6,408.7,246.9,408,246.9z M340.2,133.7C340.2,133.7,340.2,133.8,340.2,133.7l-8.4,104c0,0,0,0.1,0.1,0.1l76.1,6.1
							l0,0c0,0,0.1,0,0.1-0.1l8.3-103.9c0,0,0-0.1-0.1-0.1L340.2,133.7C340.2,133.7,340.2,133.7,340.2,133.7z"/>
					</g>
					<g>
						<g>
							<line class="st11" x1="386" y1="153.3" x2="405.3" y2="154.8"/>
							<path class="st12" d="M405.3,155.8C405.3,155.8,405.2,155.8,405.3,155.8l-19.3-1.5c-0.6,0-1-0.5-0.9-1.1c0-0.5,0.5-1,1.1-0.9
								l19.3,1.5c0.5,0,1,0.5,0.9,1.1C406.2,155.5,405.8,155.8,405.3,155.8z"/>
						</g>
						<g>
							<line class="st11" x1="385.5" y1="159.5" x2="404.8" y2="161"/>
							<path class="st12" d="M404.8,162C404.8,162,404.7,162,404.8,162l-19.3-1.5c-0.5,0-1-0.5-0.9-1.1c0-0.5,0.5-1,1.1-0.9
								l19.3,1.5c0.5,0,1,0.5,0.9,1.1C405.7,161.6,405.3,162,404.8,162z"/>
						</g>
						<g>
							<line class="st11" x1="340.4" y1="225.6" x2="359.7" y2="227.2"/>
							<path class="st12" d="M359.7,228.2C359.7,228.2,359.6,228.2,359.7,228.2l-19.3-1.5c-0.5,0-1-0.5-0.9-1.1c0-0.5,0.5-1,1.1-0.9
								l19.3,1.5c0.5,0,1,0.5,0.9,1.1C360.6,227.8,360.2,228.2,359.7,228.2z"/>
						</g>
						<g>
							<g>
								<line class="st11" x1="343.4" y1="192.3" x2="360.5" y2="193.7"/>
								<path class="st9" d="M360.5,194.7C360.5,194.7,360.5,194.7,360.5,194.7l-17.2-1.4c-0.5,0-1-0.5-0.9-1.1c0-0.5,0.5-1,1.1-0.9
									l17.1,1.4c0.5,0,1,0.5,0.9,1.1C361.5,194.3,361,194.7,360.5,194.7z"/>
							</g>
							<g>
								<line class="st11" x1="341.6" y1="215.2" x2="371" y2="217.5"/>
								<path class="st9" d="M371,218.5C371,218.5,371,218.5,371,218.5l-29.5-2.4c-0.5,0-1-0.5-0.9-1.1c0-0.5,0.5-1,1.1-0.9
									l29.5,2.4c0.5,0,1,0.5,0.9,1.1C372,218.1,371.5,218.5,371,218.5z"/>
							</g>
							<g>
								<line class="st11" x1="342.5" y1="203.7" x2="364.8" y2="205.5"/>
								<path class="st9" d="M364.8,206.5C364.8,206.5,364.7,206.5,364.8,206.5l-22.4-1.8c-0.5,0-1-0.5-0.9-1.1c0-0.5,0.5-1,1.1-0.9
									l22.3,1.8c0.6,0,1,0.5,0.9,1.1C365.7,206.1,365.3,206.5,364.8,206.5z"/>
							</g>
							<g>
								<line class="st11" x1="344.1" y1="181.8" x2="401.8" y2="186.4"/>
								<path class="st9" d="M401.8,187.4C401.8,187.4,401.8,187.4,401.8,187.4l-57.8-4.6c-0.5,0-1-0.5-0.9-1.1c0-0.5,0.5-1,1.1-0.9
									l57.7,4.6c0.5,0,1,0.5,0.9,1.1C402.8,187.1,402.3,187.4,401.8,187.4z"/>
							</g>
							<g>
								<line class="st11" x1="371.9" y1="206" x2="399.5" y2="208.2"/>
								<path class="st9" d="M399.5,209.2C399.4,209.2,399.4,209.2,399.5,209.2l-27.6-2.2c-0.5,0-1-0.5-0.9-1.1c0-0.5,0.5-1,1.1-0.9
									l27.6,2.2c0.5,0,1,0.5,0.9,1.1C400.4,208.8,400,209.2,399.5,209.2z"/>
							</g>
							<g>
								<line class="st11" x1="366.9" y1="194.1" x2="402.3" y2="197"/>
								<path class="st9" d="M402.3,198C402.2,198,402.2,198,402.3,198l-35.4-3c-0.6,0-1-0.5-0.9-1.1c0-0.6,0.5-1,1.1-0.9l35.3,3
									c0.6,0,1,0.5,0.9,1.1C403.2,197.7,402.8,198,402.3,198z"/>
							</g>
						</g>
					</g>
				</g>
				<g>
					<g>
						<path class="st15" d="M363.3,140"/>
					</g>
				</g>
			</g>
		</g>
	</g>
</g>
<g id="DESIGNED_BY_FREEPIK">
	<g>
	</g>
	<g>
	</g>
	<g>
	</g>
	<g>
	</g>
	<g>
	</g>
	<g>
	</g>
	<g>
	</g>
	<g>
	</g>
	<g>
	</g>
	<g>
	</g>
	<g>
	</g>
	<g>
	</g>
	<g>
	</g>
	<g>
	</g>
	<g>
	</g>
</g>
</svg>
