<?xml version="1.0" encoding="utf-8"?>
<!-- Generator: Adobe Illustrator 24.0.0, SVG Export Plug-In . SVG Version: 6.00 Build 0)  -->
<svg version="1.1" id="objects" xmlns="http://www.w3.org/2000/svg" xmlns:xlink="http://www.w3.org/1999/xlink" x="0px" y="0px"
	 viewBox="0 0 750 500" style="enable-background:new 0 0 750 500;" xml:space="preserve">
<style type="text/css">
	.st0{fill:#ABEDE4;}
	.st1{fill:#34C0BC;}
	.st2{fill:none;stroke:#ABEDE4;stroke-width:1.7614;stroke-linecap:round;stroke-miterlimit:10;}
	.st3{fill:#728CB6;}
	.st4{fill:none;stroke:#4F78A7;stroke-width:1.2091;stroke-linecap:round;stroke-miterlimit:10;}
	.st5{fill:none;stroke:#4F78A7;stroke-width:1.4021;stroke-linecap:round;stroke-miterlimit:10;}
	.st6{fill:#54D1CF;}
	.st7{fill:none;stroke:#4F78A7;stroke-width:1.2237;stroke-linecap:round;stroke-miterlimit:10;}
	.st8{fill:none;stroke:#ABEDE4;stroke-width:1.5409;stroke-linecap:round;stroke-miterlimit:10;}
	.st9{fill:none;stroke:#ABEDE4;stroke-width:1.3576;stroke-linecap:round;stroke-miterlimit:10;}
	.st10{fill:none;stroke:#ABEDE4;stroke-width:1.5023;stroke-linecap:round;stroke-miterlimit:10;}
	.st11{fill:#B7663D;}
	.st12{fill:#FFFFFF;}
	.st13{fill:#FF4200;}
	.st14{fill:none;stroke:#000100;stroke-width:0.75;stroke-linejoin:round;stroke-miterlimit:10;}
	.st15{fill:none;stroke:#000100;stroke-width:0.75;stroke-miterlimit:10;}
	.st16{fill:#C59EA5;}
	.st17{fill:#000100;}
	.st18{fill:#231F20;}
	.st19{fill:#FF7300;}
	.st20{fill:#9E502E;}
	.st21{fill:none;stroke:#000100;stroke-width:0.75;stroke-linecap:round;stroke-linejoin:round;stroke-miterlimit:10;}
	.st22{fill:none;stroke:#000100;stroke-miterlimit:10;}
	.st23{fill:#EF9D70;}
	.st24{fill:#BA4E11;}
	.st25{clip-path:url(#SVGID_2_);}
	.st26{fill:#D35822;}
	.st27{fill:#D17D54;}
	.st28{fill:none;stroke:#BA4E11;stroke-width:0.5;stroke-miterlimit:10;}
	.st29{fill:#507D8C;}
	.st30{fill:none;stroke:#000100;stroke-width:1.5;stroke-miterlimit:10;}
	.st31{fill:#F9920B;}
	.st32{fill:#0C1832;}
	.st33{fill:none;stroke:#546A91;stroke-width:0.75;stroke-linejoin:round;stroke-miterlimit:10;}
	.st34{fill:#546A91;}
	.st35{clip-path:url(#SVGID_4_);}
	.st36{fill:#1F304F;}
	.st37{fill:none;stroke:#546A91;stroke-width:0.75;stroke-miterlimit:10;}
	.st38{fill:none;stroke:#1F304F;stroke-width:3;stroke-miterlimit:10;}
	.st39{fill:#466AC6;}
	.st40{fill:#112133;}
	.st41{clip-path:url(#SVGID_6_);fill:none;stroke:#172C3F;stroke-miterlimit:10;}
	.st42{clip-path:url(#SVGID_6_);}
	.st43{fill:#172C3F;}
	.st44{clip-path:url(#SVGID_6_);fill:#172C3F;}
	.st45{fill:none;stroke:#2757AA;stroke-width:0.75;stroke-miterlimit:10;}
	.st46{fill:#2757AA;}
	.st47{fill:#E8BD8E;}
	.st48{fill:#DD9957;}
</style>
<g>
	<g>
		<path class="st0" d="M331.3,475.5c0,0-155.9,42.9-270.6-76.2S2.5,73.6,158.2,52.7c125.3-16.8,163.4-23.9,295.6-35.9
			C584.7,5,706.5,66,728.9,160.3c22.2,94-60.5,334.6-228.9,324.1C373,476.5,331.3,475.5,331.3,475.5z"/>
	</g>
	<g>
		<g>
			<path class="st1" d="M608.6,188.3c0,0,4.5-39.7,28.4-21.4c19.2,14.8-30.3,56.2-15.8,57.4c14.5,1.2,33.5-19.4,35.3,1.9
				c1.8,21.3-55.2,29.6-43.2,42.4c2.7,2.9,10.9,0.5,18.3,1.9c12.9,2.3,13.8,17.5-26,36.5c-45.6,21.8-71.3,90.7-71.3,90.7l-0.9-21.3
				c0,0,24.5-98.8,20.2-115.6c-4.3-16.9,10.8-35.2,26.2-4.8c3.3,6.5,9.3-2.2,6.2-12.3c-4.6-15.2-18.4-37.2-5.1-43.9
				C603,188.7,597.9,251.3,608.6,188.3z"/>
			<polyline class="st2" points="561.7,248.7 570.3,302.5 626.2,280.2 			"/>
			<path class="st2" d="M628.3,169.9c0,0-95.6,207.9-95.6,237.4"/>
			<polyline class="st2" points="618.6,171.9 616.1,195.3 631.8,187.2 			"/>
			<polyline class="st2" points="583,204.9 594.7,243.1 647.1,229.3 			"/>
		</g>
		<g>
			<path class="st3" d="M641,293.9c0,0,30.8-9.7,23.9-20.7C660.2,265.7,641,293.9,641,293.9z"/>
			<path class="st3" d="M630.5,302.9c0,0,22.3-23.4,10.9-29.6C633.6,269,630.5,302.9,630.5,302.9z"/>
			<path class="st3" d="M623.5,310.5c0,0,12.8-26.9,0-28.1C614.8,281.6,623.5,310.5,623.5,310.5z"/>
			<path class="st3" d="M611.8,322.8c0,0,12.8-26.9,0-28.1C603.1,293.9,611.8,322.8,611.8,322.8z"/>
			<path class="st3" d="M601.3,336.8c0,0,14.7-23.8,2.1-25.3C594.7,310.5,601.3,336.8,601.3,336.8z"/>
			<path class="st3" d="M630.9,302.1c0,0,31.6,6.9,31-6.2C661.5,287.1,630.9,302.1,630.9,302.1z"/>
			<path class="st3" d="M624.2,310.7c0,0,27.2,14.7,28.8,1.3C654.1,302.8,624.2,310.7,624.2,310.7z"/>
			<path class="st3" d="M612.4,322.6c0,0,27.2,14.7,28.8,1.3C642.4,314.7,612.4,322.6,612.4,322.6z"/>
			<path class="st3" d="M602,336.4c0,0,26.7,9.7,26.4-2.7C628.2,325.2,602,336.4,602,336.4z"/>
			<path class="st4" d="M651.2,285c0,0-59.9,45.8-82.6,111"/>
			<path class="st4" d="M655.5,297.9c0,0-14.6,4.5-23.4,4.2c0,0,2.1-10.5,7-20.7"/>
			<path class="st4" d="M648.9,313.1c0,0-18.8-0.6-25.4-2.6l-0.2-20.5"/>
			<path class="st4" d="M634.8,325.4l-22.4-2.9c0,0-0.9-11.7,0-18.4"/>
			<path class="st4" d="M623.6,334.1c0,0-13.4,2.7-21.6,2.3c0,0,1.5-12.7,1.1-20.5"/>
		</g>
		<g>
			<path class="st1" d="M498.6,433.6c0,0,90.9,12,103.8-2.5c12.9-14.5-22.1-12.9-19.3-26.4c2.8-13.6,50-2,60-15.2
				c9.9-13.2-24.5-13.6-18.6-26.4c5.9-12.8,65.7-33.2,36.9-55.9c-28.8-22.7-32.3,40.1-55.5,43.4c-23.2,3.3-6.7-22.8-23.8-20.1
				c-17.1,2.7-9.3,45.9-28.5,48.8C534.4,382.2,540.6,321.2,498.6,433.6z"/>
			<g>
				<path class="st2" d="M489.5,435.2l9.1-1.6c0,0,89.5-46.2,147.5-109.2"/>
				<polyline class="st2" points="642,314.2 638.9,332.5 655.2,326.4 				"/>
				<polyline class="st2" points="582.7,343.7 575.3,386.6 621.9,384.8 				"/>
				<polyline class="st2" points="532.7,378.8 524.5,419.1 583.5,425.8 				"/>
			</g>
		</g>
		<g>
			<path class="st3" d="M596.4,393.2c0,0,30.7,5.2,29.4-9.9C624.9,373.1,596.4,393.2,596.4,393.2z"/>
			<path class="st3" d="M580.7,396.9c0,0,35.4-12.1,27-24.7C602.1,363.7,580.7,396.9,580.7,396.9z"/>
			<path class="st3" d="M569.5,400.9c0,0,27.5-20.9,15-28.9C575.9,366.6,569.5,400.9,569.5,400.9z"/>
			<path class="st3" d="M581.6,396.3c0,0,28.8,23.9,35.2,10.2C621,397.2,581.6,396.3,581.6,396.3z"/>
			<path class="st3" d="M570,401.5c0,0,20.1,29.7,29,16.7C605.1,409.5,570,401.5,570,401.5z"/>
			<path class="st5" d="M611.5,389.6c-15,2.7-29.9,7.2-44.3,12.2c-24.4,8.5-48,19.5-69.6,33.8"/>
			<path class="st5" d="M609.1,405.1c0,0-17.4-3.1-26.3-8.2c0,0,7.8-9.7,18.3-17.6"/>
			<path class="st5" d="M594.2,417.2c0,0-19-10.6-24.7-16.3l10.7-21.2"/>
		</g>
		<g>
			<path class="st1" d="M483.4,431.1c0,0-44.7-28.5-76.2-46.8c-35.1-20.4-12.2-41.7,14.2-37.6c50.3,7.7-55.9-65.1-27.4-87.3
				c11.8-9.2,16.3,1.9,40.7,9.6c24.4,7.7-29.5-85.3,6.1-91c26.1-4.2,19.1,105.3,42.7,85.3c31.5-26.8,43.5,5,24.4,32.6
				c-19.1,27.6-27.1,66.1-9.1,46C547.4,287.2,523.1,372.7,483.4,431.1z"/>
			<g>
				<path class="st2" d="M441.7,199.4c0,0,41.7,221.6,42.7,244"/>
				<polyline class="st2" points="417.3,277.6 465.1,329.5 492.6,280.7 				"/>
				<polyline class="st2" points="436.6,215.6 447.8,232.9 453.9,210.5 				"/>
				<polyline class="st2" points="420.4,374.2 480.4,405.7 510.9,347.8 				"/>
			</g>
		</g>
		<g>
			<path class="st3" d="M587.1,140.8c0,0,26.4-16.5,15.4-26.9C595.2,106.8,587.1,140.8,587.1,140.8z"/>
			<path class="st3" d="M577.9,154c0,0,18.4-32.6,3.8-36.4C571.8,115,577.9,154,577.9,154z"/>
			<path class="st3" d="M572.2,164.5c0,0,6.7-33.9-8-31.6C554.1,134.5,572.2,164.5,572.2,164.5z"/>
			<path class="st3" d="M562.5,181.6c0,0,6.7-33.9-8-31.6C544.4,151.6,562.5,181.6,562.5,181.6z"/>
			<path class="st3" d="M554.6,200.4c0,0,9.9-30.9-4.8-29.1C539.8,172.6,554.6,200.4,554.6,200.4z"/>
			<path class="st3" d="M548.4,215.8c0,0,5.5-27-7.2-22.5C532.6,196.3,548.4,215.8,548.4,215.8z"/>
			<path class="st3" d="M543.1,229.9c0,0,3.5-23.7-7.3-19.2C528.4,213.7,543.1,229.9,543.1,229.9z"/>
			<path class="st3" d="M578.1,153c0,0,37.4-1.2,33.1-15.7C608.2,127.5,578.1,153,578.1,153z"/>
			<path class="st3" d="M573,164.6c0,0,34.7,8.8,32.8-6.7C604.4,147.2,573,164.6,573,164.6z"/>
			<path class="st3" d="M563.1,181.2c0,0,34.7,8.8,32.8-6.7C594.5,163.9,563.1,181.2,563.1,181.2z"/>
			<path class="st3" d="M555.3,199.8c0,0,32.8,3.4,28.9-10.6C581.6,179.8,555.3,199.8,555.3,199.8z"/>
			<path class="st3" d="M548.6,215.3c0,0,29.3,3.6,23.7-9.5C568.6,196.8,548.6,215.3,548.6,215.3z"/>
			<path class="st3" d="M543.5,229.5c0,0,24.2,3,19.6-7.9C560,214.2,543.5,229.5,543.5,229.5z"/>
			<path class="st5" d="M596.1,128.1c0,0-54.4,68.5-61.5,148.2"/>
			<path class="st5" d="M604.5,141.3c0,0-15.1,9.2-25.1,11.3c0,0-0.6-12.4,2-25.3"/>
			<path class="st5" d="M601.5,160.2c0,0-21.3,4.7-29.3,4.3l-6-23"/>
			<path class="st5" d="M589.1,178.1l-26,3.1c0,0-4.4-12.9-5.2-20.7"/>
			<path class="st5" d="M578.9,191.1c0,0-14.2,6.8-23.6,8.7c0,0-1.8-14.7-4.6-23.4"/>
			<path class="st5" d="M565.3,210l-16.7,5.3c0,0-2.7-8.2-3.2-13.9"/>
			<path class="st5" d="M557.6,225.3c0,0-10.4,1.7-14.5,4.6c0,0-3.8-12.5-4.6-13.3"/>
		</g>
		<g>
			<path class="st6" d="M567.7,270.8c0,0,25.3-25.9,14-35.9c-11.3-10-26.1-2.9-39.2,29.2c-13.3,32.6-22.6-31.2-36.6-5.3
				c-14,25.9,27.9,50.5,12.6,57.2c-15.3,6.6-18.1-35.6-33.2-22.6c-23.9,20.6,24.7,57.4,2.7,74.4c-14.6,11.3-23.9-28.8-37.2-13.3
				c-19.9,23.3,4.4,84.4,19.5,92.9c28.6,16,104.2-48.3,88.9-59c-15.3-10.6-52.5,15.3-23.9-14.6c9.5-9.9,61.8-26.6,43.9-38.5
				c-16.4-11-40.5,6-30.6-14c10-19.9,55.2-13.3,50.5-30.6C594.3,273.5,549.1,300,567.7,270.8z"/>
			<path class="st2" d="M569.7,242.2c0,0-75.5,131.4-95.4,205.2"/>
			<polyline class="st2" points="573.7,254.2 559.7,260.2 559.7,250.9 			"/>
			<polyline class="st2" points="573,294.1 536.5,306 517.8,275.4 			"/>
			<polyline class="st2" points="555.1,345.2 506.6,363.1 492.6,309.3 			"/>
			<line class="st2" x1="485.9" y1="319.3" x2="499.9" y2="331.3"/>
			<polyline class="st2" points="535.1,403.1 480.6,426.3 459.4,377.1 			"/>
		</g>
	</g>
	<g>
		<g>
			<path class="st3" d="M192.4,131.2c0,0,11.3-24.2-1.7-26C181.8,103.9,192.4,131.2,192.4,131.2z"/>
			<path class="st3" d="M192.5,145.2c0,0-3.3-32.5-15.7-27.9C168.4,120.5,192.5,145.2,192.5,145.2z"/>
			<path class="st3" d="M193.7,155.6c0,0-12.3-27.5-21.6-18.4C165.7,143.3,193.7,155.6,193.7,155.6z"/>
			<path class="st3" d="M195.4,172.7c0,0-12.3-27.5-21.6-18.4C167.4,160.4,195.4,172.7,195.4,172.7z"/>
			<path class="st3" d="M192.1,144.4c0,0,26-19.8,15.6-27.9C200.6,111,192.1,144.4,192.1,144.4z"/>
			<path class="st3" d="M194.3,155.2c0,0,29.2-11.3,19.9-21.4C207.9,127,194.3,155.2,194.3,155.2z"/>
			<path class="st3" d="M195.7,172.1c0,0,29.2-11.3,19.9-21.4C209.3,143.8,195.7,172.1,195.7,172.1z"/>
			<path class="st7" d="M192.3,117.6c0,0-4.1,76.2,31.1,136.5"/>
			<path class="st7" d="M205,122.7c0,0-6.1,14.2-12.1,20.7c0,0-6.7-8.5-11.3-19"/>
			<path class="st7" d="M212.4,137.8c0,0-12.8,14.1-18.7,17.8l-15.9-13.3"/>
			<path class="st7" d="M212.6,156.7l-16.9,15.3c0,0-9.7-7-14.1-12.1"/>
		</g>
		<g>
			<path class="st1" d="M158.6,187.5c0,0-22.1-22.7-12.2-31.4c9.9-8.7,22.8-2.5,34.3,25.6c11.6,28.5,19.8-27.3,32-4.7
				c12.2,22.7-24.4,44.2-11,50c13.4,5.8,15.8-31.2,29.1-19.8c20.9,18-21.6,50.2-2.3,65.1c12.8,9.9,20.9-25.2,32.6-11.6
				c17.4,20.4-3.1,70.5-16.3,77.9c-25,14-91.9-39-78.5-48.3c13.4-9.3,45.9,13.4,20.9-12.8c-8.3-8.7-54.1-23.3-38.4-33.7
				c14.4-9.6,35.5,5.2,26.7-12.2c-8.7-17.4-48.3-11.6-44.2-26.7C135.3,189.8,174.9,213.1,158.6,187.5z"/>
			<path class="st8" d="M156.8,162.5c0,0,71.5,131.4,89,195.9"/>
			<polyline class="st8" points="153.3,173 165.5,178.2 165.5,170.1 			"/>
			<polyline class="st8" points="153.9,207.9 185.9,218.3 202.2,191.6 			"/>
			<polyline class="st8" points="169.6,252.6 208,266 224.3,221.2 			"/>
			<line class="st8" x1="230.1" y1="229.9" x2="217.9" y2="240.4"/>
			<polyline class="st8" points="187.1,303.2 234.7,323.6 253.3,280.5 			"/>
		</g>
		<g>
			<path class="st3" d="M85.2,210.8c0,0-29.6-9.5-21.6-22.3C69,179.8,85.2,210.8,85.2,210.8z"/>
			<path class="st3" d="M97.3,221.3c0,0-25.9-27.1-12.7-34.4C93.7,182,97.3,221.3,97.3,221.3z"/>
			<path class="st3" d="M105.5,230.1c0,0-14.9-31.2,0-32.6C115.6,196.6,105.5,230.1,105.5,230.1z"/>
			<path class="st3" d="M119.1,244.3c0,0-14.9-31.2,0-32.6C129.2,210.8,119.1,244.3,119.1,244.3z"/>
			<path class="st3" d="M131.3,260.6c0,0-17.1-27.5-2.5-29.3C138.9,230,131.3,260.6,131.3,260.6z"/>
			<path class="st3" d="M141.1,274c0,0-12-24.9,1.4-23.6C151.7,251.2,141.1,274,141.1,274z"/>
			<path class="st3" d="M149.8,286.3c0,0-9.3-22.1,2.4-20.4C160,267,149.8,286.3,149.8,286.3z"/>
			<path class="st3" d="M96.9,220.4c0,0-36.6,8-35.9-7.1C61.4,203.1,96.9,220.4,96.9,220.4z"/>
			<path class="st3" d="M104.7,230.3c0,0-31.5,17.1-33.4,1.5C70,221.3,104.7,230.3,104.7,230.3z"/>
			<path class="st3" d="M118.4,244c0,0-31.5,17.1-33.4,1.5C83.6,235,118.4,244,118.4,244z"/>
			<path class="st3" d="M130.5,260.1c0,0-31,11.3-30.6-3.1C100.1,247.2,130.5,260.1,130.5,260.1z"/>
			<path class="st3" d="M140.8,273.5c0,0-27.5,10.7-25.4-3.4C116.9,260.5,140.8,273.5,140.8,273.5z"/>
			<path class="st3" d="M149.3,286c0,0-22.7,8.8-21-2.8C129.5,275.3,149.3,286,149.3,286z"/>
			<path class="st5" d="M73.4,200.6c0,0,69.6,53,96,128.5"/>
			<path class="st5" d="M68.4,215.5c0,0,16.9,5.2,27.1,4.8c0,0-2.4-12.2-8.2-24"/>
			<path class="st5" d="M76,233.1c0,0,21.8-0.7,29.4-3.1l0.2-23.7"/>
			<path class="st5" d="M92.4,247.4l25.9-3.4c0,0,1.1-13.6-0.1-21.4"/>
			<path class="st5" d="M105.5,257.5c0,0,15.5,3.1,25,2.6c0,0-1.8-14.7-1.3-23.8"/>
			<path class="st5" d="M123.3,272.4l17.5,1c0,0,0.6-8.6-0.3-14.3"/>
			<path class="st5" d="M134.5,285.4c0,0,10.5-0.9,15.2,0.9c0,0,0.6-13.1,1.2-14"/>
		</g>
		<g>
			<path class="st3" d="M92.9,320c0,0-32.3,0.2-29-12.4C66.1,299,92.9,320,92.9,320z"/>
			<path class="st3" d="M105.7,325.4c0,0-28.4-15.5-19.4-24.9C92.3,294.1,105.7,325.4,105.7,325.4z"/>
			<path class="st3" d="M114.6,330.5c0,0-20.4-21.8-8.5-26.8C114.2,300.3,114.6,330.5,114.6,330.5z"/>
			<path class="st3" d="M129.5,338.6c0,0-20.4-21.8-8.5-26.8C129.1,308.4,129.5,338.6,129.5,338.6z"/>
			<path class="st3" d="M143.9,348.8c0,0-21.3-18.1-9.7-23.5C142,321.7,143.9,348.8,143.9,348.8z"/>
			<path class="st3" d="M105,324.8c0,0-28,16.2-31.4,3.6C71.3,319.8,105,324.8,105,324.8z"/>
			<path class="st3" d="M114.1,330.9c0,0-21.4,22.3-27.1,10C83.1,332.5,114.1,330.9,114.1,330.9z"/>
			<path class="st3" d="M128.9,338.6c0,0-21.4,22.3-27.1,10C98,340.2,128.9,338.6,128.9,338.6z"/>
			<path class="st3" d="M143,348.6c0,0-22.5,17.4-26,5.5C114.7,346,143,348.6,143,348.6z"/>
			<path class="st4" d="M80.5,314.7c0,0,71,25.3,112.5,80.5"/>
			<path class="st4" d="M80.4,328.2c0,0,15.3-0.1,23.5-3.1c0,0-5.2-9.4-13-17.6"/>
			<path class="st4" d="M91.2,340.7c0,0,17.7-6.3,23.4-10.2l-6-19.6"/>
			<path class="st4" d="M108.4,348.1l20.4-9.6c0,0-2.7-11.5-5.7-17.5"/>
			<path class="st4" d="M121.8,353c0,0,13.5-1.5,21.2-4.4c0,0-5.3-11.6-7.3-19.2"/>
		</g>
		<g>
			<path class="st1" d="M209.9,439.6c0,0-32.2,14.6-47.8,4.6c-15.6-10,27.6-15.6,5.9-21.1c-14-3.6-37.6,8.6-43-2.7
				c-5.4-11.3,23.4-11.4,13.5-22.8c-5.5-6.4-58.1-8.1-50.5-28.4c10.7-28.5,38.4-7.6,48.1,5c9.7,12.6,18.8,15.3,14.5-4.5
				s15.7-12.9,22.5,7.3c6.8,20.2,14.9,33.8,17.6,27.5c2.7-6.3-4.9-26.7,5.2-26.6C212.2,378.1,219.6,427.7,209.9,439.6z"/>
			<path class="st9" d="M102.3,368.4c0,0,73.6,35.7,112.2,76"/>
			<path class="st9" d="M139.9,417l29.8-9c0,0-4.3-17.5-9.6-38.1"/>
			<polyline class="st9" points="108.8,380 129,382.3 114.8,364.4 			"/>
			<line class="st9" x1="164.1" y1="385.1" x2="168.6" y2="376.3"/>
			<path class="st9" d="M173,438.1l29.4-4.3c0,0,2.3-19.8-2.6-38.1"/>
		</g>
		<g>
			<path class="st1" d="M236,445.4c0,0,35.1-4.7,42.9-21.5c7.9-16.7-31.7,1.5-16.2-14.8c10-10.5,36.5-12.7,35-25.2
				s-25.9,2.7-23.6-12.2c1.3-8.3,44.9-37.7,27.7-50.9c-24.2-18.4-36.6,13.9-38,29.8c-1.5,15.8-7.8,22.9-14.7,3.9
				c-6.9-19-20.1-2.6-15.2,18.1c5,20.7,5.3,36.6-0.3,32.7c-5.6-3.9-10-25.3-18.6-19.8C201.4,394.5,221.4,440.5,236,445.4z"/>
			<path class="st9" d="M289.4,328c0,0-43.4,69.4-54.8,124"/>
			<path class="st9" d="M283.3,389.1l-30.1,8.2c0,0-5.6-17.1-12.1-37.4"/>
			<polyline class="st9" points="290.1,341.3 274.2,353.9 276.7,331.2 			"/>
			<line class="st9" x1="245.9" y1="375" x2="237.4" y2="369.8"/>
			<path class="st9" d="M266.5,424.6l-27.2,11.9c0,0-12.5-15.6-18-33.7"/>
		</g>
		<g>
			<path class="st6" d="M234.3,437.4c0,0,15.5-36.1,9.6-54.2c-6-18.1-15.4-12.5-22.5,0.2c-7.1,12.7-6.9-3.2-5.2-22.2
				c1.7-19-5-34.1-13.1-36.3c-8.1-2.2-9.3,25.7-15.9,19.2c-6.6-6.5-3.2-48.4-25.1-53c-21.9-4.6-30,5.8-35.7,18.2
				c-5.7,12.5,15.9,31.2,29.8,44c13.9,12.8,4,16.3-5.6,11.4c-9.6-4.9-18.8,14-4.5,21.3c14.4,7.3,37.8,16.3,35.7,22.5
				c-2.1,6.1-12.9-4.7-12.7,4.6C169.4,422.4,222,458.9,234.3,437.4z"/>
			<path class="st10" d="M149.2,310.5c0,0,73.9,83.7,78.5,141.7"/>
			<polyline class="st10" points="166.8,315.9 175.2,342.9 148.9,327.5 			"/>
			<path class="st10" d="M203.8,343.1c0,0-0.3,28.5-2.5,39.7c0,0-23.5-2.2-45.7-6.4"/>
			<path class="st10" d="M235.3,387.6c0,0-7.1,28.2-12,39.5c0,0-14.9,0.3-41-8.6"/>
		</g>
	</g>
</g>
<g>
	<g>
		<g>
			<g>
				<polyline class="st11" points="265,362.5 253.9,441.5 279.4,443.4 292.9,364.5 				"/>
				<g>
					<polygon class="st12" points="253.2,444.9 279.6,447.1 280.7,438.4 254.2,436.5 					"/>
					<path class="st13" d="M279.9,444.8l0.1,13.7l-45.5-3.3l0.2-3.1c0.1-1.2,0.9-2.3,2-2.8l16.5-7L279.9,444.8z"/>
					<line class="st14" x1="280" y1="455.3" x2="234.8" y2="452.1"/>
					<path class="st14" d="M279.9,446.5c0,0-8.4,0.1-12.4,8"/>
					<path class="st14" d="M242.4,446.9c0,0,3,2.8,2.9,5.9"/>
					<polyline class="st14" points="254.2,444.7 251.2,442.7 251.4,446 248.4,444.2 248.2,447.1 246.6,444.8 					"/>
					<path class="st14" d="M251.2,443c0,0,0.7-2.1,0.8-3.2c0.1-0.9,0-1.9-0.8-2.5c-0.3-0.2-0.7-0.3-1-0.2c-0.4,0.2-0.5,0.7-0.5,1.1
						c-0.1,1.6,0.3,3.2,1.1,4.7"/>
					<path class="st14" d="M251,443c-0.6-1-1.6-1.6-2.5-2.3c-0.6-0.4-1.1-0.7-1.7-1c-1.9-0.8-3.7,2.3-0.9,2.7
						c1.9,0.3,3.9,0.4,5.8,0.4"/>
				</g>
			</g>
			<g>
				<polyline class="st11" points="357,360.4 371.7,438.8 346.2,441.9 329.2,363.7 				"/>
				<g>
					<polygon class="st12" points="372.6,442.2 346.3,445.5 344.7,437 371.1,433.8 					"/>
					<path class="st13" d="M345.8,443.3l0.5,13.7l45.3-5.4l-0.4-3c-0.1-1.2-1-2.3-2.1-2.7l-16.8-6.2L345.8,443.3z"/>
					<line class="st15" x1="346.2" y1="453.8" x2="391.3" y2="448.5"/>
					<path class="st15" d="M345.9,445c0,0,8.4-0.3,12.8,7.4"/>
					<path class="st15" d="M383.5,443.7c0,0-2.9,2.9-2.6,6"/>
					<polyline class="st14" points="371.5,442.1 374.4,439.9 374.4,443.2 377.2,441.2 377.6,444.2 379.1,441.7 					"/>
					<path class="st15" d="M374.4,440.2c0,0-0.8-2.1-0.9-3.2c-0.1-0.9-0.1-1.9,0.7-2.5c0.3-0.2,0.7-0.4,1-0.2
						c0.4,0.2,0.5,0.7,0.6,1.1c0.2,1.6-0.2,3.3-0.9,4.7"/>
					<path class="st15" d="M374.7,440.1c0.6-1,1.5-1.7,2.4-2.4c0.5-0.4,1.1-0.8,1.7-1.1c1-0.4,2.6,0.1,2.5,1.3
						c0,0.8-0.8,1.2-1.5,1.4c-1.9,0.4-3.9,0.6-5.8,0.7"/>
				</g>
			</g>
			<path class="st16" d="M343.4,285.4c0,0,7.3,33.7,14.1,63.3c5.4,23.6,12.9,75.7,12.9,75.7l-36.2,6.1c0,0-10.4-55.3-13.3-67.9
				c-1.5-6.5-19.1-84.9-19.1-84.9"/>
			<path class="st16" d="M282.9,274.2c0,0-14.4,48.7-18.7,76.1c-2,12.6-10.7,76.2-10.7,76.2l37.5,2.7c0,0,6.6-58.7,8.5-69.1
				c1.9-10.5,15.2-54,15.2-54c0.6-1.3,1.7-23,1.7-23"/>
			<line class="st15" x1="369.4" y1="416.7" x2="332.9" y2="423"/>
			<path class="st15" d="M336.6,422.3c0,0-9.4-43.8-11.7-57.1c-2.3-13.4-10.4-40-13.4-52.8"/>
			<path class="st15" d="M345.7,295.7c0,0-8.4,0.6-9.5-0.7c-1.1-1.3-5.2-8.6-5.2-8.6"/>
			<path class="st15" d="M291.1,286.3c0,0-2.6,8.6-4,9.7c-1.4,1.1-10.8,1.4-10.8,1.4"/>
			<line class="st15" x1="291.8" y1="421.9" x2="254.5" y2="419.3"/>
			<path class="st15" d="M288,421.7c0,0,6-47.1,9.5-64.3c3.8-18.3,13.9-45,13.9-45"/>
			<path class="st15" d="M311.4,313.7c0.4-1.7,1.3-12.1,0.8-24.6"/>
			<path class="st15" d="M317.1,287.1c0,0-0.5,15.8-1.8,17.6c-0.6,0.9-3.4,2.2-3.4,2.2"/>
			<g>
				<g>
					<path class="st17" d="M357.7,361.2c-0.2,2.3-0.4,4.7-0.6,7c-0.2,2.3-0.4,4.7-0.5,7c0,0.2,0.2,0.1,0.2,0c0.3-2.3,0.4-4.7,0.5-7
						c0.2-2.3,0.3-4.7,0.5-7C357.8,361,357.7,361,357.7,361.2L357.7,361.2z"/>
				</g>
			</g>
			<g>
				<g>
					<path class="st17" d="M353.6,363.7c-0.1,0.7-0.1,1.5-0.2,2.2c-0.1,0.7-0.2,1.5-0.1,2.2c0,0.2,0.3,0.2,0.3,0
						c0.1-0.7,0.1-1.5,0.2-2.2c0.1-0.7,0.1-1.5,0.2-2.2C354,363.5,353.6,363.5,353.6,363.7L353.6,363.7z"/>
				</g>
			</g>
			<g>
				<g>
					<path class="st17" d="M265.5,358.3c0.5,4.4,0.9,8.8,1.5,13.1c0,0.1,0.2,0.1,0.2,0c-0.3-4.4-1-8.7-1.5-13.1
						C265.7,358.1,265.4,358.1,265.5,358.3L265.5,358.3z"/>
				</g>
			</g>
			<g>
				<g>
					<path class="st17" d="M270.4,359.7c-0.1,1.9-0.1,3.8-0.1,5.7c0,0.1,0.2,0.1,0.2,0c0.1-1.9,0.1-3.8,0.2-5.7
						C270.6,359.6,270.4,359.6,270.4,359.7L270.4,359.7z"/>
				</g>
			</g>
			<g>
				<g>
					<path class="st17" d="M290.6,293.6c-0.8,1.6-2.1,3-3.6,4c-0.9,0.6-1.8,0.7-2.8,0.7c-1,0-2-0.1-3,0.1c-0.2,0-0.2,0.3,0,0.3
						c1,0.2,2.2,0.1,3.2,0.1c1,0,1.9-0.3,2.8-0.9C288.8,296.9,290,295.4,290.6,293.6C290.8,293.6,290.7,293.6,290.6,293.6
						L290.6,293.6z"/>
				</g>
			</g>
			<g>
				<g>
					<path class="st17" d="M331.7,292.6c0.3,0.5,0.7,1.1,1,1.6c0.2,0.3,0.4,0.5,0.5,0.7c0.1,0.1,0.2,0.2,0.3,0.3
						c0.1,0.1,0.2,0.3,0.3,0.3c0.1,0.1,0.2,0,0.2-0.2c0-0.1-0.2-0.3-0.2-0.4c-0.1-0.1-0.2-0.2-0.3-0.3c-0.2-0.2-0.4-0.5-0.6-0.8
						c-0.4-0.5-0.8-1-1.1-1.5C331.7,292.4,331.6,292.5,331.7,292.6L331.7,292.6z"/>
				</g>
			</g>
		</g>
		<g>
			<path class="st11" d="M381.7,236.3c6,9.3,6.4,22.7-1.1,27.3c-6.6,4.1-14.9,0.7-19-2.6C356.9,257.3,347,249,347,249l8.2-18.7
				l12.4,9.5l13.9-0.8"/>
			<g>
				<g>
					<path class="st18" d="M393.5,247.7c0.4,3,0.8,6.1,0.3,9c-0.2,1.2-0.6,2.4-1.2,3.4c-0.6,1.1-1.5,2-2.3,2.9
						c-0.3,0.3,0.1,0.7,0.4,0.6c2.3-1.1,3.5-4.2,3.9-6.5c0.6-3.2,0-6.4-0.6-9.5C394,247.3,393.5,247.4,393.5,247.7L393.5,247.7z"/>
				</g>
			</g>
			<g>
				<g>
					<path class="st18" d="M397.7,252c0.8,1.5,1.4,3.1,1.4,4.8c0,1.7-0.5,3.2-1.2,4.8c-0.2,0.4,0.3,1,0.7,0.5
						c1.1-1.4,1.5-3.5,1.5-5.3c0-1.9-0.6-3.7-1.7-5.2C398.1,251.2,397.5,251.5,397.7,252L397.7,252z"/>
				</g>
			</g>
			<g>
				<g>
					<path class="st11" d="M275.7,229.5c0,0-11.6-3.4-24.1-11.2c-14-8.7-27.8-24.9-33.4-37.2l11.8-17.6c7,15.6,18.3,28.3,33.4,36.7
						c8.1,4.5,26.6,11,26.6,11"/>
				</g>
				<g>
					<g>
						<path class="st18" d="M204.2,154.1c-0.6,1.7-1,3.6-0.9,5.4c0.1,1.7,0.4,3.7,1.3,5.2c0.2,0.3,0.6,0.1,0.5-0.2
							c-0.2-0.8-0.5-1.7-0.6-2.5c-0.1-0.8-0.3-1.7-0.3-2.5c-0.1-1.8,0.1-3.5,0.5-5.2C204.8,153.9,204.3,153.8,204.2,154.1
							L204.2,154.1z"/>
					</g>
				</g>
				<g>
					<g>
						<path class="st18" d="M199.2,156.2c-0.6,1.5-0.9,3.1-1,4.7c0,0.8,0,1.5,0.1,2.3c0.1,0.8,0.3,1.6,0.7,2.3
							c0.1,0.2,0.5,0.1,0.5-0.1c0-0.7-0.2-1.5-0.3-2.2c-0.1-0.7-0.2-1.5-0.2-2.2c0-1.6,0.2-3.1,0.7-4.6
							C199.7,156.1,199.3,155.9,199.2,156.2L199.2,156.2z"/>
					</g>
				</g>
				<g>
					<path class="st11" d="M236.2,175c-5.4-7.7-8.7-19.2-10.1-19.5c-0.6-0.2-1,0.4-1.1,1.2c-0.2,1.9,0.7,5.1-0.4,5.3
						c-0.7,0.1-3.9-7.3-6.1-10.2c-0.8-1-1.8-0.1-1.6,0.6c0.7,3,3.7,9.9,3.7,9.9c-0.5,0.1-3.6-7.8-5.9-10.3c-0.5-0.5-1.7-0.2-1.5,0.7
						c0.7,3.2,4,11.6,4,11.6s-3.2-8.1-5.5-10.2c-0.4-0.4-1.5,0.1-1.4,0.7c0.5,2.5,4.3,11.9,4.3,11.9s-2.9-6.8-4.4-8.6
						c-0.4-0.5-1.5,0.3-1.5,0.9c0.6,4.9,10.4,23.9,10.4,23.9"/>
				</g>
				<g>
					<g>
						<path class="st17" d="M215.9,168.2c1.4,0.5,2.9,0.9,4.1,1.8c0.5,0.4,1,0.9,1.4,1.4c0.2,0.3,0.4,0.6,0.5,0.9
							c0.1,0.3,0.2,0.6,0.4,0.9c0.1,0.1,0.3,0.1,0.3-0.1c0-0.6-0.4-1.4-0.8-1.9c-0.4-0.6-0.9-1.1-1.5-1.5c-1.3-1-2.8-1.6-4.4-1.9
							C215.8,167.9,215.8,168.1,215.9,168.2L215.9,168.2z"/>
					</g>
				</g>
				<g>
					<g>
						<path class="st17" d="M225.2,163.5c-0.2,1.2-0.1,2.5,0.1,3.7c0.1,0.6,0.3,1.2,0.5,1.8c0.2,0.6,0.5,1.2,0.9,1.6
							c0.1,0.1,0.3,0,0.3-0.2c-0.2-0.6-0.5-1.1-0.7-1.6c-0.2-0.6-0.4-1.1-0.5-1.7c-0.3-1.2-0.3-2.4-0.2-3.6
							C225.5,163.3,225.2,163.3,225.2,163.5L225.2,163.5z"/>
					</g>
				</g>
			</g>
			<path class="st13" d="M258.6,227.2l11.9-24.3c0,0,11.5,2.7,17.9,5.3c8.6,3.5,13.6,7.5,13.6,7.5l0,0L322,213c0,0,3.4-0.9,6.6-1.4
				c5.4-0.7,13.8,0.9,20.1,6.3c6.7,5.7,16.5,14,16.5,14l-16.3,21.8l-7.2-5.4l3.1,42.1l-66.5,0c0,0,2-32.2,2.5-42.7
				c0.1-3,0.4-6.4,0.7-9.7L258.6,227.2z"/>
			<g>
				<g>
					
						<rect x="302.1" y="263.5" transform="matrix(0.8022 -0.5971 0.5971 0.8022 -97.5736 234.004)" class="st19" width="4.5" height="1.6"/>
				</g>
				<g>
					
						<rect x="316.6" y="263" transform="matrix(0.4955 -0.8686 0.8686 0.4955 -70.2476 409.4411)" class="st19" width="1.6" height="4.5"/>
				</g>
				<g>
					
						<rect x="289.2" y="255.2" transform="matrix(0.4955 -0.8686 0.8686 0.4955 -77.3589 381.7406)" class="st19" width="1.6" height="4.5"/>
				</g>
				<g>
					
						<rect x="322.8" y="238.8" transform="matrix(0.4955 -0.8686 0.8686 0.4955 -46.1 402.6338)" class="st19" width="1.6" height="4.5"/>
				</g>
				<g>
					
						<rect x="318.5" y="284.8" transform="matrix(0.8314 -0.5557 0.5557 0.8314 -104.5934 226.373)" class="st19" width="4.5" height="1.6"/>
				</g>
				<g>
					
						<rect x="334.6" y="260.8" transform="matrix(0.6929 -0.721 0.721 0.6929 -85.1463 323.1484)" class="st19" width="4.5" height="1.6"/>
				</g>
				<g>
					
						<rect x="310.4" y="250.7" transform="matrix(0.6929 -0.7211 0.7211 0.6929 -85.2967 302.6944)" class="st19" width="4.5" height="1.6"/>
				</g>
				<g>
					
						<rect x="327.3" y="267.2" transform="matrix(0.8703 -0.4925 0.4925 0.8703 -90.15 196.5304)" class="st19" width="1.6" height="4.5"/>
				</g>
				<g>
					
						<rect x="285" y="265.8" transform="matrix(0.8703 -0.4925 0.4925 0.8703 -94.9654 175.5184)" class="st19" width="1.6" height="4.5"/>
				</g>
				<g>
					
						<rect x="333.3" y="281.7" transform="matrix(0.1206 -0.9927 0.9927 0.1206 11.9695 581.3506)" class="st19" width="1.6" height="4.5"/>
				</g>
				<g>
					
						<rect x="305.4" y="275.2" transform="matrix(0.6177 -0.7864 0.7864 0.6177 -99.4162 347.3973)" class="st19" width="4.5" height="1.6"/>
				</g>
				<g>
					
						<rect x="287.2" y="284.5" transform="matrix(0.8886 -0.4587 0.4587 0.8886 -98.6185 164.5399)" class="st19" width="4.5" height="1.6"/>
				</g>
				<g>
					<path class="st19" d="M293.9,271c0,0.5,0.4,1,0.9,1.1c0.5,0,1-0.4,1.1-0.9c0-0.5-0.4-1-0.9-1.1C294.4,270,294,270.4,293.9,271z
						"/>
				</g>
				<g>
					<path class="st19" d="M285,277.7c0,0.5,0.4,1,0.9,1.1c0.5,0,1-0.4,1.1-0.9c0-0.5-0.4-1-0.9-1.1S285.1,277.1,285,277.7z"/>
				</g>
				<g>
					<path class="st19" d="M320.1,274.7c0,0.5,0.4,1,0.9,1.1c0.5,0,1-0.4,1.1-0.9c0-0.5-0.4-1-0.9-1.1
						C320.6,273.7,320.2,274.1,320.1,274.7z"/>
				</g>
				<g>
					<circle class="st19" cx="348.4" cy="240.1" r="1"/>
				</g>
				<g>
					<path class="st19" d="M335.6,278c0,0.5,0.4,1,0.9,1.1c0.5,0,1-0.4,1.1-0.9c0-0.5-0.4-1-0.9-1.1
						C336.1,277,335.7,277.4,335.6,278z"/>
				</g>
				<g>
					<circle class="st19" cx="309.2" cy="285.7" r="1"/>
				</g>
				<g>
					<path class="st19" d="M323.1,252.4c0,0.5,0.4,1,0.9,1.1c0.5,0,1-0.4,1.1-0.9c0-0.5-0.4-1-0.9-1.1
						C323.6,251.4,323.2,251.8,323.1,252.4z"/>
				</g>
				<g>
					<path class="st19" d="M300.4,251.7c0,0.5,0.4,1,0.9,1.1c0.5,0,1-0.4,1.1-0.9c0-0.5-0.4-1-0.9-1.1
						C300.9,250.8,300.4,251.2,300.4,251.7z"/>
				</g>
				<g>
					
						<rect x="291.4" y="225.2" transform="matrix(0.8022 -0.597 0.597 0.8022 -76.831 220.0368)" class="st19" width="4.5" height="1.6"/>
				</g>
				<g>
					
						<rect x="315" y="225.3" transform="matrix(0.4955 -0.8686 0.8686 0.4955 -38.3517 389.1173)" class="st19" width="1.6" height="4.5"/>
				</g>
				<g>
					
						<rect x="279.4" y="207.8" transform="matrix(0.4955 -0.8686 0.8686 0.4955 -41.0317 349.3532)" class="st19" width="1.6" height="4.5"/>
				</g>
				<g>
					
						<rect x="345.2" y="233.9" transform="matrix(0.6929 -0.721 0.721 0.6929 -62.4841 322.5505)" class="st19" width="4.5" height="1.6"/>
				</g>
				<g>
					
						<rect x="287.2" y="231.1" transform="matrix(0.7262 -0.6874 0.6874 0.7262 -81.5932 261.8461)" class="st19" width="1.6" height="4.5"/>
				</g>
				<g>
					
						<rect x="333.2" y="227.5" transform="matrix(0.8703 -0.4924 0.4924 0.8703 -69.8429 194.2493)" class="st19" width="1.6" height="4.5"/>
				</g>
				<g>
					
						<rect x="337.2" y="219.1" transform="matrix(0.875 -0.484 0.484 0.875 -63.9877 191.7891)" class="st19" width="4.5" height="1.6"/>
				</g>
				<g>
					
						<rect x="288.6" y="243.3" transform="matrix(0.8703 -0.4924 0.4924 0.8703 -83.399 174.3145)" class="st19" width="1.6" height="4.5"/>
				</g>
				<g>
					
						<rect x="300.9" y="243.6" transform="matrix(0.6177 -0.7864 0.7864 0.6177 -76.3231 331.8366)" class="st19" width="4.5" height="1.6"/>
				</g>
				<g>
					
						<rect x="272.4" y="222.2" transform="matrix(0.8383 -0.5452 0.5452 0.8383 -77.1479 185.7815)" class="st19" width="4.5" height="1.6"/>
				</g>
				<g>
					<path class="st19" d="M311.3,237.8c0,0.5,0.4,1,0.9,1.1c0.5,0,1-0.4,1.1-0.9c0-0.5-0.4-1-0.9-1.1
						C311.8,236.8,311.3,237.2,311.3,237.8z"/>
				</g>
				<g>
					<path class="st19" d="M275.5,229.5c0,0.5,0.4,1,0.9,1.1c0.5,0,1-0.4,1.1-0.9c0-0.5-0.4-1-0.9-1.1
						C276,228.6,275.5,229,275.5,229.5z"/>
				</g>
				<g>
					<path class="st19" d="M324.3,229.9c0,0.5,0.4,1,0.9,1.1c0.5,0,1-0.4,1.1-0.9c0-0.5-0.4-1-0.9-1.1
						C324.9,228.9,324.4,229.3,324.3,229.9z"/>
				</g>
				<g>
					<circle class="st19" cx="330" cy="216.5" r="1"/>
				</g>
				<g>
					<path class="st19" d="M340.6,242.2c0,0.5,0.4,1,0.9,1.1c0.5,0,1-0.4,1.1-0.9c0-0.5-0.4-1-0.9-1.1
						C341.1,241.3,340.7,241.7,340.6,242.2z"/>
				</g>
				<g>
					<path class="st19" d="M347.1,226c0,0.5,0.4,1,0.9,1.1c0.5,0,1-0.4,1.1-0.9c0-0.5-0.4-1-0.9-1.1
						C347.6,225,347.1,225.4,347.1,226z"/>
				</g>
				<g>
					<path class="st19" d="M272.8,214c0,0.5,0.4,1,0.9,1.1c0.5,0,1-0.4,1.1-0.9c0-0.5-0.4-1-0.9-1.1
						C273.3,213,272.9,213.4,272.8,214z"/>
				</g>
				<g>
					<path class="st19" d="M286.1,215.7c0,0.5,0.4,1,0.9,1.1c0.5,0,1-0.4,1.1-0.9c0-0.5-0.4-1-0.9-1.1
						C286.6,214.7,286.1,215.1,286.1,215.7z"/>
				</g>
				<g>
					<path class="st19" d="M299,231.1c0,0.5,0.4,1,0.9,1.1s1-0.4,1.1-0.9c0-0.5-0.4-1-0.9-1.1C299.5,230.2,299.1,230.6,299,231.1z"
						/>
				</g>
			</g>
			<line class="st15" x1="345" y1="250.8" x2="361.5" y2="228.8"/>
			<g>
				<g>
					<path class="st20" d="M297.7,197.3c-1.8-1.3-3.8-1-4.5,1.3c-0.3,1-0.3,2.1,0.1,3c0.4,0.9,1.2,1.7,2.2,2c1,0.3,2.1,0,2.8-0.8"/>
				</g>
				<g>
					<path class="st11" d="M296.9,186.5c2.7-2.4,6.6-3,10.2-3.5c1.8-0.3,3.6-0.2,5.3,0.4c2.2,0.9,3.9,2.8,4.9,5c1,2.2,1.4,4.6,1.7,7
						c0.2,1.9,0.4,4-0.3,5.8c-0.9,2.3-3.1,3.9-4.6,5.8c-1.2,1.5-2.9,2.4-4.8,2.9c-3.4,1-8.3,1.2-10.9-1.5c-2.3-2.4-3.4-5-3.6-8.3
						c-0.2-3.4,0.2-7.6,0.2-7.6"/>
				</g>
				<path class="st11" d="M319.5,201l2.5,12c0,0-1.5,5.9-11.1,7.7c-7.4,1.4-10.8-3.6-10.8-3.6l0.2-11.3"/>
				<g>
					<path class="st17" d="M294.8,195.7c0.1-4.4,1-5.8,2.3-7.1c-0.2,0.2,1.4,1.8,1.6,1.9c0.7,0.5,1.4,1,2.3,1.2
						c2.5,0.9,5.6,0.5,8-0.7c0.7-0.4,1.4-0.8,2-1.2c0.4-0.3,2.3-1.4,2.3-2c-0.2,1.6-0.3,3.2,0.3,4.7c0.9,2.2,3.1,3.5,4.1,5.6
						c0.5,1,0.7,2.2,1.6,2.8c2.6-4.1,4.3-9,3.4-13.5c-0.8-4-3.2-7.5-6.8-9.4c-4-2.2-9.1-3-13.6-1.6c-4,1.3-7.1,5.2-8.2,9.3
						C293.5,188.4,293,191.6,294.8,195.7z"/>
				</g>
				<path class="st17" d="M307.4,196.4c0.1,0.5,0.6,0.9,1.2,0.8c0.5-0.1,0.9-0.6,0.8-1.2c-0.1-0.5-0.6-0.9-1.2-0.8
					C307.7,195.3,307.3,195.8,307.4,196.4z"/>
				<path class="st17" d="M297.1,197.1c0.1,0.5,0.6,0.9,1.2,0.8c0.5-0.1,0.9-0.6,0.8-1.2c-0.1-0.5-0.6-0.9-1.2-0.8
					C297.4,196.1,297,196.6,297.1,197.1z"/>
				<g>
					<g>
						<path class="st17" d="M301.2,197.4c-0.2,0.9-0.4,1.8-0.5,2.7c0,0.7-0.1,1.4,0.1,2c0.1,0.2,0.2,0.5,0.4,0.6
							c0.2,0.1,0.4,0.1,0.6,0c0.6-0.1,1.2-0.3,1.7-0.5c0.2-0.1,0.2-0.4-0.1-0.4c-0.5,0-1,0.2-1.5,0.4c-0.2,0-0.4,0.1-0.6,0.1
							c-0.2-0.1-0.2-0.5-0.3-0.6c-0.1-0.6-0.1-1.2-0.1-1.8c0-0.8,0.1-1.7,0.3-2.5C301.3,197.4,301.2,197.3,301.2,197.4L301.2,197.4z
							"/>
					</g>
				</g>
				<g>
					<path class="st12" d="M305.1,204.1c0.1,0.6,0.1,1.2,0.1,1.8c-0.2,1.6-1.8,2.3-3,1.2c-0.5-0.5-0.8-1.4-1-2.2L305.1,204.1z"/>
				</g>
				<g>
					<g>
						<path class="st11" d="M315.9,196.2c1.8-1.3,3.8-1.2,4.5,1.2c0.3,1,0.4,2,0,3c-0.4,1-1.1,1.8-2.1,2.1c-1,0.3-2.1,0-2.8-0.7"/>
					</g>
					<g>
						<g>
							<path class="st17" d="M319.2,197.1c0,0,0-0.1,0-0.1c0,0-0.1-0.1-0.1-0.1c-0.1-0.1-0.2-0.1-0.2-0.2c-0.2-0.1-0.3-0.1-0.5-0.1
								c-0.4,0-0.7,0.2-1,0.4c-0.3,0.2-0.5,0.5-0.6,0.8c-0.2,0.4-0.1,0.8-0.1,1.2c0.1,0.6,0.3,1.2,0.7,1.6c0.1,0.1,0.3,0,0.2-0.2
								c-0.3-0.5-0.5-1-0.6-1.6c0-0.4,0-0.8,0.2-1.1c0.2-0.3,0.5-0.6,0.8-0.8c0.2-0.1,0.3-0.1,0.5-0.1c0.1,0,0.2,0.1,0.3,0.1
								c0.1,0,0.1,0.1,0.2,0.1C319.1,197.1,319.1,197.1,319.2,197.1C319.2,197.2,319.2,197.1,319.2,197.1L319.2,197.1z"/>
						</g>
					</g>
					<g>
						<g>
							<path class="st17" d="M319.1,202c-0.1,0-0.2,0.1-0.3,0.2c-0.1,0.1-0.2,0.1-0.3,0.1c-0.2,0.1-0.5,0.1-0.8,0.1
								c-0.5,0-1-0.2-1.4-0.4c-0.1-0.1-0.2,0.1-0.1,0.2c0.2,0.2,0.4,0.4,0.7,0.5c0.3,0.1,0.6,0.1,0.9,0.1c0.3,0,0.6-0.1,0.8-0.2
								c0.2-0.1,0.6-0.2,0.7-0.5C319.2,202.1,319.2,202,319.1,202L319.1,202z"/>
						</g>
					</g>
				</g>
				<path class="st21" d="M310.6,193.9c-1.3-1-3.3-0.7-4,0.5"/>
				<path class="st21" d="M299.2,194.9c-0.9-0.8-2.4-0.6-2.9,0.4"/>
				<path class="st15" d="M313.5,207.1c-3.7,2.7-8.7,4.2-13.2,2.8"/>
			</g>
			<path class="st15" d="M322,213c0,0-1.5,5.9-11.1,7.7c-7.4,1.4-10.8-3.6-10.8-3.6"/>
			<path class="st15" d="M298.3,220.3c-0.9-1.3-1.3-3-1.1-4.6"/>
			<path class="st15" d="M322,219c-5.5,5.7-15.6,7.8-22,3.1"/>
			<line class="st15" x1="341.6" y1="248.2" x2="336.9" y2="244.7"/>
			<line class="st15" x1="281.5" y1="238" x2="282.2" y2="228"/>
			<line class="st15" x1="275.2" y1="204.1" x2="263.3" y2="229.4"/>
		</g>
	</g>
	<g>
		<path class="st11" d="M350,218.9c0.2,0.4,11.7,30.3,11.7,30.3s22.4-8.3,20.7-12.2c-1.7-3.8-17.8-31.9-17.8-31.9"/>
		<line class="st22" x1="357.8" y1="239.6" x2="362.5" y2="253.1"/>
		<g>
			<path class="st11" d="M368.9,212.8c-3-5.5-6-11.8-11.3-15.5c-4.2-2.9-6.4-4.6-11.5-5.6c-1.1-0.2-2-0.2-3,0.3
				c-1,0.5-1.7,1.8-1.1,2.6c-1.9,0.5-1.9,2.9-0.9,3.8c-0.8-0.1-1.5,0.3-1.8,1.1c-0.5,1.1-0.3,2.4,0.3,2.8c-1.3-0.1-2,1.1-2.1,2.4
				c-0.1,1.4,0.1,2.6,3,4.7c0.1-0.6,0.4-1.8,0.4-1.8l7,6.2l4.9,12.6"/>
		</g>
		<g>
			<g>
				<path class="st17" d="M341.1,207.5c-0.1-0.1-0.2-0.2-0.3-0.2c-0.1-0.1-0.2-0.1-0.3-0.2c-0.1-0.1-0.2-0.1-0.3-0.2
					c-0.2-0.1-0.3-0.2-0.5-0.1c-0.1,0-0.1,0.2-0.1,0.2c0,0.1,0.1,0.2,0.2,0.2c0.1,0,0.1,0,0.2,0.1c0.1,0,0.1,0,0.2,0.1
					c-0.1,0,0,0,0,0c0,0,0.1,0,0.1,0c0.1,0.1,0.2,0.1,0.4,0.2c0,0,0,0,0,0c0,0,0,0,0,0c0,0,0.1,0,0.1,0c0.1,0,0.1,0,0.2,0.1
					c0.1,0,0.2,0,0.2-0.1C341.2,207.6,341.2,207.5,341.1,207.5L341.1,207.5z"/>
			</g>
		</g>
		<path class="st15" d="M344.2,204.2c-1.4-0.8-2.8-1.4-4.3-1.9"/>
		<path class="st15" d="M345.6,200.4c-1.4-0.8-2.8-1.4-4.3-1.9"/>
		<path class="st15" d="M346.5,196.5c-1.4-0.7-2.8-1.3-4.3-1.8"/>
	</g>
</g>
<g>
	<g>
		<g>
			<path class="st17" d="M144.1,174.4c-3.9-0.8-8.9-1-12.5,0.9c-3.2,1.8-6,4.7-7.6,8.2c-1.5,3.3-2.1,7.1-3.3,10.6
				c-0.8,2.4-2.1,4.8-4,6.4c-2.9,2.3-7,3.2-10.3,5c-15.6,8.3-10.5,30.7,3.5,38.2c10.2,5.5,25.9,0.6,32-8.8c2.2-3.4,3.2-7.5,3.3-11.6
				c0.1-2.2-0.1-4.6,1.1-6.4c2.3-3.6,7.5-4.8,10.8-7.1c2.4-1.7,4.9-4.2,4.4-7.2c-0.4-2.4-2.5-4-3.4-6.1c-0.8-1.9-0.6-4-0.8-6.1
				C156.6,181.9,151.6,175.9,144.1,174.4z"/>
		</g>
		<g>
			<path class="st23" d="M117.3,231.4c0,0,3.6,28.4,3.6,30.5c0,2.1-2.9,12.4-2.9,12.4h46.3l-1.9-16.4c0,0,1.5-21.5,0.1-24.6
				c-1.4-3.1-2.4-9.5-2.4-9.5l2.4-7.3"/>
			<g>
				<g>
					<path class="st17" d="M147.3,263.8c-0.1,0.5-0.2,0.9-0.2,1.4c0,0.2,0,0.5,0,0.7c0,0.1,0,0.2,0,0.4c0,0.1,0,0.2,0.1,0.3
						c0.1,0.1,0.2,0.1,0.3,0c0.1-0.1,0.1-0.2,0.1-0.3c0-0.1,0-0.2,0-0.4c0-0.2,0-0.4,0-0.7c0-0.5,0-0.9,0.1-1.4
						C147.7,263.7,147.3,263.6,147.3,263.8L147.3,263.8z"/>
				</g>
			</g>
			<path class="st23" d="M146.8,208.3c0,0,11.5,1.2,13.4,1.1c2-0.1,17.6-4.3,23.6-9.9c6-5.6,22-32.2,22-32.2l15.7,9.2
				c0,0-9.3,18.2-19.5,33.1c-2.9,4.2-7.7,10.9-22.5,17.7c-5.9,2.7-19.9,9.3-19.9,9.3"/>
			<path class="st24" d="M146.9,207.4c0,0,9.9-1.3,15.8-1c4.8,0.2,15.5-3.7,15.5-3.7l10.4,21.2l-28.8,13.6c0,0-11.8-20.9-11.3-23.8
				C148.9,210.9,146.9,207.4,146.9,207.4z"/>
			<path class="st24" d="M133.5,208.5c0,0-9.1,0.6-10.7,0.6c-3.1,0-11.1,1-16.7,4.8c-8.4,5.6-18.5,14.5-18.5,14.5L98.2,247
				l26.2-14.4"/>
			<path class="st24" d="M148.3,209.3c8.8,2.3,17.6,14.2,17.6,22.7c0,7.2,0,27.8,0,27.8h-48.7l-2.7-30.5c0,0,10.8-11.3,19-20.7
				C138.4,214.1,148.2,211.5,148.3,209.3z"/>
			<g>
				<defs>
					<path id="SVGID_1_" d="M87.6,228.5c0,0,10.2-8.9,18.5-14.5c5.6-3.7,13.6-4.8,16.7-4.8c1.6,0,10.7-0.6,10.7-0.6
						c4.4,5,12.8,3.4,14.5,1.4c-0.5-1.5-1.1-2.6-1.1-2.6s9.9-1.3,15.8-1c4.8,0.2,15.5-3.7,15.5-3.7l10.4,21.2l-22.7,10.7
						c0,8.6,0,25.1,0,25.1h-48.7l-2-22.2l-17,9.4L87.6,228.5z"/>
				</defs>
				<clipPath id="SVGID_2_">
					<use xlink:href="#SVGID_1_"  style="overflow:visible;"/>
				</clipPath>
				<g class="st25">
					<circle class="st26" cx="191.7" cy="204.7" r="1.2"/>
					<circle class="st26" cx="180.9" cy="204.7" r="1.2"/>
					<path class="st26" d="M168.8,204.7c0,0.7,0.6,1.2,1.2,1.2c0.7,0,1.2-0.6,1.2-1.2s-0.6-1.2-1.2-1.2
						C169.3,203.5,168.8,204,168.8,204.7z"/>
					<path class="st26" d="M157.9,204.7c0,0.7,0.6,1.2,1.2,1.2c0.7,0,1.2-0.6,1.2-1.2s-0.6-1.2-1.2-1.2
						C158.5,203.5,157.9,204,157.9,204.7z"/>
					<circle class="st26" cx="148.3" cy="204.7" r="1.2"/>
					<circle class="st26" cx="137.5" cy="204.7" r="1.2"/>
					<circle class="st26" cx="126.6" cy="204.7" r="1.2"/>
					<circle class="st26" cx="115.8" cy="204.7" r="1.2"/>
					<circle class="st26" cx="104.9" cy="204.7" r="1.2"/>
					<path class="st26" d="M92.8,204.7c0,0.7,0.6,1.2,1.2,1.2c0.7,0,1.2-0.6,1.2-1.2s-0.6-1.2-1.2-1.2
						C93.4,203.5,92.8,204,92.8,204.7z"/>
					<circle class="st26" cx="186.3" cy="210.8" r="1.2"/>
					<circle class="st26" cx="175.5" cy="210.8" r="1.2"/>
					<circle class="st26" cx="164.6" cy="210.8" r="1.2"/>
					<circle class="st26" cx="153.8" cy="210.8" r="1.2"/>
					<circle class="st26" cx="142.9" cy="210.8" r="1.2"/>
					<path class="st26" d="M130.8,210.8c0,0.7,0.6,1.2,1.2,1.2c0.7,0,1.2-0.6,1.2-1.2s-0.6-1.2-1.2-1.2
						C131.4,209.5,130.8,210.1,130.8,210.8z"/>
					<path class="st26" d="M120,210.8c0,0.7,0.6,1.2,1.2,1.2c0.7,0,1.2-0.6,1.2-1.2s-0.6-1.2-1.2-1.2
						C120.5,209.5,120,210.1,120,210.8z"/>
					<circle class="st26" cx="110.3" cy="210.8" r="1.2"/>
					<circle class="st26" cx="99.5" cy="210.8" r="1.2"/>
					<circle class="st26" cx="88.6" cy="210.8" r="1.2"/>
					<circle class="st26" cx="191.7" cy="216.8" r="1.2"/>
					<circle class="st26" cx="180.9" cy="216.8" r="1.2"/>
					<path class="st26" d="M168.8,216.8c0,0.7,0.6,1.2,1.2,1.2c0.7,0,1.2-0.6,1.2-1.2s-0.6-1.2-1.2-1.2
						C169.3,215.5,168.8,216.1,168.8,216.8z"/>
					<path class="st26" d="M157.9,216.8c0,0.7,0.6,1.2,1.2,1.2c0.7,0,1.2-0.6,1.2-1.2s-0.6-1.2-1.2-1.2
						C158.5,215.5,157.9,216.1,157.9,216.8z"/>
					<circle class="st26" cx="148.3" cy="216.8" r="1.2"/>
					<circle class="st26" cx="137.5" cy="216.8" r="1.2"/>
					<circle class="st26" cx="126.6" cy="216.8" r="1.2"/>
					<circle class="st26" cx="115.8" cy="216.8" r="1.2"/>
					<circle class="st26" cx="104.9" cy="216.8" r="1.2"/>
					<path class="st26" d="M92.8,216.8c0,0.7,0.6,1.2,1.2,1.2c0.7,0,1.2-0.6,1.2-1.2s-0.6-1.2-1.2-1.2
						C93.4,215.5,92.8,216.1,92.8,216.8z"/>
					<circle class="st26" cx="186.3" cy="222.8" r="1.2"/>
					<circle class="st26" cx="175.5" cy="222.8" r="1.2"/>
					<circle class="st26" cx="164.6" cy="222.8" r="1.2"/>
					<circle class="st26" cx="153.8" cy="222.8" r="1.2"/>
					<circle class="st26" cx="142.9" cy="222.8" r="1.2"/>
					<path class="st26" d="M130.8,222.8c0,0.7,0.6,1.2,1.2,1.2c0.7,0,1.2-0.6,1.2-1.2c0-0.7-0.6-1.2-1.2-1.2
						C131.4,221.6,130.8,222.1,130.8,222.8z"/>
					<path class="st26" d="M120,222.8c0,0.7,0.6,1.2,1.2,1.2c0.7,0,1.2-0.6,1.2-1.2c0-0.7-0.6-1.2-1.2-1.2
						C120.5,221.6,120,222.1,120,222.8z"/>
					<circle class="st26" cx="110.3" cy="222.8" r="1.2"/>
					<circle class="st26" cx="99.5" cy="222.8" r="1.2"/>
					<circle class="st26" cx="88.6" cy="222.8" r="1.2"/>
					<circle class="st26" cx="191.7" cy="228.8" r="1.2"/>
					<circle class="st26" cx="180.9" cy="228.8" r="1.2"/>
					<path class="st26" d="M168.8,228.8c0,0.7,0.6,1.2,1.2,1.2c0.7,0,1.2-0.6,1.2-1.2c0-0.7-0.6-1.2-1.2-1.2
						C169.3,227.6,168.8,228.1,168.8,228.8z"/>
					<path class="st26" d="M157.9,228.8c0,0.7,0.6,1.2,1.2,1.2c0.7,0,1.2-0.6,1.2-1.2c0-0.7-0.6-1.2-1.2-1.2
						C158.5,227.6,157.9,228.1,157.9,228.8z"/>
					<circle class="st26" cx="148.3" cy="228.8" r="1.2"/>
					<circle class="st26" cx="137.5" cy="228.8" r="1.2"/>
					<circle class="st26" cx="126.6" cy="228.8" r="1.2"/>
					<circle class="st26" cx="115.8" cy="228.8" r="1.2"/>
					<circle class="st26" cx="104.9" cy="228.8" r="1.2"/>
					<path class="st26" d="M92.8,228.8c0,0.7,0.6,1.2,1.2,1.2c0.7,0,1.2-0.6,1.2-1.2c0-0.7-0.6-1.2-1.2-1.2
						C93.4,227.6,92.8,228.1,92.8,228.8z"/>
					<circle class="st26" cx="186.3" cy="234.9" r="1.2"/>
					<circle class="st26" cx="175.5" cy="234.9" r="1.2"/>
					<circle class="st26" cx="164.6" cy="234.9" r="1.2"/>
					<circle class="st26" cx="153.8" cy="234.9" r="1.2"/>
					<circle class="st26" cx="142.9" cy="234.9" r="1.2"/>
					<path class="st26" d="M130.8,234.9c0,0.7,0.6,1.2,1.2,1.2c0.7,0,1.2-0.6,1.2-1.2s-0.6-1.2-1.2-1.2
						C131.4,233.6,130.8,234.2,130.8,234.9z"/>
					<path class="st26" d="M120,234.9c0,0.7,0.6,1.2,1.2,1.2c0.7,0,1.2-0.6,1.2-1.2s-0.6-1.2-1.2-1.2
						C120.5,233.6,120,234.2,120,234.9z"/>
					<circle class="st26" cx="110.3" cy="234.9" r="1.2"/>
					<circle class="st26" cx="99.5" cy="234.9" r="1.2"/>
					<circle class="st26" cx="88.6" cy="234.9" r="1.2"/>
					<circle class="st26" cx="191.7" cy="240.8" r="1.2"/>
					<circle class="st26" cx="180.9" cy="240.8" r="1.2"/>
					<path class="st26" d="M168.8,240.8c0,0.7,0.6,1.2,1.2,1.2c0.7,0,1.2-0.6,1.2-1.2s-0.6-1.2-1.2-1.2
						C169.3,239.6,168.8,240.2,168.8,240.8z"/>
					<path class="st26" d="M157.9,240.8c0,0.7,0.6,1.2,1.2,1.2c0.7,0,1.2-0.6,1.2-1.2s-0.6-1.2-1.2-1.2
						C158.5,239.6,157.9,240.2,157.9,240.8z"/>
					<circle class="st26" cx="148.3" cy="240.8" r="1.2"/>
					<circle class="st26" cx="137.5" cy="240.8" r="1.2"/>
					<circle class="st26" cx="126.6" cy="240.8" r="1.2"/>
					<circle class="st26" cx="115.8" cy="240.8" r="1.2"/>
					<circle class="st26" cx="104.9" cy="240.8" r="1.2"/>
					<path class="st26" d="M92.8,240.8c0,0.7,0.6,1.2,1.2,1.2c0.7,0,1.2-0.6,1.2-1.2s-0.6-1.2-1.2-1.2
						C93.4,239.6,92.8,240.2,92.8,240.8z"/>
					<circle class="st26" cx="186.3" cy="246.9" r="1.2"/>
					<circle class="st26" cx="175.5" cy="246.9" r="1.2"/>
					<circle class="st26" cx="164.6" cy="246.9" r="1.2"/>
					<circle class="st26" cx="153.8" cy="246.9" r="1.2"/>
					<circle class="st26" cx="142.9" cy="246.9" r="1.2"/>
					<path class="st26" d="M130.8,246.9c0,0.7,0.6,1.2,1.2,1.2c0.7,0,1.2-0.6,1.2-1.2c0-0.7-0.6-1.2-1.2-1.2
						C131.4,245.7,130.8,246.2,130.8,246.9z"/>
					<path class="st26" d="M120,246.9c0,0.7,0.6,1.2,1.2,1.2c0.7,0,1.2-0.6,1.2-1.2c0-0.7-0.6-1.2-1.2-1.2
						C120.5,245.7,120,246.2,120,246.9z"/>
					<circle class="st26" cx="110.3" cy="246.9" r="1.2"/>
					<circle class="st26" cx="99.5" cy="246.9" r="1.2"/>
					<circle class="st26" cx="88.6" cy="246.9" r="1.2"/>
					<path class="st26" d="M190.5,252.9c0,0.7,0.6,1.2,1.2,1.2c0.7,0,1.2-0.6,1.2-1.2c0-0.7-0.6-1.2-1.2-1.2
						C191,251.6,190.5,252.2,190.5,252.9z"/>
					<path class="st26" d="M179.6,252.9c0,0.7,0.6,1.2,1.2,1.2c0.7,0,1.2-0.6,1.2-1.2c0-0.7-0.6-1.2-1.2-1.2
						C180.2,251.6,179.6,252.2,179.6,252.9z"/>
					<path class="st26" d="M168.8,252.9c0,0.7,0.6,1.2,1.2,1.2c0.7,0,1.2-0.6,1.2-1.2c0-0.7-0.6-1.2-1.2-1.2
						C169.3,251.6,168.8,252.2,168.8,252.9z"/>
					<path class="st26" d="M157.9,252.9c0,0.7,0.6,1.2,1.2,1.2c0.7,0,1.2-0.6,1.2-1.2c0-0.7-0.6-1.2-1.2-1.2
						C158.5,251.6,157.9,252.2,157.9,252.9z"/>
					<path class="st26" d="M147.1,252.9c0,0.7,0.6,1.2,1.2,1.2s1.2-0.6,1.2-1.2c0-0.7-0.6-1.2-1.2-1.2S147.1,252.2,147.1,252.9z"/>
					<path class="st26" d="M136.2,252.9c0,0.7,0.6,1.2,1.2,1.2s1.2-0.6,1.2-1.2c0-0.7-0.6-1.2-1.2-1.2S136.2,252.2,136.2,252.9z"/>
					<path class="st26" d="M125.4,252.9c0,0.7,0.6,1.2,1.2,1.2s1.2-0.6,1.2-1.2c0-0.7-0.6-1.2-1.2-1.2S125.4,252.2,125.4,252.9z"/>
					<path class="st26" d="M114.5,252.9c0,0.7,0.6,1.2,1.2,1.2c0.7,0,1.2-0.6,1.2-1.2c0-0.7-0.6-1.2-1.2-1.2
						C115.1,251.6,114.5,252.2,114.5,252.9z"/>
					<path class="st26" d="M103.7,252.9c0,0.7,0.6,1.2,1.2,1.2c0.7,0,1.2-0.6,1.2-1.2c0-0.7-0.6-1.2-1.2-1.2
						C104.2,251.6,103.7,252.2,103.7,252.9z"/>
					<path class="st26" d="M92.8,252.9c0,0.7,0.6,1.2,1.2,1.2c0.7,0,1.2-0.6,1.2-1.2c0-0.7-0.6-1.2-1.2-1.2
						C93.4,251.6,92.8,252.2,92.8,252.9z"/>
					<circle class="st26" cx="186.3" cy="258.9" r="1.2"/>
					<circle class="st26" cx="175.5" cy="258.9" r="1.2"/>
					<circle class="st26" cx="164.6" cy="258.9" r="1.2"/>
					<circle class="st26" cx="153.8" cy="258.9" r="1.2"/>
					<circle class="st26" cx="142.9" cy="258.9" r="1.2"/>
					<path class="st26" d="M130.8,258.9c0,0.7,0.6,1.2,1.2,1.2c0.7,0,1.2-0.6,1.2-1.2s-0.6-1.2-1.2-1.2
						C131.4,257.7,130.8,258.2,130.8,258.9z"/>
					<path class="st26" d="M120,258.9c0,0.7,0.6,1.2,1.2,1.2c0.7,0,1.2-0.6,1.2-1.2s-0.6-1.2-1.2-1.2
						C120.5,257.7,120,258.2,120,258.9z"/>
					<circle class="st26" cx="110.3" cy="258.9" r="1.2"/>
					<circle class="st26" cx="99.5" cy="258.9" r="1.2"/>
					<circle class="st26" cx="88.6" cy="258.9" r="1.2"/>
				</g>
			</g>
			<path class="st23" d="M95.5,197.7c0-0.1-5.8,34.5-5.8,34.5l8.5,14.8c0,0-8.3,3.9-10.6,4.6c-9.6,3-22.3,0.1-19.4-16.1
				c3.1-17.4,14.6-42.4,14.6-42.4"/>
			<line class="st15" x1="89.7" y1="232.2" x2="89.2" y2="240.8"/>
			<line class="st15" x1="115.2" y1="237.6" x2="123.1" y2="233.6"/>
			<path class="st15" d="M165.9,234.8c0,0,0.7-9.4-1.6-14.5"/>
			<path class="st15" d="M147.7,215.6c-2.1,2.2-8.8,3.9-14.3-0.5"/>
			<path class="st15" d="M150.9,209.2c-0.1,1-0.4,3.3-1.6,5"/>
			<g>
				<path class="st23" d="M200.3,176.5c5.2-8.2,10.6-19.3,12.1-19.6c0.6-0.1,1,0.5,1,1.3c0.1,1.9-1.9,4.6-0.8,4.9
					c0.7,0.2,4.6-7.1,7-9.9c0.9-1,1.8,0,1.6,0.8c-1,3-4.6,9.8-4.6,9.8c0.4,0.2,4.3-7.7,6.9-10c0.6-0.5,1.8,0,1.5,0.8
					c-1,3.2-5,11.5-5,11.5s3.9-8,6.4-10c0.5-0.4,1.5,0.3,1.3,0.8c-0.7,2.5-5.4,11.8-5.4,11.8s3.8-6.6,5.5-8.4
					c0.5-0.5,1.5,0.5,1.4,1.1c-1.1,4.9-13.4,24.3-13.4,24.3"/>
			</g>
			<g>
				<g>
					<path class="st17" d="M220.8,169.9c-1.6,0.2-3.3,0.6-4.7,1.5c-0.6,0.4-1.1,0.9-1.6,1.4c-0.4,0.5-0.9,1.2-0.9,1.8
						c0,0.1,0.2,0.2,0.3,0.1c0.2-0.3,0.3-0.6,0.4-0.9c0.2-0.3,0.4-0.6,0.6-0.8c0.4-0.5,1-1,1.6-1.4c1.3-0.8,2.9-1.2,4.4-1.5
						C221,170.1,221,169.9,220.8,169.9L220.8,169.9z"/>
				</g>
			</g>
			<g>
				<g>
					<path class="st17" d="M211.5,164.7c0,1.2-0.2,2.4-0.5,3.6c-0.2,0.6-0.4,1.1-0.7,1.7c-0.3,0.5-0.6,1-0.9,1.6
						c-0.1,0.2,0.1,0.3,0.2,0.2c0.4-0.4,0.8-1,1-1.5c0.3-0.6,0.5-1.2,0.7-1.7c0.4-1.2,0.5-2.5,0.4-3.8
						C211.8,164.4,211.5,164.4,211.5,164.7L211.5,164.7z"/>
				</g>
			</g>
		</g>
		<g>
			<g>
				<path class="st27" d="M151,191.7c1.8-1.4,3.8-1.3,4.7,1c0.3,1,0.4,2.1,0.1,3.1c-0.3,1-1.1,1.8-2.1,2.2c-1,0.3-2.2,0.1-2.9-0.7"
					/>
			</g>
			<line class="st28" x1="156" y1="190.8" x2="152.6" y2="192.9"/>
			<path class="st23" d="M134.4,197.6l-0.9,11c0,0-1.8,5.4,6.8,6.6c8.6,1.2,8.1-5.8,8.1-5.8l0.5-8.3"/>
			<g>
				<path class="st29" d="M154.8,188.4c-0.7-2.8-3-5.2-5.7-6.2c-2.7-1.1-5.9-0.9-8.5,0.3c-2.7,1.2-4.9,3.3-6.3,5.8
					c-1,1.7-1.7,3.7-2.7,5.4c-0.3-0.5-0.3-1.1-0.3-1.7c-0.1-5.3,0.9-11.3,5.6-14.5c3.9-2.6,9.5-3,13.6-0.7
					C154.4,179.2,156,184.1,154.8,188.4"/>
			</g>
			<g>
				<path class="st23" d="M153.5,186.2c-0.5-1.5-1-3-2.2-4.1c-0.7-0.7-1.6-1.1-2.5-1.5c-2.3-1-4.8-1.7-7.2-0.9
					c-1.7,0.6-3,1.9-4.2,3.2c-1.6,1.8-3,3.8-3.5,6.1c-0.5,2.2-0.4,5-0.1,7.3c0.2,2,1,4.1,2.3,5.6c2.9,3.3,10.6,4.6,13.8,1.7
					c2.3-2.1,3.4-4.3,3.7-7.4s0.2-6.9,0.2-6.9"/>
			</g>
			<g>
				<path class="st17" d="M148,183.5c-2.5,2.2-4.6,4.6-7.2,6.7c-2.6,2-5.6,3.6-8.9,3.7c0,0,0.7-4.6,0.8-5c0.7-3.1,2.1-6.3,4.5-8.5
					c1.3-1.2,3-2,4.8-2.4c4.4-1,9.7,0.9,11.9,5c0.7,1.3,1.2,2.6,1.3,4.1c0.1,1.4-0.2,2.9-1.1,4c0.5-0.6,0-2.4-0.2-3.1
					c-0.3-1-0.9-1.8-1.6-2.6C151.3,184.1,149.8,182.8,148,183.5z"/>
			</g>
			<path class="st17" d="M142.5,192.9c0.1,0.6-0.2,1.1-0.8,1.2c-0.6,0.1-1.1-0.2-1.2-0.8c-0.1-0.6,0.2-1.1,0.8-1.2
				C141.8,191.9,142.4,192.3,142.5,192.9z"/>
			<path class="st17" d="M153.2,192.8c0.1,0.6-0.2,1.1-0.8,1.2c-0.6,0.1-1.1-0.2-1.2-0.8c-0.1-0.6,0.2-1.1,0.8-1.2
				C152.5,191.9,153.1,192.3,153.2,192.8z"/>
			<g>
				<g>
					<path class="st17" d="M147.3,194.6c0.2,0.4,0.4,0.8,0.6,1.2c0.2,0.3,0.3,0.7,0.4,1.1c0,0.1,0,0.2,0,0.3c0,0,0,0.1,0,0.1
						c0,0,0,0,0,0c0,0-0.1,0-0.1,0c-0.1,0-0.1,0-0.2,0c-0.3,0-0.6,0-0.9,0.2c-0.2,0.1-0.2,0.4,0.1,0.4c0.3,0,0.7,0,1-0.1
						c0.1,0,0.3-0.1,0.4-0.2c0.1-0.1,0.1-0.3,0.1-0.5c0-0.4-0.2-0.8-0.4-1.2C148,195.4,147.7,195,147.3,194.6
						C147.3,194.5,147.2,194.6,147.3,194.6L147.3,194.6z"/>
				</g>
			</g>
			<g>
				<path class="st12" d="M144.1,199.7c0,0.6,0.1,1.2,0.2,1.7c0.5,1.6,2.3,2,3.2,0.6c0.4-0.6,0.5-1.5,0.6-2.3L144.1,199.7z"/>
			</g>
			<path class="st21" d="M138.8,191.1c0.8-1.5,2.8-1.9,4-1"/>
			<path class="st21" d="M150.5,190.2c0.6-1.1,2-1.5,2.9-0.8"/>
			<circle class="st28" cx="140.2" cy="192.5" r="4.9"/>
			<path class="st15" d="M148.6,204.9c-4.3,1.8-9,0.7-12.2-2.8"/>
			<line class="st28" x1="135.3" y1="192.5" x2="131.9" y2="194.6"/>
			<g>
				<g>
					<path class="st23" d="M134.2,193.7c-2-0.8-3.8-0.3-4,2c-0.1,0.9,0.1,1.9,0.7,2.7c0.6,0.8,1.5,1.4,2.5,1.4c1,0.1,2-0.4,2.5-1.2"
						/>
				</g>
				<g>
					<g>
						<path class="st17" d="M134,197.1c-0.1-0.4-0.2-0.8-0.4-1.2c-0.1-0.3-0.4-0.6-0.7-0.7c-0.3-0.1-0.6-0.2-1-0.1
							c-0.2,0-0.3,0.1-0.5,0.2c-0.1,0.1-0.3,0.2-0.3,0.4c0,0.1,0.1,0.1,0.1,0.1c0.1,0,0.2-0.2,0.3-0.2c0.1-0.1,0.3-0.1,0.4-0.2
							c0.3-0.1,0.6,0,0.8,0.1c0.3,0.2,0.5,0.4,0.6,0.7C133.7,196.5,133.8,196.8,134,197.1C133.9,197.2,134,197.2,134,197.1
							L134,197.1z"/>
					</g>
				</g>
			</g>
			<path class="st28" d="M148.6,192c0,2.5,1.7,4.5,3.8,4.5c2.1,0,3.8-2,3.8-4.5c0-2.5-1.7-4.5-3.8-4.5
				C150.3,187.5,148.6,189.5,148.6,192z"/>
			<path class="st28" d="M145,191.6c0,0,1.3-0.7,3.7-0.5"/>
		</g>
		<g>
			<g>
				<g>
					<path class="st23" d="M140.4,456.4l-11.5-9.4l19.2-75.1l-26.9-3c0,0-14.7,81.7-14.6,90.1c0,2.1,1.7,3.8,3.8,3.9l7.9-0.2
						l5.1,2.6"/>
					<g>
						<path class="st17" d="M107.3,449c2.5,0.6,5.4,1.8,7.4,3.5c1.6,1.3,2.7,3.1,4.2,4.4c1.8,1.7,4.1,2.8,6.5,3
							c2.4,0.2,5-0.7,6.6-2.5c0.5-0.5,0.9-1.1,1.4-1.6c1.2-1.3,2.9-2,4.6-2c0.1,0,0.2,0,0.3,0.1c0.1,0.1,0.2,0.3,0.3,0.4
							c0.3,0.7,1,0.8,1.6,1.1c0.6,0.3,1.1,0.8,1.6,1.1c1.3,0.9,2.7,1.7,4.1,2.4c2,1,5.9,2.1,7.1,4.1c0.4,0.6,0.5,1.5,0.5,2.3v2
							h-28.9c-1.7,0-3.3-0.4-4.8-1.2l-6.6-4l0.3,5.2h-7.1C106.6,467.3,106.2,452.4,107.3,449z"/>
					</g>
				</g>
				<path class="st30" d="M129.4,446.7c-5.5,2.3-14.3,2.9-22.1,1.9"/>
			</g>
			<g>
				<g>
					<path class="st23" d="M44.8,403l1.9-14.7l69.6-31.9L104.6,332c0,0-49.2,26.9-70.6,38.8c-4.6,2.6-8,4.1-9.2,4.9
						c-1.8,1.1-2.4,3.4-1.4,5.3l4.4,6.6l0.5,5.7"/>
					<g>
						<path class="st17" d="M33.6,371c0.8,2.4,1.3,5.6,1,8.2c-0.3,2-1.1,3.9-1.5,6c-0.5,2.4-0.2,4.9,0.9,7.1
							c1.1,2.2,3.2,3.9,5.6,4.3c0.7,0.1,1.4,0.2,2.1,0.3c1.7,0.4,3.2,1.4,4.2,2.9c0.1,0.1,0.1,0.2,0.1,0.3c0,0.2-0.1,0.3-0.2,0.4
							c-0.4,0.7-0.1,1.3-0.1,2c0,0.6-0.1,1.3-0.1,2c0,1.6-0.1,3.2,0.1,4.7c0.2,2.2,1.3,6.1,0.3,8.2c-0.3,0.7-1,1.2-1.7,1.6l-1.7,1.1
							l-15.3-24.5c-0.9-1.4-1.4-3-1.5-4.7l-0.1-7.7l-4.2,3l-3.8-6.1C17.7,380.1,30.1,371.9,33.6,371z"/>
					</g>
				</g>
				<path class="st30" d="M47.3,388.5c-4.9-3.4-10-10.6-13.3-17.7"/>
			</g>
			<path class="st31" d="M165.2,271.6l0.8,5c0,0,1.1,10.4,1.1,17.7c0,5.8-2.2,46.2-4.5,67.7c-2.3,21.4-7.7,74.7-7.7,74.7h-48.9
				c0,0,18.6-86.4,19.8-92.9c1.1-6.5,11.5-72.2,11.5-72.2"/>
			<path class="st15" d="M111.4,436.7c0,0,16.8-86.4,18-92.9c1.1-6.5,10.6-72.2,10.6-72.2"/>
			<path class="st31" d="M145.2,271.6c-1.8,22.1-12.5,74.6-21.4,84.7c-10.9,12.3-57,49.7-57,49.7l-17.3-44.6l44.4-27.2
				c2.8-1.7,4.9-4.3,5.9-7.4l7-21.1c0.4-1.4,0.7-2.8,0.7-4.2c0.1-4.6,1.2-16.5,8.8-24.9l1.7-5"/>
			<path class="st15" d="M51.1,365.5L97,337.3c2.8-1.7,4.9-4.3,5.9-7.4l7-21.1c0.4-1.4,0.7-2.8,0.7-4.2c0.1-4.6,1.8-19.6,9.4-28.1"
				/>
			<path class="st15" d="M145.2,276.6c-1.5,18.6-8.4,54-16,68.6c-1.4,2.8-5.6,11.7-7,12.7"/>
			<line class="st15" x1="165.9" y1="276.6" x2="116.3" y2="276.6"/>
			<line class="st15" x1="153.2" y1="271.6" x2="153.2" y2="276.6"/>
			<line class="st15" x1="162.1" y1="271.6" x2="162.4" y2="276.6"/>
			<line class="st15" x1="137.6" y1="271.6" x2="137.3" y2="276.6"/>
			<line class="st15" x1="125.6" y1="271.6" x2="124.7" y2="276.6"/>
			<path class="st17" d="M150.7,272.8c0,0.3,0.3,0.6,0.6,0.6s0.6-0.3,0.6-0.6s-0.3-0.6-0.6-0.6S150.7,272.5,150.7,272.8z"/>
			<path class="st17" d="M150.7,275c0,0.3,0.3,0.6,0.6,0.6s0.6-0.3,0.6-0.6s-0.3-0.6-0.6-0.6S150.7,274.7,150.7,275z"/>
			<path class="st17" d="M139.4,272.8c0,0.3,0.3,0.6,0.6,0.6c0.3,0,0.6-0.3,0.6-0.6s-0.3-0.6-0.6-0.6
				C139.7,272.2,139.4,272.5,139.4,272.8z"/>
			<path class="st17" d="M139.4,275c0,0.3,0.3,0.6,0.6,0.6c0.3,0,0.6-0.3,0.6-0.6s-0.3-0.6-0.6-0.6
				C139.7,274.4,139.4,274.7,139.4,275z"/>
			<path class="st15" d="M150.7,276.6c0,0-2.5,16.4-4.2,17.2c-1.7,0.7-3.8,2.1-3.8,2.1"/>
			<path class="st15" d="M129.1,276.6c0,0-5.4,9.1-6.3,9.3s-8.8,1-8.8,1"/>
			<g>
				<g>
					<path class="st17" d="M126.1,285.1c-0.7,1-1.5,2-2.6,2.5c-0.6,0.3-1.4,0.4-2.1,0.4c-0.7,0.1-1.5,0-2.2,0.1
						c-0.1,0-0.1,0.2,0,0.3c0.7,0.2,1.6,0.1,2.4,0c0.7-0.1,1.5-0.2,2.1-0.5c1.2-0.6,1.9-1.7,2.6-2.8
						C126.4,285.1,126.2,285,126.1,285.1L126.1,285.1z"/>
				</g>
			</g>
			<polyline class="st15" points="166.8,287.4 160,285.2 157.4,276.6 			"/>
			<g>
				<g>
					<path class="st17" d="M165.6,289.3c-1.1-0.3-2.1-0.7-3.2-1.1c-1-0.4-2-0.9-3.1-1.3c-0.1,0-0.1,0.1-0.1,0.1c1,0.6,2,1,3,1.3
						c1.1,0.4,2.2,0.7,3.3,1C165.6,289.5,165.7,289.3,165.6,289.3L165.6,289.3z"/>
				</g>
			</g>
			<g>
				<g>
					<path class="st17" d="M112.8,362.2c-3.8,1.6-7.6,3.2-11.5,4.7c-3.7,1.5-7.5,2.8-11.2,4.3c-0.2,0.1-0.1,0.4,0.1,0.3
						c3.9-1.2,7.7-2.8,11.5-4.4c3.7-1.5,7.5-3.1,11.1-4.7C113.1,362.3,113,362.1,112.8,362.2L112.8,362.2z"/>
				</g>
			</g>
			<g>
				<g>
					<path class="st17" d="M155.7,374.8c-0.5,2.9-1.1,5.8-1.7,8.7c-0.6,2.9-1.4,5.8-1.9,8.7c-0.1,0.3,0.3,0.4,0.4,0.1
						c0.8-2.8,1.4-5.8,2-8.7c0.6-2.9,1.2-5.8,1.7-8.7C156.3,374.6,155.8,374.5,155.7,374.8L155.7,374.8z"/>
				</g>
			</g>
			<g>
				<g>
					<path class="st17" d="M152.6,381.3c-1.5,3-3,5.9-4.3,8.9c0,0.1,0.1,0.2,0.2,0.1c1.5-2.9,2.8-5.9,4.2-8.9
						C152.8,381.3,152.7,381.2,152.6,381.3L152.6,381.3z"/>
				</g>
			</g>
			<line class="st15" x1="155.4" y1="430.8" x2="107.2" y2="430.8"/>
			<line class="st15" x1="72.5" y1="401.3" x2="55.3" y2="357.8"/>
		</g>
	</g>
	<g>
		<g>
			<path class="st23" d="M73.4,216.7c0,0,5.6-16.6,6.6-19.2c2.1-5.6,3.9-7.5,7.6-11.4c3.3-3.5,7.3-6.5,11.7-7.7
				c0.9-0.3,0.9-0.2,1.7,0.3c0.8,0.5,1.4,1.7,0.8,2.4c1.6,0.6,1.5,2.7,0.5,3.4c0.7-0.1,1.3,0.4,1.6,1.1c0.4,1,0.1,2.1-0.4,2.5
				c1.1,0,1.7,1.1,1.7,2.3c0,1.2-0.2,2.3-3,3.9c-0.1-0.5-0.3-1.6-0.3-1.6l-6.9,8.2l-2.1,12.9"/>
		</g>
		<g>
			<g>
				<path class="st17" d="M101.9,192.8c0.1,0,0.2-0.1,0.3-0.1c0.1,0,0.2-0.1,0.3-0.1c0.1,0,0.2-0.1,0.3-0.1c0.1,0,0.1,0,0.2,0
					c0.1,0,0.2-0.1,0.2-0.2c0-0.1,0-0.2-0.1-0.2c-0.1-0.1-0.2-0.1-0.3-0.1c-0.1,0-0.1,0-0.2,0.1c-0.1,0-0.2,0.1-0.3,0.1
					c-0.1,0-0.2,0.1-0.3,0.1c-0.1,0.1-0.2,0.1-0.3,0.2C101.6,192.6,101.7,192.8,101.9,192.8L101.9,192.8z"/>
			</g>
		</g>
		<path class="st15" d="M99.2,190.3c1.2-1.1,2.6-1.9,3.9-2.3"/>
		<path class="st15" d="M97.8,187.1c1.1-1.3,3-2.2,4.3-2.5"/>
		<path class="st15" d="M97,183.6c1.3-1.2,3.3-2.1,4.6-2.4"/>
		<g>
			<g>
				<path class="st18" d="M77.5,190.9c0.4-1.7,1.2-3.3,2.2-4.9c0.5-0.7,1-1.4,1.5-2c0.6-0.7,1.3-1.3,1.9-1.9
					c0.2-0.2-0.1-0.6-0.4-0.5c-0.8,0.4-1.5,1.1-2.1,1.7c-0.7,0.7-1.2,1.4-1.7,2.2c-1,1.6-1.6,3.4-1.9,5.2
					C76.9,191.1,77.4,191.3,77.5,190.9L77.5,190.9z"/>
			</g>
		</g>
		<g>
			<g>
				<path class="st18" d="M74,186.5c0.3-1.6,0.9-3,1.7-4.4c0.4-0.6,0.8-1.3,1.3-1.9c0.5-0.6,1-1.2,1.5-1.8c0.1-0.2-0.1-0.4-0.3-0.3
					c-0.7,0.4-1.2,1-1.7,1.6c-0.5,0.6-0.9,1.3-1.3,2c-0.8,1.5-1.3,3-1.5,4.7C73.5,186.6,74,186.8,74,186.5L74,186.5z"/>
			</g>
		</g>
	</g>
</g>
<g>
	<g>
		<g>
			<polyline class="st23" points="639.9,378.7 661.5,458.4 635.9,458.4 611.9,378.7 			"/>
			<g>
				<polygon class="st12" points="662.2,459.9 636,460.1 634.4,453.5 660.1,453.4 				"/>
				<path class="st32" d="M635.5,459.3l-1.2,14.2H680v-3.1c0-1.2-0.7-2.4-1.8-3l-16-8.1H635.5z"/>
				<line class="st33" x1="634.6" y1="470.3" x2="680" y2="470.3"/>
				<path class="st33" d="M635.4,461.5c0,0,8.4,0.7,11.8,8.9"/>
				<path class="st33" d="M672.8,464.7c0,0-3.2,2.6-3.3,5.7"/>
				<polyline class="st33" points="661.2,461.6 664.3,459.8 663.9,463.1 667,461.4 667,464.4 668.8,462.2 				"/>
				<path class="st33" d="M664.3,460.1c0,0-0.5-2.2-0.6-3.3c0-0.9,0.2-1.9,1-2.4c0.3-0.2,0.7-0.3,1-0.1c0.4,0.2,0.4,0.7,0.4,1.1
					c0,1.6-0.6,3.2-1.5,4.6"/>
				<g>
					<g>
						<path class="st34" d="M664.6,460.2c0.8-1,1.9-1.6,2.9-2.1c0.6-0.3,1.2-0.7,1.9-0.8c0.7-0.1,1.2,0.2,1.6,0.8
							c0.2,0.3,0.3,0.7,0.1,1.1c-0.2,0.3-0.5,0.4-0.8,0.5c-0.7,0.2-1.4,0.2-2.1,0.2c-1.4,0.1-2.9,0-4.3-0.1c-0.3,0-0.3,0.4,0,0.5
							c1.4,0.2,2.8,0.2,4.2,0.1c0.6,0,1.3-0.1,1.9-0.1c0.5-0.1,1-0.2,1.3-0.6c0.6-0.8-0.1-2.1-0.9-2.5c-1-0.5-2.2,0.2-3,0.7
							c-1.1,0.6-2.3,1.3-3.1,2.4C664.3,460.1,664.5,460.3,664.6,460.2L664.6,460.2z"/>
					</g>
				</g>
			</g>
		</g>
		<g>
			<polyline class="st23" points="568.2,378.7 570.5,458.4 596.2,458.4 596.2,378.7 			"/>
			<g>
				<polygon class="st12" points="570.3,459.9 596.4,460.1 596.2,453.5 570.4,453.4 				"/>
				<path class="st32" d="M596.6,459.3l1.2,14.2H552v-3.1c0-1.2,0.7-2.4,1.8-3l16-8.1H596.6z"/>
				<line class="st33" x1="597.5" y1="470.3" x2="552" y2="470.3"/>
				<path class="st33" d="M596.7,461.5c0,0-8.4,0.7-11.8,8.9"/>
				<path class="st33" d="M559.2,464.7c0,0,3.2,2.6,3.3,5.7"/>
				<polyline class="st33" points="570.9,461.6 567.7,459.8 568.2,463.1 565.1,461.4 565.1,464.4 563.3,462.2 				"/>
				<path class="st33" d="M567.8,460.1c0,0,0.5-2.2,0.6-3.3c0-0.9-0.2-1.9-1-2.4c-0.3-0.2-0.7-0.3-1-0.1c-0.4,0.2-0.4,0.7-0.4,1.1
					c0,1.6,0.6,3.2,1.5,4.6"/>
				<g>
					<g>
						<path class="st34" d="M567.7,460c-0.7-0.9-1.6-1.5-2.6-2.1c-0.9-0.5-2-1.3-3.1-1.1c-0.9,0.2-1.7,1.5-1.4,2.3
							c0.4,1.1,1.9,1,2.8,1.1c1.6,0.1,3.2,0.1,4.8-0.1c0.3,0,0.3-0.5,0-0.5c-1.4,0.1-2.8,0.2-4.2,0.2c-0.7,0-1.5,0-2.2-0.2
							c-0.3-0.1-0.6-0.2-0.8-0.5c-0.2-0.3-0.1-0.7,0.1-1.1c0.3-0.6,0.8-1,1.6-0.8c0.6,0.1,1.2,0.4,1.8,0.8c1.1,0.6,2.2,1.2,3,2.2
							C567.6,460.3,567.8,460.1,567.7,460L567.7,460z"/>
					</g>
				</g>
			</g>
		</g>
		<path class="st29" d="M566.7,299.2c0,0-2,45.1-2,70.1c0,35.5,3.4,79.9,3.4,79.9h33.5c0,0-1.8-49.7-1.8-56.7
			c0-8.8,0.3-45.9,0.3-45.9l22.5,100.8l36.4-0.8c0,0-30.4-133.6-34.9-144.6"/>
		<path class="st15" d="M619.3,300.6c1.3,1.7,35.2,146.3,35.2,146.3"/>
		<path class="st15" d="M598.6,338.9c0,0-2.5,53-2.4,60.3c0.2,10.6,1.5,50,1.5,50"/>
		<line class="st15" x1="600.2" y1="346.8" x2="591.8" y2="304.7"/>
		<path class="st15" d="M586.6,302.9c0,0,3,16.1,4,17.6c1,1.5,4.9,2.8,4.9,2.8"/>
		<path class="st15" d="M611.8,304.7c1.5,2.7,3.5,7.8,11.4,11.1"/>
		<path class="st15" d="M608.8,304.1c1.7,3.9,7.2,12.2,14.9,13.6"/>
		<path class="st15" d="M566.1,315.1c0.7-0.4,6.2-7.5,8.2-12.2"/>
		<path class="st15" d="M566.1,318.5c0.9-0.4,7.9-8.8,10.4-14.3"/>
		<g>
			<g>
				<path class="st17" d="M570.6,397.2c0.1,2.8,0.3,5.5,0.6,8.2c0.1,1.4,0.3,2.7,0.5,4c0.2,1.3,0.3,2.7,0.6,4c0,0.2,0.3,0.1,0.3,0
					c-0.1-1.3-0.3-2.7-0.5-4c-0.2-1.3-0.3-2.7-0.5-4c-0.3-2.7-0.5-5.4-0.8-8.1C570.8,397.1,570.6,397.1,570.6,397.2L570.6,397.2z"/>
			</g>
		</g>
		<g>
			<g>
				<path class="st17" d="M573.2,401.8c0.2,0.7,0.4,1.5,0.6,2.2c0.2,0.7,0.4,1.5,0.7,2.2c0.1,0.1,0.2,0.1,0.2-0.1
					c-0.1-0.7-0.4-1.5-0.6-2.2c-0.2-0.7-0.4-1.4-0.7-2.2C573.4,401.6,573.2,401.7,573.2,401.8L573.2,401.8z"/>
			</g>
		</g>
		<g>
			<g>
				<path class="st17" d="M635.6,383.9c0.2,2.4,0.3,4.7,0.4,7.1c0,1.2,0,2.3,0,3.5c0,1.2-0.1,2.5-0.1,3.7c0,0.1,0.2,0.2,0.2,0
					c0.4-2.3,0.2-4.7,0.2-7.1c-0.1-2.4-0.3-4.8-0.6-7.3C635.7,383.8,635.6,383.8,635.6,383.9L635.6,383.9z"/>
			</g>
		</g>
		<g>
			<g>
				<path class="st17" d="M632.3,388.7c0.1,1.1,0.2,2.2,0.3,3.3c0.1,1.1,0.2,2.2,0.4,3.2c0,0.1,0.2,0.1,0.2,0c0-1.1-0.2-2.2-0.3-3.3
					c-0.1-1.1-0.3-2.2-0.4-3.3C632.5,388.6,632.3,388.6,632.3,388.7L632.3,388.7z"/>
			</g>
		</g>
	</g>
	<g>
		<g>
			<path class="st23" d="M553.2,232.8l-5.3,4.1l6.3-33.1l-17.4-1.3c0,0-10.2,41.5-10.8,44.9c-0.6,3.4-0.8,10.3,7.6,14.4
				c2.9,1.4,10.2,1.8,15.6-1.8c11.6-7.9,22-14.6,22-14.6"/>
			<g>
				<path class="st23" d="M552.3,214.1c2.1-9.3,5.9-20.8,5.1-21.9c-0.4-0.5-1-0.4-1.6,0.2c-1.4,1.3-1.8,4.5-2.8,4
					c-0.6-0.3,1.7-8.1,1.9-11.7c0.1-1.3-1.3-1.3-1.6-0.6c-1.4,2.8-3.5,9.9-3.5,9.9c-0.4-0.2,2.3-8.3,2.1-11.7c0-0.7-1.2-1.2-1.6-0.5
					c-1.5,2.9-4.4,11.4-4.4,11.4s2.8-8.3,2.4-11.4c-0.1-0.6-1.2-0.9-1.5-0.3c-1.2,2.2-4.4,12-4.4,12s1.9-7.2,1.9-9.6
					c0-0.6-1.4-0.7-1.7-0.2c-2.6,4.2-7.4,26.1-7.4,26.1"/>
			</g>
			<g>
				<g>
					<path class="st17" d="M542.4,195.5c0.8,1.2,1.5,2.4,1.9,3.8c0.2,0.7,0.3,1.4,0.2,2.1c0,0.7-0.3,1.4-0.5,2.1
						c0,0.1,0.1,0.2,0.2,0.1c0.4-0.5,0.6-1.3,0.6-1.9c0.1-0.8,0-1.6-0.2-2.3c-0.4-1.5-1.2-2.9-2.2-4.1
						C542.5,195.3,542.3,195.4,542.4,195.5L542.4,195.5z"/>
				</g>
			</g>
			<g>
				<g>
					<path class="st17" d="M552.4,197.9c-0.9,0.8-1.7,1.8-2.3,2.9c-0.3,0.5-0.5,1.1-0.7,1.6c-0.2,0.6-0.4,1.2-0.4,1.9
						c0,0.2,0.2,0.2,0.3,0c0.2-0.5,0.3-1.1,0.5-1.7c0.2-0.6,0.4-1.1,0.7-1.7c0.5-1.1,1.3-2,2.1-2.9
						C552.8,198,552.6,197.8,552.4,197.9L552.4,197.9z"/>
				</g>
			</g>
			<line class="st15" x1="547.9" y1="236.9" x2="546.3" y2="246.8"/>
		</g>
		<path class="st32" d="M588.8,223.1c0,0-4.8-0.9-9.9-1.6c-3.7-0.4-8.8-0.4-15.7,4c-3.3,2.1-14.1,8.9-14.1,8.9l10.9,20.2l16-9.9"/>
		<path class="st32" d="M624.1,241l3,64.7h-63.5l4-68.9l18.6-13c0,0,3.3,2.9,9.2,1.8c5.8-1.1,11.7-1.3,11.7-1.3L624.1,241z"/>
		<g>
			<defs>
				<path id="SVGID_3_" d="M624.1,241l3,64.7h-63.5l4-68.9l18.6-13c0,0,3.3,2.9,9.2,1.8c5.8-1.1,11.7-1.3,11.7-1.3L624.1,241z"/>
			</defs>
			<clipPath id="SVGID_4_">
				<use xlink:href="#SVGID_3_"  style="overflow:visible;"/>
			</clipPath>
			<g class="st35">
				<g>
					<polygon class="st36" points="620.2,257.3 617.9,255.5 615.6,257.2 613.3,255.4 610.9,257.2 608.6,255.4 606.3,257.1 
						604,255.3 601.6,257.1 599.3,255.3 597,257 594.7,255.2 592.3,257 590,255.1 587.7,256.9 585.4,255.1 583,256.8 580.7,255 
						578.4,256.8 576.1,255 573.7,256.7 571.4,254.9 569.1,256.7 564.9,253.4 567.3,250.3 567.3,250.2 567.5,250.1 568.7,248.5 
						569.2,248.8 571.5,247.1 573.8,248.9 576.2,247.1 578.5,248.9 580.8,247.2 583.1,249 585.4,247.2 587.8,249 590.1,247.3 
						592.4,249.1 594.8,247.4 597.1,249.2 599.4,247.4 601.7,249.2 604.1,247.5 606.4,249.3 608.7,247.5 611,249.3 613.4,247.6 
						615.7,249.4 618,247.6 620.3,249.4 620.8,249.1 622,250.7 622.2,250.9 622.2,251 624.5,254.1 					"/>
				</g>
				<g>
					<polygon class="st36" points="622.6,264.3 620.1,262.5 617.7,264.2 615.2,262.4 612.7,264.2 610.3,262.3 607.8,264.1 
						605.4,262.3 602.9,264 600.5,262.2 598,264 595.6,262.2 593.1,263.9 590.6,262.1 588.2,263.9 585.7,262.1 583.3,263.8 
						580.8,262 578.4,263.7 575.9,261.9 573.4,263.7 571,261.9 568.5,263.6 565.3,261.2 566.9,259.1 568.6,260.3 571.1,258.6 
						573.5,260.4 576,258.6 578.4,260.4 580.9,258.7 583.3,260.5 585.8,258.8 588.2,260.6 590.7,258.8 593.1,260.6 595.6,258.9 
						598,260.7 600.5,258.9 602.9,260.7 605.4,259 607.9,260.8 610.3,259.1 612.8,260.9 615.3,259.1 617.7,260.9 620.2,259.2 
						622.6,261 624.3,259.8 625.8,262 					"/>
				</g>
			</g>
		</g>
		<g>
			<path class="st23" d="M644.9,257.4c-2.6-4.5-5.6-9.7-8.8-13.7l-16.8,10.5c0,0,10,12.6,9.5,20c-0.6,9.1-1.8,12.7-4.8,25.8
				c-2.4,10.4-5,19-4.6,19.5c0.3,0.5,1,0.4,1.6-0.2c1.4-1.3,2-4.4,2.9-3.8c0.6,0.4-2,8-2.3,11.6c-0.1,1.3,1.2,1.3,1.6,0.6
				c1.5-2.7,3.9-9.8,3.9-9.8c0.4,0.2-2.6,8.2-2.5,11.6c0,0.7,1.2,1.3,1.6,0.5c1.6-2.9,4.8-11.3,4.8-11.3s-3.1,8.2-2.8,11.3
				c0.1,0.6,1.2,0.9,1.5,0.4c1.3-2.2,4.8-11.8,4.8-11.8s-2.2,7.1-2.3,9.5c0,0.6,1.4,0.8,1.7,0.3c2.8-4.1,11.3-30.6,13.4-40.7
				C650.5,272.4,648.3,263.3,644.9,257.4z"/>
		</g>
		<path class="st32" d="M603.4,224.3c0,0,12.6,0.4,15.3,0.5c3.9,0.1,7.4,1.8,9.5,3.8c2,2,13.6,19,13.6,19l-20,13.3l-9.9-12.6"/>
		<g>
			<polyline class="st36" points="639.6,244.5 638.7,246.9 636,246.8 635.1,249.3 632.5,249.2 631.6,251.6 629,251.5 628.1,253.9 
				625.5,253.8 624.5,256.2 621.9,256.1 621,258.6 619.9,258.5 618.1,256.1 619.4,256.2 620.4,253.7 623,253.9 623.9,251.4 
				626.5,251.5 627.4,249.1 630,249.2 631,246.8 633.6,246.9 634.5,244.5 637.1,244.6 638,242.1 			"/>
		</g>
		<line class="st37" x1="611.9" y1="248.3" x2="621.9" y2="261"/>
		<g>
			<g>
				<path class="st18" d="M538.6,181.6c-0.4,0.1-0.8,0.2-1.1,0.4c-0.9,0.5-1.6,1.3-2.1,2.2c-0.2,0.4-0.4,0.8-0.5,1.2
					c-0.1,0.4-0.3,0.9-0.3,1.4c0,0.3,0.4,0.4,0.6,0.1c0.2-0.3,0.3-0.7,0.5-1.1c0.1-0.3,0.3-0.6,0.5-0.9c0.2-0.5,0.6-1,0.9-1.4
					c0.4-0.6,0.9-1,1.5-1.3c0,0,0.2-0.1,0.1,0c0,0,0.1,0,0.1,0c0,0,0.1,0,0.1,0C539.1,182.1,538.9,181.6,538.6,181.6L538.6,181.6z"
					/>
			</g>
		</g>
		<g>
			<g>
				<path class="st18" d="M535.8,176.8c-1.4,0.8-2.7,1.8-3.8,3c-0.5,0.6-1,1.2-1.4,1.8c-0.4,0.7-0.8,1.4-1,2.2
					c0,0.3,0.3,0.4,0.4,0.2c0.4-0.6,0.8-1.3,1.1-1.9c0.4-0.6,0.8-1.3,1.3-1.9c1-1.2,2.2-2.2,3.4-3
					C536.3,177,536.1,176.6,535.8,176.8L535.8,176.8z"/>
			</g>
		</g>
		<path class="st37" d="M566.8,250.3c0,0,0.9-10.3,0.8-13.5"/>
		<path class="st37" d="M587.7,231.3c2.4,2.3,10.4,4.4,17.4,0.3"/>
		<path class="st37" d="M583.4,225c0,1,0.6,2.9,2,4.5"/>
		<path class="st38" d="M564.1,252.2"/>
		<path class="st38" d="M552.9,232.2"/>
		<polygon class="st36" points="564.7,250.8 565.1,248.2 562.8,247 563.1,244.4 560.8,243.3 561.2,240.7 558.8,239.6 559.2,237 
			556.8,235.8 557.2,233.2 554.9,232.1 555,230.7 552.5,232.3 552.4,233.4 554.7,234.6 554.3,237.2 556.7,238.3 556.3,240.9 
			558.6,242 558.3,244.6 560.6,245.8 560.3,248.4 562.6,249.5 562.2,252.1 563.3,252.6 565.7,251.2 		"/>
	</g>
	<g>
		<g>
			<path class="st17" d="M588,190.3c-1.6,1.4-2.3,3.6-2.7,5.8c-0.3,2.3-0.3,4.8,0.9,6.8c0.1,0.2,0.3,0.4,0.5,0.3
				c0.1,0,0.1-0.1,0.1-0.2c2.1-3.4,4.2-6.8,6.3-10.2"/>
		</g>
		<g>
			<path class="st27" d="M587.3,204c-1.6-1.6-3.6-1.7-4.7,0.5c-0.5,0.9-0.7,2-0.4,3c0.2,1,0.8,1.9,1.8,2.4s2.1,0.4,2.9-0.3"/>
		</g>
		<g>
			<path class="st23" d="M589.5,191.9c3.1-1.9,6.5,1.1,10.1,1.2c1.8,0.1,3.6,0.4,5.1,1.4c2,1.3,3.4,3.5,4,5.8
				c0.6,2.3,0.6,4.8,0.4,7.2c-0.1,2-0.4,4-1.4,5.7c-1.3,2.1-3.7,3.3-5.5,4.8c-1.5,1.3-3.3,1.8-5.2,2c-3.5,0.4-9.3-0.4-11.5-3.5
				c-1.9-2.8-1.5-5.4-1.1-8.8c0.4-3.3,3.9-15.8,3.9-15.8"/>
		</g>
		<path class="st23" d="M608.1,213.2l-0.6,12.5c0,0-1.7,5.4-11.5,5.4c-7.5,0-10-5.5-10-5.5l2.2-11.1"/>
		<g>
			<path class="st17" d="M588.9,195.4c0.9,0.1,1.7,0.3,2.6,0.4c3.6,0.5,7.2,1.1,10.5,2.6c0.2,0.1,0.4,0.2,0.6,0.4
				c0.2,0.2,0.2,0.5,0.3,0.7c0.4,2.7,1,5.4,1.7,8c0.4,1.3,0.7,2.6,1.2,3.9c0.1,0.2,1.2,3.2,1.4,3.1c1.9-2,3.8-4.6,4.9-7.1
				c0.9-2,1.4-4.3,1.3-6.6c-0.1-1.6-1.1-3-1.5-4.5c-0.5-1.6-0.1-3.5-0.8-5c-0.4-0.8-1-1.4-1.6-1.9c-0.6-0.5-1.2-1-1.9-1
				c-0.7,0-1.5,0.8-1.1,1.5c-1.2-1.9-2.7-3.6-4.4-4.9c-1.6-1.2-3.6-2.2-5.6-2.1c-0.9,0.1-1.9,0.5-2.2,1.3c-0.4,1,0.3,2.2,1.1,3
				c-2-2-4.8-3.3-7.6-3.1c-2.8,0.2-5.5,2-6.5,4.6c-0.3,1-0.4,2.1,0.1,3c0.3,0.5,0.8,0.9,1.2,1.3C584.3,194.4,586.6,195,588.9,195.4z
				"/>
		</g>
		<path class="st17" d="M597.7,207.1c-0.2,0.5,0.1,1.1,0.6,1.3c0.5,0.2,1.1-0.1,1.3-0.6c0.2-0.5-0.1-1.1-0.6-1.3
			C598.4,206.3,597.8,206.6,597.7,207.1z"/>
		<path class="st17" d="M587.6,204c-0.2,0.5,0.1,1.1,0.6,1.3c0.5,0.2,1.1-0.1,1.3-0.6c0.2-0.5-0.1-1.1-0.6-1.3
			C588.4,203.2,587.8,203.5,587.6,204z"/>
		<g>
			<g>
				<path class="st17" d="M590.8,206.3c-0.3,0.9-0.8,1.7-1,2.6c-0.2,0.7-0.3,1.4-0.3,2c0,0.2,0.1,0.5,0.3,0.7
					c0.2,0.1,0.4,0.1,0.6,0.1c0.6,0,1.2-0.1,1.8-0.2c0.2,0,0.1-0.4-0.1-0.4c-0.5,0-1,0.1-1.6,0.1c-0.1,0-0.4,0.1-0.6,0
					c-0.2-0.1-0.2-0.5-0.2-0.7c0-0.6,0.1-1.3,0.3-1.9c0.2-0.8,0.4-1.5,0.7-2.3C590.9,206.3,590.8,206.3,590.8,206.3L590.8,206.3z"/>
			</g>
		</g>
		<g>
			<path class="st12" d="M593.4,213.7c0,0.6-0.1,1.2-0.2,1.7c-0.5,1.6-2.2,2-3.1,0.7c-0.4-0.6-0.5-1.5-0.6-2.3L593.4,213.7z"/>
		</g>
		<g>
			<g>
				<path class="st23" d="M604.5,208.5c2-1,3.9-0.5,4.3,2c0.1,1,0,2.1-0.5,3c-0.5,0.9-1.4,1.5-2.4,1.7c-1,0.1-2.1-0.3-2.6-1.2"/>
			</g>
			<g>
				<g>
					<path class="st17" d="M607.6,210.1c0,0,0-0.1,0-0.1c0,0,0-0.1-0.1-0.1c-0.1-0.1-0.1-0.2-0.2-0.2c-0.1-0.1-0.3-0.2-0.5-0.2
						c-0.3-0.1-0.7,0-1,0.2c-0.3,0.2-0.5,0.4-0.7,0.7c-0.2,0.3-0.3,0.8-0.3,1.2c0,0.6,0.1,1.2,0.4,1.8c0.1,0.1,0.3,0,0.3-0.1
						c-0.2-0.4-0.3-0.9-0.3-1.3c0-0.4,0-0.8,0.2-1.2c0.2-0.4,0.8-0.9,1.3-0.9c0.2,0,0.3,0,0.5,0.1c0.1,0,0.1,0.1,0.2,0.2
						c0,0,0.1,0.1,0.1,0.1C607.4,210.1,607.5,210.1,607.6,210.1C607.5,210.1,607.6,210.1,607.6,210.1L607.6,210.1z"/>
				</g>
			</g>
			<g>
				<g>
					<path class="st17" d="M606.5,214.9c-0.1,0-0.2,0.1-0.3,0.1c-0.1,0-0.2,0.1-0.4,0.1c-0.3,0-0.5,0-0.8,0c-0.2,0-0.5-0.1-0.7-0.3
						c-0.1-0.1-0.2-0.1-0.3-0.2c-0.1-0.1-0.2-0.1-0.3-0.2c-0.1-0.1-0.2,0-0.2,0.1c0.1,0.1,0.1,0.3,0.2,0.4c0.1,0.1,0.2,0.2,0.4,0.3
						c0.2,0.1,0.5,0.2,0.8,0.3c0.3,0,0.6,0.1,0.9,0c0.1,0,0.3-0.1,0.4-0.1c0.1-0.1,0.3-0.1,0.4-0.2
						C606.7,215,606.7,214.9,606.5,214.9L606.5,214.9z"/>
				</g>
			</g>
		</g>
		<path class="st21" d="M601,206.1c-0.6-1.5-2.5-2.2-3.8-1.4"/>
		<path class="st21" d="M589.9,202.6c-0.4-1.1-1.8-1.7-2.7-1.1"/>
		<path class="st15" d="M601.2,218.1c-4.1,2-9.4,2.6-13.5,0.4"/>
	</g>
</g>
<g>
	<g>
		<g>
			<path class="st23" d="M429.2,450.8l-6-5.5c0,0,6.2-47.5,8.9-73.6c1.7-16.9,8.9-70,8.9-70l-29.4,4l-5.8,61.5
				c0,0-4.8,80.3-5.2,88.5c-0.1,2.1,1.4,3.9,3.5,4.1l7.8,0.2l4.9,2.9"/>
			<path class="st17" d="M414.7,461.5l13.3-11.2c0,0,9.2,7.8,11.1,8.9c1.9,1.1,5.7,1.6,6.7,3.7c0.8,1.6,0.4,3.8,0.4,3.8l-30.7-1.8
				l-5-3l-3.2-0.3l-0.2,2.8l-7-0.4l0.2-4.5l11.6,0.6L414.7,461.5z"/>
			<path class="st39" d="M446.5,464.7c0-0.8,0-1.6-0.4-2.3c-1.1-2-4.8-3.4-6.7-4.4c-1.9-1.1-11.3-8.9-11.3-8.9l-13.4,12.5l2,1.4
				L446.5,464.7z"/>
			<line class="st22" x1="416.7" y1="463.6" x2="430.3" y2="450.9"/>
			<g>
				<path class="st17" d="M407.2,460.9l1.7-0.5c-0.6-2-3.8-12.2-8.3-12.2l0,1.8C403,450,405.9,456.3,407.2,460.9z"/>
			</g>
		</g>
		<g>
			<path class="st23" d="M505,438.1l-7.6-3c0,0-11.6-46.5-18.5-71.7c-4.5-16.3-17.2-68.4-17.2-68.4l-26,14.4l17.1,59.4
				c0,0,24.8,76.5,27.4,84.4c0.7,2,2.7,3.1,4.7,2.5l7.3-2.6l5.6,0.9"/>
			<path class="st17" d="M495.4,453.4l8.3-15.3c0,0,11.4,3.9,13.5,4.2c2.1,0.3,5.9-0.5,7.6,1c1.3,1.2,1.7,3.4,1.7,3.4l-29.3,9.5
				l-5.7-1l-3.1,0.9l0.8,2.7l-6.7,2.2l-1.5-4.2l11-3.6L495.4,453.4z"/>
			<path class="st39" d="M526.1,444.8c-0.2-0.7-0.6-1.5-1.2-2c-1.7-1.5-5.7-1.4-7.9-1.7c-2.1-0.3-13.8-4.2-13.8-4.2l-7.9,16.5
				l2.4,0.5L526.1,444.8z"/>
			<line class="st22" x1="498" y1="454.6" x2="506" y2="437.8"/>
			<g>
				<path class="st17" d="M488.2,455.5l1.4-1.1c-1.3-1.7-8-9.9-12.2-8.4l0.6,1.7C480.3,446.9,485.3,451.8,488.2,455.5z"/>
			</g>
		</g>
		<path class="st40" d="M418.9,276l-1.4,6.3c0,0-14.8,19.8-10.1,37.4c-1.1,18.5-5.5,90.9-5.5,90.9l89-4.7l-30.5-121l-0.9-6.5
			L418.9,276z"/>
		<g>
			<defs>
				<path id="SVGID_5_" d="M418.9,276l-1.4,6.3c0,0-14.8,19.8-10.1,37.4c-1.1,18.5-5.5,90.9-5.5,90.9l89-4.7l-30.5-121l-0.9-6.5
					L418.9,276z"/>
			</defs>
			<clipPath id="SVGID_6_">
				<use xlink:href="#SVGID_5_"  style="overflow:visible;"/>
			</clipPath>
			<path class="st41" d="M393.8,377.1c10.3,4.6,16.5,15,23,24.2c6.5,9.2,15.4,18.5,26.7,18.6c1.5,0,3.1-0.2,4.1-1.4
				c1.7-2,0.1-5.1-1.8-6.9c-10-9.7-26.2-10.4-36.2-20.1c-4.1-4-6.7-9.2-8.5-14.5c-0.9-2.6-1.7-5.2-2.5-7.7c-0.7-2.1-0.1-4.4,1.8-5.7
				c2.1-1.4,4.9-1.3,7.2-0.4c3.3,1.4,5.7,4.2,7.6,7.2c2.6,4.2,4.4,9,7.5,12.9c2.7,3.5,6.1,6.4,9.8,8.7c7.7,4.8,16.7,7.4,25.6,8.5
				c1.8,0.2,3.7,0.4,5.5-0.3c1.7-0.7,3.2-2.4,2.9-4.2c-0.2-1.2-1-2.2-1.8-3.1c-8.2-8.9-19.9-14.5-32-15.5c-5.3-0.4-10.6,0-15.8-1.1
				c-2.1-0.4-4.1-1.2-5.9-2.3c-1.1-0.7-3.6-1.3-4.1-2.5c-0.3-0.8-0.3-1.7-0.2-2.6c0.1-0.8,0.2-1.7,0.6-2.4c0.7-1.4,2.4-2.1,3.9-2.5
				c6.7-1.8,14.1-0.2,20.7,1.7c10.3,2.9,20.4,6.1,31,7.3c3.3,0.4,6.6,0.5,9.8-0.2c3.2-0.8,6.2-2.6,7.9-5.4c0.5-1,0.9-2.1,0.8-3.2
				c-0.1-0.8-0.5-1.5-0.9-2.2c-1.5-2.3-3.7-4.1-6.3-5.2c-2.5-1-4.3-0.5-6.9-0.5c-7,0-14.1-0.5-21.1-0.5c-13.4-0.1-27.4-0.9-38.7-8
				c-3.6-2.3-7.3-6.4-5.6-10.4c1.5-3.6,6.2-4.4,10.1-4.1c11,0.9,21.2,6,31.8,9.2c4.2,1.2,8.4,2.2,12.7,2.8c5.5,0.8,12,0.7,15.6-3.5
				c2.7-3.3,2.8-8,2.4-12.2c-0.1-1.3-0.3-2.7-1.2-3.8c-1.2-1.5-3.5-1.8-5.4-1.3c-1.9,0.6-3.4,1.8-4.9,3.1c-6.8,5.6-13.8,10.9-21,16
				c-10.3,7.3-21.7,14.1-34.8,13.7c-1.9-0.1-3.9-0.4-5-1.9c-0.8-1.1-0.9-2.6-0.7-3.9c0.5-3.5,2.5-6.8,5.5-8.8
				c2.6-1.7,5.8-2.4,8.4-4.2c3.4-2.3,5.4-6.4,9-8.4c2.9-1.7,6.5-1.9,9.8-1.7c6,0.2,13.1,1.3,17,6.3c3.6,4.6,6.9,9.2,10,14.2
				c6.1,9.6,12.1,20.1,22.2,26c11.2,6.5,26,6.2,35.6,14.9c-2.7,4.5-8.7,5.7-13.9,5.2c-6.7-0.7-13-3.6-19.3-6.3s-12.7-5.3-19.5-5.2
				c-6.8,0.1-14,3.4-16.7,9.6c-3.1,6.9-1.6,18,5.6,21.9c4.9,2.6,10.9,2.3,16.2,0.7c2.8-0.9,5.5-2.1,7.7-3.9c2.4-2,4.3-4.8,4.4-7.9
				c0.1-3.3-1.7-6.4-4.1-8.6c-6-5.8-14.8-5.8-22.7-7c-4.9-0.8-10-1.3-14.8,0c-4.2,1.1-7.8,3.6-11.4,5.9c-5.7,3.6-11.8,6.8-18.5,8
				c-6.6,1.2-14,0.2-19.2-4.1c-7-5.7-8.8-15.6-8.7-24.6c0-4.8,0.5-9.8,2.7-14.1c2.4-4.8,6.6-8.4,10.2-12.5c3.5-4,6.3-8.5,8.3-13.3
				c2-4.7,3.6-10.2,8.1-12.8c4.3-2.5,9.6-1.5,14.4-0.3c12.8,3.1,25.9,6.7,39,5.5c1.7-0.1,3.5-0.4,4.8-1.4c3.4-2.5,2.3-7.7,0.9-11.7
				c-0.4-1.1-0.8-2.2-1.6-3c-2.4-2.5-6.6-1-9.7,0.6c-13.8,6.9-28.9,11.3-44.4,12.7c-3.4,0.3-7.1,0.4-9.7-1.8c-1.2-1-1.9-2.3-2.7-3.6
				c-2.6-4.4-5.3-9.5-3.5-14.3c10.1,1.7,18.8,8,26.5,14.7c3.6,3.1,6.5,5.6,8.3,10.1c0.5,1.1,0.9,2.3,1.7,3.2
				c1.5,1.7,3.9,2.1,6.1,2.3c2.3,0.2,4.7,0.4,6.8-0.5c2.3-1,4-3.2,4.7-5.6c0.8-2.9,0.3-6.4-0.3-9.4c-0.7-3.5-2.2-6.2-0.7-9.8
				c0.5-1.1,1.2-2.2,1.3-3.5c0.3-1.9-0.7-3.7-1.8-5.2c-3.3-4.4-8.7-7.4-14.2-7.2c-5.5,0.1-11,3.6-12.9,8.7c-0.4,1-0.7,2.1-1.2,3
				c-1.8,3-6.1,3.7-9.4,2.4c-4.2-1.7-8.3-6.1-10.3-10c-0.6-1.1-1.1-2.2-1.3-3.4c-0.8-4.9,4.1-9.2,9.1-9.6c4.9-0.4,9.6,2,14,4.5
				c6,3.4,12,7.1,18.3,10c6.9,3.2,15.2,5.4,21.8,1.8c2.6-1.4,4.8-4.4,3.8-7.1c-0.4-1-1.2-1.8-2-2.6c-3.4-3.4-6.8-6.8-10.2-10.1
				c-1.8-1.8-3.7-3.6-6-4.7c-4.2-1.8-9-0.8-13.5,0.3c-4.8,1.2-10.5,3.3-11.3,8.2c-0.4,2.7,0.9,5.3,2.2,7.7c2,3.8,4,7.6,6.1,11.5
				c1.4,2.6,3.3,5.6,6.3,5.6c2.5,0,4.5-2.4,5-4.9c0.9-4.8-1.1-9.4-3.5-13.5c-0.7-1.1-1.4-2.2-1.6-3.5c-0.3-1.7,0.3-3.5,1-5.1
				c1-2.6,2.4-5.3,4.8-6.7c2.1-1.2,4.7-1.1,7.1-0.4c3.8,1.2,6.9,3.9,10,6.3c3.2,2.4,6.3,5.1,8.3,8.7c3.4,6.3,2.7,14,1.9,21.2
				c-0.2,1.4-0.3,2.9-1.2,4.1c-1,1.4-2.7,2.1-4.3,2.7c-4.8,1.8-9.5,3.5-14.3,5.3c-2.2,0.8-4.5,1.7-6.3,3.2c-2.9,2.4-4.3,6.2-5.4,9.8
				c-1.7,5.7-2.9,12.3,0.2,17.5c3.7,6,11.8,7.5,18.8,7.1c7-0.4,14.2-2.1,21-0.2c2.6,0.7,5.3,2.5,5.4,5.2c0.1,2.5-2.1,4.3-4.1,5.8
				c-5.3,3.9-11,8-17.5,8.2c-4.6,0.2-9.1-1.6-13.2-3.7c-6.5-3.3-12.2-7.5-17.6-12.4c-1.4-1.2-2.9-2.5-4.7-2.6c-2,0-3.7,1.6-4.5,3.5
				c-0.7,1.9-0.7,3.9-0.7,6c0,2,0,4.1-0.9,5.9c-4.1,8.9-21.4,8.7-28.5,4.4c-4.5-2.7-7.3-7.5-9.6-12.2c-1.9-4-3.6-8-5.1-12.2
				c-0.9-2.6-1.7-5.5-0.5-8c1.8-3.9,7-4.3,11.3-4.1c1.8,0.1,3.7,0.2,5.3,1c2.7,1.4,4.2,4.4,5.4,7.2c2,4.6,4.1,9.3,5.7,14.1
				c2.4,7.4,3.7,15.4,1.6,22.9c-2.4,8.2-9.1,15.1-17.3,17.6c3.6,6.1,10.8,8.8,17.3,11.6c7.3,3.1,14.3,6.8,21.1,11
				c3.9,2.4,8.1,5.6,8.5,10.2"/>
			<g class="st42">
				<g>
					<path class="st43" d="M409.1,288.8c2.4,3.2,4.9,6.3,7.3,9.4c2.1,2.7,4.2,5.3,6.5,7.8c4.3,4.6,9.7,8.6,16.2,9.2
						c6.3,0.6,13.6-1.7,17.7-6.8c1.8-2.2,2.8-4.9,2.5-7.8c-0.4-3-2.1-5.7-4.3-7.7c-5.2-4.6-12.5-5.2-18.8-7.3
						c-3.3-1.1-6.5-2.6-8.9-5.1c-2.2-2.4-3.9-5.6-4.1-8.9c-0.1-1.4,0.1-3,0.8-4.2c0.8-1.5,2.2-2.3,3.8-2.7c1.8-0.5,3.7-0.9,5.6-1.2
						c2-0.3,4-0.4,6-0.1c3.7,0.6,7.1,2.5,10.4,4.3c1.7,0.9,3.4,1.8,5.1,2.7c1.3,0.7,2.6,1.5,3.6,2.5c1.1,1.1,1.9,2.6,1.6,4.3
						c-0.3,1.7-1.5,3.1-2.9,4c-2.9,1.8-6.9,2.1-10.2,1.8c-6.7-0.7-12.6-4.7-15.8-10.5c-0.8-1.4-1.3-2.8-1.8-4.3
						c-0.1-0.5-0.9-0.3-0.8,0.2c1.7,6.2,6.2,11.4,12.2,13.9c3.2,1.3,6.7,1.9,10.2,1.6c3.2-0.3,6.9-1.2,8.8-4c0.9-1.2,1.3-2.8,1-4.3
						c-0.3-1.4-1.1-2.6-2.2-3.5c-1.1-1-2.4-1.8-3.8-2.5c-1.8-1-3.5-1.9-5.3-2.8c-3.3-1.7-6.6-3.5-10.3-4c-2-0.3-3.9-0.1-5.9,0.2
						c-1.9,0.3-3.8,0.6-5.6,1.1c-1.5,0.4-2.9,1.1-3.9,2.3c-0.9,1.1-1.3,2.4-1.4,3.8c-0.3,3.1,0.9,6.3,2.6,8.9
						c4.1,6,11.2,7.6,17.8,9.3c3.5,0.9,7.1,1.9,10.1,4c2.6,1.8,4.9,4.6,5.5,7.8c1.3,6.9-5.4,11.8-11.2,13.5
						c-3.6,1.1-7.5,1.3-11.2,0.3c-3.2-0.8-6.1-2.6-8.7-4.7c-2.6-2.1-4.8-4.6-6.9-7.1c-2.5-2.9-4.8-5.9-7.3-8.9
						c-1.3-1.6-2.6-3.1-3.9-4.7C409.2,288.6,409,288.7,409.1,288.8L409.1,288.8z"/>
				</g>
			</g>
			<g class="st42">
				<g>
					<path class="st43" d="M400.7,308.5c7.3,3.4,15,8.7,16.5,17.2c0.3,1.9,0.4,4.3-1.1,5.8c-0.7,0.7-1.7,1.1-2.6,1.5
						c-0.8,0.4-1.7,0.7-2.5,1.1c-3.3,1.6-6.6,3.4-9.4,5.8c-3.2,2.6-5.8,5.8-7.4,9.7c-0.2,0.4,0.5,0.7,0.7,0.3
						c3.1-7.3,9.8-12,16.8-15.2c1.7-0.8,3.7-1.3,5-2.7c1.3-1.4,1.5-3.5,1.3-5.3c-0.5-3.9-2.5-7.6-5.2-10.5c-3.3-3.5-7.6-6-11.9-7.9
						C400.7,308.1,400.5,308.4,400.7,308.5L400.7,308.5z"/>
				</g>
			</g>
			<g class="st42">
				<g>
					<path class="st43" d="M400.2,338.5c11.3,5.9,23.4,12.1,36.6,11.4c6-0.3,11.8-2.1,16.6-5.7c2.7-2,5.2-4.3,8-6.2
						c2.8-1.9,5.8-3.6,8.9-4.9c3.4-1.4,7.2-2.4,10.9-1.8c3.7,0.6,6.7,2.6,9.8,4.5c0.4,0.2,0.7-0.3,0.3-0.6c-2.6-1.8-5.4-3.5-8.5-4.3
						c-3.1-0.8-6.3-0.6-9.4,0.3c-6.3,1.7-12,5.5-17,9.6c-2.6,2.1-5.1,4.2-8.1,5.6c-2.7,1.3-5.6,2.1-8.5,2.6
						c-6.3,0.9-12.7,0.1-18.7-1.7c-7.3-2.2-14.1-5.6-20.9-9.1C400.1,338.2,400,338.4,400.2,338.5L400.2,338.5z"/>
				</g>
			</g>
			<g class="st42">
				<g>
					<path class="st43" d="M487.5,364.5c-3.6-0.7-7.3-0.2-10.9,0.6c-3.8,0.8-7.5,1.8-11.2,2.8c-3.7,1-7.3,2-10.9,3.2
						c-3.2,1.1-6.4,2.3-9.2,4.2c-5.2,3.6-8,9.3-9.9,15.2c-1.8,6-2.3,13.3-7.5,17.5c-6.2,5-14.9,4-21.9,7.2c-0.4,0.2-0.1,0.9,0.3,0.7
						c6.4-2.6,13.7-2.3,19.7-5.7c2.7-1.5,4.8-3.7,6.2-6.5c1.4-2.8,2-5.9,2.8-8.9c1.5-6,3.5-12.3,8-16.7c2.5-2.4,5.6-4,8.7-5.2
						c3.4-1.3,6.9-2.4,10.4-3.4c4.1-1.2,8.2-2.3,12.4-3.3c4.1-1.1,8.4-2,12.7-1.2C487.6,364.9,487.7,364.5,487.5,364.5L487.5,364.5z
						"/>
				</g>
			</g>
			<g class="st42">
				<g>
					<path class="st43" d="M453.4,412.3c4.1-7.6,13.1-9.9,21.1-10.8c7.7-0.9,15.7-1,23.2,1c2.1,0.5,4.1,1.2,6,2.1
						c2,0.9,3.8,2.1,5.7,3.2c0.2,0.2,0.5-0.2,0.3-0.4c-2.9-2.5-6.7-4.1-10.3-5.2c-3.8-1.1-7.8-1.7-11.7-1.9c-4.1-0.2-8.1,0-12.1,0.5
						c-4.4,0.5-8.9,1.2-13,3c-3.9,1.7-7.5,4.5-9.5,8.3C452.8,412.3,453.2,412.6,453.4,412.3L453.4,412.3z"/>
				</g>
			</g>
			<polygon class="st44" points="421.2,345.3 420.2,342.5 422.9,341.5 			"/>
			<polygon class="st44" points="456.1,367.5 455.1,364.7 457.8,363.6 			"/>
			<polygon class="st44" points="470.7,399.7 469.6,397 472.4,395.9 			"/>
			<polygon class="st44" points="420.1,390.6 423,390.3 423.3,393.2 			"/>
			<polygon class="st44" points="415.3,407.1 412.4,407.7 411.8,404.8 			"/>
			<polygon class="st44" points="434.7,372.3 437.6,371.6 438.2,374.5 			"/>
			<polygon class="st44" points="431.6,333.1 434.5,332.6 435,335.5 			"/>
			<polygon class="st44" points="450.4,318.7 452.1,321.1 449.7,322.8 			"/>
			<polygon class="st44" points="466.9,350.4 469.5,348.9 470.9,351.5 			"/>
			<polygon class="st44" points="439.6,401.3 442.1,399.8 443.6,402.4 			"/>
			<polygon class="st44" points="417.2,311.9 417.5,314.8 414.6,315.2 			"/>
			<polygon class="st44" points="456,287.8 454.9,290.5 452.2,289.3 			"/>
			<polygon class="st44" points="434.3,304.2 432.8,306.7 430.3,305.2 			"/>
			<polygon class="st44" points="482.1,380.6 480.6,383.1 478.1,381.6 			"/>
		</g>
		<line class="st45" x1="417.5" y1="282.3" x2="460.5" y2="284.9"/>
		<line class="st45" x1="436.1" y1="277" x2="435.7" y2="283.4"/>
		<line class="st45" x1="422.7" y1="276.2" x2="421.8" y2="282.6"/>
		<line class="st45" x1="450.7" y1="277.9" x2="450.7" y2="284.3"/>
		<line class="st45" x1="457.7" y1="278.3" x2="458.2" y2="284.8"/>
		<path class="st46" d="M448.9,279.9c0,0.4-0.3,0.6-0.7,0.6c-0.4,0-0.6-0.3-0.6-0.7c0-0.4,0.3-0.6,0.7-0.6
			C448.6,279.2,448.9,279.5,448.9,279.9z"/>
		<path class="st46" d="M448.7,282.3c0,0.4-0.3,0.6-0.7,0.6c-0.4,0-0.6-0.3-0.6-0.7c0-0.4,0.3-0.6,0.7-0.6
			C448.5,281.7,448.8,282,448.7,282.3z"/>
		<path class="st46" d="M438.8,279.2c0,0.4-0.3,0.6-0.7,0.6c-0.4,0-0.6-0.3-0.6-0.7c0-0.4,0.3-0.6,0.7-0.6
			C438.6,278.6,438.8,278.9,438.8,279.2z"/>
		<path class="st46" d="M438.7,281.7c0,0.4-0.3,0.6-0.7,0.6c-0.4,0-0.6-0.3-0.6-0.7c0-0.4,0.3-0.6,0.7-0.6
			C438.4,281.1,438.7,281.4,438.7,281.7z"/>
		<path class="st23" d="M410.3,295.2l0.3,6.6l0.5,3.8c3.8-3.6,10.4-16.3,10.4-16.3s-1-2.1-2.1-4.2"/>
		<path class="st45" d="M424.3,282.7c0,0-4,13.1-13.9,23.8"/>
		<path class="st45" d="M456.3,284.6c0,0,3.5,16.6,8.8,18.5"/>
		<g>
			<g>
				<path class="st46" d="M449.3,362.1c-5.1,6.7-9.8,13.9-13.7,21.4c-1.1,2.1-2.1,4.2-3,6.4c-0.1,0.2,0.2,0.3,0.3,0.1
					c2-3.7,3.8-7.5,5.9-11.2c2.1-3.7,4.3-7.3,6.6-10.8c1.3-2,2.7-3.9,4.1-5.8C449.7,362.1,449.4,362,449.3,362.1L449.3,362.1z"/>
			</g>
		</g>
		<g>
			<g>
				<path class="st46" d="M442.3,380.3c-1,1.4-1.8,2.8-2.6,4.3c-0.8,1.4-1.5,3-1.9,4.5c-0.1,0.2,0.3,0.3,0.3,0.1
					c0.7-1.5,1.3-3,2-4.5c0.8-1.5,1.6-2.9,2.6-4.2C442.9,380.3,442.5,380.1,442.3,380.3L442.3,380.3z"/>
			</g>
		</g>
	</g>
	<g>
		<path class="st23" d="M439.2,222.3l-5.1-1.6c0,0-11.4-0.6-20.1,5.2c-11.4,7.5-26,21.9-24.8,40.2c0.8,12,21.4,35.7,21.4,35.7
			l8.8-16.7c0,0-9.3-16.7-8.9-21c0.6-6.4,12.5-14.1,12.5-14.1"/>
		<path class="st23" d="M455.7,250.5c0,0,14,14.2,18.2,18c1.9,1.6,7.4,6,12.5,5.6c7.4-0.7,8.7-5.2,8-15.7l-8.7-3.6
			c0,0-7.6-10.7-12.4-17.6c-6-8.5-9.9-12.4-13.6-12.9c-3.7-0.4-12.1-1.1-12.1-1.1"/>
		<path class="st39" d="M434.1,220.7c-7.8,6.3-15.6,27-17.7,28.8l2.5,26.4l40.7,2.4c0,0,2.6-16.2,4.4-28.2
			c1.2-8-13.8-28.7-13.8-28.7L434.1,220.7z"/>
		<path class="st17" d="M444.2,243.3c0,0.5-0.4,0.8-0.9,0.8c-0.5,0-0.8-0.4-0.8-0.9c0-0.5,0.4-0.8,0.9-0.8
			C443.9,242.4,444.3,242.8,444.2,243.3z"/>
		<circle class="st17" cx="443.5" cy="256.1" r="0.9"/>
		<path class="st17" d="M443.5,269.4c0,0.5-0.4,0.8-0.9,0.8c-0.5,0-0.8-0.4-0.8-0.9c0-0.5,0.4-0.8,0.9-0.8S443.6,268.9,443.5,269.4z
			"/>
		<path class="st39" d="M434.1,220.7c0,0-11.1-0.8-18.7,3c-10.1,5.1-18.4,17.5-18.4,17.5l17.4,16l10.3-5.1L434.1,220.7z"/>
		<path class="st39" d="M450.2,221.6c0,0,12.4,1.8,17.8,7.4c5.4,5.6,12.1,18,12.1,18l-15.6,13.3l-19.1-11.1L450.2,221.6z"/>
		<path class="st15" d="M462.7,259.2c0,0,4-10.6,1.9-18.9"/>
		<line class="st15" x1="417" y1="256" x2="422.8" y2="252.3"/>
		<polyline class="st15" points="429.8,221.9 431.5,232.1 439.6,231.7 		"/>
		<path class="st15" d="M445.5,241.6c-2.9-4.1-10.4-6.5-10.7-6.6l1-3.1"/>
		<polyline class="st15" points="455.3,222.6 454.2,233.6 449.4,232.3 		"/>
		<path class="st15" d="M445.6,241.6c1.8-3.8,6.6-5.6,6.7-5.7l-1.1-3.1"/>
		<path class="st15" d="M445.3,237.6c0,0,0.3,7,0.1,13.6c-0.1,3.7-1.3,26.3-1.3,26.3"/>
		<line class="st15" x1="399.5" y1="237.9" x2="418.1" y2="255.4"/>
		<path class="st15" d="M463.5,256.4c0.1-0.3,14.6-12.9,14.6-12.9"/>
		<g>
			<g>
				<path class="st23" d="M478,227.1c0-1.7,0-3.5,0.1-5.2c0.2-2.7,1.5-6.5,3.7-8.6c2.9-2.8,5.2-3.8,9.1-4.9c0.5-0.1,1.2-0.2,1.3,0.3
					c0.1,0.3-0.1,0.6-0.3,0.8c-0.4,0.5-0.9,1-1.4,1.4c-0.6,0.4-1.3,0.9-1.2,1.6c0.6,0.1,1.1,0.1,1.7,0.1c3.6-0.1,7.6-0.7,10.8-2.5
					c0.4-0.2,0.8-0.4,1.2-0.4c0.4,0.1,0.8,0.5,0.7,1c0.4-0.2,0.8-0.4,1.3-0.3c0.4,0.1,0.8,0.6,0.7,1c0.2,0,0.8,0.1,0.7,1.1
					c0,0.7-0.6,1.8-0.6,1.8c0,0,0.2,0.2,0.2,0.2c0.1,0.3,0,0.7,0,1c-0.4,1.4-3.6,4.4-5.6,5.8c-5,3.7-8.6,3.7-8.6,3.7"/>
			</g>
			<polyline class="st23" points="478.2,221.8 476.9,265.2 494.5,262 493.4,224.2 			"/>
			<line class="st15" x1="477.4" y1="249.2" x2="476.7" y2="261"/>
			<g>
				<g>
					<path class="st17" d="M491.5,226.6c0.3-0.3,0.6-0.6,0.9-0.9c0.2-0.1,0.3-0.3,0.5-0.4c0.1-0.1,0.2-0.1,0.3-0.2
						c0.1-0.1,0.2-0.1,0.3-0.2c0-0.1,0-0.2-0.1-0.2c-0.1,0-0.2,0-0.4,0.1c-0.1,0.1-0.2,0.1-0.3,0.2c-0.2,0.1-0.4,0.3-0.6,0.4
						c-0.3,0.3-0.7,0.6-0.9,1c-0.1,0.1-0.1,0.2,0,0.2C491.3,226.7,491.4,226.7,491.5,226.6L491.5,226.6z"/>
				</g>
			</g>
			<g>
				<g>
					<path class="st17" d="M486.3,218c0.8-0.5,1.5-1.3,2-2.2c0.2-0.4,0.4-0.9,0.5-1.4c0-0.3,0.1-0.6,0.1-0.8c0-0.3,0.1-0.6,0.1-0.9
						c0-0.1-0.2-0.2-0.3-0.1c-0.4,0.4-0.4,1-0.4,1.5c-0.1,0.5-0.2,1-0.3,1.5c-0.4,0.9-1,1.8-1.7,2.4
						C486.1,218,486.2,218.1,486.3,218L486.3,218z"/>
				</g>
			</g>
			<g>
				<g>
					<path class="st17" d="M504.5,214.5c-1,1-2.2,2.1-3.5,2.8c-1.4,0.7-3.1,0.4-4.7,0.4c-1.4,0-2.9,0.1-4.2,0.6
						c-1,0.4-2.4,1.1-2.9,2.1c-0.1,0.2,0.1,0.4,0.3,0.3c0.5-0.4,1-1,1.6-1.3c0.6-0.4,1.3-0.6,1.9-0.8c1.5-0.4,3.2-0.4,4.7-0.3
						c1.3,0,2.6,0,3.7-0.7c1.2-0.7,2.2-1.8,3.1-2.8C504.8,214.6,504.6,214.4,504.5,214.5L504.5,214.5z"/>
				</g>
			</g>
			<g>
				<g>
					<path class="st17" d="M504.6,212.2c-1.1,0.9-2.3,1.8-3.5,2.6c-0.6,0.4-1.2,0.7-1.8,0.9c-0.6,0.3-1.3,0.4-1.9,0.7
						c-0.1,0.1-0.1,0.3,0.1,0.3c0.7,0.1,1.4-0.2,2.1-0.5c0.7-0.3,1.3-0.6,1.9-1c1.3-0.8,2.3-1.8,3.4-2.9
						C504.8,212.3,504.7,212.2,504.6,212.2L504.6,212.2z"/>
				</g>
			</g>
			<g>
				<g>
					<path class="st17" d="M502.8,210.9c-0.9,1-1.9,1.7-3.1,2.3c-0.6,0.3-1.1,0.5-1.7,0.7c-0.3,0.1-0.6,0.2-0.9,0.3
						c-0.3,0.1-0.6,0.1-0.9,0.3c-0.2,0.1-0.1,0.4,0.1,0.4c0.3,0,0.7-0.1,1-0.2c0.3-0.1,0.6-0.2,1-0.3c0.6-0.2,1.2-0.5,1.8-0.8
						c1.2-0.6,2.2-1.4,3.1-2.5C503.2,211,503,210.7,502.8,210.9L502.8,210.9z"/>
				</g>
			</g>
		</g>
	</g>
	<g>
		<g>
			<path class="st17" d="M455.5,196c0.3,2.8-1.1,7.1,1,9.3c0.8,0.9,1.9,1.6,2.2,2.8c0.4,1.3-0.3,2.3-0.8,3.5
				c-0.6,1.3-0.7,2.5-0.1,3.7c0.9,1.7-0.2,4-0.2,4s-12.3,2.3-18.2-0.7c-0.5-2.7,0.6-7.9,1.1-10.5c0.5-2.9,1.4-5.8,2.7-8.5
				c0.1-0.2,0.2-0.4,0.3-0.6"/>
		</g>
		<g>
			<g>
				<path class="st27" d="M451.7,205.5c1.5-1.1,3.2-0.9,3.8,1c0.2,0.8,0.3,1.7,0,2.5c-0.3,0.8-1,1.5-1.8,1.7c-0.8,0.2-1.8,0-2.4-0.6
					"/>
			</g>
		</g>
		<g>
			<path class="st23" d="M453,196.8c-0.5-1.8-3-2.8-4.8-3.4c-1.8-0.5-3.7,1.1-5.6,1.3c-2.9,0.4-6,1.4-7.7,3.7
				c-3.2,4.4-1.9,13.7,2.1,17.3c3.3,2.9,11.7,3.2,14.6-0.1c2-2.3,2.4-4.7,2.4-7.8c0-3.1-0.7-9.6-0.7-9.6"/>
		</g>
		<g>
			<path class="st17" d="M440,202.2c3.1-1.5,6.5-2.5,8.8-5.3c0.5-0.6,1-1.3,1.1-2c2.3,1.9,3.5,5.4,3.9,9.3c0.9-1.1,1.3-1.9,1.7-5.5
				c0.9-7-6.2-10.8-12.4-10.8c-4.4,0-8.7,0.8-12.3,3.6c-1.9,1.5-3.4,3.4-5,5.2c-0.5,0.6-1,1.3-1.7,1.8c-0.8,0.6-1.7,0.8-2.5,1.4
				c-1.2,1-1.9,2.7-1.7,4.2c0.1,0.9,0.5,1.9,0.1,2.8c-0.4,1.1-1.7,1.5-2.6,2.2c-1.5,1.1-2.4,3-2.2,4.9c7.4,3.2,15.4,5,23.5,5.3
				c-0.2,0-2.1-5.1-2.5-5.7c-1.1-1.5-2.3-3.3-2.5-5.2c-0.1-0.8,0.2-1.7,0.7-2.4c0.5-0.7,1.1-1.3,1.7-1.8
				C437.5,203.4,438.8,202.8,440,202.2z"/>
		</g>
		<g>
			<g>
				<path class="st39" d="M434.5,201.8c0,0.1,0,0.1,0.1,0.2c0,0.1,0.1,0.1,0.1,0.2c0.1,0.1,0.2,0.2,0.3,0.3c0.2,0.2,0.4,0.4,0.6,0.6
					c0.2,0.2,0.3,0.4,0.5,0.6c0.1,0.1,0.2,0.2,0.3,0.3c0.1,0.1,0.2,0.3,0.3,0.4c0.1,0.1,0.2,0.1,0.4,0c0.1-0.1,0.2-0.2,0.1-0.3
					c-0.1-0.1-0.2-0.3-0.3-0.4c-0.1-0.1-0.2-0.2-0.3-0.4c-0.2-0.2-0.4-0.4-0.6-0.7c-0.2-0.2-0.4-0.4-0.6-0.6
					c-0.1-0.1-0.2-0.2-0.3-0.3c-0.1,0-0.1-0.1-0.2-0.1c-0.1-0.1-0.1-0.1-0.2-0.1C434.6,201.6,434.5,201.7,434.5,201.8L434.5,201.8z"
					/>
			</g>
		</g>
		<g>
			<g>
				<path class="st39" d="M436.5,199.7c0.4,0.5,0.8,1.1,1.2,1.6c0.4,0.5,0.8,1,1.2,1.5c0.1,0.1,0.2,0.1,0.3,0.1
					c0.1,0,0.1-0.1,0.2-0.1c0.1-0.1,0-0.3,0-0.4c-0.4-0.5-0.8-1-1.3-1.5c-0.4-0.5-0.8-1-1.3-1.4
					C436.6,199.4,436.4,199.6,436.5,199.7L436.5,199.7z"/>
			</g>
		</g>
		<g>
			<g>
				<path class="st39" d="M438.7,198.6c0.4,0.5,0.9,1,1.3,1.5c0.2,0.2,0.4,0.5,0.6,0.8c0.1,0.1,0.2,0.3,0.3,0.4
					c0.1,0.1,0.2,0.3,0.3,0.4c0.1,0.1,0.2,0.1,0.4,0c0.1-0.1,0.2-0.2,0.1-0.3c-0.1-0.2-0.2-0.3-0.3-0.5c-0.1-0.1-0.2-0.3-0.3-0.4
					c-0.2-0.3-0.4-0.5-0.7-0.8c-0.5-0.5-0.9-1-1.5-1.4C438.8,198.2,438.5,198.4,438.7,198.6L438.7,198.6z"/>
			</g>
		</g>
		<path class="st23" d="M434.8,211.8l-0.7,9c0,0,5.6,9.2,11.2,16.9c4.3-6.4,4.8-16.1,4.8-16.1l-0.6-8.4"/>
		<path class="st15" d="M439.8,216.3c1,0.7,2.8,1.5,4.9,1.7c3.3,0.4,5.6-0.9,5.6-0.9"/>
		<path class="st17" d="M442.7,205.2c0,0.5-0.4,0.9-0.9,0.9c-0.5,0-0.9-0.4-0.9-0.9c0-0.5,0.4-0.9,0.9-0.9
			C442.3,204.3,442.7,204.7,442.7,205.2z"/>
		<path class="st17" d="M452.2,204.4c0,0.5-0.4,0.9-0.9,0.9c-0.5,0-0.9-0.4-0.9-0.9c0-0.5,0.4-0.9,0.9-0.9
			C451.8,203.5,452.2,203.9,452.2,204.4z"/>
		<g>
			<g>
				<path class="st17" d="M448.3,207c0,0.1,0.1,0.3,0.2,0.4c0.1,0.3,0.2,0.6,0.3,0.9c0.1,0.3,0.2,0.7,0.3,1c0,0.2,0.1,0.3,0.1,0.4
					c0,0,0,0.1,0,0.1c0,0,0,0.1,0,0.1c0,0,0,0,0,0c0,0.1,0,0.1,0,0c0,0.1,0,0,0,0c0,0-0.1,0-0.1,0c-0.1,0-0.2,0-0.3,0
					c-0.1,0-0.3,0-0.4,0c-0.2,0-0.3,0-0.5,0c-0.3,0-0.2,0.4,0,0.5c0.3,0.1,0.6,0.1,0.9,0.1c0.2,0,0.5,0,0.7-0.2
					c0.3-0.2,0.3-0.6,0.3-0.9c-0.1-0.4-0.2-0.7-0.3-1.1c-0.1-0.4-0.3-0.7-0.5-1.1c-0.1-0.2-0.2-0.4-0.3-0.5
					C448.4,206.9,448.3,207,448.3,207L448.3,207z"/>
			</g>
		</g>
		<g>
			<g>
				<path class="st23" d="M434.7,207c-2-0.6-3.6,0.2-3.5,2.4c0,0.9,0.4,1.9,1,2.6c0.6,0.7,1.5,1.2,2.5,1.1c0.9,0,1.8-0.6,2.2-1.5"/>
			</g>
			<g>
				<g>
					<path class="st17" d="M432.1,208.9C432.2,208.9,432.2,208.9,432.1,208.9C432.1,208.9,432.1,208.9,432.1,208.9
						C432.1,208.9,432.1,208.9,432.1,208.9C432.2,209,432.2,208.9,432.1,208.9c0.3-0.2,0.4-0.5,0.7-0.5c0.2,0,0.5,0,0.6,0.1
						c0.2,0.1,0.4,0.2,0.6,0.4c0,0,0,0,0.1,0.1c0,0,0,0.1,0,0c0,0,0,0,0,0c0,0,0,0,0,0.1c0.1,0.2,0.2,0.4,0.2,0.6
						c0.1,0.5,0.1,1,0,1.5c0,0.3,0.3,0.4,0.4,0.1c0.2-0.5,0.2-1,0.1-1.6c-0.1-0.4-0.2-0.8-0.5-1.1c-0.4-0.4-1-0.8-1.6-0.7
						c-0.4,0.1-0.7,0.4-0.8,0.7C432,208.8,432,208.9,432.1,208.9C432.1,208.9,432.1,208.9,432.1,208.9
						C432.1,208.9,432.1,208.9,432.1,208.9C432.1,208.9,432.1,208.9,432.1,208.9C432.1,209,432.1,209,432.1,208.9L432.1,208.9z"/>
				</g>
			</g>
		</g>
		<path class="st21" d="M439.5,203.6c0.9-1.2,2.7-1.5,3.7-0.5"/>
		<path class="st21" d="M450,202.7c0.7-0.8,2.1-0.9,2.7-0.1"/>
		<g>
			<path class="st12" d="M446.1,212.3c-0.1,0.9,0.1,1.7,0.4,2c0.4,0.5,1,0.5,1.6,0.2c0.5-0.3,0.8-1.7,0.8-1.7L446.1,212.3z"/>
		</g>
	</g>
</g>
<g>
	<g>
		<path class="st47" d="M262.2,29.4c0,1-0.8,1.8-1.8,1.8c-1,0-1.8-0.8-1.8-1.8c0-1,0.8-1.8,1.8-1.8
			C261.4,27.7,262.2,28.5,262.2,29.4z"/>
	</g>
	<g>
		<path class="st47" d="M128.5,264.3c0,1-0.8,1.8-1.8,1.8c-1,0-1.8-0.8-1.8-1.8c0-1,0.8-1.8,1.8-1.8
			C127.7,262.5,128.5,263.3,128.5,264.3z"/>
	</g>
	<g>
		<path class="st47" d="M98.8,162.2c0,1-0.8,1.8-1.8,1.8c-1,0-1.8-0.8-1.8-1.8c0-1,0.8-1.8,1.8-1.8C98,160.5,98.8,161.3,98.8,162.2z
			"/>
	</g>
	<g>
		<path class="st47" d="M83.4,78.6c0,1-0.8,1.8-1.8,1.8c-1,0-1.8-0.8-1.8-1.8c0-1,0.8-1.8,1.8-1.8C82.6,76.9,83.4,77.6,83.4,78.6z"
			/>
	</g>
	<g>
		<path class="st48" d="M331.3,134.8c0,1-0.8,1.8-1.8,1.8c-1,0-1.8-0.8-1.8-1.8c0-1,0.8-1.8,1.8-1.8
			C330.5,133.1,331.3,133.9,331.3,134.8z"/>
	</g>
	<g>
		<path class="st48" d="M663.2,205.5c0,1-0.8,1.8-1.8,1.8c-1,0-1.8-0.8-1.8-1.8c0-1,0.8-1.8,1.8-1.8
			C662.4,203.8,663.2,204.6,663.2,205.5z"/>
	</g>
	<g>
		<path class="st47" d="M232,56.7c0,1-0.8,1.8-1.8,1.8c-1,0-1.8-0.8-1.8-1.8c0-1,0.8-1.8,1.8-1.8C231.2,54.9,232,55.7,232,56.7z"/>
	</g>
	<g>
		<path class="st47" d="M149.3,44.3c0,1-0.8,1.8-1.8,1.8c-1,0-1.8-0.8-1.8-1.8c0-1,0.8-1.8,1.8-1.8
			C148.6,42.6,149.3,43.3,149.3,44.3z"/>
	</g>
	<g>
		<path class="st12" d="M398.6,114.8c0,1-0.8,1.8-1.8,1.8c-1,0-1.8-0.8-1.8-1.8s0.8-1.8,1.8-1.8C397.8,113,398.6,113.8,398.6,114.8z
			"/>
	</g>
	<g>
		<path class="st12" d="M335.5,49.5c0,1-0.8,1.8-1.8,1.8c-1,0-1.8-0.8-1.8-1.8c0-1,0.8-1.8,1.8-1.8
			C334.7,47.7,335.5,48.5,335.5,49.5z"/>
	</g>
	<g>
		<path class="st48" d="M232,147.5c0,1-0.8,1.8-1.8,1.8c-1,0-1.8-0.8-1.8-1.8c0-1,0.8-1.8,1.8-1.8C231.2,145.7,232,146.5,232,147.5z
			"/>
	</g>
	<g>
		<path class="st47" d="M449.3,113c0,1-0.8,1.8-1.8,1.8c-1,0-1.8-0.8-1.8-1.8s0.8-1.8,1.8-1.8C448.6,111.3,449.3,112.1,449.3,113z"
			/>
	</g>
	<g>
		<path class="st48" d="M581.5,124.7c-0.1,1-1,1.7-2,1.6c-1-0.1-1.7-1-1.6-2c0.1-1,1-1.7,2-1.6C580.9,122.9,581.6,123.8,581.5,124.7
			z"/>
	</g>
	<g>
		<path class="st47" d="M500.7,36.9c0,1-0.8,1.8-1.8,1.8c-1,0-1.8-0.8-1.8-1.8c0-1,0.8-1.8,1.8-1.8
			C499.9,35.2,500.7,35.9,500.7,36.9z"/>
	</g>
	<g>
		<path class="st47" d="M609.6,80.4c0,1-0.8,1.8-1.8,1.8c-1,0-1.8-0.8-1.8-1.8c0-1,0.8-1.8,1.8-1.8
			C608.8,78.6,609.6,79.4,609.6,80.4z"/>
	</g>
	<g>
		<path class="st12" d="M647.5,143.8c0,1-0.8,1.8-1.8,1.8s-1.8-0.8-1.8-1.8c0-1,0.8-1.8,1.8-1.8S647.5,142.8,647.5,143.8z"/>
	</g>
	<g>
		<path class="st12" d="M655.2,82.7c0,1-0.8,1.8-1.8,1.8c-1,0-1.8-0.8-1.8-1.8c0-1,0.8-1.8,1.8-1.8
			C654.4,80.9,655.2,81.7,655.2,82.7z"/>
	</g>
	<g>
		<circle class="st47" cx="164.1" cy="153.6" r="1.8"/>
	</g>
	<g>
		<path class="st47" d="M523.2,154.6c0,1-0.8,1.8-1.8,1.8c-1,0-1.8-0.8-1.8-1.8c0-1,0.8-1.8,1.8-1.8
			C522.4,152.9,523.2,153.7,523.2,154.6z"/>
	</g>
	<g>
		<path class="st12" d="M227.6,232.7c-0.3,0-0.5-0.1-0.7-0.3c-0.4-0.4-0.3-1,0.1-1.4l5.3-4.8c0.4-0.4,1-0.3,1.4,0.1
			c0.4,0.4,0.3,1-0.1,1.4l-5.3,4.8C228.1,232.6,227.8,232.7,227.6,232.7z"/>
	</g>
	<g>
		<path class="st12" d="M120.2,138.2c-0.3,0-0.5-0.1-0.7-0.3c-0.4-0.4-0.3-1,0.1-1.4l5.3-4.8c0.4-0.4,1-0.3,1.4,0.1
			c0.4,0.4,0.3,1-0.1,1.4l-5.3,4.8C120.7,138.2,120.4,138.2,120.2,138.2z"/>
	</g>
	<g>
		<path class="st12" d="M65.1,122.9c-0.1-0.3,0-0.6,0.1-0.8c0.3-0.5,0.9-0.6,1.4-0.3l6.1,3.9c0.5,0.3,0.6,0.9,0.3,1.4
			c-0.3,0.5-0.9,0.6-1.4,0.3l-6.1-3.9C65.3,123.3,65.1,123.1,65.1,122.9z"/>
	</g>
	<g>
		<path class="st48" d="M163.1,110c-0.1,0-0.2,0-0.2,0l-7-1.7c-0.5-0.1-0.9-0.7-0.7-1.2c0.1-0.5,0.7-0.9,1.2-0.7l7,1.7
			c0.5,0.1,0.9,0.7,0.7,1.2C164,109.7,163.6,110,163.1,110z"/>
	</g>
	<g>
		<path class="st48" d="M361.3,152.2c-0.2,0-0.4-0.1-0.6-0.2l-6-4c-0.5-0.3-0.6-0.9-0.3-1.4c0.3-0.5,0.9-0.6,1.4-0.3l6,4
			c0.5,0.3,0.6,0.9,0.3,1.4C362,152.1,361.7,152.2,361.3,152.2z"/>
	</g>
	<g>
		<path class="st47" d="M590,156.8c-0.3,0-0.5-0.1-0.7-0.3l-5-5.2c-0.4-0.4-0.4-1,0-1.4c0.4-0.4,1-0.4,1.4,0l5,5.2
			c0.4,0.4,0.4,1,0,1.4C590.5,156.7,590.3,156.8,590,156.8z"/>
	</g>
	<g>
		<path class="st48" d="M609.8,52.8c-0.1,0-0.1-0.1-0.2-0.1l-5.4-4.8c-0.4-0.4-0.4-1-0.1-1.4c0.4-0.4,1-0.4,1.4-0.1l5.4,4.8
			c0.4,0.4,0.4,1,0.1,1.4C610.7,52.9,610.2,53,609.8,52.8z"/>
	</g>
	<g>
		<path class="st48" d="M449.7,25.6c-0.4,0-0.7-0.2-0.9-0.6c-0.2-0.5,0-1.1,0.5-1.3l3.9-1.8c0.5-0.2,1.1,0,1.3,0.5s0,1.1-0.5,1.3
			l-3.9,1.8C450,25.6,449.9,25.6,449.7,25.6z"/>
	</g>
	<g>
		<path class="st12" d="M625.9,119.9c-0.4,0-0.7-0.2-0.9-0.6c-0.2-0.5,0-1.1,0.5-1.3l3.9-1.8c0.5-0.2,1.1,0,1.3,0.5
			c0.2,0.5,0,1.1-0.5,1.3l-3.9,1.8C626.2,119.9,626.1,119.9,625.9,119.9z"/>
	</g>
	<g>
		<path class="st12" d="M549.2,40.2c-0.1,0-0.2,0-0.3,0l-4.1-1.2c-0.5-0.2-0.8-0.7-0.7-1.2c0.2-0.5,0.7-0.8,1.2-0.7l4.1,1.2
			c0.5,0.2,0.8,0.7,0.7,1.2C550.1,39.9,549.7,40.2,549.2,40.2z"/>
	</g>
	<g>
		<path class="st12" d="M332.7,27.2c-0.1,0-0.2,0-0.3,0l-4.1-1.2c-0.5-0.2-0.8-0.7-0.7-1.2c0.2-0.5,0.7-0.8,1.2-0.7l4.1,1.2
			c0.5,0.2,0.8,0.7,0.7,1.2C333.5,26.9,333.1,27.2,332.7,27.2z"/>
	</g>
	<g>
		<path class="st47" d="M590.8,95.9c-0.4,0-0.7-0.2-0.9-0.5c-0.3-0.5-0.1-1.1,0.4-1.4l3.7-2.1c0.5-0.3,1.1-0.1,1.4,0.4
			c0.3,0.5,0.1,1.1-0.4,1.4l-3.7,2.1C591.2,95.8,591,95.9,590.8,95.9z"/>
	</g>
	<g>
		<path class="st47" d="M676.3,144.7c-0.3,0.2-0.7,0.2-1,0c-0.5-0.3-0.6-0.9-0.4-1.4l2.2-3.7c0.3-0.5,0.9-0.6,1.4-0.4
			c0.5,0.3,0.6,0.9,0.4,1.4l-2.2,3.7C676.5,144.5,676.4,144.6,676.3,144.7z"/>
	</g>
	<g>
		<path class="st47" d="M153.2,80.8c-0.2,0-0.4-0.1-0.5-0.2l-3.6-2.3c-0.5-0.3-0.6-0.9-0.3-1.4c0.3-0.5,0.9-0.6,1.4-0.3l3.6,2.3
			c0.5,0.3,0.6,0.9,0.3,1.4C153.9,80.6,153.5,80.8,153.2,80.8z"/>
	</g>
	<g>
		<path class="st47" d="M74.8,192.8c-0.1,0.2-0.3,0.3-0.4,0.4l-3.9,1.6c-0.5,0.2-1.1,0-1.3-0.5c-0.2-0.5,0-1.1,0.5-1.3l3.9-1.6
			c0.5-0.2,1.1,0,1.3,0.5C75,192.1,75,192.5,74.8,192.8z"/>
	</g>
	<g>
		<path class="st47" d="M517.6,221.3c-0.1,0.2-0.3,0.3-0.4,0.4l-3.9,1.6c-0.5,0.2-1.1,0-1.3-0.5c-0.2-0.5,0-1.1,0.5-1.3l3.9-1.6
			c0.5-0.2,1.1,0,1.3,0.5C517.8,220.7,517.7,221,517.6,221.3z"/>
	</g>
	<g>
		<path class="st47" d="M409.1,29.8c-0.2,0-0.4,0-0.5-0.1l-3.6-2.2c-0.5-0.3-0.6-0.9-0.3-1.4c0.3-0.5,0.9-0.6,1.4-0.3l3.6,2.2
			c0.5,0.3,0.6,0.9,0.3,1.4C409.8,29.6,409.5,29.8,409.1,29.8z"/>
	</g>
	<g>
		<path class="st48" d="M109.7,108c-0.4,0-0.8-0.3-1-0.7c-0.2-0.5,0.1-1.1,0.6-1.3l4-1.3c0.5-0.2,1.1,0.1,1.3,0.6
			c0.2,0.5-0.1,1.1-0.6,1.3l-4,1.3C109.9,108,109.8,108,109.7,108z"/>
	</g>
	<g>
		<path class="st12" d="M180.2,31.9c0,0-0.1,0-0.1,0l-4.2-0.4c-0.5-0.1-1-0.5-0.9-1.1c0.1-0.5,0.6-0.9,1.1-0.9l4.2,0.4
			c0.5,0.1,1,0.5,0.9,1.1C181.2,31.5,180.7,31.9,180.2,31.9z"/>
	</g>
	<g>
		<path class="st47" d="M394,250.1C394,250.1,393.9,250.1,394,250.1l-3.7-2.2c-0.5-0.3-0.6-0.9-0.3-1.4c0.3-0.5,0.9-0.6,1.4-0.3
			l3.7,2.2c0.5,0.3,0.6,0.9,0.3,1.4C395,250.1,394.4,250.3,394,250.1z"/>
	</g>
</g>
<g>
</g>
<g>
</g>
<g>
</g>
<g>
</g>
<g>
</g>
<g>
</g>
</svg>
