<?xml version="1.0" encoding="utf-8"?>
<!-- Generator: Adobe Illustrator 24.0.0, SVG Export Plug-In . SVG Version: 6.00 Build 0)  -->
<svg version="1.1" id="OBJECTS" xmlns="http://www.w3.org/2000/svg" xmlns:xlink="http://www.w3.org/1999/xlink" x="0px" y="0px"
	 viewBox="0 0 621 388.3" style="enable-background:new 0 0 621 388.3;" xml:space="preserve">
<style type="text/css">
	.st0{fill:#F8E9F6;}
	.st1{fill:none;stroke:#FDFCFF;stroke-width:1.7845;stroke-miterlimit:10;}
	.st2{fill:#AB8BDB;}
	.st3{fill:#DD4C88;}
	.st4{fill:#CFBBEB;}
	.st5{fill:none;stroke:#FDFCFF;stroke-width:1.9364;stroke-linecap:round;stroke-linejoin:round;stroke-miterlimit:10;}
	.st6{fill:none;stroke:#FDFCFF;stroke-width:1.9364;stroke-miterlimit:10;}
	.st7{fill:#3A1616;}
	.st8{fill:#D6906E;}
	.st9{fill:none;stroke:#161311;stroke-width:1.0236;stroke-linecap:round;stroke-linejoin:round;stroke-miterlimit:10;}
	.st10{fill:#1A1A1A;}
	.st11{fill:#FFFFFF;}
	.st12{fill:#6F59A0;}
	.st13{fill:none;stroke:#533D85;stroke-width:1.9923;stroke-miterlimit:10;}
	.st14{fill:none;stroke:#BF704F;stroke-width:0.9962;stroke-miterlimit:10;}
	.st15{fill:none;stroke:#C12D71;stroke-width:1.9923;stroke-miterlimit:10;}
	.st16{fill:#E8ABA2;}
	.st17{fill:none;stroke:#D8857D;stroke-width:0.9962;stroke-miterlimit:10;}
	.st18{fill:none;stroke:#AB8BDB;stroke-width:1.9923;stroke-miterlimit:10;}
	.st19{fill:#2F1118;}
	.st20{fill:none;stroke:#161311;stroke-width:1.0982;stroke-linecap:round;stroke-linejoin:round;stroke-miterlimit:10;}
	.st21{fill:none;stroke:#FDFCFF;stroke-width:1.9923;stroke-miterlimit:10;}
</style>
<g>
	<g>
		<g>
			<g>
				<path class="st0" d="M515.9,254.3c0-118.8-96.3-215-215-215s-215,96.3-215,215c0,49.9,17,95.7,45.4,132.2h339.1
					C498.9,350,515.9,304.1,515.9,254.3z"/>
			</g>
		</g>
		<g>
			<circle class="st1" cx="490.3" cy="22.5" r="7.1"/>
			<circle class="st1" cx="9.1" cy="324.9" r="7.1"/>
			<path class="st1" d="M620.4,192.8c0,2.6-2.1,4.7-4.7,4.7s-4.7-2.1-4.7-4.7s2.1-4.7,4.7-4.7S620.4,190.2,620.4,192.8z"/>
			<path class="st1" d="M28.6,59.1c0,0-2.4,4,0.9,6.4c3.3,2.4,6.1-2.1,9.7,0.7c3.6,2.7,0.6,6.1,0.6,6.1"/>
			<path class="st1" d="M589.1,277.6c0,0-1.8,5.5,2.8,7.5s6.9-4.2,12-1.8c5.2,2.4,2.4,7.2,2.4,7.2"/>
			<path class="st2" d="M40.2,184.6c0,3.4-2.7,6.1-6.1,6.1c-3.4,0-6.1-2.7-6.1-6.1c0-3.4,2.7-6.1,6.1-6.1
				C37.4,178.5,40.2,181.2,40.2,184.6z"/>
			<path class="st3" d="M561.5,89.1c0,3.4-2.7,6.1-6.1,6.1c-3.4,0-6.1-2.7-6.1-6.1c0-3.4,2.7-6.1,6.1-6.1
				C558.8,83,561.5,85.7,561.5,89.1z"/>
			<path class="st2" d="M550.6,329.8c0,2.6-2.1,4.7-4.7,4.7s-4.7-2.1-4.7-4.7c0-2.6,2.1-4.7,4.7-4.7S550.6,327.2,550.6,329.8z"/>
			<path class="st4" d="M263.8,4.7c0,2.6-2.1,4.7-4.7,4.7s-4.7-2.1-4.7-4.7s2.1-4.7,4.7-4.7S263.8,2.1,263.8,4.7z"/>
			<line class="st5" x1="547.3" y1="149.1" x2="587.8" y2="149.1"/>
			<line class="st6" x1="0" y1="138.1" x2="71.5" y2="138.1"/>
			<line class="st5" x1="299.1" y1="4.7" x2="342.1" y2="4.7"/>
		</g>
	</g>
	<g>
		<g>
			<path class="st7" d="M214.2,81.5c0,0-2.8,20.5-27,33.3c-25.8,13.6-7.5,54.6,37.4,56c48.7,1.5,75.3-42.4,38.9-97.4L214.2,81.5z"/>
			<g>
				<polygon class="st8" points="229.3,145.2 229.5,109.9 251.1,109.9 251.6,145.6 				"/>
				<path class="st7" d="M226.8,120.2c-1.1-3.1,7.5,14.5,16.4,13.3c7.7-1,9-14.8,9-14.8s-3.6,5.3-11.7,5.3
					C231.5,124.1,226.8,120.2,226.8,120.2z"/>
				<path class="st7" d="M213.9,90.4c2.7,15.8,11.9,29,26.6,29c14.7,0,24.8-13.1,26.6-29c2.1-18-11.9-28.7-26.6-28.7
					C225.8,61.7,211.1,74.2,213.9,90.4z"/>
				<g>
					<path class="st8" d="M217.5,98.6c0,0-1.9-3-5.9-1.5c-3.9,1.5-2.2,11.1,3.8,12.3c0,0,2.1,0.5,3.8-1
						C219.2,108.4,217.7,101.3,217.5,98.6z"/>
					<g>
						<g>
							<path class="st9" d="M212.4,100.4c0,0,3.3-1.1,5.7,3.8"/>
						</g>
					</g>
				</g>
				<g>
					<path class="st8" d="M262.9,98.6c0,0,1.9-3,5.9-1.5c3.9,1.5,2.2,11.1-3.8,12.3c0,0-2.1,0.5-3.8-1
						C261.2,108.4,262.6,101.3,262.9,98.6z"/>
					<g>
						<g>
							<path class="st9" d="M267.9,100.4c0,0-3.3-1.1-5.7,3.8"/>
						</g>
					</g>
				</g>
				<path class="st8" d="M217.1,90.4c0,6.1,0.6,17.7,4.6,25.3c3.7,7.2,10.4,10.8,18.5,10.8c8,0,15.3-5.4,18.5-11.6
					c4.8-9.3,4.6-24.4,4.6-24.4s0-22-22.9-22C216.4,68.5,217.1,90.4,217.1,90.4z"/>
				<g>
					<path class="st10" d="M235.1,89.3l-12.5,3.2c0,0,0.6-3.5,5.7-4.8C233.4,86.5,235.1,89.3,235.1,89.3z"/>
					<path class="st10" d="M243.1,89.3l12.5,3.2c0,0-0.6-3.5-5.7-4.8C244.8,86.5,243.1,89.3,243.1,89.3z"/>
					<polyline class="st9" points="238.4,99.7 237.8,104.2 241.1,104.2 					"/>
					<path class="st11" d="M249.1,108h-18.3c0,0,0.5,6.7,9.1,6.7C247.8,114.7,249.1,108,249.1,108z"/>
					<path class="st9" d="M232.5,96.5c0,0-3.5-1.8-6.4,0"/>
					<path class="st9" d="M252.5,96.5c0,0-3.5-1.8-6.4,0"/>
				</g>
				<path class="st7" d="M262.9,98.6c0,0-6.1-12.1-1.8-22.8c0,0,4.2,0.1,4.1,16.8L262.9,98.6z"/>
				<path class="st7" d="M217.5,98.6c0,0,6.1-12.8,1.8-22.8c0,0-4.2,0.1-4.1,16.8L217.5,98.6z"/>
				<path class="st7" d="M267.3,85.1c0,0-33-2-42.6-15.3c0,0,3.1-8.3,17.8-6C257.2,66.1,267.3,85.1,267.3,85.1z"/>
				<path class="st7" d="M238.2,66.4c0,0-9.3,19.4-22.7,18.7C215.6,85.1,222.9,66.6,238.2,66.4z"/>
			</g>
			<g>
				<path class="st12" d="M219.2,366.6c0,0,9.8-48.6,15.5-61.8c0.5-1.2,2.3-1,2.6,0.2c1.4,5,3.2,19.9,2.4,63.7l0,17.9h38.4l6-43.1
					c0.3-3.3,12.6-57.3-18.4-98.9h-60.2c0,0-24.3,41.8-27.7,93c-0.7,11.4-1,28.8-2.6,48.9h39.5L219.2,366.6z"/>
				<line class="st13" x1="218.1" y1="296.9" x2="237.8" y2="305"/>
			</g>
			<g>
				<g>
					<g>
						<path class="st3" d="M189.8,151.4c0,0-12.6,1.8-21.8,33.4l24.8,14.2l14.7-20.2L189.8,151.4z"/>
						<path class="st8" d="M192.8,199c0,0-16.5,25.9-20.4,30.5c-4,4.8-10.2,7.2-15.5,3.9l0,0c-4.8-3-6.6-9.1-4.1-14.2l17.1-33.4
							L192.8,199z"/>
					</g>
					<g>
						<polygon class="st8" points="153,151.5 172.7,215.7 151.6,224.9 139,152.4 						"/>
						<g>
							<g>
								<path class="st8" d="M151.6,154.7l3.1-3c2.3-2.2,3.7-5.1,3.9-8.2l0.8-8.7c0,0,0.5-4.6-8.6-3.4c-9.1,1.2-9.7,1.2-9.6,3.9
									c0,0,1.7,3.8,7.6,4.5L151.6,154.7z"/>
								<path class="st8" d="M140.1,156c0,0-9-5-9.4-20.8c0-1.8,0.9-3.5,2.4-4.5c2.3-1.5,9.1-5.4,12.7-2.9l6.3,8.2l-0.4,18.8
									L140.1,156z"/>
								<path class="st8" d="M153.3,133.2l5-25.4c0.3-1.5-0.7-3-2.2-3.3l0,0c-1.5-0.3-3,0.6-3.3,2.1l-4.4,19.2l-2.1,0.4l-7.4-19.5
									c-0.5-1.4-2.1-2-3.4-1.5l0,0c-1.2,0.5-1.8,1.8-1.5,3l7.2,26.9L153.3,133.2z"/>
							</g>
							<path class="st14" d="M153.7,131.2c0,0-12.4-1.2-12.5,4.1c0,0-0.3,4,7.6,4.5c0,0-4.9,1.4-5.1,6.8"/>
						</g>
						<line class="st14" x1="165.9" y1="193.5" x2="171.1" y2="210.6"/>
					</g>
				</g>
				<g>
					<g>
						<path class="st8" d="M274.4,188.3c0,0,19.6,69,27.1,126.8l12.6-2.4c0,0-1.9-84.7-14.7-137.1L274.4,188.3z"/>
						<path class="st8" d="M314.1,309.8c0,0,19,28.1-3.8,40.7c-1.5,0.8-3.4,0.5-4.5-0.8l-0.1-0.2c-1.2-1.4-1.1-3.6,0.2-4.9
							c3.2-3.3,7.6-10.1,0.7-19c0,0-3.6,0.9-3,8.2c0.2,1.9-1.4,3.4-3.3,3.3l0,0c-1.3-0.1-2.3-1-2.6-2.3c-1.2-4.8-3.2-16.6,4.5-23
							L314.1,309.8z"/>
					</g>
					<path class="st3" d="M286.5,157.2c0,0,18,5.9,21.2,34.4l-29.3,11.1l-6.6-18L286.5,157.2z"/>
				</g>
				<g>
					<polygon class="st3" points="269.2,150.6 286.8,157.3 265.8,236.5 205.7,236.5 189.8,151.4 210.6,146.6 					"/>
					<g>
						<rect x="205.7" y="236.5" class="st10" width="60.2" height="8.2"/>
						<line class="st15" x1="197.5" y1="192.6" x2="192.8" y2="171.4"/>
						<line class="st15" x1="276.3" y1="196.9" x2="282.6" y2="173.3"/>
					</g>
					<path class="st8" d="M246,141.4l23.2,9.2c0,0-2.7,9.1-29.9,9.1c-23.7,0-28.7-13.1-28.7-13.1l22.5-5.2H246z"/>
				</g>
			</g>
		</g>
		<g>
			<g>
				<polygon class="st3" points="397.7,258.3 422.9,387.1 374.1,387.1 355.4,302 351.1,301.8 351,387.1 302.3,387.1 304.8,258.3 
									"/>
				<line class="st15" x1="342.8" y1="301.2" x2="370.6" y2="301.2"/>
			</g>
			<g>
				<g>
					<g>
						<path class="st16" d="M420.2,167.9l45.9-11.7c9.2-2.6,14.6-12,12.2-21.2l0,0c-2.5-9.5-12.2-15.1-21.7-12.4l-46,13.1
							L420.2,167.9z"/>
						<polygon class="st4" points="425.2,127.3 380.4,133.2 393.2,179 436,170.1 						"/>
					</g>
					<g>
						<g>
							<path class="st16" d="M446.6,70.3c1.1-7.2-1.6-16.4-1.6-16.4l1-16.2c0.2-1.5-0.8-3-2.3-3.3l0,0c-1.6-0.4-3.2,0.6-3.7,2.2
								L438.7,47l-1.4,0l-1.9-16.8c-0.1-2-2-3.5-4-3.1l0,0c-1.7,0.3-2.9,1.8-2.8,3.5l1.3,18.1l-1.5,0.3l-5.1-18.1
								c-0.6-2.1-2.7-3.3-4.8-2.7l0,0c-1.9,0.6-3,2.6-2.6,4.5l5.3,20.7l-1.9,0.5l-7-14.5c-0.8-1.7-2.9-2.3-4.5-1.3h0
								c-1.3,0.8-1.8,2.3-1.3,3.8l7.1,19.4l-5.9-0.1c-2.7,0-4.9,2.4-4.6,5.1l0,0c0.2,1.9,1.6,3.5,3.4,4l7.7,1.9
								c0,0,5.2,7.2,13.8,10.3C428,82.4,445.8,75.8,446.6,70.3z"/>
							<path class="st17" d="M413.5,61.2c0,0,11.2-0.7,17.8,5.6"/>
						</g>
						<g>
							<polygon class="st16" points="477.7,133.1 446.6,70.3 427.1,78.5 446.8,147.6 							"/>
							<line class="st17" x1="440.9" y1="127.1" x2="444" y2="137.7"/>
						</g>
					</g>
				</g>
				<g>
					<polygon class="st4" points="340.3,130.7 303.5,138.3 304.8,258.3 397.7,258.3 400.6,135 365.7,132 					"/>
					<line class="st18" x1="399.6" y1="177.7" x2="399.6" y2="162.2"/>
					<path class="st2" d="M328.4,189.3L328.4,189.3c-6.3,0-11.4-5.1-11.4-11.4v-11.4h22.8v11.4C339.8,184.2,334.7,189.3,328.4,189.3
						z"/>
				</g>
				<g>
					<g>
						<path class="st16" d="M276.9,168.8l-26.5,48c-4.6,8.4-1.7,19,6.6,23.8l0,0c8.2,4.7,18.7,2.1,23.7-5.9l27.5-43.9L276.9,168.8z"
							/>
						<g>
							<path class="st4" d="M268.7,175.5l38,24.4l6.1-29.1c6.4-10.4,14.6-22.9,4.3-29.5l0,0c-10.4-6.7-24.3-3.6-30.9,6.8
								L268.7,175.5z"/>
							<line class="st18" x1="304.2" y1="198.3" x2="304.2" y2="165.6"/>
						</g>
					</g>
					<g>
						<g>
							<polygon class="st16" points="263.4,242.7 333,240.8 337.8,218.4 259.2,208.4 							"/>
							<line class="st17" x1="294.4" y1="212.9" x2="276.3" y2="210.6"/>
						</g>
						<g>
							<path class="st16" d="M333.1,219.3c0,0,8.9-12,19.4,0l-4.2,8.3L333.1,219.3z"/>
							<path class="st10" d="M343.6,206.5l-2.7,16.8l21.2,2.4l3.4-16.2c0.4-1.7-0.8-3.4-2.6-3.6L347,204
								C345.4,203.8,343.9,204.9,343.6,206.5z"/>
							<path class="st16" d="M337.6,217.8l25.1,0.6c2.9,0.1,5.2,2.5,5.2,5.4l0,0c0,2.1-1.2,3.9-3,4.8l-1.3,0.6c0,0,2.6,19-12.5,21.3
								c-15.1,2.3-23.5-9.7-23.5-9.7L337.6,217.8z"/>
						</g>
					</g>
				</g>
			</g>
			<g>
				<polygon class="st16" points="367.1,132 366.7,94.1 339.2,94.1 338.6,131.1 				"/>
				<path class="st7" d="M336.9,105.2c-1.4-3.3,9.6,18.1,20.8,16.9c9.6-1,10-18.5,10-18.5s-3.4,5.5-13.6,5.5
					C342.8,109.2,336.9,105.2,336.9,105.2z"/>
				<path class="st19" d="M381.4,73.2c-2.9,16.9-12.8,31.1-28.5,31.1c-15.8,0-26.6-14.1-28.5-31.1C322.1,53.9,337.1,41,352.9,41
					C368.6,41,384.4,55.9,381.4,73.2z"/>
				<g>
					<path class="st16" d="M377.5,82c0,0,2.1-3.3,6.3-1.7c4.2,1.6,2.3,11.9-4,13.2c0,0-2.3,0.5-4.1-1.1
						C375.7,92.5,377.3,84.9,377.5,82z"/>
					<g>
						<g>
							<path class="st20" d="M383,84c0,0-3.5-1.2-6.1,4"/>
						</g>
					</g>
				</g>
				<g>
					<path class="st16" d="M328.9,82c0,0-2.1-3.3-6.3-1.7c-4.2,1.6-2.3,11.9,4,13.2c0,0,2.3,0.5,4.1-1.1
						C330.7,92.5,329.1,84.9,328.9,82z"/>
					<g>
						<g>
							<path class="st20" d="M323.4,84c0,0,3.5-1.2,6.1,4"/>
						</g>
					</g>
				</g>
				<path class="st16" d="M377.9,73.2c0,6.6-0.7,20.4-5,28.6c-4,7.7-10.6,11.8-19.3,12.1c-6.9,0.2-16.9-6.3-20.4-12.9
					c-5.2-10-4.9-27.6-4.9-27.6s0-23.6,24.5-23.6C378.7,49.7,377.9,73.2,377.9,73.2z"/>
				<g>
					<path class="st10" d="M344.5,81.2c0,1-0.8,1.9-1.9,1.9c-1,0-1.9-0.8-1.9-1.9c0-1,0.8-1.9,1.9-1.9
						C343.7,79.3,344.5,80.1,344.5,81.2z"/>
					<path class="st10" d="M364.1,81.2c0,1-0.8,1.9-1.9,1.9c-1,0-1.9-0.8-1.9-1.9c0-1,0.8-1.9,1.9-1.9
						C363.3,79.3,364.1,80.1,364.1,81.2z"/>
					<path class="st10" d="M347.8,73.4l-13.5,3.5c0,0,0.6-3.8,6.1-5.1C345.9,70.4,347.8,73.4,347.8,73.4z"/>
					<path class="st10" d="M356.3,73.4l13.5,3.5c0,0-0.6-3.8-6.1-5.1C358.2,70.4,356.3,73.4,356.3,73.4z"/>
					<polyline class="st20" points="350.7,86 350.7,90.8 354.2,90.8 					"/>
					<path class="st11" d="M363.4,94.8h-20.6c0,0,0.6,5.4,9.8,5.4C361,100.3,363.4,94.8,363.4,94.8z"/>
				</g>
				<path class="st19" d="M328.9,82c0,0,9.2-14.1,2-24.5c0,0-4.5,0.1-4.4,18L328.9,82z"/>
				<path class="st19" d="M377.5,82c0,0-9.2-14.1-2-24.5c0,0,4.5,0.1,4.4,18L377.5,82z"/>
				<path class="st19" d="M328.4,56.9c0,0,11.9,13.4,36.3,10.8c21.8-2.3,23.7-17.7,18.5-23.7c-7.4-8.6-23.8-5.4-32.6,4.2L328.4,56.9
					z"/>
				<g>
					<polygon class="st16" points="338.6,131.1 353.1,149.7 367.1,132 					"/>
					<polygon class="st2" points="338.6,128.4 330,132.8 339.7,152.2 349.4,144.9 					"/>
					<polygon class="st2" points="367.1,128.4 376.8,133 366.6,152.2 357,144.7 					"/>
				</g>
			</g>
		</g>
		<line class="st21" x1="26.1" y1="387.2" x2="579.7" y2="387.2"/>
	</g>
</g>
<g>
</g>
<g>
</g>
<g>
</g>
<g>
</g>
<g>
</g>
<g>
</g>
<g>
</g>
<g>
</g>
<g>
</g>
<g>
</g>
<g>
</g>
<g>
</g>
<g>
</g>
<g>
</g>
<g>
</g>
</svg>
