<?xml version="1.0" encoding="utf-8"?>
<!-- Generator: Adobe Illustrator 24.0.0, SVG Export Plug-In . SVG Version: 6.00 Build 0)  -->
<svg version="1.1" xmlns="http://www.w3.org/2000/svg" xmlns:xlink="http://www.w3.org/1999/xlink" x="0px" y="0px"
	 viewBox="0 0 642 398" style="enable-background:new 0 0 642 398;" xml:space="preserve">
<style type="text/css">
	.st0{opacity:0.58;fill:#3E479B;}
	.st1{opacity:0.58;fill:#EF929C;}
	.st2{fill:#3E479B;}
	.st3{opacity:3.000000e-02;fill:#ECF1F7;}
	.st4{fill:#FFFFFF;}
	.st5{fill:#599AF2;}
	.st6{opacity:0.81;fill:#ECF1F7;}
	.st7{opacity:0.1;fill:#599AF2;}
	.st8{opacity:0.89;fill:#4C65BA;}
	.st9{clip-path:url(#SVGID_2_);}
	.st10{fill:#EF929C;}
	.st11{fill:#B27B84;}
	.st12{fill:#373449;}
	.st13{opacity:0.25;fill:#33322F;}
	.st14{fill:#4C65BA;}
	.st15{fill:#F9DCD2;}
	.st16{opacity:0.64;fill:#EF929C;}
	.st17{opacity:0.17;fill:#EF929C;}
	.st18{opacity:0.21;fill:#599AF2;}
	.st19{opacity:0.89;}
	.st20{opacity:0.35;fill:#4C65BA;}
	.st21{opacity:0.89;fill:#3E479B;}
	.st22{fill:#8F8F9B;}
	.st23{opacity:0.27;fill:#EF929C;}
	.st24{opacity:0.32;fill:#EF929C;}
	.st25{opacity:0.53;fill:#3E479B;}
	.st26{fill:#124CA0;}
	.st27{fill:none;}
</style>
<g id="BACKGROUND">
</g>
<g id="OBJECTS">
	<g>
		<circle class="st0" cx="637.7" cy="233.5" r="4.5"/>
		<circle class="st0" cx="298.7" cy="4.5" r="4.5"/>
		<circle class="st1" cx="605.7" cy="358.5" r="3.5"/>
		<circle class="st1" cx="62.7" cy="77.5" r="4.5"/>
		<circle class="st0" cx="28.7" cy="246.5" r="3.5"/>
		<circle class="st0" cx="33.7" cy="99.5" r="1.5"/>
		<path class="st1" d="M419.7,15.2c-0.6,2.9-3.5,4.8-6.4,4.2c-2.9-0.6-4.8-3.5-4.2-6.4c0.6-2.9,3.5-4.8,6.4-4.2
			C418.5,9.4,420.3,12.3,419.7,15.2z"/>
		<path class="st1" d="M10.7,275.2c-0.6,2.9-3.5,4.8-6.4,4.2c-2.9-0.6-4.8-3.5-4.2-6.4c0.6-2.9,3.5-4.8,6.4-4.2
			C9.5,269.4,11.3,272.3,10.7,275.2z"/>
		<path class="st0" d="M372.6,48c-0.2,1-1.2,1.6-2.1,1.4c-1-0.2-1.6-1.2-1.4-2.1c0.2-1,1.2-1.6,2.1-1.4
			C372.2,46.1,372.8,47.1,372.6,48z"/>
		<g>
			<g>
				<g>
					<path class="st2" d="M342.5,193.4V83.9c0-9.4,7.6-16.9,16.9-16.9h227.3c9.4,0,16.9,7.6,16.9,16.9v109.5
						c0,9.4-7.6,16.9-16.9,16.9H359.4C350.1,210.4,342.5,202.8,342.5,193.4z"/>
					<path class="st2" d="M342.5,193.4V83.9c0-9.4,7.6-16.9,16.9-16.9h227.3c9.4,0,16.9,7.6,16.9,16.9v109.5
						c0,9.4-7.6,16.9-16.9,16.9H359.4C350.1,210.4,342.5,202.8,342.5,193.4z"/>
					<path class="st3" d="M346.4,189.8V86.1c0-8.9,7.4-16,16.4-16h220.6c9.1,0,16.4,7.2,16.4,16v103.7c0,8.9-7.4,16-16.4,16H362.8
						C353.7,205.9,346.4,198.7,346.4,189.8z"/>
					<path class="st4" d="M348.6,191.3V86.1c0-6.3,5.1-11.4,11.4-11.4h224.8c6.3,0,11.4,5.1,11.4,11.4v105.2
						c0,6.3-5.1,11.4-11.4,11.4H360.1C353.7,202.8,348.6,197.6,348.6,191.3z"/>
					<path class="st5" d="M589,201.5c1.5,0,3.1-0.6,4.1-2.3c2-2.1,3.2-4.9,3.2-8V86.1c0-4.4-2.5-8.2-6.1-10.1
						c-0.4-0.1-0.8-0.1-1.2-0.1V201.5z"/>
					<rect x="358.3" y="82" class="st6" width="220" height="114"/>
					<rect x="358.3" y="82" class="st7" width="220" height="36"/>
				</g>
				<g>
					<path class="st8" d="M568.1,67.2L568.1,67.2c0-0.6,0.5-1.2,1.2-1.2h7.4c0.6,0,1.2,0.5,1.2,1.2l0,0c0,0.6-0.5,1.2-1.2,1.2h-7.4
						C568.6,68.3,568.1,67.8,568.1,67.2z"/>
					<path class="st8" d="M536.8,210.8L536.8,210.8c0-0.6,0.5-1.2,1.2-1.2h17c0.6,0,1.2,0.5,1.2,1.2l0,0c0,0.6-0.5,1.2-1.2,1.2h-17
						C537.3,212,536.8,211.5,536.8,210.8z"/>
					<path class="st8" d="M536.8,67.2L536.8,67.2c0-0.6,0.5-1.2,1.2-1.2h17c0.6,0,1.2,0.5,1.2,1.2l0,0c0,0.6-0.5,1.2-1.2,1.2h-17
						C537.3,68.3,536.8,67.8,536.8,67.2z"/>
					<path class="st8" d="M513.7,67.2L513.7,67.2c0-0.6,0.5-1.2,1.2-1.2h17c0.6,0,1.2,0.5,1.2,1.2l0,0c0,0.6-0.5,1.2-1.2,1.2h-17
						C514.3,68.3,513.7,67.8,513.7,67.2z"/>
				</g>
			</g>
			<g>
				<defs>
					<path id="SVGID_1_" d="M348.6,191.3V86.1c0-6.3,5.1-11.4,11.4-11.4h83.5l3.7-59.6l77-4l1.5,63.6h59.1c6.3,0,11.4,5.1,11.4,11.4
						v105.2c0,6.3-5.1,11.4-11.4,11.4H360.1C353.7,202.8,348.6,197.6,348.6,191.3z"/>
				</defs>
				<clipPath id="SVGID_2_">
					<use xlink:href="#SVGID_1_"  style="overflow:visible;"/>
				</clipPath>
				<g class="st9">
					<g>
						<path class="st10" d="M523.5,138.5c-1.4-0.3-2.7-0.7-4-0.9c-4.2-1.2-9.1-2-14.3-2.3l0,0c-0.2,0-0.2,0-0.1,0
							c-1.3-0.1-2.6-0.1-4-0.1l-3.9,0l-5.3,0l-5.3,0l-3.9,0c-1.3,0-2.7,0-4,0.1c0.1,0,0.1,0-0.1,0l0,0c-5.2,0.3-10.1,1.1-14.3,2.3
							c-1.3,0.3-2.6,0.6-4,0.9c-21.3,5.3-36.8,24-39,46c-0.2,0.4-0.4,0.8-0.6,1.2l0.5,0.3c-0.1,1.5-0.2,3-0.1,4.5l0.1,12.5h62
							l0.2-0.7l16.9,0l0.2,0.7h62l0.1-12.5C563,165.9,546.7,144.3,523.5,138.5z"/>
						<g>
							<path class="st11" d="M561.9,135.8c-5.9-2.8-13-10.2-13-10.2l-4.9-5.3c-0.9-0.9-1-2.3-0.3-3.3c1-1.3,2.8-1.3,3.8-0.2
								c0,0,2.8,3,4.7,5c0.8,0.8,2.2,0.3,2.2-0.9c-0.1-1.7-0.8-3.3-1.6-4.5c0,0-11.1-14.5-11.1-14.5c-0.8-1.1-0.6-2.7,0.5-3.5h0
								c1.7,0,4,1.1,5.1,2.5l6.5,8.5c0.3,0.4,1,0.6,1.5,0.4l0.3-0.2c0.6-0.3,0.9-1,0.6-1.6l-5.8-14.7c-0.5-1.2-0.1-2.6,1-3.2
								c1.4-0.8,3.1-0.2,3.6,1.2l5.6,14.2c0.3,0.8,1.2,1.3,2,1.1c0.9-0.3,1.5-1.2,1.3-2.2l-3-13.4c-0.3-1.2,0.3-2.5,1.5-3
								c1.5-0.6,3.1,0.3,3.4,1.8l3.1,14c0.2,0.9,0.7,1.8,1.4,2.4c0.8,0.7,2.2,0.1,2.2-1l0-6.4c0-1.3,0.9-2.5,2.2-2.6
								c1.5-0.2,2.8,1,2.8,2.5l0.4,14.1c0.8,8.6,0.3,19.1,0.3,19.1l0,93.6c0,11.7-11.6,20-22.7,16.2v0c-4.6,3-10.6-0.8-9.7-6.3
								L561.9,135.8z"/>
							<path class="st12" d="M566,124.5C566,124.5,566.1,124.5,566,124.5c0.4-0.2,0.5-0.6,0.3-0.9c-1.5-2.5-3.5-4-5.7-4.3
								c-3.8-0.6-7.1,2-7.2,2.1c-0.3,0.2-0.3,0.6-0.1,0.9c0.2,0.3,0.6,0.3,0.9,0.1c0,0,3-2.4,6.2-1.8c1.9,0.3,3.5,1.6,4.9,3.8
								C565.4,124.5,565.7,124.6,566,124.5z"/>
						</g>
					</g>
					<g>
						<g>
							<path class="st12" d="M449.5,55.1c-0.3-5,1.8-9.5,5.2-12.5c-0.6-1.3-0.9-2.7-1-4.3c-0.4-7.1,5.1-13.1,12.1-13.5
								c2-0.1,3.8,0.3,5.5,1c1.9-4.9,6.5-8.4,12-8.7s10.5,2.8,12.9,7.4c1.6-0.9,3.5-1.4,5.4-1.5c7.1-0.4,13.1,5.1,13.5,12.1
								c0,0.8,0,1.7-0.1,2.5c5.3,2.3,9.2,7.4,9.5,13.6c0.4,8.1-5.4,15.1-13.3,16.3c0.4,8.5-46.1,10.9-46.6,2.5
								C456.7,69.8,449.9,63.4,449.5,55.1z"/>
						</g>
						<g>
							<path class="st11" d="M523.4,90.9c-0.3-5.3-4.2-9.5-8.8-9.2l-1.1,0.1l-0.6-11.6c-0.1-2.5-0.8-4.9-1.8-7c-1,0.2-2,0.4-3,0.5
								c-6.3,0.3-11.9-2.9-14.9-8c-2.4,1.5-5.3,2.5-8.3,2.6c-3.1,0.2-6-0.5-8.6-1.7c-2.5,5.3-7.7,9.1-13.9,9.5
								c-0.7,2.2-1.1,4.5-0.9,6.9l0.6,11.6c-4.4,0.5-7.6,4.9-7.4,10.1c0.3,5.2,4,9.2,8.4,9.2l0.2,4.1c0.4,6.9,7.4,12.5,14,15.5
								l1.2,19.5c0.4,6.9,6.1,12.2,13,12.2c7.5,0,13.4-6.3,13-13.7l-1.1-20.6c5.6-3.7,11.7-9.5,11.4-15.6l-0.2-4l1.1-0.1
								C520.2,100.8,523.7,96.2,523.4,90.9z"/>
							<path class="st13" d="M482.7,123.8c-1.9,0.1-3.7-0.1-5.5-0.6l0.9,8.7l19.7-9.1c-0.7,0.1-1.5,0.2-2.3,0.3L482.7,123.8z"/>
						</g>
						<g>
							<g>
								<path class="st12" d="M492.6,115.9c-0.1,0-0.2,0-0.3-0.2c-0.7-1-1.8-1.6-3-1.5c-1.2,0.1-2.3,0.8-2.8,1.8
									c-0.1,0.2-0.3,0.2-0.5,0.2c-0.2-0.1-0.2-0.3-0.2-0.5c0.7-1.3,2-2.1,3.4-2.2s2.8,0.6,3.6,1.8c0.1,0.2,0.1,0.4-0.1,0.5
									C492.7,115.9,492.6,115.9,492.6,115.9z"/>
								<path class="st12" d="M457.4,93.1c-0.4,0-0.7-0.3-0.7-0.7c-0.2-4.3,3-5.6,4.7-5.7c0.4,0,0.7,0.3,0.7,0.7
									c0,0.4-0.3,0.7-0.7,0.7c-0.4,0-3.6,0.3-3.4,4.2C458.1,92.8,457.8,93.1,457.4,93.1z"/>
								<path class="st12" d="M520.1,89.8c-0.4,0-0.7-0.3-0.7-0.7c-0.2-4-3.7-3.8-3.8-3.8c-0.4,0-0.7-0.3-0.7-0.7
									c0-0.4,0.3-0.7,0.7-0.7c1.7-0.1,5.1,0.9,5.3,5.1C520.8,89.5,520.5,89.8,520.1,89.8z"/>
								<path class="st12" d="M476.5,92.7L476.5,92.7c-0.8,0-1.4-0.6-1.5-1.3l-0.1-2.8c0-0.8,0.6-1.4,1.3-1.5l0,0
									c0.8,0,1.4,0.6,1.5,1.3l0.1,2.8C477.9,91.9,477.3,92.6,476.5,92.7z"/>
								<path class="st12" d="M497.6,91.5L497.6,91.5c-0.8,0-1.4-0.6-1.5-1.3l-0.1-2.8c0-0.8,0.6-1.4,1.3-1.5l0,0
									c0.8,0,1.4,0.6,1.5,1.3l0.1,2.8C498.9,90.8,498.3,91.5,497.6,91.5z"/>
								<g>
									<path class="st12" d="M479.4,82.4c-0.6,0.4-1.5,0.4-2.4,0.5c-0.9,0.1-1.7,0.1-2.5,0.2c-0.8,0.1-1.6,0.2-2.5,0.4
										c-0.8,0.1-1.7,0.3-2.4,0.1c-0.7-0.2-1.1-0.9-0.4-2c0.6-1,2.3-2.3,4.8-2.6c2.5-0.3,4.5,0.5,5.3,1.4
										C480.2,81.3,480,82.1,479.4,82.4z"/>
								</g>
								<g>
									<path class="st12" d="M501.9,81.3c-0.7,0.3-1.6,0.1-2.4,0c-0.9-0.1-1.7-0.2-2.5-0.2c-0.8,0-1.6-0.1-2.5-0.1
										c-0.9,0-1.8,0-2.4-0.3c-0.6-0.3-0.8-1.1,0.1-2c0.8-0.9,2.8-1.8,5.3-1.7c2.5,0.2,4.2,1.3,4.8,2.3
										C503,80.3,502.6,81.1,501.9,81.3z"/>
								</g>
								<path class="st4" d="M495.3,110.4l-2.3,0.1c-1.1,0.1-2-0.6-2.1-1.5l-0.2-4.2l12.4-2.1l0,0.7
									C503.4,107.1,499.8,110.2,495.3,110.4z"/>
							</g>
							<path class="st12" d="M491.1,101.2l-3.1,0.2c-3,0.2-5.6-2.2-5.7-5.2c-0.1-1.4,1-2.6,2.4-2.6c1.7-0.1,3.1-1.6,3-3.3l-0.2-4.2
								c0-0.3,0.2-0.6,0.5-0.6c0.3,0,0.6,0.2,0.6,0.5l0.2,4.2c0.1,2.4-1.7,4.4-4.1,4.5c-0.8,0-1.3,0.7-1.3,1.4
								c0.1,2.4,2.2,4.2,4.5,4.1l3.1-0.2c0.3,0,0.6,0.2,0.6,0.5C491.6,100.9,491.4,101.1,491.1,101.2z"/>
						</g>
					</g>
				</g>
				<g class="st9">
					<path class="st12" d="M459.3,180.3c1.7-6.2,1.1-13.3-1.6-18.8c-1.8-3.9-4.5-8.2-2.8-12.4c0.5-1.3,1.5-2.4,2.2-3.6
						c3.8-6.1,2.6-12.8,1-19.3c-0.7-3-2.2-5.8-3.3-8.7c-1.2-3.3-2.1-6.6-3.2-10c-1.9-5.9-4.2-11.7-8.3-16.3c-3.8-4.2-9-7.1-14.4-8.6
						c-6.8-1.9-14-1.8-20.8,0.2c-6.9,2-12.9,6.5-18.4,11.1c-5.7,4.6-10.7,10.5-13.2,17.5c-1,2.6-1.5,5.3-1.8,8.1
						c-0.4,4.3,0.2,8.5-0.1,12.8c-0.6,8.6-6.3,14-10.6,20.9c-2.6,4.1-4.4,9.1-3.3,13.9c1.5,6.5,7.7,10.5,13.6,13.4
						c13.3,6.5,27.6,11,42.2,13.5c11.6,2,26.3,4.6,36.5-3.5C456.1,187.9,458.2,184.3,459.3,180.3z"/>
					<g>
						<g>
							<g>
								<path class="st14" d="M455.2,202.3c-7.4-13.4-16.3-21.6-23.2-26.4c-3.2-2.9-7.1-5-11.4-6.2l0,0c-0.2,0-0.2,0-0.1,0
									c-1.1-0.3-2.2-0.5-3.3-0.7l-3.3-0.5l-8.7-1.3l-3.3-0.5c-1.1-0.2-2.3-0.3-3.4-0.3l0.1-0.2c0,0-28.6-1.7-55.4,34.8
									C343.3,201,458,207.4,455.2,202.3z"/>
							</g>
						</g>
					</g>
					<g>
						<g>
							<path class="st15" d="M404.7,104.2c-0.8,6-3,12.1-8.2,14.7l-1.6-2.6l-0.4-0.1c-4-0.6-7.8,2.3-8.5,6.5v0
								c-0.7,4.2,2.1,8.1,6.1,8.7l1,0.2l-0.1,0.9c-1.4,8.9,2.6,17.5,9.5,22.4l-3,19.3c-0.8,5.1,2.7,9.8,7.7,10.6
								c5.1,0.8,9.8-2.7,10.6-7.7l2.9-18.4c9.1-2,16.4-9.3,17.9-19l0.1-1c3.6,0.1,6.9-2.7,7.5-6.5l0,0c0.6-3.9-1.7-7.5-5.1-8.5
								l0.8-4.8C423.5,117.5,410.9,109.3,404.7,104.2z"/>
						</g>
						<g>
							<path class="st16" d="M411.2,157l-4.5-1c-1.6-0.3-3-0.9-4.4-1.6l-1.1,7.2l16.4-4l-0.3-0.3C415.4,157.5,413.3,157.4,411.2,157
								z"/>
							<g>
								<g>
									<g>
										<path class="st17" d="M426.7,141.3l4.6,0.7c1.5,0.2,2.8-0.8,3-2.2l0,0c0.2-1.5-0.8-2.8-2.2-3l-4.6-0.7
											c-1.5-0.2-2.8,0.8-3,2.2l0,0C424.3,139.8,425.3,141.1,426.7,141.3z"/>
										<path class="st17" d="M402,137.7l4.6,0.7c1.5,0.2,2.8-0.8,3-2.2l0,0c0.2-1.5-0.8-2.8-2.2-3l-4.6-0.7
											c-1.5-0.2-2.8,0.8-3,2.2l0,0C399.5,136.1,400.5,137.5,402,137.7z"/>
										<path class="st10" d="M417.8,138c-0.2,0-0.4,0-0.5-0.1l-1.7-0.3c-0.3,0-0.5-0.3-0.5-0.6c0-0.3,0.3-0.5,0.6-0.5l1.7,0.3
											c0.9,0.1,1.7,0,2.4-0.4c0.6-0.4,1-0.9,1.1-1.5l0.1-0.8c0-0.2-0.1-0.3-0.2-0.4c-0.2-0.2-0.4-0.3-0.7-0.3
											c-1.4-0.2-2.5-1.3-2.3-2.5l0.6-4.1c0-0.3,0.3-0.5,0.6-0.5c0.3,0,0.5,0.3,0.5,0.6l-0.6,4.1c-0.1,0.6,0.5,1.1,1.4,1.3
											c0.5,0.1,1,0.3,1.3,0.6c0.4,0.4,0.5,0.9,0.5,1.3l-0.1,0.8c-0.1,0.9-0.7,1.8-1.7,2.3C419.6,137.8,418.7,138,417.8,138z"/>
										<g>
											<path class="st12" d="M428.9,133.8L428.9,133.8c0.8,0.1,1.5-0.4,1.6-1.2l0.4-2.7c0.1-0.8-0.4-1.5-1.2-1.6l0,0
												c-0.8-0.1-1.5,0.4-1.6,1.2l-0.4,2.7C427.6,133,428.1,133.7,428.9,133.8z"/>
										</g>
										<g>
											<path class="st12" d="M407.5,130.4L407.5,130.4c0.8,0.1,1.5-0.4,1.6-1.2l0.4-2.7c0.1-0.8-0.4-1.5-1.2-1.6l0,0
												c-0.8-0.1-1.5,0.4-1.6,1.2l-0.4,2.7C406.2,129.6,406.7,130.3,407.5,130.4z"/>
										</g>
										<path class="st10" d="M426.8,133.1c0.1,0,0.2,0,0.2,0.1c2.1,1.6,4.1,0.8,4.1,0.8c0.2-0.1,0.5,0,0.6,0.2
											c0.1,0.2,0,0.5-0.2,0.6c-0.1,0-2.5,1-5.1-0.9c-0.2-0.2-0.2-0.4-0.1-0.6C426.5,133.2,426.6,133.1,426.8,133.1z"/>
										<path class="st10" d="M404.9,129.2c0.1,0,0.2,0,0.2,0.1c2.1,1.6,4.1,0.8,4.1,0.8c0.2-0.1,0.5,0,0.6,0.2
											c0.1,0.2,0,0.5-0.2,0.6c-0.1,0-2.5,1-5.1-0.9c-0.2-0.2-0.2-0.4-0.1-0.6C404.6,129.2,404.7,129.2,404.9,129.2z"/>
									</g>
									<path class="st10" d="M411.4,139c-0.3,0-0.5,0.2-0.5,0.5c0,1,0.3,1.8,1,2.4c2,1.7,6.4,1,6.6,1c0.3,0,0.5-0.3,0.4-0.6
										c0-0.3-0.3-0.5-0.6-0.4c0,0-4.1,0.7-5.8-0.7c-0.5-0.4-0.7-0.9-0.6-1.6C411.9,139.2,411.7,139,411.4,139
										C411.4,139,411.4,139,411.4,139z"/>
								</g>
								<g>
									<g>
										<path class="st12" d="M413.9,121.9c-0.5,0.1-1.2-0.1-1.8-0.2c-0.6-0.2-1.2-0.3-1.8-0.4c-0.5-0.1-1.2-0.2-1.8-0.3
											c-0.6-0.1-1.3-0.2-1.7-0.5c-0.4-0.3-0.5-0.9,0.2-1.5c0.7-0.6,2.2-1,4-0.6c1.8,0.4,3,1.4,3.3,2.2
											C414.7,121.2,414.4,121.8,413.9,121.9z"/>
									</g>
								</g>
								<g>
									<g>
										<path class="st12" d="M433.4,123.8c-0.5,0.2-1.2,0.1-1.8,0c-0.6-0.1-1.3-0.1-1.8-0.2c-0.6,0-1.2,0-1.8,0
											c-0.6,0-1.3,0-1.8-0.2c-0.5-0.2-0.6-0.8,0-1.5c0.6-0.7,2-1.3,3.8-1.2c1.8,0.1,3.1,0.9,3.6,1.7
											C434.2,123,433.9,123.6,433.4,123.8z"/>
									</g>
								</g>
							</g>
						</g>
						<path class="st10" d="M417.9,149c0.1,0,0.1,0,0.2,0c0.2-0.1,0.2-0.3,0.1-0.5c-0.5-0.9-1.4-1.4-2.4-1.4c-1,0-1.9,0.5-2.4,1.4
							c-0.1,0.2,0,0.4,0.1,0.5c0.2,0.1,0.4,0,0.5-0.1c0.4-0.7,1.1-1.1,1.9-1.1c0.8,0,1.5,0.4,1.9,1.1
							C417.7,148.9,417.8,149,417.9,149z"/>
					</g>
				</g>
			</g>
		</g>
		<g>
			<g>
				<g>
					<path class="st8" d="M109.4,220.8L109.4,220.8c0,0.6-0.5,1.2-1.2,1.2h-7.4c-0.6,0-1.2-0.5-1.2-1.2l0,0c0-0.6,0.5-1.2,1.2-1.2
						h7.4C108.9,219.7,109.4,220.2,109.4,220.8z"/>
					<path class="st8" d="M140.7,94.2L140.7,94.2c0,0.6-0.5,1.2-1.2,1.2h-17c-0.6,0-1.2-0.5-1.2-1.2l0,0c0-0.6,0.5-1.2,1.2-1.2h17
						C140.2,93,140.7,93.5,140.7,94.2z"/>
					<path class="st8" d="M140.7,220.8L140.7,220.8c0,0.6-0.5,1.2-1.2,1.2h-17c-0.6,0-1.2-0.5-1.2-1.2l0,0c0-0.6,0.5-1.2,1.2-1.2h17
						C140.2,219.7,140.7,220.2,140.7,220.8z"/>
					<path class="st8" d="M163.8,220.8L163.8,220.8c0,0.6-0.5,1.2-1.2,1.2h-17c-0.6,0-1.2-0.5-1.2-1.2l0,0c0-0.6,0.5-1.2,1.2-1.2h17
						C163.3,219.7,163.8,220.2,163.8,220.8z"/>
				</g>
				<path class="st2" d="M325.7,110.1v95.1c0,8.8-7.1,15.9-15.9,15.9H81.5c-8.8,0-15.9-7.1-15.9-15.9v-95.1
					c0-8.8,7.1-15.9,15.9-15.9h228.3C318.6,94.2,325.7,101.4,325.7,110.1z"/>
				<path class="st18" d="M322.2,112.9v89.6c0,8.3-6.9,15-15.5,15H83.8c-8.6,0-15.5-6.7-15.5-15v-89.6c0-8.3,6.9-15,15.5-15h222.9
					C315.3,98,322.2,104.7,322.2,112.9z"/>
				<rect x="97.4" y="101.6" class="st4" width="198.1" height="112"/>
				<g>
					<g>
						<g class="st19">
							<path class="st2" d="M76.2,156.3c0.8,0,1.4,0.6,1.4,1.4c0,0.8-0.6,1.4-1.4,1.4c-0.8,0-1.4-0.6-1.4-1.4
								C74.9,156.9,75.5,156.3,76.2,156.3z"/>
						</g>
						<g class="st19">
							<path class="st2" d="M84.1,147.1v21.2c0,0.5-0.4,0.9-0.9,0.9l0,0c-0.5,0-0.9-0.4-0.9-0.9v-21.2c0-0.5,0.4-0.9,0.9-0.9l0,0
								C83.7,146.2,84.1,146.6,84.1,147.1z"/>
						</g>
					</g>
				</g>
				<g>
					<rect x="102.8" y="106.5" class="st6" width="185.2" height="100.1"/>
					<rect x="173.2" y="125.6" class="st7" width="114.8" height="62.1"/>
					<path class="st20" d="M280,114.6l-3.6,0.9c-0.1,0-0.1,0.1-0.1,0.1v-1.3c0-1-0.8-1.8-1.8-1.8H265c-1,0-1.8,0.8-1.8,1.8v6.8
						c0,1,0.8,1.8,1.8,1.8h9.6c1,0,1.8-0.8,1.8-1.8v-1.3c0,0.1,0,0.1,0.1,0.1l3.6,0.9c0.1,0,0.2,0,0.2-0.1v-6
						C280.2,114.6,280.1,114.6,280,114.6z"/>
				</g>
				<path class="st21" d="M310.6,172.7h-0.8c-2,0-3.6-1.6-3.6-3.6v-22.8c0-2,1.6-3.6,3.6-3.6h0.8c2,0,3.6,1.6,3.6,3.6v22.8
					C314.2,171.1,312.6,172.7,310.6,172.7z"/>
			</g>
			<g>
				<g>
					<g>
						<path class="st15" d="M247.6,124.5l-0.3-10.7c0-1.1-1-2-2.1-1.9c-1,0.1-1.7,1-1.7,2l0,4.9c0,0.9-1,1.3-1.6,0.8
							c-0.5-0.5-0.9-1.1-1.1-1.8l-2.4-10.6c-0.2-1.1-1.4-1.7-2.5-1.4c-0.9,0.3-1.4,1.4-1.2,2.3l2.3,10.2c0.2,0.8-0.3,1.5-1.1,1.7
							c-0.6,0.1-1.2-0.2-1.4-0.8l-4.3-10.9c-0.4-1-1.6-1.5-2.7-1c-0.9,0.5-1.2,1.6-0.9,2.5l4.4,11.2c0.2,0.5,0,1-0.5,1.2l-0.3,0.1
							c-0.4,0.2-0.9,0.1-1.1-0.3l-5.8-7.6c-0.7-0.9-2-1.2-2.9-0.7h0c-0.8,0.6-1,1.8-0.4,2.7c0,0,8.4,11,8.4,11
							c0.6,0.9,1.2,2.2,1.2,3.4c0,0.9-1.1,1.3-1.6,0.7c-1.4-1.5-3.6-3.8-3.6-3.8c-0.8-0.8-2.1-0.8-2.8,0.1c-0.7,0.7-0.6,1.9,0.1,2.6
							l3.8,4c0,0,5.4,5.6,9.9,7.8l-4.6,48.6c1.3,2.2,2.6,4.5,3.9,6.9l-3,1.7l-23.1,13l21.9,10.1c8.5,2.9,17.3-3.4,17.3-12.3l0-71.3
							C247.9,139,248.2,131,247.6,124.5z"/>
						<path class="st1" d="M238.7,133.6C238.7,133.6,238.7,133.6,238.7,133.6c0.3-0.2,0.3-0.5,0.2-0.7c-1.2-1.9-2.6-3-4.4-3.3
							c-2.9-0.5-5.4,1.5-5.5,1.6c-0.2,0.2-0.2,0.5-0.1,0.7c0.2,0.2,0.5,0.2,0.7,0.1c0,0,2.3-1.8,4.8-1.4c1.4,0.2,2.7,1.2,3.7,2.9
							C238.2,133.6,238.4,133.7,238.7,133.6z"/>
					</g>
					<g>
						<polygon class="st15" points="104.2,213 130.1,213 104.2,198.4 						"/>
						<path class="st5" d="M234.8,197.7c-1.3-2.4-2.5-4.7-3.9-6.9C208.7,153.6,181,151,181,151l-16.8-0.2l-3.6,0
							c-1.2,0-2.5,0.1-3.7,0.2c0.1,0,0.1,0-0.1,0l0,0c-4.9,0.6-9.4,2.2-13.3,4.8c-11.4,5.6-27.8,17.4-40.5,41.9l1.2,0.7l25.9,14.6
							l0.2,0.1l77.3-0.1l0.8-0.4l0.3-0.2l23.1-13L234.8,197.7z"/>
					</g>
				</g>
				<g>
					<path class="st22" d="M150.8,150.8c22.7,0,58.5-3.4,59.6-25.5c0,0-2.3-59.6-21.9-67.2c-5.9-2.3-12.2-3.3-17.7-3.1
						c-5.5-0.2-11.8,0.7-17.7,3.1c-19.6,7.7-20,34.6-20,34.6c1.1,22.1-3,19.8-11.1,33.9c-0.2,0.3-0.4,0.7-0.5,1
						c-6,11.9,3.3,25.6,16.7,25.4C145.5,152.9,150.4,150.8,150.8,150.8z"/>
					<g>
						<path class="st15" d="M193.8,95.7L193.8,95.7l0-8c0-11.5-9-20.8-20.1-20.8h-5.1c-11.1,0-20.1,9.3-20.1,20.8v8h0
							c-4,0-7.2,3.2-7.2,7.2c0,4,3.2,7.2,7.2,7.2h0v5c0,9.1,5.7,16.8,13.6,19.6v15.7c0,5,4.1,9.1,9.1,9.1c5,0,9.1-4.1,9.1-9.1v-15.7
							c7.9-2.8,13.6-10.5,13.6-19.6v-5h0c4,0,7.2-3.2,7.2-7.2C201,99,197.8,95.7,193.8,95.7z"/>
						<path class="st23" d="M168.6,135.9c-2.3,0-4.5-0.4-6.5-1.1v7.7l17.3-7.1l-0.3-0.2c-1.7,0.5-3.5,0.8-5.4,0.8H168.6z"/>
						<g>
							<g>
								<path class="st24" d="M183.4,111.1h4.5c1.4,0,2.5-1.1,2.5-2.5l0,0c0-1.4-1.1-2.5-2.5-2.5h-4.5c-1.4,0-2.5,1.1-2.5,2.5l0,0
									C180.9,110,182,111.1,183.4,111.1z"/>
								<path class="st24" d="M156.7,111.1h4.5c1.4,0,2.5-1.1,2.5-2.5l0,0c0-1.4-1.1-2.5-2.5-2.5h-4.5c-1.4,0-2.5,1.1-2.5,2.5l0,0
									C154.2,110,155.3,111.1,156.7,111.1z"/>
								<path class="st10" d="M173.4,125.1c-0.2,0-0.3-0.1-0.4-0.2c-0.5-0.9-1.5-1.5-2.6-1.5c-1.1,0-2.1,0.6-2.6,1.5
									c-0.1,0.2-0.4,0.3-0.7,0.2c-0.2-0.1-0.3-0.4-0.2-0.7c0.7-1.2,2-2,3.5-2c1.4,0,2.8,0.8,3.5,2c0.1,0.2,0.1,0.5-0.2,0.7
									C173.6,125.1,173.5,125.1,173.4,125.1z"/>
								<path class="st12" d="M182.3,104.3L182.3,104.3c0.7,0,1.3-0.6,1.3-1.3v-2.7c0-0.7-0.6-1.3-1.3-1.3l0,0
									c-0.7,0-1.3,0.6-1.3,1.3v2.7C181,103.7,181.6,104.3,182.3,104.3z"/>
								<path class="st12" d="M162.4,104.3L162.4,104.3c0.7,0,1.3-0.6,1.3-1.3v-2.7c0-0.7-0.6-1.3-1.3-1.3l0,0
									c-0.7,0-1.3,0.6-1.3,1.3v2.7C161.1,103.7,161.7,104.3,162.4,104.3z"/>
								<g>
									<path class="st22" d="M178.4,94.4c0.5,0.4,1.3,0.5,2,0.7c0.7,0.1,1.5,0.3,2.1,0.5c0.6,0.2,1.4,0.4,2.1,0.6
										c0.7,0.2,1.4,0.5,2.1,0.4c0.6-0.1,1-0.7,0.6-1.7c-0.4-0.9-1.8-2.2-3.9-2.8c-2.1-0.5-3.9-0.1-4.7,0.6
										C177.9,93.4,178,94.1,178.4,94.4z"/>
								</g>
								<g>
									<path class="st22" d="M157.8,97.3c0.6,0.1,1.3-0.2,2-0.5c0.7-0.3,1.4-0.5,2-0.7c0.6-0.2,1.3-0.4,2-0.6
										c0.7-0.2,1.4-0.3,1.9-0.7c0.5-0.4,0.5-1.1-0.4-1.7c-0.8-0.6-2.6-0.9-4.6-0.3c-2,0.6-3.3,1.9-3.6,2.8
										C156.8,96.6,157.2,97.2,157.8,97.3z"/>
								</g>
								<g>
									<path class="st10" d="M164.8,105.5c-0.1,0-0.2,0-0.2-0.1c-2.3-1.1-3.9,0-4,0c-0.2,0.2-0.5,0.1-0.7-0.1
										c-0.2-0.2-0.1-0.5,0.1-0.7c0.1-0.1,2.2-1.4,5,0c0.2,0.1,0.3,0.4,0.2,0.7C165.1,105.4,165,105.5,164.8,105.5z"/>
									<path class="st10" d="M185.1,105.5c-0.1,0-0.2,0-0.2-0.1c-2.3-1.1-3.9,0-4,0c-0.2,0.2-0.5,0.1-0.7-0.1
										c-0.2-0.2-0.1-0.5,0.1-0.7c0.1-0.1,2.2-1.4,5,0c0.2,0.1,0.3,0.4,0.2,0.7C185.5,105.4,185.3,105.5,185.1,105.5z"/>
								</g>
								<path class="st10" d="M172.1,109.7h-1.9c-0.3,0-0.5-0.2-0.5-0.5s0.2-0.5,0.5-0.5h1.9c2,0,3.7-1.4,3.7-3.2v-1.1
									c0-0.5-0.5-0.9-1.1-0.9c-1.5,0-2.8-1.1-2.8-2.5v-5.2c0-0.3,0.2-0.5,0.5-0.5c0.3,0,0.5,0.2,0.5,0.5v5.2
									c0,0.8,0.8,1.5,1.8,1.5c1.2,0,2.1,0.9,2.1,1.9v1.1C176.8,107.9,174.7,109.7,172.1,109.7z"/>
								<path class="st4" d="M170.7,120.8h4.2c1.3,0,2.4-1.1,2.4-2.4v-4.6c0-0.8-0.6-1.4-1.4-1.4h-13.5l0,0
									C162.3,117,166,120.8,170.7,120.8z"/>
							</g>
						</g>
						<g>
							<path class="st10" d="M199.3,103c-0.3,0-0.5-0.2-0.5-0.5c0-3.9-3.4-4-3.6-4c-0.3,0-0.5-0.2-0.5-0.5c0-0.3,0.2-0.5,0.5-0.5
								c0,0,4.6,0.1,4.6,5C199.8,102.8,199.5,103,199.3,103z"/>
							<path class="st10" d="M143,103c-0.3,0-0.5-0.2-0.5-0.5c0-4.9,4.5-5,4.6-5c0.3,0,0.5,0.2,0.5,0.5c0,0.3-0.2,0.5-0.5,0.5
								c-0.1,0-3.6,0.1-3.6,4C143.5,102.8,143.3,103,143,103z"/>
							<path class="st12" d="M145.8,115.8L145.8,115.8c-0.5,0-1-0.4-1-1v-7.7c0-0.5,0.4-1,1-1l0,0c0.5,0,1,0.4,1,1v7.7
								C146.7,115.4,146.3,115.8,145.8,115.8z"/>
							<path class="st12" d="M196.6,115.8L196.6,115.8c-0.5,0-1-0.4-1-1v-7.7c0-0.5,0.4-1,1-1l0,0c0.5,0,1,0.4,1,1v7.7
								C197.5,115.4,197.1,115.8,196.6,115.8z"/>
						</g>
					</g>
					<path class="st22" d="M165.1,60.7c-16.8,2.8-21.3,23.6-21.3,23.6c-2.6,17.3,14,14,14,14c4.9,0.1,8.8-9.3,11-16
						c7.5-0.4,20.3-2.2,22.5-8.7C194.2,64.8,179.5,58.3,165.1,60.7z"/>
				</g>
				<g>
					<path class="st12" d="M152.4,153.9c0.3,1.4,1.6,2.3,3,2c1.4-0.3,2.3-1.6,2-3c-0.3-1.4-1.6-2.3-3-2
						C153,151.2,152.1,152.5,152.4,153.9z"/>
					<path class="st12" d="M155.3,158.9c0.3,1.4,1.6,2.3,3,2c1.4-0.3,2.3-1.6,2-3c-0.3-1.4-1.6-2.3-3-2
						C156,156.1,155.1,157.5,155.3,158.9z"/>
					<path class="st12" d="M160,162.8c0.3,1.4,1.6,2.3,3,2c1.4-0.3,2.3-1.6,2-3c-0.3-1.4-1.6-2.3-3-2
						C160.7,160.1,159.8,161.4,160,162.8z"/>
					<path class="st12" d="M165.5,164.4c0.3,1.4,1.6,2.3,3,2c1.4-0.3,2.3-1.6,2-3c-0.3-1.4-1.6-2.3-3-2
						C166.1,161.6,165.2,163,165.5,164.4z"/>
					<path class="st12" d="M171.3,163.8c0.3,1.4,1.6,2.3,3,2c1.4-0.3,2.3-1.6,2-3c-0.3-1.4-1.6-2.3-3-2
						C171.9,161,171,162.4,171.3,163.8z"/>
					<path class="st12" d="M177.1,161.9c0.3,1.4,1.6,2.3,3,2c1.4-0.3,2.3-1.6,2-3c-0.3-1.4-1.6-2.3-3-2
						C177.7,159.1,176.8,160.5,177.1,161.9z"/>
					<path class="st12" d="M181.7,158.2c0.3,1.4,1.6,2.3,3,2c1.4-0.3,2.3-1.6,2-3c-0.3-1.4-1.6-2.3-3-2
						C182.4,155.5,181.5,156.8,181.7,158.2z"/>
					<path class="st12" d="M185.3,153.6c0.3,1.4,1.6,2.3,3,2c1.4-0.3,2.3-1.6,2-3c-0.3-1.4-1.6-2.3-3-2
						C185.9,150.8,185,152.2,185.3,153.6z"/>
				</g>
			</g>
		</g>
		<g>
			<g>
				<g>
					<g>
						<path class="st2" d="M462.6,364.8l-274.8-0.1l0.1-184.1c0-3.1,2.5-5.6,5.6-5.6l263.6,0.1c3.1,0,5.6,2.5,5.6,5.6L462.6,364.8z"
							/>
						<path class="st12" d="M327.5,182.8c0,1.1-1,2-2.1,2c-1.2,0-2.1-0.9-2.1-2c0-1.1,1-2,2.1-2
							C326.5,180.8,327.5,181.7,327.5,182.8z"/>
						<path class="st2" d="M491.7,398.1l-333.4-0.2c-3.6,0-6.6-2-6.5-4.6l0-7.2c0-0.7,0.8-1.3,1.8-1.3l343.1,0.2
							c1,0,1.8,0.6,1.8,1.3l0,7C498.6,396,495.5,398.1,491.7,398.1z"/>
					</g>
					<g>
						<g>
							<path class="st4" d="M206.1,350.4l238.3,0.1c3.4,0,6.1-2.7,6.1-6.1l0.1-148.2c0-3.4-2.7-6.1-6.1-6.1L206.2,190
								c-3.4,0-6.1,2.7-6.1,6.1L200,344.3C200,347.7,202.7,350.4,206.1,350.4z"/>
							<g>
								<path class="st10" d="M450.6,200.9l0-4.6c0-3.4-2.7-6.1-6.1-6.1L206.2,190c-3.4,0-6.1,2.7-6.1,6.1l0,4.7L450.6,200.9z"/>
								<path class="st4" d="M428.5,196.2c0,0.8-0.6,1.4-1.4,1.4c-0.8,0-1.4-0.6-1.4-1.4c0-0.8,0.6-1.4,1.4-1.4
									C427.8,194.8,428.5,195.4,428.5,196.2z"/>
								<path class="st4" d="M434.1,196.2c0,0.8-0.6,1.4-1.4,1.4c-0.8,0-1.4-0.6-1.4-1.4c0-0.8,0.6-1.4,1.4-1.4
									C433.5,194.8,434.1,195.4,434.1,196.2z"/>
								<path class="st4" d="M439.7,196.2c0,0.8-0.6,1.4-1.4,1.4c-0.8,0-1.4-0.6-1.4-1.4c0-0.8,0.6-1.4,1.4-1.4
									S439.7,195.4,439.7,196.2z"/>
							</g>
						</g>
					</g>
					<rect x="221.4" y="218.5" class="st6" width="205.8" height="111.3"/>
					<rect x="257.2" y="218.5" class="st7" width="134.2" height="72.5"/>
					<rect x="291.4" y="218.5" class="st7" width="65.7" height="35.5"/>
					<path class="st25" d="M188.9,364.1l-36.1,21.2c0,0,0,0,0,0l345.7,0l-35-21L188.9,364.1z"/>
				</g>
			</g>
			<path class="st8" d="M189.2,364.2l-35,20.7c0,0,0,0,0,0l344.1,0l-36-21.5L189.2,364.2z"/>
			<path class="st2" d="M207.2,367.9c-1,0-2,0.3-2.8,0.9l-15.3,11.1c0,0,0,0,0,0l274.2,0.1l-14.1-10.1c-1.6-1.1-3.4-1.7-5.4-1.7
				L207.2,367.9z"/>
			<g>
				<g>
					<g>
						<g>
							<path class="st15" d="M391.9,292.6l11.6,16.8c0.2,0.2-0.2-0.8,0-1.1l18.2-29.9l-0.1,0l1.6-2.5l5.7-9.4
								c-4.1-4.3-5.2-13.7-5.1-13.7l-2-6.4c-0.4-1.2,0.1-2.5,1.2-3c1.3-0.6,2.7,0.1,3.1,1.4c0,0,1.2,3.7,1.9,6.1
								c0.3,1,1.7,1.1,2.2,0.1c0.6-1.4,0.6-3.1,0.4-4.4c0-0.1-3.5-16.5-3.5-16.5c-0.3-1.3,0.5-2.5,1.8-2.8h0c1.3,0,2.6,1,2.9,2.3
								l2.4,11.5c0.1,0.5,0.6,0.9,1.1,0.9l0.4,0c0.6,0,1.1-0.5,1.2-1.1l1-14.7c0.1-1.2,1-2.3,2.2-2.3c1.4,0,2.5,1.1,2.4,2.5l-1,14.3
								c-0.1,0.7,0.4,1.4,1.2,1.6c0.9,0.2,1.9-0.4,2.1-1.3l2.8-12.5c0.3-1.2,1.4-2.1,2.6-1.9c1.4,0.2,2.3,1.5,2,2.8l-3,12.9
								c-0.2,0.9-0.1,1.8,0.2,2.6l0,0c0.4,1,1.8,1,2.2,0l2.6-5.4c0.5-1.1,1.8-1.7,2.9-1.3c1.3,0.5,1.9,2,1.3,3.2l-5.3,11.9
								c-3.9,10.7-8.2,17-9.7,18.9l-4.8,10.1l-1.1,2.3l0,0l-25,52.3c-3.9,8.2-14.7,10.1-21.1,3.7l-21.2-24L391.9,292.6z"/>
							<path class="st10" d="M438.6,258.8C438.6,258.8,438.6,258.8,438.6,258.8c0.4,0,0.6-0.3,0.5-0.6c-0.3-2.7-1.3-4.7-3.1-5.9
								c-2.9-2-6.7-1.2-6.8-1.1c-0.3,0.1-0.5,0.4-0.4,0.6c0.1,0.3,0.4,0.5,0.6,0.4c0,0,3.5-0.8,6,1c1.5,1,2.3,2.8,2.6,5.1
								C438.1,258.6,438.3,258.8,438.6,258.8z"/>
						</g>
					</g>
					<path class="st10" d="M363,316.8l6.7,2.2l25.9-28c-18.9-35.6-42.1-49-55.6-54c-5.3-2-10.8-2.9-16.5-2.9l-18.8,0
						c-5.1,0-10.1,0.8-14.9,2.6c-41,15.7-55.9,78.9-55.9,78.9l5.6,0.9l27,4.5l0,28.9l96.5,0L363,316.8z"/>
					<g>
						<polygon class="st15" points="266.1,321 239.8,316.8 239.8,350 266.1,350 						"/>
					</g>
					<g>
						<path class="st26" d="M362.9,332.4c0.3,0,0.5-0.2,0.5-0.5l0-23.5c0-0.3-0.2-0.5-0.5-0.5c-0.3,0-0.5,0.2-0.5,0.5l0,23.5
							C362.4,332.2,362.6,332.4,362.9,332.4z"/>
						<path class="st26" d="M266.2,332.9c0.3,0,0.5-0.2,0.5-0.5l0-23.5c0-0.3-0.2-0.5-0.5-0.5c-0.3,0-0.5,0.2-0.5,0.5l0,23.5
							C265.7,332.6,265.9,332.9,266.2,332.9z"/>
					</g>
				</g>
				<g>
					<path class="st12" d="M351.9,152.4c-5.6-12.4-15.6-7.4-15.6-7.4c-2.9-7.3-11.1-15.9-22.4-16.9c-8.2-0.7-12.3,2.8-15,3.8
						c-6.4-3.6-12.7-3.8-17.3,1.1c-6.7,7.2-4,13.7-2.2,16.5c0.5,1.1,2.9,4.8,5.1,6c-3.7,8.8-6.6,23.2,13.1,24.5l41.2,2.1
						c0,0,3.1-2.7,6.5-6.7C350.2,169.4,355.6,160.4,351.9,152.4z"/>
					<g>
						<g>
							<g>
								<path class="st27" d="M287.8,156.7l0.7-0.1c-0.4-0.1-0.6-0.1-0.6-0.1S287.8,156.6,287.8,156.7z"/>
								<path class="st15" d="M345.3,175.4c-3.3,4.1-6.5,6.7-6.5,6.7l-1.4-15.8c-6.1-0.4-7.7-4.8-7.8-8.8l-10.5-0.1
									c-15,1.9-27.8-0.3-30.7-0.9l-0.7,0.1c-0.1,0.1-0.2,0.3-0.3,0.4l0,17.4l-0.7,0c-4.5,0-8.2,3.6-8.2,8.2l0,0.9
									c0,4.5,3.6,8.2,8.2,8.2l0.7,0l0,11.8c0,9,6.4,15,12.1,16l-2,23.1c0,6.2,5,11.3,11.3,11.3l7.5,0c6.7,0,12.2-5.4,12.2-12.2
									l-2-22l0,0c8.2,0,14.9-6.7,14.9-14.9l0-13.1l0.2,0c4.5,0,8.2-3.6,8.2-8.2l0-0.9C349.7,179.4,347.9,176.7,345.3,175.4z"/>
							</g>
							<path class="st23" d="M326.3,219.6l1,10.1l-27-10.3c0.5,0.1,1.1,0.2,1.7,0.2L326.3,219.6z"/>
						</g>
						<g>
							<path class="st10" d="M316.7,210.1c0.1,0,0.2,0,0.3-0.1c0.3-0.1,0.3-0.5,0.2-0.7c-0.8-1.4-2.2-2.2-3.8-2.2
								c-1.6,0-3,0.8-3.8,2.2c-0.1,0.3-0.1,0.6,0.2,0.7c0.3,0.1,0.6,0.1,0.7-0.2c0.6-1,1.7-1.7,2.9-1.7c1.2,0,2.3,0.6,2.9,1.7
								C316.4,210,316.6,210.1,316.7,210.1z"/>
							<g>
								<path class="st10" d="M346.6,183.1c0.2,0,0.3-0.2,0.3-0.3c0-3.7-3.4-3.8-3.5-3.8c-0.2,0-0.3,0.2-0.3,0.3
									c0,0.2,0.2,0.3,0.3,0.3c0.1,0,2.8,0.1,2.8,3.1C346.3,183,346.4,183.1,346.6,183.1z"/>
								<path class="st10" d="M281.5,183.1c-0.2,0-0.3-0.2-0.3-0.3c0-3.7,3.4-3.7,3.5-3.7c0.2,0,0.3,0.2,0.3,0.3
									c0,0.2-0.2,0.3-0.3,0.3c-0.1,0-2.8,0-2.8,3.1C281.8,182.9,281.7,183.1,281.5,183.1z"/>
							</g>
							<path d="M300.2,182.7L300.2,182.7c-0.8,0-1.5-0.7-1.5-1.5l0-2.9c0-0.8,0.7-1.5,1.5-1.5l0,0c0.8,0,1.5,0.7,1.5,1.5l0,2.9
								C301.7,182,301,182.7,300.2,182.7z"/>
							<path d="M322.7,182.7L322.7,182.7c-0.8,0-1.5-0.7-1.5-1.5l0-2.9c0-0.8,0.7-1.5,1.5-1.5l0,0c0.8,0,1.5,0.7,1.5,1.5l0,2.9
								C324.2,182,323.5,182.7,322.7,182.7z"/>
							<g>
								<path class="st12" d="M305.7,171.4c-0.7,0.5-1.6,0.5-2.5,0.5c-0.9,0-1.8,0.1-2.6,0.2c-0.8,0.1-1.7,0.2-2.6,0.4
									c-0.9,0.1-1.8,0.4-2.6,0c-0.7-0.3-1.1-1.3-0.4-2.7c0.6-1.3,2.5-2.9,5.1-3.2c2.6-0.3,4.7,0.9,5.5,2
									C306.5,169.9,306.3,171,305.7,171.4z"/>
							</g>
							<g>
								<path class="st12" d="M330.3,173.8c-0.9,0.2-1.8-0.1-2.7-0.3c-0.9-0.3-1.9-0.5-2.7-0.7c-0.8-0.2-1.8-0.3-2.8-0.5
									c-1-0.2-2-0.2-2.6-0.8c-0.6-0.5-0.6-1.7,0.7-2.8c1.2-1.1,3.7-2.1,6.4-1.5c2.7,0.6,4.4,2.4,4.7,3.8
									C331.7,172.6,331.1,173.6,330.3,173.8z"/>
							</g>
							<path class="st10" d="M300.1,183.3c0.8,0,1.7-0.2,2.8-0.7c0.3-0.1,0.4-0.5,0.2-0.7c-0.1-0.3-0.5-0.4-0.7-0.2
								c-2.5,1.2-4.3,0.1-4.4,0c-0.2-0.2-0.6-0.1-0.7,0.2c-0.2,0.2-0.1,0.6,0.1,0.7C297.4,182.6,298.5,183.3,300.1,183.3z"/>
							<path class="st10" d="M322.6,183.3c0.8,0,1.7-0.2,2.8-0.7c0.3-0.1,0.4-0.5,0.2-0.7c-0.1-0.3-0.5-0.4-0.7-0.2
								c-2.5,1.2-4.3,0.1-4.4,0c-0.2-0.2-0.6-0.1-0.7,0.2c-0.2,0.2-0.1,0.6,0.1,0.7C319.9,182.6,321,183.3,322.6,183.3z"/>
							<path class="st10" d="M312.9,192.2l5.7,0c0.2,0,0.4-0.2,0.4-0.4c0-0.2-0.2-0.4-0.4-0.4l-5.7,0c-2.2,0-3.9-1.8-3.9-3.9l0-1.1
								c0-0.6,0.5-1.1,1.1-1.1c1.8,0,2.9-1.4,2.9-3.5l0.2-5.6c0-0.2-0.2-0.4-0.4-0.4c-0.2,0-0.4,0.2-0.4,0.4l-0.2,5.6
								c0,0.6-0.2,2.7-2.1,2.7c-1.1,0-2,0.9-2,2l0,1.1C308.1,190,310.2,192.2,312.9,192.2z"/>
							<path class="st4" d="M313.7,205.7l-2.4,0c-1.2,0-2.1-0.9-2.1-2.1l0-5.6l13.1-3.3l0,2.3C322.4,201.8,318.5,205.7,313.7,205.7z
								"/>
						</g>
						<g>
							<path class="st2" d="M298.5,191.4c-5.5,0-10-4.5-10-10c0-5.5,4.5-10,10-10c5.5,0,10,4.5,10,10
								C308.5,187,304,191.5,298.5,191.4z M298.5,172.4c-5,0-9,4-9,9c0,5,4,9,9,9c5,0,9-4,9-9C307.5,176.5,303.5,172.4,298.5,172.4z
								"/>
							<path class="st2" d="M326.5,190.4c-2.7,0-5.2-1-7.1-2.9c-1.9-1.9-2.9-4.4-2.9-7.1c0-2.7,1-5.2,2.9-7.1
								c1.9-1.9,4.4-2.9,7.1-2.9c2.7,0,5.2,1,7.1,2.9l0,0c1.9,1.9,2.9,4.4,2.9,7.1c0,2.7-1,5.2-2.9,7.1
								C331.6,189.4,329.1,190.5,326.5,190.4z M326.5,171.4c-2.4,0-4.7,0.9-6.4,2.6c-1.7,1.7-2.6,4-2.6,6.4s0.9,4.7,2.6,6.4
								c1.7,1.7,4,2.6,6.4,2.6c2.4,0,4.7-0.9,6.4-2.6c1.7-1.7,2.6-4,2.6-6.4c0-2.4-0.9-4.7-2.6-6.4l0,0
								C331.1,172.4,328.9,171.4,326.5,171.4z"/>
							<path class="st2" d="M307.7,179.6c-0.1,0-0.3-0.1-0.4-0.2c-0.2-0.2-0.1-0.5,0.1-0.7c0.1,0,5.5-4.3,9.9,0
								c0.2,0.2,0.2,0.5,0,0.7c-0.2,0.2-0.5,0.2-0.7,0c-3.7-3.7-8.4-0.1-8.6,0C307.9,179.6,307.8,179.6,307.7,179.6z"/>
						</g>
					</g>
				</g>
			</g>
		</g>
	</g>
	<g>
	</g>
	<g>
	</g>
	<g>
	</g>
	<g>
	</g>
	<g>
	</g>
	<g>
	</g>
	<g>
	</g>
	<g>
	</g>
	<g>
	</g>
	<g>
	</g>
	<g>
	</g>
	<g>
	</g>
	<g>
	</g>
	<g>
	</g>
	<g>
	</g>
</g>
</svg>
