<?xml version="1.0" encoding="utf-8"?>
<!-- Generator: Adobe Illustrator 24.0.2, SVG Export Plug-In . SVG Version: 6.00 Build 0)  -->
<svg version="1.1" id="Capa_1" xmlns="http://www.w3.org/2000/svg" xmlns:xlink="http://www.w3.org/1999/xlink" x="0px" y="0px"
	 viewBox="0 0 150 150" style="enable-background:new 0 0 150 150;" xml:space="preserve">
<style type="text/css">
	.st0{fill:#B8CCD3;}
	.st1{fill:#0C788F;}
</style>
<g>
	<path class="st0" d="M101.8,60c-1,0-2.1,0.1-3.1,0.2c0.2-1.3,0.3-2.6,0.3-3.9c0-13.7-11.1-24.9-24.9-24.9
		c-13.4,0-24.2,10.6-24.8,23.8C36.9,55.9,27,66.1,27,78.8c0,5.9,2.2,11.3,5.8,15.5h11.8c-1.3-1.4-2.1-3.3-2.1-5.4
		c0-4.5,3.6-8.1,8.1-8.1h51.2c4.5,0,8.1,3.6,8.1,8.1c0,4.5-3.6,8.1-8.1,8.1H88.9c1.3,1.4,2.1,3.3,2.1,5.4h10.8
		c11.7,0,21.2-9.5,21.2-21.2C123,69.4,113.5,60,101.8,60z"/>
	<path class="st1" d="M101.8,91.6c1.5,0,2.7-1.2,2.7-2.7c0-1.5-1.2-2.7-2.7-2.7H50.6c-1.5,0-2.7,1.2-2.7,2.7c0,1.5,1.2,2.7,2.7,2.7
		H101.8z"/>
	<path class="st1" d="M85.6,102.4c0-1.5-1.2-2.7-2.7-2.7H31.7c-1.5,0-2.7,1.2-2.7,2.7c0,1.5,1.2,2.7,2.7,2.7h51.2
		C84.4,105.1,85.6,103.9,85.6,102.4z"/>
	<path class="st1" d="M91,113.2H39.8c-1.5,0-2.7,1.2-2.7,2.7c0,1.5,1.2,2.7,2.7,2.7H91c1.5,0,2.7-1.2,2.7-2.7
		C93.7,114.4,92.5,113.2,91,113.2z"/>
</g>
<g>
</g>
<g>
</g>
<g>
</g>
<g>
</g>
<g>
</g>
<g>
</g>
</svg>
