<?xml version="1.0" encoding="utf-8"?>
<!-- Generator: Adobe Illustrator 24.0.2, SVG Export Plug-In . SVG Version: 6.00 Build 0)  -->
<svg version="1.1" id="Capa_1" xmlns="http://www.w3.org/2000/svg" xmlns:xlink="http://www.w3.org/1999/xlink" x="0px" y="0px"
	 viewBox="0 0 150 150" style="enable-background:new 0 0 150 150;" xml:space="preserve">
<style type="text/css">
	.st0{fill:#61C3D7;}
	.st1{fill:#92A8B0;}
</style>
<g>
	<path class="st0" d="M49.1,103c-1.6-0.9-3.7-0.4-4.6,1.2l-7.4,12.8c-0.9,1.6-0.4,3.7,1.2,4.6c0.5,0.3,1.1,0.5,1.7,0.5
		c1.2,0,2.3-0.6,2.9-1.7l7.4-12.8C51.3,106,50.7,104,49.1,103z"/>
	<path class="st0" d="M69.7,103c-1.6-0.9-3.7-0.4-4.6,1.2l-7.4,12.8c-0.9,1.6-0.4,3.7,1.2,4.6c0.5,0.3,1.1,0.5,1.7,0.5
		c1.2,0,2.3-0.6,2.9-1.7l7.4-12.8C71.9,106,71.3,104,69.7,103z"/>
	<path class="st1" d="M101.7,56.3c-1,0-2.1,0.1-3.1,0.2c0.2-1.3,0.3-2.6,0.3-3.9C99,39,87.9,27.8,74.2,27.8
		c-13.3,0-24.2,10.5-24.7,23.7C37,52.2,27.1,62.5,27.1,75c0,13,10.5,23.5,23.5,23.5h51c11.7,0,21.1-9.5,21.1-21.1
		C122.9,65.8,113.4,56.3,101.7,56.3z M66.3,80.1l-7.4,12.8c-0.6,1.1-1.8,1.7-2.9,1.7c-0.6,0-1.2-0.1-1.7-0.5c-1.6-0.9-2.2-3-1.2-4.6
		l7.4-12.8c0.9-1.6,3-2.2,4.6-1.2C66.6,76.4,67.2,78.4,66.3,80.1z M86.9,80.1l-7.4,12.8c-0.6,1.1-1.8,1.7-2.9,1.7
		c-0.6,0-1.2-0.1-1.7-0.5c-1.6-0.9-2.2-3-1.2-4.6l7.4-12.8c0.9-1.6,3-2.2,4.6-1.2C87.3,76.4,87.8,78.4,86.9,80.1z M107.5,80.1
		l-7.4,12.8c-0.6,1.1-1.8,1.7-2.9,1.7c-0.6,0-1.2-0.1-1.7-0.5c-1.6-0.9-2.2-3-1.2-4.6l7.4-12.8c0.9-1.6,3-2.2,4.6-1.2
		C107.9,76.4,108.5,78.4,107.5,80.1z"/>
	<path class="st0" d="M90.4,103c-1.6-0.9-3.7-0.4-4.6,1.2l-7.4,12.8c-0.9,1.6-0.4,3.7,1.2,4.6c0.5,0.3,1.1,0.5,1.7,0.5
		c1.2,0,2.3-0.6,2.9-1.7l7.4-12.8C92.5,106,92,104,90.4,103z"/>
</g>
<g>
</g>
<g>
</g>
<g>
</g>
<g>
</g>
<g>
</g>
<g>
</g>
</svg>
