<?xml version="1.0" encoding="utf-8"?>
<!-- Generator: Adobe Illustrator 24.0.2, SVG Export Plug-In . SVG Version: 6.00 Build 0)  -->
<svg version="1.1" id="Capa_1" xmlns="http://www.w3.org/2000/svg" xmlns:xlink="http://www.w3.org/1999/xlink" x="0px" y="0px"
	 viewBox="0 0 150 150" style="enable-background:new 0 0 150 150;" xml:space="preserve">
<style type="text/css">
	.st0{fill:#788B90;}
	.st1{fill:#92A8B0;}
</style>
<g>
	<path class="st0" d="M119.2,60.2c-0.5-0.3-0.9-0.5-1.4-0.7c0.4-0.5,0.8-1,1.1-1.6c3.4-5.9,1.4-13.5-4.5-16.9
		c-5.7-3.3-13.1-1.5-16.6,4.1c-4-2.1-8.7-1.5-12.2,1c6.6,4.9,11,12.7,11.3,21.4c8.2,0.7,15.2,5.4,19.2,12.1c2.8-0.6,5.4-2.3,6.9-5
		C126,69.5,124.2,63.1,119.2,60.2z"/>
	<path class="st1" d="M94.8,72.2c-1,0-1.9,0.1-2.9,0.2c0.2-1.2,0.3-2.4,0.3-3.7c0-13-10.5-23.5-23.5-23.5c-12.6,0-22.9,10-23.5,22.5
		C33.4,68.3,24,78,24,90c0,12.3,10,22.3,22.3,22.3h48.4c11.1,0,20.1-9,20.1-20.1C114.8,81.2,105.8,72.2,94.8,72.2z"/>
</g>
<g>
</g>
<g>
</g>
<g>
</g>
<g>
</g>
<g>
</g>
<g>
</g>
</svg>
