<?xml version="1.0" encoding="utf-8"?>
<!-- Generator: Adobe Illustrator 24.0.2, SVG Export Plug-In . SVG Version: 6.00 Build 0)  -->
<svg version="1.1" id="Capa_1" xmlns="http://www.w3.org/2000/svg" xmlns:xlink="http://www.w3.org/1999/xlink" x="0px" y="0px"
	 viewBox="0 0 150 150" style="enable-background:new 0 0 150 150;" xml:space="preserve">
<style type="text/css">
	.st0{fill:#F9D149;}
</style>
<path class="st0" d="M117,70.8h-12.6c-0.3-2.4-0.9-4.7-1.8-6.9l10.9-6.3c2-1.2,2.7-3.7,1.5-5.7c-1.2-2-3.7-2.7-5.7-1.5l-10.9,6.3
	c-1.5-1.9-3.1-3.5-5-5l6.3-10.9c1.2-2,0.5-4.6-1.5-5.7c-2-1.2-4.6-0.5-5.7,1.5L86,47.5c-2.2-0.9-4.5-1.5-6.8-1.8V33
	c0-2.3-1.9-4.2-4.2-4.2c-2.3,0-4.2,1.9-4.2,4.2v12.6c-2.4,0.3-4.7,0.9-6.9,1.8l-6.3-10.9c-1.2-2-3.7-2.7-5.7-1.5
	c-2,1.2-2.7,3.7-1.5,5.7l6.3,10.9c-1.9,1.5-3.5,3.1-5,5l-11-6.3c-2-1.2-4.6-0.5-5.7,1.5c-1.2,2-0.5,4.6,1.5,5.7L47.5,64
	c-0.9,2.2-1.5,4.5-1.8,6.8H33c-2.3,0-4.2,1.9-4.2,4.2c0,2.3,1.9,4.2,4.2,4.2h12.7c0.3,2.4,0.9,4.7,1.8,6.8l-10.9,6.3
	c-2,1.2-2.7,3.7-1.5,5.7c0.8,1.3,2.2,2.1,3.6,2.1c0.7,0,1.4-0.2,2.1-0.6l11-6.3c1.5,1.9,3.1,3.5,5,5l-6.3,11c-1.2,2-0.5,4.6,1.5,5.7
	c0.7,0.4,1.4,0.6,2.1,0.6c1.5,0,2.9-0.7,3.6-2.1l6.3-10.9c2.2,0.9,4.5,1.5,6.9,1.8V117c0,2.3,1.9,4.2,4.2,4.2c2.3,0,4.2-1.9,4.2-4.2
	v-12.6c2.4-0.3,4.7-0.9,6.8-1.8l6.3,10.9c0.8,1.3,2.2,2.1,3.6,2.1c0.7,0,1.4-0.2,2.1-0.6c2-1.2,2.7-3.7,1.5-5.7l-6.3-10.9
	c1.9-1.5,3.5-3.1,5-5l11,6.3c0.7,0.4,1.4,0.6,2.1,0.6c1.5,0,2.9-0.8,3.6-2.1c1.2-2,0.5-4.6-1.5-5.7l-10.9-6.3
	c0.9-2.2,1.5-4.5,1.8-6.8H117c2.3,0,4.2-1.9,4.2-4.2C121.2,72.7,119.3,70.8,117,70.8z"/>
<g>
</g>
<g>
</g>
<g>
</g>
<g>
</g>
<g>
</g>
<g>
</g>
</svg>
